<?xml version="1.0" encoding="UTF-8"?>
<svg width="150px" height="150px" viewBox="0 0 150 150" version="1.1" xmlns="http://www.w3.org/2000/svg" xmlns:xlink="http://www.w3.org/1999/xlink">
    <!-- Generator: Sketch 52.2 (67145) - http://www.bohemiancoding.com/sketch -->
    <title>Slice</title>
    <desc>Created with Sketch.</desc>
    <g id="Page-1" stroke="none" stroke-width="1" fill="none" fill-rule="evenodd">
        <g id="BE_Icons" transform="translate(-44.000000, -24.000000)" stroke="#FFFFFF" stroke-width="3">
            <g id="Group" transform="translate(73.000000, 49.000000)">
                <g id="icon-tool">
                    <path d="M49.85,33.76 C49.27,34.7 48.75,35.56 48.23,36.42 C35.94,56.56 23.65,76.71 11.35,96.85 C9.61,99.69 6.75,100.84 4.05,99.81 C0.56,98.49 -0.78,94.5 1.18,91.21 C2.99,88.18 4.84,85.17 6.67,82.15 C16.47,65.97 26.27,49.8 36.07,33.62 C37.34,31.53 38.64,29.46 39.85,27.33 C40.13,26.84 40.24,26.14 40.15,25.58 C39.8,23.51 39.35,21.46 38.89,19.41 C38.8,19.01 38.57,18.5 38.24,18.3 C33.3,15.32 28.42,12.23 23.36,9.48 C17.96,6.53 12.04,4.86 6.07,3.48 C4.79,3.18 5.14,2.51 5.24,1.71 C5.34,0.88 5.58,0.48 6.56,0.63 C11.71,1.41 16.9,1.96 22.01,2.91 C28.46,4.11 34.48,6.63 40.11,9.95 C47.88,14.53 55.56,19.27 63.26,23.95 C66.49,25.91 69.69,27.92 72.93,29.86 C73.63,30.28 73.73,30.61 73.29,31.33 C70.9,35.2 68.55,39.09 66.23,42.99 C65.81,43.7 65.48,43.77 64.77,43.31 C60.15,40.29 55.49,37.32 50.84,34.33 C50.57,34.17 50.3,34.03 49.85,33.76 Z" id="Path"></path>
                    <path d="M72.61,88.4 C72.61,85.39 72.62,82.39 72.6,79.38 C72.59,78.66 72.73,78.3 73.57,78.31 C79.45,78.35 85.32,78.36 91.2,78.34 C92.05,78.34 92.36,78.58 92.35,79.47 C92.31,83.25 92.35,87.03 92.31,90.8 C92.3,91.3 92.07,91.91 91.74,92.29 C90.04,94.2 88.3,96.06 86.52,97.89 C86.2,98.22 85.63,98.47 85.17,98.47 C81.32,98.52 77.47,98.47 73.63,98.52 C72.76,98.53 72.57,98.22 72.58,97.42 C72.62,94.41 72.59,91.41 72.59,88.4 L72.61,88.4 Z" id="Path"></path>
                    <path d="M57.39,77.58 C57.9,79.26 58.4,80.92 58.9,82.59 C60.3,87.28 61.68,91.98 63.11,96.65 C63.34,97.39 63.16,97.67 62.48,97.84 C61.57,98.08 60.62,98.27 59.77,98.66 C57.68,99.62 55.74,99.35 53.65,98.53 C49.69,96.96 45.64,95.6 41.61,94.22 C40.66,93.89 40.38,93.49 40.64,92.47 C41.47,89.15 42.19,85.8 43,82.47 C43.09,82.11 43.47,81.65 43.82,81.55 C48.13,80.22 52.45,78.94 56.77,77.65 C56.93,77.6 57.11,77.61 57.39,77.58 Z" id="Path"></path>
                    <path d="M62.15,60.53 C62.36,60.08 62.48,59.57 62.78,59.19 C63.83,57.88 64.96,56.64 66.01,55.33 C66.48,54.74 66.82,54.78 67.36,55.25 C70.35,57.84 73.36,60.4 76.38,62.94 C76.87,63.36 77.02,63.65 76.54,64.21 C73.96,67.2 71.39,70.2 68.86,73.24 C68.3,73.91 67.93,73.86 67.35,73.34 C66.15,72.27 64.89,71.27 63.7,70.19 C63.39,69.91 63.09,69.47 63.05,69.07 C62.77,66.25 62.55,63.43 62.32,60.6 C62.27,60.58 62.21,60.55 62.15,60.53 Z" id="Path"></path>
                </g>
            </g>
        </g>
    </g>
</svg>