<svg version="1.1" id="图层_1" xmlns="http://www.w3.org/2000/svg" x="0" y="0" width="60" height="60" style="enable-background:new 0 0 60 60" xml:space="preserve"><style>.st0{display:none}.st1{display:inline;stroke-width:.3}.st1,.st2,.st3{fill:#fff;stroke:#fff;stroke-miterlimit: 2;0}.st3{display:inline;fill:none;stroke-width:1.5;stroke-linecap:round;stroke-linejoin:round}.st2{ stroke-width:.5; }</style><path class="st2" d="M45.6 21c1.6 2.7 3.1 5.4 4.6 8.1.8 1.6.5 3.2-.5 4.7-2 3.1-4 6.2-5.9 9.3-.9 1.5-2.1 2.1-3.8 2.1h-3.9v4.5c-.1 0-.1 0-.2.1-.1-.2-.3-.3-.4-.5l-4.8-8.4c-.2-.3-.2-.8-.1-1.1 1.7-3.2 3.4-6.4 5.1-9.5.1-.1.1-.2.3-.4v5.3h5.5c-1.7-2.9-3.3-5.9-5.1-8.9 3.1-1.8 6.1-3.5 9.2-5.3zM35.3 44.3h4.9c1.3 0 2.2-.4 2.9-1.5 1.3-2.1 2.6-4.1 3.9-6.2l.3-.6H35.1v-2.9c-1.3 2.4-2.5 4.5-3.6 6.6-.1.3-.1.7.1 1 .8 1.5 1.7 3.1 2.6 4.6.3.5.5.9.8 1.4.1 0 .1 0 .2-.1.1-.7.1-1.5.1-2.3zm10-22.2-7.8 4.5c1.2 2 2.3 4 3.4 5.9.5.9.9 2.1 1.6 2.6.8.4 2 .1 3.1.1 3 0 5.1-3.3 3.7-6-1.2-2.3-2.6-4.6-4-7.1zM28.7 45.4h-9.5c-.3 0-.6-.1-.9-.3-1.1-.4-2-1.2-2.6-2.2-1.8-3.4-3.6-6.8-5.3-10.2-.7-1.4-.8-2.7.1-4 .7-1.1 1.4-2.3 2.1-3.5-1.3-.8-2.5-1.5-4-2.4.4-.1.6-.1.8-.1h9.5c.4 0 .9.2 1.1.5 2 3.1 3.9 6.2 5.7 9.5-1.5-.9-2.9-1.8-4.5-2.7-.9 1.6-1.8 3.1-2.8 4.8h10.1c.2 3.6.2 7 .2 10.6zm-13.8-5.9c1-1.8 2-3.5 3-5.3 1-1.8 2-3.5 3.1-5.3.8.5 1.6.9 2.4 1.4-.1-.2-.1-.3-.1-.4-1.2-2-2.5-4-3.7-6-.2-.2-.6-.4-.9-.4h-6.2c-.2 0-.4 0-.8.1.8.5 1.5.9 2.1 1.3-.9 1.5-1.8 2.9-2.6 4.4-.3.7-.6 1.8-.3 2.4 1.2 2.7 2.7 5.2 4 7.8zm13-3.7c-.2 0-.3-.1-.4-.1-2.1 0-4.3.2-6.4-.1-2.4-.3-3.7.6-4.7 2.7-1.1 2.4-.1 5.3 2.4 6.1.2.1.4.2.6.2h8.5v-8.8zM28.8 22.8c1.5-.9 3-1.7 4.5-2.6-.9-1.6-1.9-3.2-2.8-4.8-1.7 3.1-3.3 6-5 9l-9.3-5.1c.5-1 1.1-1.9 1.6-2.8l2.7-4.8c1-1.7 2.5-2.6 4.5-2.5 3.7.1 7.4.2 11 .2 1.8 0 3.1.6 3.9 2.3.6 1.1 1.3 2.2 1.9 3.3 1.3-.8 2.6-1.5 3.8-2.2.1 0 .1.1.2.1l-.6 1.2c-1.4 2.6-2.9 5.2-4.3 7.7-.2.3-.5.6-.8.6-3.5.2-7.1.4-10.6.6H29c-.2-.1-.2-.2-.2-.2zm-.6-12.7c2.1 3.4 4.2 6.9 6.3 10.3-.9.5-1.6 1-2.4 1.4 2.5 0 5-.1 7.5-.2.2 0 .5-.3.7-.5.8-1.3 1.5-2.6 2.2-3.9.4-.7.8-1.4 1.3-2.4-.9.5-1.6.9-2.3 1.3-.9-1.4-1.7-2.8-2.5-4.2-.6-1-1.4-1.6-2.6-1.7-2.8-.1-5.5-.1-8.2-.1zm-11 8.8c2.7 1.5 5.2 2.9 7.9 4.3 1.1-2 2.2-4 3.3-5.9.5-1 1.4-2 1.4-2.9-.1-1-1.1-1.9-1.6-2.8-1.2-2.1-5.3-2.6-6.9.1-1.4 2.4-2.7 4.7-4.1 7.2z"/></svg>