<svg version="1.1" id="图层_1" xmlns="http://www.w3.org/2000/svg" x="0" y="0" width="60" height="60" style="enable-background:new 0 0 60 60" xml:space="preserve"><style>.st0{display:none}.st1{display:inline;fill:#fff;stroke-width:.3}.st1,.st2,.st3{stroke:#fff;stroke-miterlimit:10}.st2{display:inline;fill:#fff;stroke-width:.5}.st3{fill:none;stroke-width: 1.5px;stroke-linecap:round;stroke-linejoin:round}</style><path class="st3" d="M30.3 16.1c-2.8-2.7-6.2-3.7-10-3.5-4.6.2-9.9 5.1-10.7 9.7-.8 4.5.4 8.3 3.5 11.5.1.1.5.2.5.3.1 2.1 1.5 2.8 3.4 2.8l3.2-3.2c-.2-.5-.3-1.2-.6-1.7-.8-1.4-2.3-1.6-3.6-.7-1 .7-1.5 1.7-2.4 2.4M50.3 19c0 1.3.8 2.4 1.1 3.6 1.2 4.5-1.4 9.9-4.4 12-.7.5-.9 1.3-1.5 1.8-1.4 1.3-2.3 1.4-3.6.1-2.2-2.2-4.4-4.5-6.6-6.7"/><path class="st3" d="M45.1 14c-5.2-2.5-10.1-1.7-14.4 1.9-2.2 1.9-4.2 4.2-6.2 6.3-1.1 1.2-.9 2.7.2 3.8 1.2 1.2 2.9 1.3 3.9 0 1.6-2.1 3.6-2.7 6.1-2.4 1.6.2 2.7-.9 3.8-1.9.7-.6 1.1-1.6 2.2-1.4M36.3 23.8c2.1 2.9 4.9 5 7.2 7.6 1 1 2 2 2.7 3.3M31.8 33.3c2.4 2.7 4.9 5.3 7.6 8.2 0 1.4-1.1 2.6-3.5 2.6-1.7-1.7-3.5-3.6-5.4-5.4M23.6 44c.2.7.2 1.4.7 2.1.8 1 2.1 1.4 3.1.7.9-.7 2.1-1.2 2.4-2.4.7-2.1-.2-3.1-2.9-3.6-1.1.9-2.2 1.9-3.1 3.1M36.1 44.3c-.6.7-.1 1.8-1 2.4-1 .7-1.9 1-2.9.1-.8-.7-1.5-1.4-2.2-2.1M20.3 33.8c1 .4 2.2.5 2.7 1.6.4.9.7 1.9-.3 2.7l-1.2 1.2c-.8.6-1.5 1.2-1 2.4s1.2 2 2.6 1.9c.2 0 .3.1.5.2"/><path class="st3" d="M17 37.3c.5 2.7.3 2.6 3.3 3.1M23.6 37.3c2.2 0 2.9 1.5 3.3 3.3M42.9 37.6c-.4 2-.4 2.7-3.1 3.1"/></svg>