<svg xmlns="http://www.w3.org/2000/svg" width="71.055" height="35.438" viewBox="0 0 71.055 35.438"><g transform="translate(-860.75 -240.537)"><path d="M11.73,23.46a11.821,11.821,0,0,1-2.364-.238,11.667,11.667,0,0,1-4.195-1.765A11.762,11.762,0,0,1,.922,16.3a11.656,11.656,0,0,1-.684-2.2,11.835,11.835,0,0,1,0-4.728A11.669,11.669,0,0,1,2,5.172,11.766,11.766,0,0,1,7.164.922a11.662,11.662,0,0,1,2.2-.683A11.808,11.808,0,0,1,11.73,0c.3,0,.613.012.918.035V3.416a8.364,8.364,0,1,0-.918,16.678,8.465,8.465,0,0,0,.918-.05v3.38C12.343,23.448,12.034,23.46,11.73,23.46Z" transform="translate(861.75 246.779)" fill="none" stroke="#3e9f8e" stroke-width="2"/><path d="M11.73,0A11.821,11.821,0,0,0,9.366.238,11.668,11.668,0,0,0,5.172,2,11.76,11.76,0,0,0,.922,7.164a11.646,11.646,0,0,0-.684,2.2,11.837,11.837,0,0,0,0,4.728A11.672,11.672,0,0,0,2,18.288a11.765,11.765,0,0,0,5.161,4.25,11.675,11.675,0,0,0,2.2.683,11.812,11.812,0,0,0,2.364.238c.3,0,.613-.012.918-.035V20.044a8.469,8.469,0,0,1-.918.05,8.364,8.364,0,1,1,0-16.728,8.486,8.486,0,0,1,.918.05V.035C12.343.012,12.034,0,11.73,0Z" transform="translate(930.805 270.24) rotate(180)" fill="none" stroke="#3e9f8e" stroke-width="2"/><path d="M-17166-14587.548s11.346-5.648,22.234-5.648,21.316,5.648,21.316,5.648v22.656s-10.43,5.133-21.316,5.133-22.234-5.133-22.234-5.133Z" transform="translate(18040.584 14834.733)" fill="none" stroke="#3e9f8e" stroke-width="2"/><path d="M-17166-14429.471h43.412" transform="translate(18040.584 14687.678)" fill="none" stroke="#3e9f8e" stroke-width="2"/><path d="M0,5A87.9,87.9,0,0,1,33.271,3.008" transform="translate(874.5 247.5)" fill="none" stroke="#3e9f8e" stroke-width="2"/><path d="M13.133.437a55.721,55.721,0,0,1,6.924,1.215" transform="translate(897.57 250.5)" fill="none" stroke="#3e9f8e" stroke-width="2"/><g transform="translate(874.5 263.73)"><path d="M33.271,2.231A87.888,87.888,0,0,1,0,4.223" transform="translate(9.855 -2.231)" fill="none" stroke="#3e9f8e" stroke-width="2"/><path d="M20.057,1.652A55.715,55.715,0,0,1,13.133.437" transform="translate(-13.133 -0.088)" fill="none" stroke="#3e9f8e" stroke-width="2"/></g></g></svg>