<svg xmlns="http://www.w3.org/2000/svg" width="42.412" height="43.382" viewBox="0 0 42.412 43.382"><g transform="translate(-449.022 -1488.19)"><g transform="translate(450.133 1489.236)"><g transform="translate(0)"><path d="M5.53,8.736s.17,3.59-1.664,5.923A5,5,0,0,1-.367,16.625" transform="translate(0.367 -8.736)" fill="rgba(0,0,0,0)" stroke="#3e9f8e" stroke-linecap="round" stroke-linejoin="round" stroke-width="2"/><path d="M-.363,8.736s-.17,3.59,1.664,5.923a5,5,0,0,0,4.233,1.966" transform="translate(6.271 -8.736)" fill="rgba(0,0,0,0)" stroke="#3e9f8e" stroke-linecap="round" stroke-linejoin="round" stroke-width="2"/><path d="M5.53,16.637s.17-3.59-1.664-5.923A5,5,0,0,0-.367,8.748" transform="translate(0.367 -0.843)" fill="rgba(0,0,0,0)" stroke="#3e9f8e" stroke-linecap="round" stroke-linejoin="round" stroke-width="2"/><path d="M-.363,16.637s-.17-3.59,1.664-5.923A5,5,0,0,1,5.534,8.748" transform="translate(6.271 -0.843)" fill="rgba(0,0,0,0)" stroke="#3e9f8e" stroke-linecap="round" stroke-linejoin="round" stroke-width="2"/></g><g transform="translate(14.143 2.308)"><path d="M12.645,8.736s.376,7.923-3.672,13.07a11.043,11.043,0,0,1-9.34,4.337" transform="translate(0.367 -8.736)" fill="rgba(0,0,0,0)" stroke="#3e9f8e" stroke-linecap="round" stroke-linejoin="round" stroke-width="2"/><path d="M-.358,8.736s-.376,7.923,3.672,13.07a11.043,11.043,0,0,0,9.34,4.337" transform="translate(13.394 -8.736)" fill="rgba(0,0,0,0)" stroke="#3e9f8e" stroke-linecap="round" stroke-linejoin="round" stroke-width="2"/><path d="M12.645,26.17s.376-7.923-3.672-13.07A11.043,11.043,0,0,0-.367,8.763" transform="translate(0.367 8.682)" fill="rgba(0,0,0,0)" stroke="#3e9f8e" stroke-linecap="round" stroke-linejoin="round" stroke-width="2"/><path d="M-.358,26.17S-.734,18.247,3.314,13.1a11.043,11.043,0,0,1,9.34-4.337" transform="translate(13.394 8.682)" fill="rgba(0,0,0,0)" stroke="#3e9f8e" stroke-linecap="round" stroke-linejoin="round" stroke-width="2"/></g><g transform="translate(10.421 28.808)"><g transform="translate(0 0)"><path d="M4.293,8.736a8.011,8.011,0,0,1-1.315,4.681A3.955,3.955,0,0,1-.367,14.97" transform="translate(0.367 -8.736)" fill="rgba(0,0,0,0)" stroke="#3e9f8e" stroke-linecap="round" stroke-linejoin="round" stroke-width="2"/><path d="M-.364,8.736A8.011,8.011,0,0,0,.951,13.417,3.955,3.955,0,0,0,4.3,14.97" transform="translate(5.032 -8.736)" fill="rgba(0,0,0,0)" stroke="#3e9f8e" stroke-linecap="round" stroke-linejoin="round" stroke-width="2"/><path d="M4.293,14.98A8.011,8.011,0,0,0,2.978,10.3,3.955,3.955,0,0,0-.367,8.746" transform="translate(0.367 -2.498)" fill="rgba(0,0,0,0)" stroke="#3e9f8e" stroke-linecap="round" stroke-linejoin="round" stroke-width="2"/><path d="M-.364,14.98A8.011,8.011,0,0,1,.951,10.3,3.955,3.955,0,0,1,4.3,8.746" transform="translate(5.032 -2.498)" fill="rgba(0,0,0,0)" stroke="#3e9f8e" stroke-linecap="round" stroke-linejoin="round" stroke-width="2"/></g></g></g></g></svg>