<svg xmlns="http://www.w3.org/2000/svg" width="43.037" height="39.748" viewBox="0 0 43.037 39.748"><g transform="translate(-897.877 -237)"><g transform="translate(904 237)" fill="none" stroke="#3e9f8e" stroke-width="2"><circle cx="7" cy="7" r="7" stroke="none"/><circle cx="7" cy="7" r="6" fill="none"/></g><path d="M-20262.187-15440.456c-4.633-.039-7.254,2.384-9.168,5.173-2.523,3.685-5.445,13.5,0,14.159a80.376,80.376,0,0,0,17.789,0c5.355-.658,2.879-10.071,0-14.159C-20255.27-15437.7-20258.016-15440.423-20262.187-15440.456Z" transform="translate(21173.316 15693.325)" fill="none" stroke="#3e9f8e" stroke-width="2"/><g transform="translate(921 240)" fill="none" stroke="#3e9f8e" stroke-width="2"><circle cx="7" cy="7" r="7" stroke="none"/><circle cx="7" cy="7" r="6" fill="none"/></g><path d="M-20262.187-15440.456c-4.633-.039-7.254,2.384-9.168,5.173-2.523,3.685-5.445,13.5,0,14.159a80.376,80.376,0,0,0,17.789,0c5.355-.658,2.879-10.071,0-14.159C-20255.27-15437.7-20258.016-15440.423-20262.187-15440.456Z" transform="translate(21190.316 15696.325)" fill="none" stroke="#3e9f8e" stroke-width="2"/></g></svg>