<svg width="33" height="33" viewBox="0 0 33 33" fill="none" xmlns="http://www.w3.org/2000/svg">
<g clip-path="url(#clip0_112_216)">
<path d="M33 16.8291C32.6587 18.5745 31.4178 19.5711 29.996 20.3959C28.1372 21.4738 26.0996 22.0631 24.0136 22.5012C23.6466 22.5784 23.2724 22.6257 22.9085 22.7131C22.8077 22.7368 22.6679 22.8396 22.6504 22.9281C22.4448 23.9247 22.2608 24.9254 22.0613 25.9693C22.4695 25.7708 22.8642 25.5754 23.2621 25.3861C23.4554 25.2946 23.6466 25.1918 23.8502 25.1311C24.1555 25.0385 24.4711 25.199 24.5976 25.4787C24.7261 25.7636 24.6366 26.0907 24.3735 26.2758C24.2861 26.3365 24.1894 26.3858 24.0928 26.4311C23.1891 26.8538 22.2854 27.2765 21.3807 27.6961C20.8081 27.9615 20.5932 27.8956 20.2612 27.3639C19.7903 26.608 19.3195 25.851 18.8486 25.0951C18.6882 24.8369 18.6522 24.5716 18.8311 24.3093C18.9853 24.083 19.228 23.9689 19.4747 24.0563C19.669 24.1252 19.8602 24.2846 19.9836 24.4533C20.2478 24.8143 20.4668 25.2082 20.7536 25.669C20.9654 24.7115 21.1576 23.8393 21.3468 22.9846C19.6998 23.0587 18.094 23.1862 16.4882 23.1862C14.8926 23.1862 13.296 23.0587 11.6573 22.9846C11.7642 23.5102 11.8618 24.0645 11.9914 24.6117C12.416 26.4033 12.9701 28.1487 13.955 29.7253C14.3323 30.3301 14.7692 30.8855 15.3634 31.2979C16.1191 31.8224 16.958 31.8132 17.6961 31.2701C17.7743 31.2125 17.8493 31.1518 17.9326 31.1035C18.242 30.9245 18.6029 30.9832 18.8044 31.2413C19.0193 31.5169 18.9925 31.8893 18.7098 32.1392C18.2174 32.5742 17.6416 32.8478 16.9899 32.9558C15.715 33.1666 14.7322 32.6092 13.8871 31.7432C12.7614 30.5903 12.086 29.1669 11.5318 27.6786C10.9643 26.1554 10.5942 24.5798 10.33 22.9785C10.2951 22.7645 10.2077 22.7028 10.0113 22.6689C8.13406 22.3521 6.29381 21.8985 4.5389 21.1457C3.22811 20.5831 1.97695 19.9166 1.0157 18.8316C-0.41126 17.222 -0.322846 15.4211 1.22337 13.9144C2.37892 12.7882 3.78943 12.0991 5.27705 11.5417C6.8099 10.9678 8.39724 10.6037 10.0093 10.3414C10.2087 10.3085 10.2899 10.2427 10.3259 10.0308C10.6919 7.86484 11.2306 5.74822 12.197 3.76324C12.7121 2.70493 13.3402 1.72478 14.2367 0.935932C14.7826 0.455629 15.4179 0.173823 16.1119 0.0010376C16.3483 0.0010376 16.5848 0.0010376 16.8212 0.0010376C17.5851 0.150168 18.2554 0.480312 18.8342 1.0069C19.6741 1.77106 20.2735 2.70493 20.768 3.71182C21.6645 5.53429 22.2001 7.47299 22.5589 9.46311C22.7049 10.2705 22.6926 10.2725 23.4945 10.4237C23.5469 10.434 23.6003 10.4381 23.6538 10.4484C25.8611 10.8793 28.019 11.4687 29.9857 12.5969C31.4013 13.4094 32.6237 14.4091 33.001 16.1205C33 16.356 33 16.5926 33 16.8291ZM21.3036 10.0802C21.3108 10.0267 21.3232 9.99587 21.3191 9.96707C20.9736 8.04997 20.4976 6.1699 19.6495 4.40502C19.1673 3.40327 18.6111 2.44781 17.6951 1.76489C16.9004 1.17248 16.0913 1.1766 15.2915 1.76592C14.5646 2.30176 14.0712 3.0289 13.6466 3.80644C12.7059 5.52915 12.1785 7.3938 11.794 9.30473C11.7446 9.55053 11.7076 9.7984 11.6603 10.0689C11.8433 10.0586 11.9811 10.0452 12.1189 10.0432C12.5229 10.037 12.8046 10.2705 12.8334 10.6294C12.8622 10.9966 12.636 11.2753 12.2412 11.3442C12.051 11.3771 11.8588 11.4018 11.6655 11.4121C11.4948 11.4214 11.4218 11.4903 11.4064 11.6651C11.3478 12.3604 11.2635 13.0536 11.2142 13.7498C11.0353 16.2645 11.1042 18.774 11.4002 21.2784C11.4259 21.4923 11.4989 21.5694 11.7076 21.5941C14.9008 21.9716 18.094 21.9705 21.2872 21.5931C21.501 21.5674 21.5761 21.482 21.5915 21.2722C21.6285 20.7364 21.6933 20.2036 21.7385 19.6688C21.9626 17.004 21.8907 14.3453 21.5812 11.6908C21.5596 11.5098 21.4907 11.4296 21.3036 11.4152C20.9397 11.3874 20.5788 11.3278 20.2149 11.2969C19.6988 11.2547 19.1817 11.227 18.5967 11.1879C19.0419 11.7361 19.4377 12.2153 19.8232 12.7018C20.107 13.0608 20.0556 13.4968 19.7173 13.7159C19.4202 13.9082 19.0635 13.8321 18.7818 13.4938C18.1084 12.6843 17.4381 11.8718 16.774 11.0552C16.4727 10.685 16.4974 10.3425 16.8367 9.99278C17.2253 9.59167 17.6211 9.19673 18.0148 8.80077C18.3027 8.51073 18.5782 8.20836 18.8825 7.93684C19.2475 7.61184 19.7482 7.70851 19.9322 8.12608C20.0658 8.42846 19.9723 8.6938 19.7461 8.91596C19.4428 9.21422 19.1334 9.50734 18.7612 9.86628C19.6824 9.94444 20.4904 10.0123 21.3036 10.0802ZM10.0966 21.374C9.71009 18.1014 9.71934 14.8925 10.0884 11.6538C8.20602 12.0127 6.40382 12.4365 4.69825 13.1965C3.72261 13.6316 2.79221 14.1355 2.04274 14.9203C1.09589 15.9117 1.06505 17.0122 2.0119 18.0006C2.38715 18.3914 2.82305 18.7401 3.27951 19.0342C4.69311 19.9444 6.26811 20.4761 7.88629 20.8834C8.59772 21.0634 9.32045 21.2033 10.0966 21.374ZM22.8889 21.3493C23.1778 21.2979 23.4194 21.2588 23.6589 21.2105C25.5794 20.8227 27.4535 20.2962 29.1848 19.3489C29.9805 18.9139 30.7259 18.4099 31.2656 17.6571C31.8156 16.8908 31.8321 16.0794 31.2502 15.3399C30.949 14.9573 30.5881 14.6025 30.1964 14.3114C28.752 13.2366 27.0783 12.6596 25.3625 12.1979C24.5698 11.9839 23.7617 11.8266 22.9013 11.6301C23.2816 14.8966 23.2796 18.0973 22.8889 21.3493Z" fill="black"/>
</g>
<defs>
<clipPath id="clip0_112_216">
<rect width="33" height="33" fill="white"/>
</clipPath>
</defs>
</svg>
