<svg width="38" height="29" viewBox="0 0 38 29" fill="none" xmlns="http://www.w3.org/2000/svg">
<g clip-path="url(#clip0_754_2229)">
<path d="M1.99941 13.6379C2.082 13.0595 2.13706 12.4738 2.25269 11.9027C3.23278 7.05803 5.93445 3.45241 10.4513 1.42699C15.8418 -0.988912 21.0084 -0.321069 25.6922 3.29184C28.2874 5.29354 29.9246 7.9722 30.7083 11.1527C30.7285 11.2348 30.7542 11.3151 30.7891 11.441C30.879 11.3242 30.9487 11.2385 31.0093 11.149C31.6774 10.1783 32.34 9.2057 33.0099 8.23861C33.2852 7.84082 33.6761 7.65835 34.1533 7.75871C34.5993 7.85177 34.9315 8.13277 34.9866 8.58713C35.0196 8.86266 34.9755 9.20935 34.825 9.43196C33.5458 11.3443 32.2427 13.2402 30.9285 15.1305C30.5193 15.7199 29.9044 15.7874 29.2602 15.3532C27.9534 14.4718 26.6503 13.5832 25.3453 12.6982C24.7856 12.3187 24.2239 11.9428 23.6678 11.5596C23.075 11.1509 22.9227 10.5122 23.2861 9.97937C23.6458 9.45203 24.312 9.35715 24.9067 9.75858C26.0538 10.5323 27.1972 11.3114 28.3425 12.0869C28.4398 12.1526 28.5371 12.2147 28.7169 12.2457C28.5407 11.6308 28.4012 11.0031 28.181 10.4046C26.9366 7.03795 24.6387 4.63665 21.3387 3.2152C19.1161 2.25723 16.7742 2.00177 14.3918 2.45248C10.2384 3.23892 7.177 5.5271 5.37833 9.33343C3.65675 12.9738 3.75403 16.6651 5.60959 20.2306C7.35686 23.588 10.1668 25.6919 13.8816 26.5203C16.9614 27.2064 19.8998 26.7503 22.6584 25.2084C23.6201 24.6719 24.4846 24.0077 25.2774 23.2468C25.6482 22.891 26.1419 22.8235 26.5567 23.0315C26.9623 23.2359 27.2321 23.6665 27.1403 24.1117C27.0889 24.3672 26.9531 24.6482 26.7678 24.8288C24.3708 27.1718 21.4984 28.5549 18.1525 28.9089C14.1734 29.3286 10.5779 28.3177 7.45047 25.8324C4.54507 23.5242 2.7978 20.5079 2.18295 16.8549C2.10403 16.3841 2.05447 15.9079 1.99023 15.4353C1.99941 14.8368 1.99941 14.2364 1.99941 13.6379Z" fill="black"/>
</g>
<defs>
<clipPath id="clip0_754_2229">
<rect width="38" height="29" fill="white"/>
</clipPath>
</defs>
</svg>
