<?xml version="1.0" encoding="UTF-8" standalone="no"?><!-- Generator: Gravit.io --><svg xmlns="http://www.w3.org/2000/svg" xmlns:xlink="http://www.w3.org/1999/xlink" style="isolation:isolate" viewBox="0 0 40 40" width="40pt" height="40pt"><defs><clipPath id="_clipPath_8ojLsqgY4OnpYxNtXGjZIrd8QucJdts6"><rect width="40" height="40"/></clipPath></defs><g clip-path="url(#_clipPath_8ojLsqgY4OnpYxNtXGjZIrd8QucJdts6)"><clipPath id="_clipPath_RFwUDj3kZzvxzxwaZHzuvzn17Vdffl7z"><rect x="5" y="5" width="30" height="30" transform="matrix(1,0,0,1,0,0)" fill="rgb(255,255,255)"/></clipPath><g clip-path="url(#_clipPath_RFwUDj3kZzvxzxwaZHzuvzn17Vdffl7z)"><g><g><rect x="5" y="5" width="30" height="30" transform="matrix(1,0,0,1,0,0)" fill="none" vector-effect="non-scaling-stroke" stroke-width="0.176" stroke="rgb(254,254,254)" stroke-opacity="100" stroke-linejoin="miter" stroke-linecap="butt" stroke-miterlimit="2"/><g><circle vector-effect="non-scaling-stroke" cx="20.000000000000007" cy="20.000000000000014" r="14.250000000000007" fill="rgb(254,254,254)" stroke-width="0.176" stroke="rgb(43,42,41)" stroke-opacity="100" stroke-linejoin="miter" stroke-linecap="butt" stroke-miterlimit="4"/><path d=" M 20 12.02 L 24.133 9.829 L 20 5.821 L 15.868 9.829 L 20 12.02 Z " fill-rule="evenodd" fill="none"/><clipPath id="_clipPath_vcnIxgJRUAl0FQOB78yjRNSqqiVV5gqK"><path d=" M -55 -55 L 65 -55 L 65 65 L -55 65 L -55 -55 Z  M 20 12.02 L 24.133 9.829 L 20 5.821 L 15.868 9.829 L 20 12.02 L 20 12.02 Z " fill-rule="evenodd" fill="rgb(255,255,255)"/></clipPath><g clip-path="url(#_clipPath_vcnIxgJRUAl0FQOB78yjRNSqqiVV5gqK)"><mask id="_mask_jxytRZKGhq4ATCCQgGSxwBV8VljabuJY" x="-200%" y="-200%" width="400%" height="400%"><rect x="-200%" y="-200%" width="400%" height="400%" style="fill:white;"/><path d=" M 20 12.02 L 24.133 9.829 L 20 5.821 L 15.868 9.829 L 20 12.02 Z " fill-rule="evenodd" fill="black" stroke="none"/></mask><path d=" M 20 12.02 L 24.133 9.829 L 20 5.821 L 15.868 9.829 L 20 12.02 Z " fill-rule="evenodd" fill="none"/><path d=" M 20 12.02 L 24.133 9.829 L 20 5.821 L 15.868 9.829 L 20 12.02 Z " fill-rule="evenodd" fill="none" mask="url(#_mask_jxytRZKGhq4ATCCQgGSxwBV8VljabuJY)" vector-effect="non-scaling-stroke" stroke-width="0.353" stroke="rgb(137,137,137)" stroke-opacity="100" stroke-linejoin="miter" stroke-linecap="butt" stroke-miterlimit="4"/></g><path d=" M 25.647 14.353 L 30.118 15.725 L 30.046 9.954 L 24.275 9.883 L 25.647 14.353 Z " fill-rule="evenodd" fill="none"/><clipPath id="_clipPath_DSR4xcjfj8dPaPzHbZNpsS5Vu8ddWYYj"><path d=" M -55 -55 L 65 -55 L 65 65 L -55 65 L -55 -55 Z  M 25.647 14.353 L 30.118 15.725 L 30.046 9.954 L 24.275 9.883 L 25.647 14.353 L 25.647 14.353 Z " fill-rule="evenodd" fill="rgb(255,255,255)"/></clipPath><g clip-path="url(#_clipPath_DSR4xcjfj8dPaPzHbZNpsS5Vu8ddWYYj)"><mask id="_mask_lNVVaFnx2loGKzqsberByfWiIkBuGHce" x="-200%" y="-200%" width="400%" height="400%"><rect x="-200%" y="-200%" width="400%" height="400%" style="fill:white;"/><path d=" M 25.647 14.353 L 30.118 15.725 L 30.046 9.954 L 24.275 9.883 L 25.647 14.353 Z " fill-rule="evenodd" fill="black" stroke="none"/></mask><path d=" M 25.647 14.353 L 30.118 15.725 L 30.046 9.954 L 24.275 9.883 L 25.647 14.353 Z " fill-rule="evenodd" fill="none"/><path d=" M 25.647 14.353 L 30.118 15.725 L 30.046 9.954 L 24.275 9.883 L 25.647 14.353 Z " fill-rule="evenodd" fill="none" mask="url(#_mask_lNVVaFnx2loGKzqsberByfWiIkBuGHce)" vector-effect="non-scaling-stroke" stroke-width="0.353" stroke="rgb(137,137,137)" stroke-opacity="100" stroke-linejoin="miter" stroke-linecap="butt" stroke-miterlimit="4"/></g><path d=" M 27.98 20 L 30.171 24.133 L 34.197 20 L 30.171 15.868 L 27.98 20 Z " fill-rule="evenodd" fill="none"/><clipPath id="_clipPath_XvH1PU1M1Uoo3w48BgTeDeDyOcb7dNl2"><path d=" M -55 -55 L 65 -55 L 65 65 L -55 65 L -55 -55 Z  M 27.98 20 L 30.171 24.133 L 34.197 20 L 30.171 15.868 L 27.98 20 L 27.98 20 Z " fill-rule="evenodd" fill="rgb(255,255,255)"/></clipPath><g clip-path="url(#_clipPath_XvH1PU1M1Uoo3w48BgTeDeDyOcb7dNl2)"><mask id="_mask_Oi6rq86ZRQJL5C8ijSj77I8AQBIb5AJA" x="-200%" y="-200%" width="400%" height="400%"><rect x="-200%" y="-200%" width="400%" height="400%" style="fill:white;"/><path d=" M 27.98 20 L 30.171 24.133 L 34.197 20 L 30.171 15.868 L 27.98 20 Z " fill-rule="evenodd" fill="black" stroke="none"/></mask><path d=" M 27.98 20 L 30.171 24.133 L 34.197 20 L 30.171 15.868 L 27.98 20 Z " fill-rule="evenodd" fill="none"/><path d=" M 27.98 20 L 30.171 24.133 L 34.197 20 L 30.171 15.868 L 27.98 20 Z " fill-rule="evenodd" fill="none" mask="url(#_mask_Oi6rq86ZRQJL5C8ijSj77I8AQBIb5AJA)" vector-effect="non-scaling-stroke" stroke-width="0.353" stroke="rgb(137,137,137)" stroke-opacity="100" stroke-linejoin="miter" stroke-linecap="butt" stroke-miterlimit="4"/></g><path d=" M 25.647 25.647 L 24.275 30.118 L 30.046 30.046 L 30.118 24.275 L 25.647 25.647 Z " fill-rule="evenodd" fill="none"/><clipPath id="_clipPath_KA4fm67D6XvvwLgA8BtcXn7wslvAQ9w8"><path d=" M -55 -55 L 65 -55 L 65 65 L -55 65 L -55 -55 Z  M 25.647 25.647 L 24.275 30.118 L 30.046 30.046 L 30.118 24.275 L 25.647 25.647 L 25.647 25.647 Z " fill-rule="evenodd" fill="rgb(255,255,255)"/></clipPath><g clip-path="url(#_clipPath_KA4fm67D6XvvwLgA8BtcXn7wslvAQ9w8)"><mask id="_mask_gA82g6ABdsW35ErvGDNozyVo6xQVVQ88" x="-200%" y="-200%" width="400%" height="400%"><rect x="-200%" y="-200%" width="400%" height="400%" style="fill:white;"/><path d=" M 25.647 25.647 L 24.275 30.118 L 30.046 30.046 L 30.118 24.275 L 25.647 25.647 Z " fill-rule="evenodd" fill="black" stroke="none"/></mask><path d=" M 25.647 25.647 L 24.275 30.118 L 30.046 30.046 L 30.118 24.275 L 25.647 25.647 Z " fill-rule="evenodd" fill="none"/><path d=" M 25.647 25.647 L 24.275 30.118 L 30.046 30.046 L 30.118 24.275 L 25.647 25.647 Z " fill-rule="evenodd" fill="none" mask="url(#_mask_gA82g6ABdsW35ErvGDNozyVo6xQVVQ88)" vector-effect="non-scaling-stroke" stroke-width="0.353" stroke="rgb(137,137,137)" stroke-opacity="100" stroke-linejoin="miter" stroke-linecap="butt" stroke-miterlimit="4"/></g><path d=" M 20 27.98 L 15.868 30.171 L 20 34.197 L 24.133 30.171 L 20 27.98 Z " fill-rule="evenodd" fill="none"/><clipPath id="_clipPath_8o9c6m3z6BApL2VgmfgLakb4exhChxM3"><path d=" M -55 -55 L 65 -55 L 65 65 L -55 65 L -55 -55 Z  M 20 27.98 L 15.868 30.171 L 20 34.197 L 24.133 30.171 L 20 27.98 L 20 27.98 Z " fill-rule="evenodd" fill="rgb(255,255,255)"/></clipPath><g clip-path="url(#_clipPath_8o9c6m3z6BApL2VgmfgLakb4exhChxM3)"><mask id="_mask_8ITgjGM6rAGUq31epdPhXm2XrMBisnMk" x="-200%" y="-200%" width="400%" height="400%"><rect x="-200%" y="-200%" width="400%" height="400%" style="fill:white;"/><path d=" M 20 27.98 L 15.868 30.171 L 20 34.197 L 24.133 30.171 L 20 27.98 Z " fill-rule="evenodd" fill="black" stroke="none"/></mask><path d=" M 20 27.98 L 15.868 30.171 L 20 34.197 L 24.133 30.171 L 20 27.98 Z " fill-rule="evenodd" fill="none"/><path d=" M 20 27.98 L 15.868 30.171 L 20 34.197 L 24.133 30.171 L 20 27.98 Z " fill-rule="evenodd" fill="none" mask="url(#_mask_8ITgjGM6rAGUq31epdPhXm2XrMBisnMk)" vector-effect="non-scaling-stroke" stroke-width="0.353" stroke="rgb(137,137,137)" stroke-opacity="100" stroke-linejoin="miter" stroke-linecap="butt" stroke-miterlimit="4"/></g><path d=" M 14.353 25.647 L 9.883 24.275 L 9.954 30.046 L 15.725 30.118 L 14.353 25.647 Z " fill-rule="evenodd" fill="none"/><clipPath id="_clipPath_DGnqBpfCbnTvX8AyCMeSAclZXqeOjCXu"><path d=" M -55 -55 L 65 -55 L 65 65 L -55 65 L -55 -55 Z  M 14.353 25.647 L 9.883 24.275 L 9.954 30.046 L 15.725 30.118 L 14.353 25.647 L 14.353 25.647 Z " fill-rule="evenodd" fill="rgb(255,255,255)"/></clipPath><g clip-path="url(#_clipPath_DGnqBpfCbnTvX8AyCMeSAclZXqeOjCXu)"><mask id="_mask_6nnzFZcf5rsysUXG0l98yWlNbugMXwPV" x="-200%" y="-200%" width="400%" height="400%"><rect x="-200%" y="-200%" width="400%" height="400%" style="fill:white;"/><path d=" M 14.353 25.647 L 9.883 24.275 L 9.954 30.046 L 15.725 30.118 L 14.353 25.647 Z " fill-rule="evenodd" fill="black" stroke="none"/></mask><path d=" M 14.353 25.647 L 9.883 24.275 L 9.954 30.046 L 15.725 30.118 L 14.353 25.647 Z " fill-rule="evenodd" fill="none"/><path d=" M 14.353 25.647 L 9.883 24.275 L 9.954 30.046 L 15.725 30.118 L 14.353 25.647 Z " fill-rule="evenodd" fill="none" mask="url(#_mask_6nnzFZcf5rsysUXG0l98yWlNbugMXwPV)" vector-effect="non-scaling-stroke" stroke-width="0.353" stroke="rgb(137,137,137)" stroke-opacity="100" stroke-linejoin="miter" stroke-linecap="butt" stroke-miterlimit="4"/></g><path d=" M 12.02 20 L 9.829 15.868 L 5.803 20 L 9.829 24.133 L 12.02 20 Z " fill-rule="evenodd" fill="none"/><clipPath id="_clipPath_Q8PYKxUvO8WTsN1j3zqtX1AHQZkidtrQ"><path d=" M -55 -55 L 65 -55 L 65 65 L -55 65 L -55 -55 Z  M 12.02 20 L 9.829 15.868 L 5.803 20 L 9.829 24.133 L 12.02 20 L 12.02 20 Z " fill-rule="evenodd" fill="rgb(255,255,255)"/></clipPath><g clip-path="url(#_clipPath_Q8PYKxUvO8WTsN1j3zqtX1AHQZkidtrQ)"><mask id="_mask_dlbL1VfOoqgYiMYcsxaMJ8MPPIUC3lbx" x="-200%" y="-200%" width="400%" height="400%"><rect x="-200%" y="-200%" width="400%" height="400%" style="fill:white;"/><path d=" M 12.02 20 L 9.829 15.868 L 5.803 20 L 9.829 24.133 L 12.02 20 Z " fill-rule="evenodd" fill="black" stroke="none"/></mask><path d=" M 12.02 20 L 9.829 15.868 L 5.803 20 L 9.829 24.133 L 12.02 20 Z " fill-rule="evenodd" fill="none"/><path d=" M 12.02 20 L 9.829 15.868 L 5.803 20 L 9.829 24.133 L 12.02 20 Z " fill-rule="evenodd" fill="none" mask="url(#_mask_dlbL1VfOoqgYiMYcsxaMJ8MPPIUC3lbx)" vector-effect="non-scaling-stroke" stroke-width="0.353" stroke="rgb(137,137,137)" stroke-opacity="100" stroke-linejoin="miter" stroke-linecap="butt" stroke-miterlimit="4"/></g><path d=" M 14.353 14.353 L 15.725 9.883 L 9.954 9.954 L 9.883 15.725 L 14.353 14.353 Z " fill-rule="evenodd" fill="none"/><clipPath id="_clipPath_ur0UZ1ACtQtF9T6Yr6QF76uh6L5HGeqG"><path d=" M -55 -55 L 65 -55 L 65 65 L -55 65 L -55 -55 Z  M 14.353 14.353 L 15.725 9.883 L 9.954 9.954 L 9.883 15.725 L 14.353 14.353 L 14.353 14.353 Z " fill-rule="evenodd" fill="rgb(255,255,255)"/></clipPath><g clip-path="url(#_clipPath_ur0UZ1ACtQtF9T6Yr6QF76uh6L5HGeqG)"><mask id="_mask_ACeEWbxPMebfdP3gbqsB07NafD2hALLB" x="-200%" y="-200%" width="400%" height="400%"><rect x="-200%" y="-200%" width="400%" height="400%" style="fill:white;"/><path d=" M 14.353 14.353 L 15.725 9.883 L 9.954 9.954 L 9.883 15.725 L 14.353 14.353 Z " fill-rule="evenodd" fill="black" stroke="none"/></mask><path d=" M 14.353 14.353 L 15.725 9.883 L 9.954 9.954 L 9.883 15.725 L 14.353 14.353 Z " fill-rule="evenodd" fill="none"/><path d=" M 14.353 14.353 L 15.725 9.883 L 9.954 9.954 L 9.883 15.725 L 14.353 14.353 Z " fill-rule="evenodd" fill="none" mask="url(#_mask_ACeEWbxPMebfdP3gbqsB07NafD2hALLB)" vector-effect="non-scaling-stroke" stroke-width="0.353" stroke="rgb(137,137,137)" stroke-opacity="100" stroke-linejoin="miter" stroke-linecap="butt" stroke-miterlimit="4"/></g><clipPath id="_clipPath_xghYCf4ElM47O0c5XLYnpOlSs2GMPnb4"><path d=" M -55 -55 L 65 -55 L 65 65 L -55 65 L -55 -55 Z  M 14.353 14.353 L 20 12.02 L 14.353 14.353 Z " fill-rule="evenodd" fill="rgb(255,255,255)"/></clipPath><g clip-path="url(#_clipPath_xghYCf4ElM47O0c5XLYnpOlSs2GMPnb4)"><mask id="_mask_qo40ECbeT4rkCKED8rWxAfFO3qglbxzs" x="-200%" y="-200%" width="400%" height="400%"><rect x="-200%" y="-200%" width="400%" height="400%" style="fill:white;"/><line x1="14.353" y1="14.353" x2="20" y2="12.02" fill="black" stroke="none"/></mask><line x1="14.353" y1="14.353" x2="20" y2="12.02" mask="url(#_mask_qo40ECbeT4rkCKED8rWxAfFO3qglbxzs)" vector-effect="non-scaling-stroke" stroke-width="0.353" stroke="rgb(137,137,137)" stroke-opacity="100" stroke-linejoin="miter" stroke-linecap="butt" stroke-miterlimit="4"/></g><clipPath id="_clipPath_3TmEsiICfKVjExnvmDMSSkFLYIOUQv4X"><path d=" M -55 -55 L 65 -55 L 65 65 L -55 65 L -55 -55 Z  M 20 12.02 L 25.647 14.353 L 20 12.02 Z " fill-rule="evenodd" fill="rgb(255,255,255)"/></clipPath><g clip-path="url(#_clipPath_3TmEsiICfKVjExnvmDMSSkFLYIOUQv4X)"><mask id="_mask_k78Wppeo8sGlPzo38HeMlbyaKO1RJYzK" x="-200%" y="-200%" width="400%" height="400%"><rect x="-200%" y="-200%" width="400%" height="400%" style="fill:white;"/><line x1="20" y1="12.02" x2="25.647" y2="14.353" fill="black" stroke="none"/></mask><line x1="20" y1="12.02" x2="25.647" y2="14.353" mask="url(#_mask_k78Wppeo8sGlPzo38HeMlbyaKO1RJYzK)" vector-effect="non-scaling-stroke" stroke-width="0.353" stroke="rgb(137,137,137)" stroke-opacity="100" stroke-linejoin="miter" stroke-linecap="butt" stroke-miterlimit="4"/></g><clipPath id="_clipPath_QiCUhPRHOIJCnrmdp3GRlu18wsSSq9Ep"><path d=" M -55 -55 L 65 -55 L 65 65 L -55 65 L -55 -55 Z  M 25.647 14.353 L 27.98 20 L 25.647 14.353 Z " fill-rule="evenodd" fill="rgb(255,255,255)"/></clipPath><g clip-path="url(#_clipPath_QiCUhPRHOIJCnrmdp3GRlu18wsSSq9Ep)"><mask id="_mask_JCZgJMhqOWhgX6R2iQC1dFLAqwoJh4IV" x="-200%" y="-200%" width="400%" height="400%"><rect x="-200%" y="-200%" width="400%" height="400%" style="fill:white;"/><line x1="25.647" y1="14.353" x2="27.98" y2="20" fill="black" stroke="none"/></mask><line x1="25.647" y1="14.353" x2="27.98" y2="20" mask="url(#_mask_JCZgJMhqOWhgX6R2iQC1dFLAqwoJh4IV)" vector-effect="non-scaling-stroke" stroke-width="0.353" stroke="rgb(137,137,137)" stroke-opacity="100" stroke-linejoin="miter" stroke-linecap="butt" stroke-miterlimit="4"/></g><clipPath id="_clipPath_fGvGEjJ65dpfhEWvNxW37zrbgEbgo5fl"><path d=" M -55 -55 L 65 -55 L 65 65 L -55 65 L -55 -55 Z  M 27.98 20 L 25.647 25.647 L 27.98 20 Z " fill-rule="evenodd" fill="rgb(255,255,255)"/></clipPath><g clip-path="url(#_clipPath_fGvGEjJ65dpfhEWvNxW37zrbgEbgo5fl)"><mask id="_mask_x2xrIB7HpXxpMz8O4uyQ2wxPuUCyh2q6" x="-200%" y="-200%" width="400%" height="400%"><rect x="-200%" y="-200%" width="400%" height="400%" style="fill:white;"/><line x1="27.98" y1="20" x2="25.647" y2="25.647" fill="black" stroke="none"/></mask><line x1="27.98" y1="20" x2="25.647" y2="25.647" mask="url(#_mask_x2xrIB7HpXxpMz8O4uyQ2wxPuUCyh2q6)" vector-effect="non-scaling-stroke" stroke-width="0.353" stroke="rgb(137,137,137)" stroke-opacity="100" stroke-linejoin="miter" stroke-linecap="butt" stroke-miterlimit="4"/></g><clipPath id="_clipPath_Gkl5YYxs6EQBqj1TRvIdGqvcMZF9HWKB"><path d=" M -55 -55 L 65 -55 L 65 65 L -55 65 L -55 -55 Z  M 25.647 25.647 L 20 27.98 L 25.647 25.647 Z " fill-rule="evenodd" fill="rgb(255,255,255)"/></clipPath><g clip-path="url(#_clipPath_Gkl5YYxs6EQBqj1TRvIdGqvcMZF9HWKB)"><mask id="_mask_fbBR58WQ6vypN0KVjt96Qdo0XLLYsP1J" x="-200%" y="-200%" width="400%" height="400%"><rect x="-200%" y="-200%" width="400%" height="400%" style="fill:white;"/><line x1="25.647" y1="25.647" x2="20" y2="27.98" fill="black" stroke="none"/></mask><line x1="25.647" y1="25.647" x2="20" y2="27.98" mask="url(#_mask_fbBR58WQ6vypN0KVjt96Qdo0XLLYsP1J)" vector-effect="non-scaling-stroke" stroke-width="0.353" stroke="rgb(137,137,137)" stroke-opacity="100" stroke-linejoin="miter" stroke-linecap="butt" stroke-miterlimit="4"/></g><clipPath id="_clipPath_mdwpOq4aSY4oRBzgb0cEDSzEbQlfeEDS"><path d=" M -55 -55 L 65 -55 L 65 65 L -55 65 L -55 -55 Z  M 20 27.98 L 14.353 25.647 L 20 27.98 Z " fill-rule="evenodd" fill="rgb(255,255,255)"/></clipPath><g clip-path="url(#_clipPath_mdwpOq4aSY4oRBzgb0cEDSzEbQlfeEDS)"><mask id="_mask_yU1fPP9mpmUGkbvtN4WCCnk0BZdwATSH" x="-200%" y="-200%" width="400%" height="400%"><rect x="-200%" y="-200%" width="400%" height="400%" style="fill:white;"/><line x1="20" y1="27.98" x2="14.353" y2="25.647" fill="black" stroke="none"/></mask><line x1="20" y1="27.98" x2="14.353" y2="25.647" mask="url(#_mask_yU1fPP9mpmUGkbvtN4WCCnk0BZdwATSH)" vector-effect="non-scaling-stroke" stroke-width="0.353" stroke="rgb(137,137,137)" stroke-opacity="100" stroke-linejoin="miter" stroke-linecap="butt" stroke-miterlimit="4"/></g><clipPath id="_clipPath_kOaGoA5IheREeVvmAhXzBrjoZSmA7qOe"><path d=" M -55 -55 L 65 -55 L 65 65 L -55 65 L -55 -55 Z  M 14.353 25.647 L 12.02 20 L 14.353 25.647 Z " fill-rule="evenodd" fill="rgb(255,255,255)"/></clipPath><g clip-path="url(#_clipPath_kOaGoA5IheREeVvmAhXzBrjoZSmA7qOe)"><mask id="_mask_JAttfJdYKKZSw5oLySvlEFIurckKVDBB" x="-200%" y="-200%" width="400%" height="400%"><rect x="-200%" y="-200%" width="400%" height="400%" style="fill:white;"/><line x1="14.353" y1="25.647" x2="12.02" y2="20" fill="black" stroke="none"/></mask><line x1="14.353" y1="25.647" x2="12.02" y2="20" mask="url(#_mask_JAttfJdYKKZSw5oLySvlEFIurckKVDBB)" vector-effect="non-scaling-stroke" stroke-width="0.353" stroke="rgb(137,137,137)" stroke-opacity="100" stroke-linejoin="miter" stroke-linecap="butt" stroke-miterlimit="4"/></g><clipPath id="_clipPath_2IEAuOkleI3BCGakVC5V3JrHaaIKKq47"><path d=" M -55 -55 L 65 -55 L 65 65 L -55 65 L -55 -55 Z  M 12.02 20 L 14.353 14.353 L 12.02 20 Z " fill-rule="evenodd" fill="rgb(255,255,255)"/></clipPath><g clip-path="url(#_clipPath_2IEAuOkleI3BCGakVC5V3JrHaaIKKq47)"><mask id="_mask_Rr29moZdd4ayVIjQBMeUlthp55Q0OiLl" x="-200%" y="-200%" width="400%" height="400%"><rect x="-200%" y="-200%" width="400%" height="400%" style="fill:white;"/><line x1="12.02" y1="20" x2="14.353" y2="14.353" fill="black" stroke="none"/></mask><line x1="12.02" y1="20" x2="14.353" y2="14.353" mask="url(#_mask_Rr29moZdd4ayVIjQBMeUlthp55Q0OiLl)" vector-effect="non-scaling-stroke" stroke-width="0.353" stroke="rgb(137,137,137)" stroke-opacity="100" stroke-linejoin="miter" stroke-linecap="butt" stroke-miterlimit="4"/></g></g></g></g></g></g></svg>