<?xml version="1.0" encoding="UTF-8"?>
<!DOCTYPE svg PUBLIC "-//W3C//DTD SVG 1.1//EN" "http://www.w3.org/Graphics/SVG/1.1/DTD/svg11.dtd">
<!-- Creator: CorelDRAW 2021 (64-Bit) -->
<svg xmlns="http://www.w3.org/2000/svg" xml:space="preserve" width="27.4608mm" height="26.2427mm" version="1.1" style="shape-rendering:geometricPrecision; text-rendering:geometricPrecision; image-rendering:optimizeQuality; fill-rule:evenodd; clip-rule:evenodd"
viewBox="0 0 2746.08 2624.27"
 xmlns:xlink="http://www.w3.org/1999/xlink"
 xmlns:xodm="http://www.corel.com/coreldraw/odm/2003">
 <defs>
  <style type="text/css">
   <![CDATA[
    .str0 {stroke:#FEFEFE;stroke-width:17.64;stroke-miterlimit:2.61313}
    .str1 {stroke:#898989;stroke-width:17.64;stroke-miterlimit:2.61313}
    .str2 {stroke:#2B2A29;stroke-width:17.64;stroke-miterlimit:2.61313}
    .str3 {stroke:#2B2A29;stroke-width:7.62;stroke-miterlimit:2.61313}
    .fil0 {fill:none}
    .fil1 {fill:#FEFEFE}
   ]]>
  </style>
 </defs>
 <g id="Layer_x0020_1">
  <metadata id="CorelCorpID_0Corel-Layer"/>
  <rect class="fil0 str0" x="8.82" y="8.82" width="2728.44" height="2606.63"/>
  <g id="_2244968195488">
   <g>
    <polygon class="fil0 str1" points="1375.64,822.82 1619.65,740.72 1373.56,582.26 1131.62,740.72 "/>
    <polygon class="fil0 str1" points="952.83,1314.14 877.33,1070.08 729.13,1312.24 880.56,1558.16 "/>
    <polygon class="fil0 str1" points="1040.64,938.86 877.33,1070.1 823.64,748.2 1131.63,740.72 "/>
    <polyline class="fil0 str1" points="1375.64,822.82 1040.65,938.86 952.84,1314.13 "/>
    <polygon class="fil0 str1" points="1710.63,938.86 1873.96,1070.12 1619.66,740.73 "/>
    <polyline class="fil0 str1" points="1375.64,822.82 1710.63,938.86 1798.44,1314.13 "/>
    <polygon class="fil0 str1" points="1375.64,1804.73 1619.65,1886.83 1375.64,2042.08 1131.62,1886.83 "/>
    <polygon class="fil0 str1" points="1040.64,1688.7 880.56,1558.14 825.24,1878.31 1131.63,1886.84 "/>
    <polyline class="fil0 str1" points="1375.64,1804.73 1040.65,1688.69 952.84,1313.42 "/>
    <polyline class="fil0 str1" points="1375.64,1804.73 1710.63,1688.69 1798.44,1313.42 "/>
    <line class="fil0 str1" x1="1131.63" y1="740.73" x2="1047.37" y2= "614.36" />
    <line class="fil0 str1" x1="875.31" y1="1070.79" x2="736.16" y2= "1076.73" />
    <line class="fil0 str1" x1="1619.7" y1="740.73" x2="1703.96" y2= "614.36" />
    <line class="fil0 str1" x1="1876.02" y1="1070.78" x2="2007.13" y2= "1075.9" />
    <line class="fil0 str1" x1="1619.7" y1="1887.58" x2="1703.96" y2= "2013.94" />
    <line class="fil0 str1" x1="1876.02" y1="1557.52" x2="2007.13" y2= "1552.41" />
    <polygon class="fil0 str1" points="1798.45,1314.14 1870.72,1070.1 2016.94,1312.24 1870.72,1558.16 "/>
    <polygon class="fil0 str1" points="1710.64,938.86 1873.95,1070.1 1926,752.75 1619.66,740.72 "/>
    <polyline class="fil0 str1" points="1375.64,822.82 1710.63,938.86 1798.44,1314.13 "/>
    <polygon class="fil0 str1" points="1710.64,1688.7 1873.95,1557.43 1923.27,1875.26 1619.66,1886.84 "/>
    <polyline class="fil0 str1" points="1375.64,1804.73 1710.63,1688.69 1798.44,1313.42 "/>
    <line class="fil0 str1" x1="1619.66" y1="740.73" x2="1703.91" y2= "614.36" />
    <line class="fil0 str1" x1="1131.63" y1="1883.84" x2="1047.37" y2= "2010.21" />
    <line class="fil0 str1" x1="880.57" y1="1558.16" x2="736.22" y2= "1549.03" />
    <path class="fil0 str2" d="M1974.19 838.38c-38.36,-96.82 -108.55,-160.59 -199.52,-199.75 -174.08,-74.95 -629.19,-74.95 -803.27,0 -90.97,39.16 -161.16,102.93 -199.53,199.75 -56.99,143.83 -56.99,803.9 0,947.73 38.37,96.81 108.56,160.58 199.53,199.75 174.08,74.95 629.19,74.95 803.27,0 90.97,-39.17 161.16,-102.94 199.52,-199.75 57,-143.83 57,-803.9 0,-947.73z"/>
   </g>
   <circle class="fil1 str3" cx="835.1" cy="674.93" r="97.53"/>
   <circle class="fil1 str3" cx="1911.05" cy="674.93" r="97.53"/>
   <circle class="fil1 str3" cx="835.1" cy="1949.35" r="97.53"/>
   <circle class="fil1 str3" cx="1911.05" cy="1949.35" r="97.53"/>
  </g>
 </g>
</svg>
