<?xml version="1.0" encoding="UTF-8"?>
<!DOCTYPE svg PUBLIC "-//W3C//DTD SVG 1.1//EN" "http://www.w3.org/Graphics/SVG/1.1/DTD/svg11.dtd">
<!-- Creator: CorelDRAW 2021 (64-Bit) -->
<svg xmlns="http://www.w3.org/2000/svg" xml:space="preserve" width="27.4608mm" height="26.2427mm" version="1.1" style="shape-rendering:geometricPrecision; text-rendering:geometricPrecision; image-rendering:optimizeQuality; fill-rule:evenodd; clip-rule:evenodd"
viewBox="0 0 2746.08 2624.27"
 xmlns:xlink="http://www.w3.org/1999/xlink"
 xmlns:xodm="http://www.corel.com/coreldraw/odm/2003">
 <defs>
  <style type="text/css">
   <![CDATA[
    .str0 {stroke:#FEFEFE;stroke-width:17.64;stroke-miterlimit:2.61313}
    .str3 {stroke:#898989;stroke-width:17.64;stroke-miterlimit:2.61313}
    .str4 {stroke:#2B2A29;stroke-width:17.64;stroke-miterlimit:2.61313}
    .str2 {stroke:#2B2A29;stroke-width:7.62;stroke-miterlimit:22.9256}
    .str1 {stroke:#2B2A29;stroke-width:7.62;stroke-miterlimit:2.61313}
    .fil0 {fill:none}
    .fil1 {fill:#FEFEFE}
   ]]>
  </style>
 </defs>
 <g id="Layer_x0020_1">
  <metadata id="CorelCorpID_0Corel-Layer"/>
  <rect class="fil0 str0" x="8.82" y="8.82" width="2728.44" height="2606.63"/>
  <g id="_2280874243712">
   <g>
    <path class="fil1 str1" d="M2257.9 654.28c84.99,211.55 84.99,1104.16 0,1315.71 -58.8,146.34 -167.38,248.32 -312.63,309.99 -255.4,108.49 -889.06,108.49 -1144.46,0 -145.24,-61.67 -253.83,-163.65 -312.63,-309.99 -84.99,-211.55 -84.99,-1104.16 0,-1315.71 58.8,-146.33 167.39,-248.31 312.63,-309.98 255.4,-108.5 889.06,-108.5 1144.46,0 145.25,61.67 253.83,163.65 312.63,309.98z"/>
    <path class="fil1 str1" d="M2020.85 823.9c62.23,157 62.23,819.47 0,976.48 -43.04,108.61 -122.54,184.29 -228.87,230.06 -186.98,80.52 -650.88,80.52 -837.85,0 -106.34,-45.77 -185.83,-121.45 -228.88,-230.06 -62.22,-157.01 -62.22,-819.48 0,-976.48 43.05,-108.61 122.54,-184.29 228.88,-230.07 186.97,-80.52 650.87,-80.52 837.85,0 106.33,45.78 185.83,121.46 228.87,230.07z"/>
    <circle class="fil1 str2" cx="2195.08" cy="1312.14" r="112.68"/>
    <circle class="fil1 str2" cx="1509.27" cy="2225.98" r="112.68"/>
    <circle class="fil1 str2" cx="2190.14" cy="1599.86" r="112.68"/>
    <circle class="fil1 str2" cx="1773" cy="2191.89" r="112.68"/>
    <circle class="fil1 str2" cx="2013.51" cy="2080.92" r="112.68"/>
    <circle class="fil1 str2" cx="2149.08" cy="1866.35" r="112.68"/>
    <g>
     <rect class="fil1 str1" transform="matrix(0.87434 -0.100131 -0.100131 -0.87434 1598.48 2348.14)" width="68.98" height="68.98" rx="11.47" ry="11.47"/>
     <rect class="fil1 str1" transform="matrix(0.87434 -0.100131 -0.100131 -0.87434 1661.12 2340.97)" width="68.98" height="68.98" rx="11.47" ry="11.47"/>
    </g>
    <g>
     <rect class="fil1 str1" transform="matrix(0.888347 -0.116788 -0.116788 -0.888347 1568.14 2144.68)" width="68.98" height="68.98" rx="11.47" ry="11.47"/>
     <rect class="fil1 str1" transform="matrix(0.888347 -0.116788 -0.116788 -0.888347 1631.78 2136.32)" width="68.98" height="68.98" rx="11.47" ry="11.47"/>
    </g>
    <g>
     <rect class="fil1 str1" transform="matrix(0.0179201 -0.929675 -0.929675 -0.0179201 2318.36 1522.67)" width="68.98" height="68.98" rx="11.47" ry="11.47"/>
     <rect class="fil1 str1" transform="matrix(0.0179201 -0.929675 -0.929675 -0.0179201 2319.64 1456.07)" width="68.98" height="68.98" rx="11.47" ry="11.47"/>
    </g>
    <g>
     <rect class="fil1 str1" transform="matrix(0.0166323 -0.862867 -0.862867 -0.0166323 2130.73 1516.23)" width="68.98" height="68.98" rx="11.47" ry="11.47"/>
     <rect class="fil1 str1" transform="matrix(0.0166323 -0.862867 -0.862867 -0.0166323 2131.92 1454.41)" width="68.98" height="68.98" rx="11.47" ry="11.47"/>
    </g>
    <g>
     <rect class="fil1 str1" transform="matrix(0.0852693 -0.925929 -0.925929 -0.0852693 2294.6 1811.13)" width="68.98" height="68.98" rx="11.47" ry="11.47"/>
     <rect class="fil1 str1" transform="matrix(0.0852693 -0.925929 -0.925929 -0.0852693 2300.71 1744.8)" width="68.98" height="68.98" rx="11.47" ry="11.47"/>
    </g>
    <g>
     <rect class="fil1 str1" transform="matrix(0.517722 -0.830067 -0.830067 -0.517722 2173.18 2113.03)" width="68.98" height="68.98" rx="11.47" ry="11.47"/>
     <rect class="fil1 str1" transform="matrix(0.517722 -0.830067 -0.830067 -0.517722 2210.27 2053.57)" width="68.98" height="68.98" rx="11.47" ry="11.47"/>
    </g>
    <g>
     <rect class="fil1 str1" transform="matrix(0.897725 -0.388766 -0.388766 -0.897725 1893.04 2297.7)" width="68.98" height="68.98" rx="11.47" ry="11.47"/>
     <rect class="fil1 str1" transform="matrix(0.897725 -0.388766 -0.388766 -0.897725 1957.35 2269.85)" width="68.98" height="68.98" rx="11.47" ry="11.47"/>
    </g>
    <g>
     <rect class="fil1 str1" transform="matrix(0.789061 -0.42448 -0.42448 -0.789061 1808.86 2094.94)" width="68.98" height="68.98" rx="11.47" ry="11.47"/>
     <rect class="fil1 str1" transform="matrix(0.789061 -0.42448 -0.42448 -0.789061 1865.39 2064.53)" width="68.98" height="68.98" rx="11.47" ry="11.47"/>
    </g>
    <g>
     <rect class="fil1 str1" transform="matrix(0.497588 -0.682467 -0.682467 -0.497588 1979.88 1982.8)" width="68.98" height="68.98" rx="11.47" ry="11.47"/>
     <rect class="fil1 str1" transform="matrix(0.497588 -0.682467 -0.682467 -0.497588 2015.52 1933.9)" width="68.98" height="68.98" rx="11.47" ry="11.47"/>
    </g>
    <g>
     <rect class="fil1 str1" transform="matrix(0.128212 -0.834815 -0.834815 -0.128212 2094.37 1783.36)" width="68.98" height="68.98" rx="11.47" ry="11.47"/>
     <rect class="fil1 str1" transform="matrix(0.128212 -0.834815 -0.834815 -0.128212 2103.56 1723.56)" width="68.98" height="68.98" rx="11.47" ry="11.47"/>
    </g>
    <circle class="fil1 str2" cx="1509.27" cy="398.21" r="112.68"/>
    <circle class="fil1 str2" cx="2190.14" cy="1024.34" r="112.68"/>
    <circle class="fil1 str2" cx="1773" cy="432.3" r="112.68"/>
    <circle class="fil1 str2" cx="2013.51" cy="543.27" r="112.68"/>
    <circle class="fil1 str2" cx="2149.08" cy="757.84" r="112.68"/>
    <g>
     <rect class="fil1 str1" transform="matrix(0.87434 0.100131 -0.100131 0.87434 1598.48 276.052)" width="68.98" height="68.98" rx="11.47" ry="11.47"/>
     <rect class="fil1 str1" transform="matrix(0.87434 0.100131 -0.100131 0.87434 1661.12 283.225)" width="68.98" height="68.98" rx="11.47" ry="11.47"/>
    </g>
    <g>
     <rect class="fil1 str1" transform="matrix(0.888347 0.116788 -0.116788 0.888347 1568.14 479.508)" width="68.98" height="68.98" rx="11.47" ry="11.47"/>
     <rect class="fil1 str1" transform="matrix(0.888347 0.116788 -0.116788 0.888347 1631.78 487.875)" width="68.98" height="68.98" rx="11.47" ry="11.47"/>
    </g>
    <g>
     <rect class="fil1 str1" transform="matrix(0.0179201 0.929675 -0.929675 0.0179201 2318.36 1101.52)" width="68.98" height="68.98" rx="11.47" ry="11.47"/>
     <rect class="fil1 str1" transform="matrix(0.0179201 0.929675 -0.929675 0.0179201 2319.64 1168.12)" width="68.98" height="68.98" rx="11.47" ry="11.47"/>
    </g>
    <g>
     <rect class="fil1 str1" transform="matrix(0.0166323 0.862867 -0.862867 0.0166323 2130.73 1107.97)" width="68.98" height="68.98" rx="11.47" ry="11.47"/>
     <rect class="fil1 str1" transform="matrix(0.0166323 0.862867 -0.862867 0.0166323 2131.92 1169.78)" width="68.98" height="68.98" rx="11.47" ry="11.47"/>
    </g>
    <g>
     <rect class="fil1 str1" transform="matrix(0.0852693 0.925929 -0.925929 0.0852693 2294.6 813.06)" width="68.98" height="68.98" rx="11.47" ry="11.47"/>
     <rect class="fil1 str1" transform="matrix(0.0852693 0.925929 -0.925929 0.0852693 2300.71 879.394)" width="68.98" height="68.98" rx="11.47" ry="11.47"/>
    </g>
    <g>
     <rect class="fil1 str1" transform="matrix(0.517722 0.830067 -0.830067 0.517722 2173.18 511.162)" width="68.98" height="68.98" rx="11.47" ry="11.47"/>
     <rect class="fil1 str1" transform="matrix(0.517722 0.830067 -0.830067 0.517722 2210.27 570.628)" width="68.98" height="68.98" rx="11.47" ry="11.47"/>
    </g>
    <g>
     <rect class="fil1 str1" transform="matrix(0.897725 0.388766 -0.388766 0.897725 1893.04 326.492)" width="68.98" height="68.98" rx="11.47" ry="11.47"/>
     <rect class="fil1 str1" transform="matrix(0.897725 0.388766 -0.388766 0.897725 1957.35 354.343)" width="68.98" height="68.98" rx="11.47" ry="11.47"/>
    </g>
    <g>
     <rect class="fil1 str1" transform="matrix(0.789061 0.42448 -0.42448 0.789061 1808.86 529.251)" width="68.98" height="68.98" rx="11.47" ry="11.47"/>
     <rect class="fil1 str1" transform="matrix(0.789061 0.42448 -0.42448 0.789061 1865.39 559.661)" width="68.98" height="68.98" rx="11.47" ry="11.47"/>
    </g>
    <g>
     <rect class="fil1 str1" transform="matrix(0.497588 0.682467 -0.682467 0.497588 1979.88 641.398)" width="68.98" height="68.98" rx="11.47" ry="11.47"/>
     <rect class="fil1 str1" transform="matrix(0.497588 0.682467 -0.682467 0.497588 2015.52 690.29)" width="68.98" height="68.98" rx="11.47" ry="11.47"/>
    </g>
    <g>
     <rect class="fil1 str1" transform="matrix(0.128212 0.834815 -0.834815 0.128212 2094.37 840.829)" width="68.98" height="68.98" rx="11.47" ry="11.47"/>
     <rect class="fil1 str1" transform="matrix(0.128212 0.834815 -0.834815 0.128212 2103.56 900.635)" width="68.98" height="68.98" rx="11.47" ry="11.47"/>
    </g>
    <circle class="fil1 str2" cx="551.11" cy="1312.14" r="112.68"/>
    <circle class="fil1 str2" cx="1236.92" cy="2225.98" r="112.68"/>
    <circle class="fil1 str2" cx="556.04" cy="1599.86" r="112.68"/>
    <circle class="fil1 str2" cx="973.19" cy="2191.89" r="112.68"/>
    <circle class="fil1 str2" cx="732.68" cy="2080.92" r="112.68"/>
    <circle class="fil1 str2" cx="597.1" cy="1866.35" r="112.68"/>
    <g>
     <rect class="fil1 str1" transform="matrix(-0.87434 -0.100131 0.100131 -0.87434 1147.7 2348.14)" width="68.98" height="68.98" rx="11.47" ry="11.47"/>
     <rect class="fil1 str1" transform="matrix(-0.87434 -0.100131 0.100131 -0.87434 1085.07 2340.97)" width="68.98" height="68.98" rx="11.47" ry="11.47"/>
    </g>
    <g>
     <rect class="fil1 str1" transform="matrix(-0.888347 -0.116788 0.116788 -0.888347 1178.05 2144.68)" width="68.98" height="68.98" rx="11.47" ry="11.47"/>
     <rect class="fil1 str1" transform="matrix(-0.888347 -0.116788 0.116788 -0.888347 1114.41 2136.32)" width="68.98" height="68.98" rx="11.47" ry="11.47"/>
    </g>
    <g>
     <rect class="fil1 str1" transform="matrix(-0.0179201 -0.929675 0.929675 -0.0179201 427.825 1522.67)" width="68.98" height="68.98" rx="11.47" ry="11.47"/>
     <rect class="fil1 str1" transform="matrix(-0.0179201 -0.929675 0.929675 -0.0179201 426.541 1456.07)" width="68.98" height="68.98" rx="11.47" ry="11.47"/>
    </g>
    <g>
     <rect class="fil1 str1" transform="matrix(-0.0166323 -0.862867 0.862867 -0.0166323 615.461 1516.23)" width="68.98" height="68.98" rx="11.47" ry="11.47"/>
     <rect class="fil1 str1" transform="matrix(-0.0166323 -0.862867 0.862867 -0.0166323 614.269 1454.41)" width="68.98" height="68.98" rx="11.47" ry="11.47"/>
    </g>
    <g>
     <rect class="fil1 str1" transform="matrix(-0.0852693 -0.925929 0.925929 -0.0852693 451.588 1811.13)" width="68.98" height="68.98" rx="11.47" ry="11.47"/>
     <rect class="fil1 str1" transform="matrix(-0.0852693 -0.925929 0.925929 -0.0852693 445.479 1744.8)" width="68.98" height="68.98" rx="11.47" ry="11.47"/>
    </g>
    <g>
     <rect class="fil1 str1" transform="matrix(-0.517722 -0.830067 0.830067 -0.517722 573.009 2113.03)" width="68.98" height="68.98" rx="11.47" ry="11.47"/>
     <rect class="fil1 str1" transform="matrix(-0.517722 -0.830067 0.830067 -0.517722 535.919 2053.57)" width="68.98" height="68.98" rx="11.47" ry="11.47"/>
    </g>
    <g>
     <rect class="fil1 str1" transform="matrix(-0.897725 -0.388766 0.388766 -0.897725 853.147 2297.7)" width="68.98" height="68.98" rx="11.47" ry="11.47"/>
     <rect class="fil1 str1" transform="matrix(-0.897725 -0.388766 0.388766 -0.897725 788.834 2269.85)" width="68.98" height="68.98" rx="11.47" ry="11.47"/>
    </g>
    <g>
     <rect class="fil1 str1" transform="matrix(-0.789061 -0.42448 0.42448 -0.789061 937.324 2094.94)" width="68.98" height="68.98" rx="11.47" ry="11.47"/>
     <rect class="fil1 str1" transform="matrix(-0.789061 -0.42448 0.42448 -0.789061 880.796 2064.53)" width="68.98" height="68.98" rx="11.47" ry="11.47"/>
    </g>
    <g>
     <rect class="fil1 str1" transform="matrix(-0.497588 -0.682467 0.682467 -0.497588 766.31 1982.8)" width="68.98" height="68.98" rx="11.47" ry="11.47"/>
     <rect class="fil1 str1" transform="matrix(-0.497588 -0.682467 0.682467 -0.497588 730.663 1933.9)" width="68.98" height="68.98" rx="11.47" ry="11.47"/>
    </g>
    <g>
     <rect class="fil1 str1" transform="matrix(-0.128212 -0.834815 0.834815 -0.128212 651.811 1783.36)" width="68.98" height="68.98" rx="11.47" ry="11.47"/>
     <rect class="fil1 str1" transform="matrix(-0.128212 -0.834815 0.834815 -0.128212 642.626 1723.56)" width="68.98" height="68.98" rx="11.47" ry="11.47"/>
    </g>
    <circle class="fil1 str2" cx="1236.92" cy="398.21" r="112.68"/>
    <circle class="fil1 str2" cx="556.04" cy="1024.34" r="112.68"/>
    <circle class="fil1 str2" cx="973.19" cy="432.3" r="112.68"/>
    <circle class="fil1 str2" cx="732.68" cy="543.27" r="112.68"/>
    <circle class="fil1 str2" cx="597.1" cy="757.84" r="112.68"/>
    <g>
     <rect class="fil1 str1" transform="matrix(-0.87434 0.100131 0.100131 0.87434 1147.7 276.052)" width="68.98" height="68.98" rx="11.47" ry="11.47"/>
     <rect class="fil1 str1" transform="matrix(-0.87434 0.100131 0.100131 0.87434 1085.07 283.225)" width="68.98" height="68.98" rx="11.47" ry="11.47"/>
    </g>
    <g>
     <rect class="fil1 str1" transform="matrix(-0.888347 0.116788 0.116788 0.888347 1178.05 479.508)" width="68.98" height="68.98" rx="11.47" ry="11.47"/>
     <rect class="fil1 str1" transform="matrix(-0.888347 0.116788 0.116788 0.888347 1114.41 487.875)" width="68.98" height="68.98" rx="11.47" ry="11.47"/>
    </g>
    <g>
     <rect class="fil1 str1" transform="matrix(-0.0179201 0.929675 0.929675 0.0179201 427.825 1101.52)" width="68.98" height="68.98" rx="11.47" ry="11.47"/>
     <rect class="fil1 str1" transform="matrix(-0.0179201 0.929675 0.929675 0.0179201 426.541 1168.12)" width="68.98" height="68.98" rx="11.47" ry="11.47"/>
    </g>
    <g>
     <rect class="fil1 str1" transform="matrix(-0.0166323 0.862867 0.862867 0.0166323 615.461 1107.97)" width="68.98" height="68.98" rx="11.47" ry="11.47"/>
     <rect class="fil1 str1" transform="matrix(-0.0166323 0.862867 0.862867 0.0166323 614.269 1169.78)" width="68.98" height="68.98" rx="11.47" ry="11.47"/>
    </g>
    <g>
     <rect class="fil1 str1" transform="matrix(-0.0852693 0.925929 0.925929 0.0852693 451.588 813.06)" width="68.98" height="68.98" rx="11.47" ry="11.47"/>
     <rect class="fil1 str1" transform="matrix(-0.0852693 0.925929 0.925929 0.0852693 445.479 879.394)" width="68.98" height="68.98" rx="11.47" ry="11.47"/>
    </g>
    <g>
     <rect class="fil1 str1" transform="matrix(-0.517722 0.830067 0.830067 0.517722 573.009 511.162)" width="68.98" height="68.98" rx="11.47" ry="11.47"/>
     <rect class="fil1 str1" transform="matrix(-0.517722 0.830067 0.830067 0.517722 535.919 570.628)" width="68.98" height="68.98" rx="11.47" ry="11.47"/>
    </g>
    <g>
     <rect class="fil1 str1" transform="matrix(-0.897725 0.388766 0.388766 0.897725 853.147 326.492)" width="68.98" height="68.98" rx="11.47" ry="11.47"/>
     <rect class="fil1 str1" transform="matrix(-0.897725 0.388766 0.388766 0.897725 788.834 354.343)" width="68.98" height="68.98" rx="11.47" ry="11.47"/>
    </g>
    <g>
     <rect class="fil1 str1" transform="matrix(-0.789061 0.42448 0.42448 0.789061 937.324 529.251)" width="68.98" height="68.98" rx="11.47" ry="11.47"/>
     <rect class="fil1 str1" transform="matrix(-0.789061 0.42448 0.42448 0.789061 880.796 559.661)" width="68.98" height="68.98" rx="11.47" ry="11.47"/>
    </g>
    <g>
     <rect class="fil1 str1" transform="matrix(-0.497588 0.682467 0.682467 0.497588 766.31 641.398)" width="68.98" height="68.98" rx="11.47" ry="11.47"/>
     <rect class="fil1 str1" transform="matrix(-0.497588 0.682467 0.682467 0.497588 730.663 690.29)" width="68.98" height="68.98" rx="11.47" ry="11.47"/>
    </g>
    <g>
     <rect class="fil1 str1" transform="matrix(-0.128212 0.834815 0.834815 0.128212 651.811 840.829)" width="68.98" height="68.98" rx="11.47" ry="11.47"/>
     <rect class="fil1 str1" transform="matrix(-0.128212 0.834815 0.834815 0.128212 642.626 900.635)" width="68.98" height="68.98" rx="11.47" ry="11.47"/>
    </g>
    <g>
     <rect class="fil1 str1" transform="matrix(-0.880051 -0.00245263 0.00245263 -0.880051 1434.86 2357.56)" width="68.98" height="68.98" rx="11.47" ry="11.47"/>
     <rect class="fil1 str1" transform="matrix(-0.880051 -0.00245263 0.00245263 -0.880051 1371.82 2357.39)" width="68.98" height="68.98" rx="11.47" ry="11.47"/>
    </g>
    <g>
     <rect class="fil1 str1" transform="matrix(-0.880051 -0.00245263 0.00245263 -0.880051 1434.86 2152.1)" width="68.98" height="68.98" rx="11.47" ry="11.47"/>
     <rect class="fil1 str1" transform="matrix(-0.880051 -0.00245263 0.00245263 -0.880051 1371.82 2151.93)" width="68.98" height="68.98" rx="11.47" ry="11.47"/>
    </g>
    <g>
     <rect class="fil1 str1" transform="matrix(-0.880051 0.00245263 0.00245263 0.880051 1434.86 266.632)" width="68.98" height="68.98" rx="11.47" ry="11.47"/>
     <rect class="fil1 str1" transform="matrix(-0.880051 0.00245263 0.00245263 0.880051 1371.82 266.808)" width="68.98" height="68.98" rx="11.47" ry="11.47"/>
    </g>
    <g>
     <rect class="fil1 str1" transform="matrix(-0.880051 0.00245263 0.00245263 0.880051 1434.86 472.09)" width="68.98" height="68.98" rx="11.47" ry="11.47"/>
     <rect class="fil1 str1" transform="matrix(-0.880051 0.00245263 0.00245263 0.880051 1371.82 472.266)" width="68.98" height="68.98" rx="11.47" ry="11.47"/>
    </g>
   </g>
   <g>
    <g>
     <polygon class="fil0 str3" points="1375.62,831.36 1615.36,750.69 1373.56,595 1135.86,750.69 "/>
     <polygon class="fil0 str3" points="960.19,1314.11 886,1074.3 740.39,1312.24 889.18,1553.87 "/>
     <polygon class="fil0 str3" points="1046.47,945.38 886.01,1074.33 833.25,758.05 1135.86,750.69 "/>
     <polyline class="fil0 str3" points="1375.62,831.36 1046.48,945.38 960.2,1314.09 "/>
     <polygon class="fil0 str3" points="1704.76,945.38 1865.24,1074.34 1615.37,750.7 "/>
     <polyline class="fil0 str3" points="1375.62,831.36 1704.76,945.38 1791.03,1314.09 "/>
     <polygon class="fil0 str3" points="1375.62,1796.13 1615.36,1876.8 1375.62,2029.34 1135.86,1876.8 "/>
     <polygon class="fil0 str3" points="1046.47,1682.12 889.17,1553.84 834.82,1868.42 1135.86,1876.8 "/>
     <polyline class="fil0 str3" points="1375.62,1796.13 1046.48,1682.11 960.2,1313.4 "/>
     <polyline class="fil0 str3" points="1375.62,1796.13 1704.76,1682.11 1791.03,1313.4 "/>
     <line class="fil0 str3" x1="1135.86" y1="750.7" x2="1053.07" y2= "626.54" />
     <line class="fil0 str3" x1="884.02" y1="1075.01" x2="747.3" y2= "1080.84" />
     <line class="fil0 str3" x1="1615.41" y1="750.7" x2="1698.2" y2= "626.54" />
     <line class="fil0 str3" x1="1867.25" y1="1074.99" x2="1996.08" y2= "1080.02" />
     <line class="fil0 str3" x1="1615.41" y1="1877.53" x2="1698.2" y2= "2001.69" />
     <line class="fil0 str3" x1="1867.25" y1="1553.24" x2="1996.08" y2= "1548.21" />
     <polygon class="fil0 str3" points="1791.04,1314.11 1862.05,1074.32 2005.71,1312.24 1862.05,1553.87 "/>
     <polygon class="fil0 str3" points="1704.76,945.38 1865.22,1074.33 1916.36,762.52 1615.37,750.69 "/>
     <polyline class="fil0 str3" points="1375.61,831.36 1704.75,945.38 1791.03,1314.09 "/>
     <polygon class="fil0 str3" points="1704.76,1682.12 1865.22,1553.14 1913.68,1865.42 1615.37,1876.8 "/>
     <polyline class="fil0 str3" points="1375.61,1796.13 1704.75,1682.11 1791.03,1313.4 "/>
     <line class="fil0 str3" x1="1615.37" y1="750.7" x2="1698.15" y2= "626.54" />
     <line class="fil0 str3" x1="1135.86" y1="1873.86" x2="1053.07" y2= "1998.02" />
     <line class="fil0 str3" x1="889.18" y1="1553.86" x2="747.36" y2= "1544.89" />
     <path class="fil0 str4" d="M1963.72 846.65c-37.7,-95.13 -106.66,-157.78 -196.05,-196.26 -171.03,-73.64 -618.2,-73.64 -789.24,0 -89.38,38.48 -158.34,101.13 -196.04,196.26 -56,141.32 -56,789.86 0,931.18 37.7,95.13 106.66,157.78 196.04,196.26 171.04,73.64 618.21,73.64 789.24,0 89.39,-38.48 158.35,-101.13 196.05,-196.26 55.99,-141.32 55.99,-789.86 0,-931.18z"/>
    </g>
    <circle class="fil1 str1" cx="844.51" cy="686.05" r="95.82"/>
    <circle class="fil1 str1" cx="1901.67" cy="686.05" r="95.82"/>
    <circle class="fil1 str1" cx="844.51" cy="1938.22" r="95.82"/>
    <circle class="fil1 str1" cx="1901.67" cy="1938.22" r="95.82"/>
   </g>
  </g>
 </g>
</svg>
