<?xml version="1.0" encoding="UTF-8"?>
<!DOCTYPE svg PUBLIC "-//W3C//DTD SVG 1.1//EN" "http://www.w3.org/Graphics/SVG/1.1/DTD/svg11.dtd">
<!-- Creator: CorelDRAW 2021 (64-Bit) -->
<svg xmlns="http://www.w3.org/2000/svg" xml:space="preserve" width="27.4608mm" height="26.2427mm" version="1.1" style="shape-rendering:geometricPrecision; text-rendering:geometricPrecision; image-rendering:optimizeQuality; fill-rule:evenodd; clip-rule:evenodd"
viewBox="0 0 2746.08 2624.27"
 xmlns:xlink="http://www.w3.org/1999/xlink"
 xmlns:xodm="http://www.corel.com/coreldraw/odm/2003">
 <defs>
  <style type="text/css">
   <![CDATA[
    .str0 {stroke:#FEFEFE;stroke-width:17.64;stroke-miterlimit:2.61313}
    .str3 {stroke:#898989;stroke-width:17.64;stroke-miterlimit:2.61313}
    .str4 {stroke:#2B2A29;stroke-width:17.64;stroke-miterlimit:2.61313}
    .str2 {stroke:#2B2A29;stroke-width:7.62;stroke-miterlimit:22.9256}
    .str1 {stroke:#2B2A29;stroke-width:7.62;stroke-miterlimit:2.61313}
    .fil0 {fill:none}
    .fil1 {fill:#FEFEFE}
   ]]>
  </style>
 </defs>
 <g id="Layer_x0020_1">
  <metadata id="CorelCorpID_0Corel-Layer"/>
  <rect class="fil0 str0" x="8.82" y="8.82" width="2728.44" height="2606.63"/>
  <g id="_2280872832736">
   <g>
    <path class="fil0 str1" d="M2483.42 505.23c-83.69,-208.3 -166.45,-284.94 -372,-372.22 -334.41,-142.04 -1142.36,-142.04 -1476.77,0 -205.55,87.28 -288.31,163.92 -372,372.22 -111.28,276.92 -111.28,1336.9 0,1613.82 83.69,208.3 166.45,284.94 372,372.22 334.41,142.04 1142.36,142.04 1476.77,0 205.55,-87.28 288.31,-163.92 372,-372.22 111.28,-276.92 111.28,-1336.9 0,-1613.82z"/>
    <path class="fil0 str1" d="M2229.58 675.34c82.27,204.78 82.27,1068.82 0,1273.6 -56.92,141.65 -162.02,240.36 -302.62,300.06 -247.23,105.02 -860.6,105.02 -1107.83,0 -140.6,-59.7 -245.7,-158.41 -302.62,-300.06 -82.27,-204.78 -82.27,-1068.82 0,-1273.6 56.92,-141.65 162.02,-240.36 302.62,-300.06 247.23,-105.02 860.6,-105.02 1107.83,0 140.6,59.7 245.7,158.41 302.62,300.06z"/>
   </g>
   <path class="fil1 str1" d="M2229.56 675.34c82.27,204.78 82.27,1068.82 0,1273.6 -56.91,141.65 -162.02,240.36 -302.62,300.06 -247.23,105.02 -860.6,105.02 -1107.83,0 -140.59,-59.7 -245.7,-158.41 -302.62,-300.06 -82.27,-204.78 -82.27,-1068.82 0,-1273.6 56.92,-141.65 162.03,-240.36 302.62,-300.06 247.23,-105.02 860.6,-105.02 1107.83,0 140.6,59.7 245.71,158.41 302.62,300.06z"/>
   <path class="fil1 str1" d="M2000.1 839.53c60.23,151.98 60.23,793.24 0,945.22 -41.67,105.13 -118.62,178.4 -221.55,222.7 -180.99,77.94 -630.04,77.94 -811.03,0 -102.93,-44.3 -179.88,-117.57 -221.55,-222.7 -60.23,-151.98 -60.23,-793.24 0,-945.22 41.67,-105.13 118.62,-178.4 221.55,-222.7 180.99,-77.94 630.04,-77.94 811.03,0 102.93,44.3 179.88,117.57 221.55,222.7z"/>
   <circle class="fil1 str2" cx="577.4" cy="1312.14" r="109.08"/>
   <circle class="fil1 str2" cx="1241.26" cy="427.47" r="109.08"/>
   <circle class="fil1 str2" cx="582.18" cy="1033.55" r="109.08"/>
   <circle class="fil1 str2" cx="985.97" cy="460.47" r="109.08"/>
   <circle class="fil1 str2" cx="753.16" cy="567.88" r="109.08"/>
   <circle class="fil1 str2" cx="621.92" cy="775.59" r="109.08"/>
   <g>
    <rect class="fil1 str1" transform="matrix(-0.846354 0.0969256 0.0969256 0.846354 1154.9 309.217)" width="68.98" height="68.98" rx="11.47" ry="11.47"/>
    <rect class="fil1 str1" transform="matrix(-0.846354 0.0969256 0.0969256 0.846354 1094.27 316.161)" width="68.98" height="68.98" rx="11.47" ry="11.47"/>
   </g>
   <g>
    <rect class="fil1 str1" transform="matrix(-0.859913 0.11305 0.11305 0.859913 1184.27 506.162)" width="68.98" height="68.98" rx="11.47" ry="11.47"/>
    <rect class="fil1 str1" transform="matrix(-0.859913 0.11305 0.11305 0.859913 1122.67 514.261)" width="68.98" height="68.98" rx="11.47" ry="11.47"/>
   </g>
   <g>
    <rect class="fil1 str1" transform="matrix(-0.0173465 0.899918 0.899918 0.0173465 458.063 1108.27)" width="68.98" height="68.98" rx="11.47" ry="11.47"/>
    <rect class="fil1 str1" transform="matrix(-0.0173465 0.899918 0.899918 0.0173465 456.82 1172.74)" width="68.98" height="68.98" rx="11.47" ry="11.47"/>
   </g>
   <g>
    <rect class="fil1 str1" transform="matrix(-0.0161 0.835249 0.835249 0.0161 639.693 1114.5)" width="68.98" height="68.98" rx="11.47" ry="11.47"/>
    <rect class="fil1 str1" transform="matrix(-0.0161 0.835249 0.835249 0.0161 638.539 1174.34)" width="68.98" height="68.98" rx="11.47" ry="11.47"/>
   </g>
   <g>
    <rect class="fil1 str1" transform="matrix(-0.08254 0.896292 0.896292 0.08254 481.065 829.037)" width="68.98" height="68.98" rx="11.47" ry="11.47"/>
    <rect class="fil1 str1" transform="matrix(-0.08254 0.896292 0.896292 0.08254 475.152 893.248)" width="68.98" height="68.98" rx="11.47" ry="11.47"/>
   </g>
   <g>
    <rect class="fil1 str1" transform="matrix(-0.501151 0.803499 0.803499 0.501151 598.599 536.802)" width="68.98" height="68.98" rx="11.47" ry="11.47"/>
    <rect class="fil1 str1" transform="matrix(-0.501151 0.803499 0.803499 0.501151 562.697 594.365)" width="68.98" height="68.98" rx="11.47" ry="11.47"/>
   </g>
   <g>
    <rect class="fil1 str1" transform="matrix(-0.86899 0.376322 0.376322 0.86899 869.771 358.043)" width="68.98" height="68.98" rx="11.47" ry="11.47"/>
    <rect class="fil1 str1" transform="matrix(-0.86899 0.376322 0.376322 0.86899 807.516 385.003)" width="68.98" height="68.98" rx="11.47" ry="11.47"/>
   </g>
   <g>
    <rect class="fil1 str1" transform="matrix(-0.763804 0.410893 0.410893 0.763804 951.254 554.312)" width="68.98" height="68.98" rx="11.47" ry="11.47"/>
    <rect class="fil1 str1" transform="matrix(-0.763804 0.410893 0.410893 0.763804 896.535 583.749)" width="68.98" height="68.98" rx="11.47" ry="11.47"/>
   </g>
   <g>
    <rect class="fil1 str1" transform="matrix(-0.481661 0.660622 0.660622 0.481661 785.714 662.869)" width="68.98" height="68.98" rx="11.47" ry="11.47"/>
    <rect class="fil1 str1" transform="matrix(-0.481661 0.660622 0.660622 0.481661 751.208 710.196)" width="68.98" height="68.98" rx="11.47" ry="11.47"/>
   </g>
   <g>
    <rect class="fil1 str1" transform="matrix(-0.124109 0.808094 0.808094 0.124109 674.88 855.917)" width="68.98" height="68.98" rx="11.47" ry="11.47"/>
    <rect class="fil1 str1" transform="matrix(-0.124109 0.808094 0.808094 0.124109 665.989 913.809)" width="68.98" height="68.98" rx="11.47" ry="11.47"/>
   </g>
   <g>
    <rect class="fil1 str1" transform="matrix(-0.851883 0.00237412 0.00237412 0.851883 1432.87 300.099)" width="68.98" height="68.98" rx="11.47" ry="11.47"/>
    <rect class="fil1 str1" transform="matrix(-0.851883 0.00237412 0.00237412 0.851883 1371.84 300.269)" width="68.98" height="68.98" rx="11.47" ry="11.47"/>
   </g>
   <g>
    <rect class="fil1 str1" transform="matrix(-0.851883 0.00237412 0.00237412 0.851883 1432.87 498.981)" width="68.98" height="68.98" rx="11.47" ry="11.47"/>
    <rect class="fil1 str1" transform="matrix(-0.851883 0.00237412 0.00237412 0.851883 1371.84 499.151)" width="68.98" height="68.98" rx="11.47" ry="11.47"/>
   </g>
   <circle class="fil1 str2" cx="1373.04" cy="159.71" r="109.08"/>
   <circle class="fil1 str2" cx="313.25" cy="1312.14" r="109.08"/>
   <circle class="fil1 str2" cx="320.23" cy="1058.6" r="109.08"/>
   <circle class="fil1 str2" cx="343.47" cy="793.42" r="109.08"/>
   <circle class="fil1 str2" cx="406.26" cy="530.58" r="109.08"/>
   <circle class="fil1 str2" cx="576.07" cy="318.92" r="109.08"/>
   <circle class="fil1 str2" cx="834.27" cy="214.21" r="109.08"/>
   <circle class="fil1 str2" cx="1108.77" cy="168.73" r="109.08"/>
   <g>
    <rect class="fil1 str1" transform="matrix(-0.898576 0.0398841 0.0398841 0.898576 1298.61 31.197)" width="68.98" height="68.98" rx="11.47" ry="11.47"/>
    <rect class="fil1 str1" transform="matrix(-0.898576 0.0398841 0.0398841 0.898576 1234.24 34.0543)" width="68.98" height="68.98" rx="11.47" ry="11.47"/>
   </g>
   <g>
    <rect class="fil1 str1" transform="matrix(-0.875604 0.0388644 0.0388644 0.875604 1302.84 230.863)" width="68.98" height="68.98" rx="11.47" ry="11.47"/>
    <rect class="fil1 str1" transform="matrix(-0.875604 0.0388644 0.0388644 0.875604 1240.11 233.647)" width="68.98" height="68.98" rx="11.47" ry="11.47"/>
   </g>
   <g>
    <rect class="fil1 str1" transform="matrix(-0.953844 0.137073 0.137073 0.953844 1018.16 50.0546)" width="68.98" height="68.98" rx="11.47" ry="11.47"/>
    <rect class="fil1 str1" transform="matrix(-0.953844 0.137073 0.137073 0.953844 949.831 59.8744)" width="68.98" height="68.98" rx="11.47" ry="11.47"/>
   </g>
   <g>
    <rect class="fil1 str1" transform="matrix(-0.936445 0.153526 0.153526 0.936445 1048.21 249.399)" width="68.98" height="68.98" rx="11.47" ry="11.47"/>
    <rect class="fil1 str1" transform="matrix(-0.936445 0.153526 0.153526 0.936445 981.124 260.398)" width="68.98" height="68.98" rx="11.47" ry="11.47"/>
   </g>
   <g>
    <rect class="fil1 str1" transform="matrix(-0.0314346 0.96313 0.96313 0.0314346 184.341 1115.24)" width="68.98" height="68.98" rx="11.47" ry="11.47"/>
    <rect class="fil1 str1" transform="matrix(-0.0314346 0.96313 0.96313 0.0314346 182.089 1184.24)" width="68.98" height="68.98" rx="11.47" ry="11.47"/>
   </g>
   <g>
    <rect class="fil1 str1" transform="matrix(-0.0314346 0.96313 0.96313 0.0314346 390.521 1122.62)" width="68.98" height="68.98" rx="11.47" ry="11.47"/>
    <rect class="fil1 str1" transform="matrix(-0.0314346 0.96313 0.96313 0.0314346 388.269 1191.62)" width="68.98" height="68.98" rx="11.47" ry="11.47"/>
   </g>
   <g>
    <rect class="fil1 str1" transform="matrix(-0.0884704 0.959573 0.959573 0.0884704 201.729 847.921)" width="68.98" height="68.98" rx="11.47" ry="11.47"/>
    <rect class="fil1 str1" transform="matrix(-0.0884704 0.959573 0.959573 0.0884704 195.391 916.664)" width="68.98" height="68.98" rx="11.47" ry="11.47"/>
   </g>
   <g>
    <rect class="fil1 str1" transform="matrix(-0.0884704 0.959573 0.959573 0.0884704 408.642 864.996)" width="68.98" height="68.98" rx="11.47" ry="11.47"/>
    <rect class="fil1 str1" transform="matrix(-0.0884704 0.959573 0.959573 0.0884704 402.304 933.74)" width="68.98" height="68.98" rx="11.47" ry="11.47"/>
   </g>
   <g>
    <rect class="fil1 str1" transform="matrix(-0.202043 1.01093 1.01093 0.202043 248.457 557.597)" width="68.98" height="68.98" rx="11.47" ry="11.47"/>
    <rect class="fil1 str1" transform="matrix(-0.202043 1.01093 1.01093 0.202043 233.982 630.019)" width="68.98" height="68.98" rx="11.47" ry="11.47"/>
   </g>
   <g>
    <rect class="fil1 str1" transform="matrix(-0.266681 0.907526 0.907526 0.266681 464.314 612.253)" width="68.98" height="68.98" rx="11.47" ry="11.47"/>
    <rect class="fil1 str1" transform="matrix(-0.266681 0.907526 0.907526 0.266681 445.209 677.268)" width="68.98" height="68.98" rx="11.47" ry="11.47"/>
   </g>
   <g>
    <rect class="fil1 str1" transform="matrix(-0.950763 0.518576 0.518576 0.950763 790.807 300.96)" width="68.98" height="68.98" rx="11.47" ry="11.47"/>
    <rect class="fil1 str1" transform="matrix(-0.950763 0.518576 0.518576 0.950763 722.694 338.111)" width="68.98" height="68.98" rx="11.47" ry="11.47"/>
   </g>
   <g>
    <rect class="fil1 str1" transform="matrix(-0.713121 0.815064 0.815064 0.713121 603.692 414.965)" width="68.98" height="68.98" rx="11.47" ry="11.47"/>
    <rect class="fil1 str1" transform="matrix(-0.713121 0.815064 0.815064 0.713121 552.604 473.356)" width="68.98" height="68.98" rx="11.47" ry="11.47"/>
   </g>
   <g>
    <rect class="fil1 str1" transform="matrix(-0.983661 0.393904 0.393904 0.983661 718.45 102.882)" width="68.98" height="68.98" rx="11.47" ry="11.47"/>
    <rect class="fil1 str1" transform="matrix(-0.983661 0.393904 0.393904 0.983661 647.981 131.102)" width="68.98" height="68.98" rx="11.47" ry="11.47"/>
   </g>
   <g>
    <rect class="fil1 str1" transform="matrix(-0.68322 0.901217 0.901217 0.68322 414.707 261.12)" width="68.98" height="68.98" rx="11.47" ry="11.47"/>
    <rect class="fil1 str1" transform="matrix(-0.68322 0.901217 0.901217 0.68322 365.761 325.683)" width="68.98" height="68.98" rx="11.47" ry="11.47"/>
   </g>
   <circle class="fil1 str2" cx="2168.91" cy="1312.14" r="109.08"/>
   <circle class="fil1 str2" cx="1505.05" cy="427.47" r="109.08"/>
   <circle class="fil1 str2" cx="2164.13" cy="1033.55" r="109.08"/>
   <circle class="fil1 str2" cx="1760.34" cy="460.47" r="109.08"/>
   <circle class="fil1 str2" cx="1993.15" cy="567.88" r="109.08"/>
   <circle class="fil1 str2" cx="2124.39" cy="775.59" r="109.08"/>
   <g>
    <rect class="fil1 str1" transform="matrix(0.846354 0.0969256 -0.0969256 0.846354 1591.41 309.217)" width="68.98" height="68.98" rx="11.47" ry="11.47"/>
    <rect class="fil1 str1" transform="matrix(0.846354 0.0969256 -0.0969256 0.846354 1652.04 316.161)" width="68.98" height="68.98" rx="11.47" ry="11.47"/>
   </g>
   <g>
    <rect class="fil1 str1" transform="matrix(0.859913 0.11305 -0.11305 0.859913 1562.03 506.162)" width="68.98" height="68.98" rx="11.47" ry="11.47"/>
    <rect class="fil1 str1" transform="matrix(0.859913 0.11305 -0.11305 0.859913 1623.64 514.261)" width="68.98" height="68.98" rx="11.47" ry="11.47"/>
   </g>
   <g>
    <rect class="fil1 str1" transform="matrix(0.0173465 0.899918 -0.899918 0.0173465 2288.25 1108.27)" width="68.98" height="68.98" rx="11.47" ry="11.47"/>
    <rect class="fil1 str1" transform="matrix(0.0173465 0.899918 -0.899918 0.0173465 2289.49 1172.74)" width="68.98" height="68.98" rx="11.47" ry="11.47"/>
   </g>
   <g>
    <rect class="fil1 str1" transform="matrix(0.0161 0.835249 -0.835249 0.0161 2106.62 1114.5)" width="68.98" height="68.98" rx="11.47" ry="11.47"/>
    <rect class="fil1 str1" transform="matrix(0.0161 0.835249 -0.835249 0.0161 2107.77 1174.34)" width="68.98" height="68.98" rx="11.47" ry="11.47"/>
   </g>
   <g>
    <rect class="fil1 str1" transform="matrix(0.08254 0.896292 -0.896292 0.08254 2265.24 829.037)" width="68.98" height="68.98" rx="11.47" ry="11.47"/>
    <rect class="fil1 str1" transform="matrix(0.08254 0.896292 -0.896292 0.08254 2271.16 893.248)" width="68.98" height="68.98" rx="11.47" ry="11.47"/>
   </g>
   <g>
    <rect class="fil1 str1" transform="matrix(0.501151 0.803499 -0.803499 0.501151 2147.71 536.802)" width="68.98" height="68.98" rx="11.47" ry="11.47"/>
    <rect class="fil1 str1" transform="matrix(0.501151 0.803499 -0.803499 0.501151 2183.61 594.365)" width="68.98" height="68.98" rx="11.47" ry="11.47"/>
   </g>
   <g>
    <rect class="fil1 str1" transform="matrix(0.86899 0.376322 -0.376322 0.86899 1876.54 358.043)" width="68.98" height="68.98" rx="11.47" ry="11.47"/>
    <rect class="fil1 str1" transform="matrix(0.86899 0.376322 -0.376322 0.86899 1938.79 385.003)" width="68.98" height="68.98" rx="11.47" ry="11.47"/>
   </g>
   <g>
    <rect class="fil1 str1" transform="matrix(0.763804 0.410893 -0.410893 0.763804 1795.05 554.312)" width="68.98" height="68.98" rx="11.47" ry="11.47"/>
    <rect class="fil1 str1" transform="matrix(0.763804 0.410893 -0.410893 0.763804 1849.77 583.749)" width="68.98" height="68.98" rx="11.47" ry="11.47"/>
   </g>
   <g>
    <rect class="fil1 str1" transform="matrix(0.481661 0.660622 -0.660622 0.481661 1960.59 662.869)" width="68.98" height="68.98" rx="11.47" ry="11.47"/>
    <rect class="fil1 str1" transform="matrix(0.481661 0.660622 -0.660622 0.481661 1995.1 710.196)" width="68.98" height="68.98" rx="11.47" ry="11.47"/>
   </g>
   <g>
    <rect class="fil1 str1" transform="matrix(0.124109 0.808094 -0.808094 0.124109 2071.43 855.917)" width="68.98" height="68.98" rx="11.47" ry="11.47"/>
    <rect class="fil1 str1" transform="matrix(0.124109 0.808094 -0.808094 0.124109 2080.32 913.809)" width="68.98" height="68.98" rx="11.47" ry="11.47"/>
   </g>
   <circle class="fil1 str2" cx="2433.06" cy="1312.14" r="109.08"/>
   <circle class="fil1 str2" cx="2426.08" cy="1058.6" r="109.08"/>
   <circle class="fil1 str2" cx="2402.84" cy="793.42" r="109.08"/>
   <circle class="fil1 str2" cx="2340.05" cy="530.58" r="109.08"/>
   <circle class="fil1 str2" cx="2170.24" cy="318.92" r="109.08"/>
   <circle class="fil1 str2" cx="1912.04" cy="214.21" r="109.08"/>
   <circle class="fil1 str2" cx="1637.53" cy="168.73" r="109.08"/>
   <g>
    <rect class="fil1 str1" transform="matrix(0.898576 0.0398841 -0.0398841 0.898576 1447.7 31.197)" width="68.98" height="68.98" rx="11.47" ry="11.47"/>
    <rect class="fil1 str1" transform="matrix(0.898576 0.0398841 -0.0398841 0.898576 1512.07 34.0543)" width="68.98" height="68.98" rx="11.47" ry="11.47"/>
   </g>
   <g>
    <rect class="fil1 str1" transform="matrix(0.875604 0.0388644 -0.0388644 0.875604 1443.47 230.863)" width="68.98" height="68.98" rx="11.47" ry="11.47"/>
    <rect class="fil1 str1" transform="matrix(0.875604 0.0388644 -0.0388644 0.875604 1506.19 233.647)" width="68.98" height="68.98" rx="11.47" ry="11.47"/>
   </g>
   <g>
    <rect class="fil1 str1" transform="matrix(0.953844 0.137073 -0.137073 0.953844 1728.14 50.0546)" width="68.98" height="68.98" rx="11.47" ry="11.47"/>
    <rect class="fil1 str1" transform="matrix(0.953844 0.137073 -0.137073 0.953844 1796.48 59.8744)" width="68.98" height="68.98" rx="11.47" ry="11.47"/>
   </g>
   <g>
    <rect class="fil1 str1" transform="matrix(0.936445 0.153526 -0.153526 0.936445 1698.1 249.399)" width="68.98" height="68.98" rx="11.47" ry="11.47"/>
    <rect class="fil1 str1" transform="matrix(0.936445 0.153526 -0.153526 0.936445 1765.18 260.398)" width="68.98" height="68.98" rx="11.47" ry="11.47"/>
   </g>
   <g>
    <rect class="fil1 str1" transform="matrix(0.0314346 0.96313 -0.96313 0.0314346 2561.97 1115.24)" width="68.98" height="68.98" rx="11.47" ry="11.47"/>
    <rect class="fil1 str1" transform="matrix(0.0314346 0.96313 -0.96313 0.0314346 2564.22 1184.24)" width="68.98" height="68.98" rx="11.47" ry="11.47"/>
   </g>
   <g>
    <rect class="fil1 str1" transform="matrix(0.0314346 0.96313 -0.96313 0.0314346 2355.79 1122.62)" width="68.98" height="68.98" rx="11.47" ry="11.47"/>
    <rect class="fil1 str1" transform="matrix(0.0314346 0.96313 -0.96313 0.0314346 2358.04 1191.62)" width="68.98" height="68.98" rx="11.47" ry="11.47"/>
   </g>
   <g>
    <rect class="fil1 str1" transform="matrix(0.0884704 0.959573 -0.959573 0.0884704 2544.58 847.921)" width="68.98" height="68.98" rx="11.47" ry="11.47"/>
    <rect class="fil1 str1" transform="matrix(0.0884704 0.959573 -0.959573 0.0884704 2550.92 916.664)" width="68.98" height="68.98" rx="11.47" ry="11.47"/>
   </g>
   <g>
    <rect class="fil1 str1" transform="matrix(0.0884704 0.959573 -0.959573 0.0884704 2337.67 864.996)" width="68.98" height="68.98" rx="11.47" ry="11.47"/>
    <rect class="fil1 str1" transform="matrix(0.0884704 0.959573 -0.959573 0.0884704 2344 933.74)" width="68.98" height="68.98" rx="11.47" ry="11.47"/>
   </g>
   <g>
    <rect class="fil1 str1" transform="matrix(0.202043 1.01093 -1.01093 0.202043 2497.85 557.597)" width="68.98" height="68.98" rx="11.47" ry="11.47"/>
    <rect class="fil1 str1" transform="matrix(0.202043 1.01093 -1.01093 0.202043 2512.33 630.019)" width="68.98" height="68.98" rx="11.47" ry="11.47"/>
   </g>
   <g>
    <rect class="fil1 str1" transform="matrix(0.266681 0.907526 -0.907526 0.266681 2281.99 612.253)" width="68.98" height="68.98" rx="11.47" ry="11.47"/>
    <rect class="fil1 str1" transform="matrix(0.266681 0.907526 -0.907526 0.266681 2301.1 677.268)" width="68.98" height="68.98" rx="11.47" ry="11.47"/>
   </g>
   <g>
    <rect class="fil1 str1" transform="matrix(0.950763 0.518576 -0.518576 0.950763 1955.5 300.96)" width="68.98" height="68.98" rx="11.47" ry="11.47"/>
    <rect class="fil1 str1" transform="matrix(0.950763 0.518576 -0.518576 0.950763 2023.61 338.111)" width="68.98" height="68.98" rx="11.47" ry="11.47"/>
   </g>
   <g>
    <rect class="fil1 str1" transform="matrix(0.713121 0.815064 -0.815064 0.713121 2142.62 414.965)" width="68.98" height="68.98" rx="11.47" ry="11.47"/>
    <rect class="fil1 str1" transform="matrix(0.713121 0.815064 -0.815064 0.713121 2193.7 473.356)" width="68.98" height="68.98" rx="11.47" ry="11.47"/>
   </g>
   <g>
    <rect class="fil1 str1" transform="matrix(0.983661 0.393904 -0.393904 0.983661 2027.86 102.882)" width="68.98" height="68.98" rx="11.47" ry="11.47"/>
    <rect class="fil1 str1" transform="matrix(0.983661 0.393904 -0.393904 0.983661 2098.33 131.102)" width="68.98" height="68.98" rx="11.47" ry="11.47"/>
   </g>
   <g>
    <rect class="fil1 str1" transform="matrix(0.68322 0.901217 -0.901217 0.68322 2331.6 261.12)" width="68.98" height="68.98" rx="11.47" ry="11.47"/>
    <rect class="fil1 str1" transform="matrix(0.68322 0.901217 -0.901217 0.68322 2380.55 325.683)" width="68.98" height="68.98" rx="11.47" ry="11.47"/>
   </g>
   <circle class="fil1 str2" cx="1241.26" cy="2196.89" r="109.08"/>
   <circle class="fil1 str2" cx="582.18" cy="1590.81" r="109.08"/>
   <circle class="fil1 str2" cx="985.97" cy="2163.89" r="109.08"/>
   <circle class="fil1 str2" cx="753.16" cy="2056.48" r="109.08"/>
   <circle class="fil1 str2" cx="621.92" cy="1848.77" r="109.08"/>
   <g>
    <rect class="fil1 str1" transform="matrix(-0.846354 -0.0969256 0.0969256 -0.846354 1154.9 2315.14)" width="68.98" height="68.98" rx="11.47" ry="11.47"/>
    <rect class="fil1 str1" transform="matrix(-0.846354 -0.0969256 0.0969256 -0.846354 1094.27 2308.2)" width="68.98" height="68.98" rx="11.47" ry="11.47"/>
   </g>
   <g>
    <rect class="fil1 str1" transform="matrix(-0.859913 -0.11305 0.11305 -0.859913 1184.27 2118.2)" width="68.98" height="68.98" rx="11.47" ry="11.47"/>
    <rect class="fil1 str1" transform="matrix(-0.859913 -0.11305 0.11305 -0.859913 1122.67 2110.1)" width="68.98" height="68.98" rx="11.47" ry="11.47"/>
   </g>
   <g>
    <rect class="fil1 str1" transform="matrix(-0.0173465 -0.899918 0.899918 -0.0173465 458.063 1516.09)" width="68.98" height="68.98" rx="11.47" ry="11.47"/>
    <rect class="fil1 str1" transform="matrix(-0.0173465 -0.899918 0.899918 -0.0173465 456.82 1451.62)" width="68.98" height="68.98" rx="11.47" ry="11.47"/>
   </g>
   <g>
    <rect class="fil1 str1" transform="matrix(-0.0161 -0.835249 0.835249 -0.0161 639.693 1509.86)" width="68.98" height="68.98" rx="11.47" ry="11.47"/>
    <rect class="fil1 str1" transform="matrix(-0.0161 -0.835249 0.835249 -0.0161 638.539 1450.02)" width="68.98" height="68.98" rx="11.47" ry="11.47"/>
   </g>
   <g>
    <rect class="fil1 str1" transform="matrix(-0.08254 -0.896292 0.896292 -0.08254 481.065 1795.32)" width="68.98" height="68.98" rx="11.47" ry="11.47"/>
    <rect class="fil1 str1" transform="matrix(-0.08254 -0.896292 0.896292 -0.08254 475.152 1731.11)" width="68.98" height="68.98" rx="11.47" ry="11.47"/>
   </g>
   <g>
    <rect class="fil1 str1" transform="matrix(-0.501151 -0.803499 0.803499 -0.501151 598.599 2087.56)" width="68.98" height="68.98" rx="11.47" ry="11.47"/>
    <rect class="fil1 str1" transform="matrix(-0.501151 -0.803499 0.803499 -0.501151 562.697 2029.99)" width="68.98" height="68.98" rx="11.47" ry="11.47"/>
   </g>
   <g>
    <rect class="fil1 str1" transform="matrix(-0.86899 -0.376322 0.376322 -0.86899 869.771 2266.32)" width="68.98" height="68.98" rx="11.47" ry="11.47"/>
    <rect class="fil1 str1" transform="matrix(-0.86899 -0.376322 0.376322 -0.86899 807.516 2239.36)" width="68.98" height="68.98" rx="11.47" ry="11.47"/>
   </g>
   <g>
    <rect class="fil1 str1" transform="matrix(-0.763804 -0.410893 0.410893 -0.763804 951.254 2070.05)" width="68.98" height="68.98" rx="11.47" ry="11.47"/>
    <rect class="fil1 str1" transform="matrix(-0.763804 -0.410893 0.410893 -0.763804 896.535 2040.61)" width="68.98" height="68.98" rx="11.47" ry="11.47"/>
   </g>
   <g>
    <rect class="fil1 str1" transform="matrix(-0.481661 -0.660622 0.660622 -0.481661 785.714 1961.49)" width="68.98" height="68.98" rx="11.47" ry="11.47"/>
    <rect class="fil1 str1" transform="matrix(-0.481661 -0.660622 0.660622 -0.481661 751.208 1914.16)" width="68.98" height="68.98" rx="11.47" ry="11.47"/>
   </g>
   <g>
    <rect class="fil1 str1" transform="matrix(-0.124109 -0.808094 0.808094 -0.124109 674.88 1768.44)" width="68.98" height="68.98" rx="11.47" ry="11.47"/>
    <rect class="fil1 str1" transform="matrix(-0.124109 -0.808094 0.808094 -0.124109 665.989 1710.55)" width="68.98" height="68.98" rx="11.47" ry="11.47"/>
   </g>
   <g>
    <rect class="fil1 str1" transform="matrix(-0.851883 -0.00237412 0.00237412 -0.851883 1432.87 2324.26)" width="68.98" height="68.98" rx="11.47" ry="11.47"/>
    <rect class="fil1 str1" transform="matrix(-0.851883 -0.00237412 0.00237412 -0.851883 1371.84 2324.09)" width="68.98" height="68.98" rx="11.47" ry="11.47"/>
   </g>
   <g>
    <rect class="fil1 str1" transform="matrix(-0.851883 -0.00237412 0.00237412 -0.851883 1432.87 2125.38)" width="68.98" height="68.98" rx="11.47" ry="11.47"/>
    <rect class="fil1 str1" transform="matrix(-0.851883 -0.00237412 0.00237412 -0.851883 1371.84 2125.21)" width="68.98" height="68.98" rx="11.47" ry="11.47"/>
   </g>
   <circle class="fil1 str2" cx="1373.04" cy="2464.65" r="109.08"/>
   <circle class="fil1 str2" cx="320.23" cy="1565.76" r="109.08"/>
   <circle class="fil1 str2" cx="343.47" cy="1830.94" r="109.08"/>
   <circle class="fil1 str2" cx="406.26" cy="2093.78" r="109.08"/>
   <circle class="fil1 str2" cx="576.07" cy="2305.44" r="109.08"/>
   <circle class="fil1 str2" cx="834.27" cy="2410.15" r="109.08"/>
   <circle class="fil1 str2" cx="1108.77" cy="2455.63" r="109.08"/>
   <g>
    <rect class="fil1 str1" transform="matrix(-0.898576 -0.0398841 0.0398841 -0.898576 1298.61 2593.16)" width="68.98" height="68.98" rx="11.47" ry="11.47"/>
    <rect class="fil1 str1" transform="matrix(-0.898576 -0.0398841 0.0398841 -0.898576 1234.24 2590.31)" width="68.98" height="68.98" rx="11.47" ry="11.47"/>
   </g>
   <g>
    <rect class="fil1 str1" transform="matrix(-0.875604 -0.0388644 0.0388644 -0.875604 1302.84 2393.5)" width="68.98" height="68.98" rx="11.47" ry="11.47"/>
    <rect class="fil1 str1" transform="matrix(-0.875604 -0.0388644 0.0388644 -0.875604 1240.11 2390.71)" width="68.98" height="68.98" rx="11.47" ry="11.47"/>
   </g>
   <g>
    <rect class="fil1 str1" transform="matrix(-0.953844 -0.137073 0.137073 -0.953844 1018.16 2574.3)" width="68.98" height="68.98" rx="11.47" ry="11.47"/>
    <rect class="fil1 str1" transform="matrix(-0.953844 -0.137073 0.137073 -0.953844 949.831 2564.48)" width="68.98" height="68.98" rx="11.47" ry="11.47"/>
   </g>
   <g>
    <rect class="fil1 str1" transform="matrix(-0.936445 -0.153526 0.153526 -0.936445 1048.21 2374.96)" width="68.98" height="68.98" rx="11.47" ry="11.47"/>
    <rect class="fil1 str1" transform="matrix(-0.936445 -0.153526 0.153526 -0.936445 981.124 2363.96)" width="68.98" height="68.98" rx="11.47" ry="11.47"/>
   </g>
   <g>
    <rect class="fil1 str1" transform="matrix(-0.0314346 -0.96313 0.96313 -0.0314346 184.341 1509.12)" width="68.98" height="68.98" rx="11.47" ry="11.47"/>
    <rect class="fil1 str1" transform="matrix(-0.0314346 -0.96313 0.96313 -0.0314346 182.089 1440.12)" width="68.98" height="68.98" rx="11.47" ry="11.47"/>
   </g>
   <g>
    <rect class="fil1 str1" transform="matrix(-0.0314346 -0.96313 0.96313 -0.0314346 390.521 1501.74)" width="68.98" height="68.98" rx="11.47" ry="11.47"/>
    <rect class="fil1 str1" transform="matrix(-0.0314346 -0.96313 0.96313 -0.0314346 388.269 1432.74)" width="68.98" height="68.98" rx="11.47" ry="11.47"/>
   </g>
   <g>
    <rect class="fil1 str1" transform="matrix(-0.0884704 -0.959573 0.959573 -0.0884704 201.729 1776.44)" width="68.98" height="68.98" rx="11.47" ry="11.47"/>
    <rect class="fil1 str1" transform="matrix(-0.0884704 -0.959573 0.959573 -0.0884704 195.391 1707.69)" width="68.98" height="68.98" rx="11.47" ry="11.47"/>
   </g>
   <g>
    <rect class="fil1 str1" transform="matrix(-0.0884704 -0.959573 0.959573 -0.0884704 408.642 1759.36)" width="68.98" height="68.98" rx="11.47" ry="11.47"/>
    <rect class="fil1 str1" transform="matrix(-0.0884704 -0.959573 0.959573 -0.0884704 402.304 1690.62)" width="68.98" height="68.98" rx="11.47" ry="11.47"/>
   </g>
   <g>
    <rect class="fil1 str1" transform="matrix(-0.202043 -1.01093 1.01093 -0.202043 248.457 2066.76)" width="68.98" height="68.98" rx="11.47" ry="11.47"/>
    <rect class="fil1 str1" transform="matrix(-0.202043 -1.01093 1.01093 -0.202043 233.982 1994.34)" width="68.98" height="68.98" rx="11.47" ry="11.47"/>
   </g>
   <g>
    <rect class="fil1 str1" transform="matrix(-0.266681 -0.907526 0.907526 -0.266681 464.314 2012.11)" width="68.98" height="68.98" rx="11.47" ry="11.47"/>
    <rect class="fil1 str1" transform="matrix(-0.266681 -0.907526 0.907526 -0.266681 445.209 1947.09)" width="68.98" height="68.98" rx="11.47" ry="11.47"/>
   </g>
   <g>
    <rect class="fil1 str1" transform="matrix(-0.950763 -0.518576 0.518576 -0.950763 790.807 2323.4)" width="68.98" height="68.98" rx="11.47" ry="11.47"/>
    <rect class="fil1 str1" transform="matrix(-0.950763 -0.518576 0.518576 -0.950763 722.694 2286.25)" width="68.98" height="68.98" rx="11.47" ry="11.47"/>
   </g>
   <g>
    <rect class="fil1 str1" transform="matrix(-0.713121 -0.815064 0.815064 -0.713121 603.692 2209.39)" width="68.98" height="68.98" rx="11.47" ry="11.47"/>
    <rect class="fil1 str1" transform="matrix(-0.713121 -0.815064 0.815064 -0.713121 552.604 2151)" width="68.98" height="68.98" rx="11.47" ry="11.47"/>
   </g>
   <g>
    <rect class="fil1 str1" transform="matrix(-0.983661 -0.393904 0.393904 -0.983661 718.45 2521.48)" width="68.98" height="68.98" rx="11.47" ry="11.47"/>
    <rect class="fil1 str1" transform="matrix(-0.983661 -0.393904 0.393904 -0.983661 647.981 2493.26)" width="68.98" height="68.98" rx="11.47" ry="11.47"/>
   </g>
   <g>
    <rect class="fil1 str1" transform="matrix(-0.68322 -0.901217 0.901217 -0.68322 414.707 2363.24)" width="68.98" height="68.98" rx="11.47" ry="11.47"/>
    <rect class="fil1 str1" transform="matrix(-0.68322 -0.901217 0.901217 -0.68322 365.761 2298.68)" width="68.98" height="68.98" rx="11.47" ry="11.47"/>
   </g>
   <circle class="fil1 str2" cx="1505.05" cy="2196.89" r="109.08"/>
   <circle class="fil1 str2" cx="2164.13" cy="1590.81" r="109.08"/>
   <circle class="fil1 str2" cx="1760.34" cy="2163.89" r="109.08"/>
   <circle class="fil1 str2" cx="1993.15" cy="2056.48" r="109.08"/>
   <circle class="fil1 str2" cx="2124.39" cy="1848.77" r="109.08"/>
   <g>
    <rect class="fil1 str1" transform="matrix(0.846354 -0.0969256 -0.0969256 -0.846354 1591.41 2315.14)" width="68.98" height="68.98" rx="11.47" ry="11.47"/>
    <rect class="fil1 str1" transform="matrix(0.846354 -0.0969256 -0.0969256 -0.846354 1652.04 2308.2)" width="68.98" height="68.98" rx="11.47" ry="11.47"/>
   </g>
   <g>
    <rect class="fil1 str1" transform="matrix(0.859913 -0.11305 -0.11305 -0.859913 1562.03 2118.2)" width="68.98" height="68.98" rx="11.47" ry="11.47"/>
    <rect class="fil1 str1" transform="matrix(0.859913 -0.11305 -0.11305 -0.859913 1623.64 2110.1)" width="68.98" height="68.98" rx="11.47" ry="11.47"/>
   </g>
   <g>
    <rect class="fil1 str1" transform="matrix(0.0173465 -0.899918 -0.899918 -0.0173465 2288.25 1516.09)" width="68.98" height="68.98" rx="11.47" ry="11.47"/>
    <rect class="fil1 str1" transform="matrix(0.0173465 -0.899918 -0.899918 -0.0173465 2289.49 1451.62)" width="68.98" height="68.98" rx="11.47" ry="11.47"/>
   </g>
   <g>
    <rect class="fil1 str1" transform="matrix(0.0161 -0.835249 -0.835249 -0.0161 2106.62 1509.86)" width="68.98" height="68.98" rx="11.47" ry="11.47"/>
    <rect class="fil1 str1" transform="matrix(0.0161 -0.835249 -0.835249 -0.0161 2107.77 1450.02)" width="68.98" height="68.98" rx="11.47" ry="11.47"/>
   </g>
   <g>
    <rect class="fil1 str1" transform="matrix(0.08254 -0.896292 -0.896292 -0.08254 2265.24 1795.32)" width="68.98" height="68.98" rx="11.47" ry="11.47"/>
    <rect class="fil1 str1" transform="matrix(0.08254 -0.896292 -0.896292 -0.08254 2271.16 1731.11)" width="68.98" height="68.98" rx="11.47" ry="11.47"/>
   </g>
   <g>
    <rect class="fil1 str1" transform="matrix(0.501151 -0.803499 -0.803499 -0.501151 2147.71 2087.56)" width="68.98" height="68.98" rx="11.47" ry="11.47"/>
    <rect class="fil1 str1" transform="matrix(0.501151 -0.803499 -0.803499 -0.501151 2183.61 2029.99)" width="68.98" height="68.98" rx="11.47" ry="11.47"/>
   </g>
   <g>
    <rect class="fil1 str1" transform="matrix(0.86899 -0.376322 -0.376322 -0.86899 1876.54 2266.32)" width="68.98" height="68.98" rx="11.47" ry="11.47"/>
    <rect class="fil1 str1" transform="matrix(0.86899 -0.376322 -0.376322 -0.86899 1938.79 2239.36)" width="68.98" height="68.98" rx="11.47" ry="11.47"/>
   </g>
   <g>
    <rect class="fil1 str1" transform="matrix(0.763804 -0.410893 -0.410893 -0.763804 1795.05 2070.05)" width="68.98" height="68.98" rx="11.47" ry="11.47"/>
    <rect class="fil1 str1" transform="matrix(0.763804 -0.410893 -0.410893 -0.763804 1849.77 2040.61)" width="68.98" height="68.98" rx="11.47" ry="11.47"/>
   </g>
   <g>
    <rect class="fil1 str1" transform="matrix(0.481661 -0.660622 -0.660622 -0.481661 1960.59 1961.49)" width="68.98" height="68.98" rx="11.47" ry="11.47"/>
    <rect class="fil1 str1" transform="matrix(0.481661 -0.660622 -0.660622 -0.481661 1995.1 1914.16)" width="68.98" height="68.98" rx="11.47" ry="11.47"/>
   </g>
   <g>
    <rect class="fil1 str1" transform="matrix(0.124109 -0.808094 -0.808094 -0.124109 2071.43 1768.44)" width="68.98" height="68.98" rx="11.47" ry="11.47"/>
    <rect class="fil1 str1" transform="matrix(0.124109 -0.808094 -0.808094 -0.124109 2080.32 1710.55)" width="68.98" height="68.98" rx="11.47" ry="11.47"/>
   </g>
   <circle class="fil1 str2" cx="2426.08" cy="1565.76" r="109.08"/>
   <circle class="fil1 str2" cx="2402.84" cy="1830.94" r="109.08"/>
   <circle class="fil1 str2" cx="2340.05" cy="2093.78" r="109.08"/>
   <circle class="fil1 str2" cx="2170.24" cy="2305.44" r="109.08"/>
   <circle class="fil1 str2" cx="1912.04" cy="2410.15" r="109.08"/>
   <circle class="fil1 str2" cx="1637.53" cy="2455.63" r="109.08"/>
   <g>
    <rect class="fil1 str1" transform="matrix(0.898576 -0.0398841 -0.0398841 -0.898576 1447.7 2593.16)" width="68.98" height="68.98" rx="11.47" ry="11.47"/>
    <rect class="fil1 str1" transform="matrix(0.898576 -0.0398841 -0.0398841 -0.898576 1512.07 2590.31)" width="68.98" height="68.98" rx="11.47" ry="11.47"/>
   </g>
   <g>
    <rect class="fil1 str1" transform="matrix(0.875604 -0.0388644 -0.0388644 -0.875604 1443.47 2393.5)" width="68.98" height="68.98" rx="11.47" ry="11.47"/>
    <rect class="fil1 str1" transform="matrix(0.875604 -0.0388644 -0.0388644 -0.875604 1506.19 2390.71)" width="68.98" height="68.98" rx="11.47" ry="11.47"/>
   </g>
   <g>
    <rect class="fil1 str1" transform="matrix(0.953844 -0.137073 -0.137073 -0.953844 1728.14 2574.3)" width="68.98" height="68.98" rx="11.47" ry="11.47"/>
    <rect class="fil1 str1" transform="matrix(0.953844 -0.137073 -0.137073 -0.953844 1796.48 2564.48)" width="68.98" height="68.98" rx="11.47" ry="11.47"/>
   </g>
   <g>
    <rect class="fil1 str1" transform="matrix(0.936445 -0.153526 -0.153526 -0.936445 1698.1 2374.96)" width="68.98" height="68.98" rx="11.47" ry="11.47"/>
    <rect class="fil1 str1" transform="matrix(0.936445 -0.153526 -0.153526 -0.936445 1765.18 2363.96)" width="68.98" height="68.98" rx="11.47" ry="11.47"/>
   </g>
   <g>
    <rect class="fil1 str1" transform="matrix(0.0314346 -0.96313 -0.96313 -0.0314346 2355.79 1501.74)" width="68.98" height="68.98" rx="11.47" ry="11.47"/>
    <rect class="fil1 str1" transform="matrix(0.0314346 -0.96313 -0.96313 -0.0314346 2358.04 1432.74)" width="68.98" height="68.98" rx="11.47" ry="11.47"/>
   </g>
   <g>
    <rect class="fil1 str1" transform="matrix(0.0884704 -0.959573 -0.959573 -0.0884704 2544.58 1776.44)" width="68.98" height="68.98" rx="11.47" ry="11.47"/>
    <rect class="fil1 str1" transform="matrix(0.0884704 -0.959573 -0.959573 -0.0884704 2550.92 1707.69)" width="68.98" height="68.98" rx="11.47" ry="11.47"/>
   </g>
   <g>
    <rect class="fil1 str1" transform="matrix(0.0884704 -0.959573 -0.959573 -0.0884704 2337.67 1759.36)" width="68.98" height="68.98" rx="11.47" ry="11.47"/>
    <rect class="fil1 str1" transform="matrix(0.0884704 -0.959573 -0.959573 -0.0884704 2344 1690.62)" width="68.98" height="68.98" rx="11.47" ry="11.47"/>
   </g>
   <g>
    <rect class="fil1 str1" transform="matrix(0.202043 -1.01093 -1.01093 -0.202043 2497.85 2066.76)" width="68.98" height="68.98" rx="11.47" ry="11.47"/>
    <rect class="fil1 str1" transform="matrix(0.202043 -1.01093 -1.01093 -0.202043 2512.33 1994.34)" width="68.98" height="68.98" rx="11.47" ry="11.47"/>
   </g>
   <g>
    <rect class="fil1 str1" transform="matrix(0.266681 -0.907526 -0.907526 -0.266681 2281.99 2012.11)" width="68.98" height="68.98" rx="11.47" ry="11.47"/>
    <rect class="fil1 str1" transform="matrix(0.266681 -0.907526 -0.907526 -0.266681 2301.1 1947.09)" width="68.98" height="68.98" rx="11.47" ry="11.47"/>
   </g>
   <g>
    <rect class="fil1 str1" transform="matrix(0.950763 -0.518576 -0.518576 -0.950763 1955.5 2323.4)" width="68.98" height="68.98" rx="11.47" ry="11.47"/>
    <rect class="fil1 str1" transform="matrix(0.950763 -0.518576 -0.518576 -0.950763 2023.61 2286.25)" width="68.98" height="68.98" rx="11.47" ry="11.47"/>
   </g>
   <g>
    <rect class="fil1 str1" transform="matrix(0.713121 -0.815064 -0.815064 -0.713121 2142.62 2209.39)" width="68.98" height="68.98" rx="11.47" ry="11.47"/>
    <rect class="fil1 str1" transform="matrix(0.713121 -0.815064 -0.815064 -0.713121 2193.7 2151)" width="68.98" height="68.98" rx="11.47" ry="11.47"/>
   </g>
   <g>
    <rect class="fil1 str1" transform="matrix(0.983661 -0.393904 -0.393904 -0.983661 2027.86 2521.48)" width="68.98" height="68.98" rx="11.47" ry="11.47"/>
    <rect class="fil1 str1" transform="matrix(0.983661 -0.393904 -0.393904 -0.983661 2098.33 2493.26)" width="68.98" height="68.98" rx="11.47" ry="11.47"/>
   </g>
   <g>
    <rect class="fil1 str1" transform="matrix(0.68322 -0.901217 -0.901217 -0.68322 2331.6 2363.24)" width="68.98" height="68.98" rx="11.47" ry="11.47"/>
    <rect class="fil1 str1" transform="matrix(0.68322 -0.901217 -0.901217 -0.68322 2380.55 2298.68)" width="68.98" height="68.98" rx="11.47" ry="11.47"/>
   </g>
   <g>
    <rect class="fil1 str1" transform="matrix(0.0314346 -0.96313 -0.96313 -0.0314346 2562.13 1509.12)" width="68.98" height="68.98" rx="11.47" ry="11.47"/>
    <rect class="fil1 str1" transform="matrix(0.0314346 -0.96313 -0.96313 -0.0314346 2564.38 1440.12)" width="68.98" height="68.98" rx="11.47" ry="11.47"/>
   </g>
   <g>
    <g>
     <polygon class="fil0 str3" points="1375.52,846.75 1607.59,768.67 1373.53,617.96 1143.43,768.67 "/>
     <polygon class="fil0 str3" points="973.39,1314.05 901.58,1081.92 760.62,1312.24 904.65,1546.13 "/>
     <polygon class="fil0 str3" points="1056.9,957.12 901.58,1081.94 850.51,775.78 1143.43,768.66 "/>
     <polyline class="fil0 str3" points="1375.52,846.75 1056.91,957.12 973.39,1314.03 "/>
     <polygon class="fil0 str3" points="1694.12,957.12 1849.46,1081.95 1607.6,768.67 "/>
     <polyline class="fil0 str3" points="1375.52,846.75 1694.12,957.12 1777.64,1314.03 "/>
     <polygon class="fil0 str3" points="1375.52,1780.64 1607.59,1858.73 1375.52,2006.38 1143.43,1858.73 "/>
     <polygon class="fil0 str3" points="1056.9,1670.28 904.64,1546.11 852.03,1850.62 1143.43,1858.73 "/>
     <polyline class="fil0 str3" points="1375.52,1780.64 1056.91,1670.27 973.39,1313.36 "/>
     <polyline class="fil0 str3" points="1375.52,1780.64 1694.12,1670.27 1777.64,1313.36 "/>
     <line class="fil0 str3" x1="1143.43" y1="768.67" x2="1063.3" y2= "648.49" />
     <line class="fil0 str3" x1="899.65" y1="1082.6" x2="767.31" y2= "1088.25" />
     <line class="fil0 str3" x1="1607.64" y1="768.67" x2="1687.78" y2= "648.49" />
     <line class="fil0 str3" x1="1851.42" y1="1082.59" x2="1976.12" y2= "1087.45" />
     <line class="fil0 str3" x1="1607.64" y1="1859.44" x2="1687.78" y2= "1979.62" />
     <line class="fil0 str3" x1="1851.42" y1="1545.52" x2="1976.12" y2= "1540.66" />
     <polygon class="fil0 str3" points="1777.64,1314.05 1846.38,1081.94 1985.45,1312.24 1846.38,1546.13 "/>
     <polygon class="fil0 str3" points="1694.13,957.12 1849.45,1081.94 1898.96,780.11 1607.59,768.66 "/>
     <polyline class="fil0 str3" points="1375.51,846.75 1694.12,957.12 1777.63,1314.03 "/>
     <polygon class="fil0 str3" points="1694.13,1670.28 1849.45,1545.43 1896.36,1847.72 1607.59,1858.73 "/>
     <polyline class="fil0 str3" points="1375.51,1780.64 1694.12,1670.27 1777.63,1313.36 "/>
     <line class="fil0 str3" x1="1607.59" y1="768.67" x2="1687.73" y2= "648.49" />
     <line class="fil0 str3" x1="1143.43" y1="1855.88" x2="1063.3" y2= "1976.07" />
     <line class="fil0 str3" x1="904.65" y1="1546.13" x2="767.37" y2= "1537.44" />
     <path class="fil0 str4" d="M1944.79 861.55c-36.49,-92.08 -103.24,-152.73 -189.77,-189.98 -165.56,-71.28 -598.41,-71.28 -763.97,0 -86.53,37.25 -153.28,97.9 -189.77,189.98 -54.21,136.79 -54.21,764.58 0,901.38 36.49,92.08 103.24,152.73 189.77,189.98 165.56,71.28 598.41,71.28 763.97,0 86.53,-37.25 153.28,-97.9 189.77,-189.98 54.21,-136.8 54.21,-764.59 0,-901.38z"/>
    </g>
    <circle class="fil1 str1" cx="861.41" cy="706.09" r="92.76"/>
    <circle class="fil1 str1" cx="1884.74" cy="706.09" r="92.76"/>
    <circle class="fil1 str1" cx="861.41" cy="1918.19" r="92.76"/>
    <circle class="fil1 str1" cx="1884.74" cy="1918.19" r="92.76"/>
   </g>
  </g>
 </g>
</svg>
