<?xml version="1.0" encoding="UTF-8" standalone="no"?><!-- Generator: Gravit.io --><svg xmlns="http://www.w3.org/2000/svg" xmlns:xlink="http://www.w3.org/1999/xlink" style="isolation:isolate" viewBox="0 0 40 40" width="40pt" height="40pt"><defs><clipPath id="_clipPath_5puJHJuiglcaMTydNSoa2AGHuuga4D2q"><rect width="40" height="40"/></clipPath></defs><g clip-path="url(#_clipPath_5puJHJuiglcaMTydNSoa2AGHuuga4D2q)"><clipPath id="_clipPath_Uho7iAmhPMGIEaZGnuJiYFSH3gUUW7M8"><rect x="5" y="5" width="30" height="30" transform="matrix(1,0,0,1,0,0)" fill="rgb(255,255,255)"/></clipPath><g clip-path="url(#_clipPath_Uho7iAmhPMGIEaZGnuJiYFSH3gUUW7M8)"><g><g><rect x="5" y="5" width="30" height="30" transform="matrix(1,0,0,1,0,0)" fill="none" vector-effect="non-scaling-stroke" stroke-width="0.176" stroke="rgb(254,254,254)" stroke-opacity="100" stroke-linejoin="miter" stroke-linecap="butt" stroke-miterlimit="2"/><g><path d=" M 13.028 19.323 C 14.198 13.997 17.198 8.849 20.393 5.75 C 24.758 9.989 28.778 18.112 28.193 25.29 C 28.193 34.82 18.248 36.744 14.228 31.062 C 12.098 28.033 12.248 22.957 13.028 19.323 Z " fill-rule="evenodd" fill="rgb(254,254,254)"/><clipPath id="_clipPath_icF6UwuiLzCGhmpWK25zdksINeLIoLmU"><path d=" M -55 -55 L 65 -55 L 65 65 L -55 65 L -55 -55 Z  M 13.028 19.323 C 14.198 13.997 17.198 8.849 20.393 5.75 C 24.758 9.989 28.778 18.112 28.193 25.29 C 28.193 34.82 18.248 36.744 14.228 31.062 C 12.098 28.033 12.248 22.957 13.028 19.323 Z " fill-rule="evenodd" fill="rgb(255,255,255)"/></clipPath><g clip-path="url(#_clipPath_icF6UwuiLzCGhmpWK25zdksINeLIoLmU)"><mask id="_mask_928jJcVEJkHxXmYxYkGSe97kDI2u6zHo" x="-200%" y="-200%" width="400%" height="400%"><rect x="-200%" y="-200%" width="400%" height="400%" style="fill:white;"/><path d=" M 13.028 19.323 C 14.198 13.997 17.198 8.849 20.393 5.75 C 24.758 9.989 28.778 18.112 28.193 25.29 C 28.193 34.82 18.248 36.744 14.228 31.062 C 12.098 28.033 12.248 22.957 13.028 19.323 Z " fill-rule="evenodd" fill="black" stroke="none"/></mask><path d=" M 13.028 19.323 C 14.198 13.997 17.198 8.849 20.393 5.75 C 24.758 9.989 28.778 18.112 28.193 25.29 C 28.193 34.82 18.248 36.744 14.228 31.062 C 12.098 28.033 12.248 22.957 13.028 19.323 Z " fill-rule="evenodd" fill="rgb(254,254,254)"/><path d=" M 13.028 19.323 C 14.198 13.997 17.198 8.849 20.393 5.75 C 24.758 9.989 28.778 18.112 28.193 25.29 C 28.193 34.82 18.248 36.744 14.228 31.062 C 12.098 28.033 12.248 22.957 13.028 19.323 Z " fill-rule="evenodd" fill="rgb(254,254,254)" mask="url(#_mask_928jJcVEJkHxXmYxYkGSe97kDI2u6zHo)" vector-effect="non-scaling-stroke" stroke-width="0.353" stroke="rgb(43,42,41)" stroke-opacity="100" stroke-linejoin="miter" stroke-linecap="butt" stroke-miterlimit="4"/></g><g><path d=" M 20.378 6.017 L 21.968 11.361 L 25.208 13.107 L 25.403 17.56 L 27.833 20.784 L 26.483 25.148 L 26.933 30.26 L 23.093 30.883 L 20.348 34.25" fill-rule="evenodd" fill="none"/><clipPath id="_clipPath_mUL3QexI05lbTBKe1zjIaILp0atIPIBy"><path d=" M -55 -55 L 65 -55 L 65 65 L -55 65 L -55 -55 Z  M 20.378 6.017 L 21.968 11.361 L 25.208 13.107 L 25.403 17.56 L 27.833 20.784 L 26.483 25.148 L 26.933 30.26 L 23.093 30.883 L 20.348 34.25 L 20.378 6.017 Z " fill-rule="evenodd" fill="rgb(255,255,255)"/></clipPath><g clip-path="url(#_clipPath_mUL3QexI05lbTBKe1zjIaILp0atIPIBy)"><mask id="_mask_vnRnYZAbCleN5DYTjFrAjLpnkkBInNNi" x="-200%" y="-200%" width="400%" height="400%"><rect x="-200%" y="-200%" width="400%" height="400%" style="fill:white;"/><path d=" M 20.378 6.017 L 21.968 11.361 L 25.208 13.107 L 25.403 17.56 L 27.833 20.784 L 26.483 25.148 L 26.933 30.26 L 23.093 30.883 L 20.348 34.25" fill-rule="evenodd" fill="black" stroke="none"/></mask><path d=" M 20.378 6.017 L 21.968 11.361 L 25.208 13.107 L 25.403 17.56 L 27.833 20.784 L 26.483 25.148 L 26.933 30.26 L 23.093 30.883 L 20.348 34.25" fill-rule="evenodd" fill="none"/><path d=" M 20.378 6.017 L 21.968 11.361 L 25.208 13.107 L 25.403 17.56 L 27.833 20.784 L 26.483 25.148 L 26.933 30.26 L 23.093 30.883 L 20.348 34.25" fill-rule="evenodd" fill="none" mask="url(#_mask_vnRnYZAbCleN5DYTjFrAjLpnkkBInNNi)" vector-effect="non-scaling-stroke" stroke-width="0.353" stroke="rgb(114,114,113)" stroke-opacity="100" stroke-linejoin="miter" stroke-linecap="butt" stroke-miterlimit="4"/></g><path d=" M 23.858 27.499 L 20.558 30.153 L 23.093 30.883 L 23.858 27.499 L 26.483 25.148 L 24.623 21.301 L 25.403 17.56 L 22.778 15.672 L 21.968 11.361 L 20.513 12.181 L 22.778 15.672 L 24.623 21.301 L 23.858 27.499 Z  M 20.378 6.017 L 18.773 11.361 L 15.533 13.107 L 15.353 17.56 L 12.923 20.784 L 14.273 25.148 L 13.823 30.26 L 17.648 30.883 L 20.348 34.25 M 16.883 27.499 L 20.183 30.153 L 17.648 30.883 L 16.883 27.499 L 14.273 25.148 L 16.118 21.301 L 15.353 17.56 L 17.963 15.672 L 18.773 11.361 L 20.228 12.181 L 17.963 15.672 L 16.118 21.301 L 16.883 27.499 Z  M 17.648 30.883 L 17.453 33.662 M 14.273 25.148 L 12.518 25.148 M 15.353 17.56 L 13.673 16.829 M 18.773 11.361 L 17.468 9.437" fill-rule="evenodd" fill="none" vector-effect="non-scaling-stroke" stroke-width="0.176" stroke="rgb(114,114,113)" stroke-opacity="100" stroke-linejoin="miter" stroke-linecap="butt" stroke-miterlimit="4"/><clipPath id="_clipPath_E5glbcP88804sEqjRZfqHXYpcGzHVS7J"><path d=" M -55 -55 L 65 -55 L 65 65 L -55 65 L -55 -55 Z  M 23.093 30.883 L 23.318 33.662 L 23.093 30.883 Z " fill-rule="evenodd" fill="rgb(255,255,255)"/></clipPath><g clip-path="url(#_clipPath_E5glbcP88804sEqjRZfqHXYpcGzHVS7J)"><mask id="_mask_l697uJBbNYbDeyUHVrIZuudFhLldpQgG" x="-200%" y="-200%" width="400%" height="400%"><rect x="-200%" y="-200%" width="400%" height="400%" style="fill:white;"/><line x1="23.093" y1="30.883" x2="23.318" y2="33.662" fill="black" stroke="none"/></mask><line x1="23.093" y1="30.883" x2="23.318" y2="33.662" mask="url(#_mask_l697uJBbNYbDeyUHVrIZuudFhLldpQgG)" vector-effect="non-scaling-stroke" stroke-width="0.353" stroke="rgb(114,114,113)" stroke-opacity="100" stroke-linejoin="miter" stroke-linecap="butt" stroke-miterlimit="4"/></g><clipPath id="_clipPath_FIsVU4zP8t8O7R1Q1u6p2kq3Bj48Amko"><path d=" M -55 -55 L 65 -55 L 65 65 L -55 65 L -55 -55 Z  M 26.483 25.148 L 28.238 25.148 L 26.483 25.148 Z " fill-rule="evenodd" fill="rgb(255,255,255)"/></clipPath><g clip-path="url(#_clipPath_FIsVU4zP8t8O7R1Q1u6p2kq3Bj48Amko)"><mask id="_mask_GAerIqLmneJnT38c8dvwBRvBS6ZUXtnq" x="-200%" y="-200%" width="400%" height="400%"><rect x="-200%" y="-200%" width="400%" height="400%" style="fill:white;"/><line x1="26.483" y1="25.148" x2="28.238" y2="25.148" fill="black" stroke="none"/></mask><line x1="26.483" y1="25.148" x2="28.238" y2="25.148" mask="url(#_mask_GAerIqLmneJnT38c8dvwBRvBS6ZUXtnq)" vector-effect="non-scaling-stroke" stroke-width="0.353" stroke="rgb(114,114,113)" stroke-opacity="100" stroke-linejoin="miter" stroke-linecap="butt" stroke-miterlimit="4"/></g><clipPath id="_clipPath_vyP3jYPxHXVOyiuGp1lWeyDpaokkx3H5"><path d=" M -55 -55 L 65 -55 L 65 65 L -55 65 L -55 -55 Z  M 25.403 17.56 L 27.083 16.829 L 25.403 17.56 Z " fill-rule="evenodd" fill="rgb(255,255,255)"/></clipPath><g clip-path="url(#_clipPath_vyP3jYPxHXVOyiuGp1lWeyDpaokkx3H5)"><mask id="_mask_Wn55aplQZkSwLgiyDmW72UdW2enNMZrH" x="-200%" y="-200%" width="400%" height="400%"><rect x="-200%" y="-200%" width="400%" height="400%" style="fill:white;"/><line x1="25.403" y1="17.56" x2="27.083" y2="16.829" fill="black" stroke="none"/></mask><line x1="25.403" y1="17.56" x2="27.083" y2="16.829" mask="url(#_mask_Wn55aplQZkSwLgiyDmW72UdW2enNMZrH)" vector-effect="non-scaling-stroke" stroke-width="0.353" stroke="rgb(114,114,113)" stroke-opacity="100" stroke-linejoin="miter" stroke-linecap="butt" stroke-miterlimit="4"/></g><clipPath id="_clipPath_EYO7BUQhYBvoqZX6D6D44dMgtrDwCYuS"><path d=" M -55 -55 L 65 -55 L 65 65 L -55 65 L -55 -55 Z  M 21.968 11.361 L 23.288 9.437 L 21.968 11.361 Z " fill-rule="evenodd" fill="rgb(255,255,255)"/></clipPath><g clip-path="url(#_clipPath_EYO7BUQhYBvoqZX6D6D44dMgtrDwCYuS)"><mask id="_mask_KDX6JMNs6zYgQlDXZ1BLOsRbpt2aNqEw" x="-200%" y="-200%" width="400%" height="400%"><rect x="-200%" y="-200%" width="400%" height="400%" style="fill:white;"/><line x1="21.968" y1="11.361" x2="23.288" y2="9.437" fill="black" stroke="none"/></mask><line x1="21.968" y1="11.361" x2="23.288" y2="9.437" mask="url(#_mask_KDX6JMNs6zYgQlDXZ1BLOsRbpt2aNqEw)" vector-effect="non-scaling-stroke" stroke-width="0.353" stroke="rgb(114,114,113)" stroke-opacity="100" stroke-linejoin="miter" stroke-linecap="butt" stroke-miterlimit="4"/></g></g></g></g></g></g></g></svg>