<?xml version="1.0" encoding="UTF-8" standalone="no"?><!-- Generator: Gravit.io --><svg xmlns="http://www.w3.org/2000/svg" xmlns:xlink="http://www.w3.org/1999/xlink" style="isolation:isolate" viewBox="0 0 40 40" width="40pt" height="40pt"><defs><clipPath id="_clipPath_UFea61Z5byAPA2uHARexYXOK9jkH1Wih"><rect width="40" height="40"/></clipPath></defs><g clip-path="url(#_clipPath_UFea61Z5byAPA2uHARexYXOK9jkH1Wih)"><clipPath id="_clipPath_CyprK22EyX8WsufSaT2K9A06PGvWY9z5"><rect x="5" y="5" width="30" height="30" transform="matrix(1,0,0,1,0,0)" fill="rgb(255,255,255)"/></clipPath><g clip-path="url(#_clipPath_CyprK22EyX8WsufSaT2K9A06PGvWY9z5)"><g><g><rect x="5" y="5" width="30" height="30" transform="matrix(1,0,0,1,0,0)" fill="none" vector-effect="non-scaling-stroke" stroke-width="0.176" stroke="rgb(254,254,254)" stroke-opacity="100" stroke-linejoin="miter" stroke-linecap="butt" stroke-miterlimit="2"/><g><path d=" M 8.605 11.023 L 5.795 5.75 L 10.948 8.554" fill-rule="evenodd" fill="none"/><clipPath id="_clipPath_ObZuPFNzhIvqDRPMdsbNu66GtY9RZLdg"><path d=" M -55 -55 L 65 -55 L 65 65 L -55 65 L -55 -55 Z  M 8.605 11.023 L 5.795 5.75 L 10.948 8.554 L 8.605 11.023 Z " fill-rule="evenodd" fill="rgb(255,255,255)"/></clipPath><g clip-path="url(#_clipPath_ObZuPFNzhIvqDRPMdsbNu66GtY9RZLdg)"><mask id="_mask_1MXXLFo8sv9RcNevIPbUi5fOpXCbSKzh" x="-200%" y="-200%" width="400%" height="400%"><rect x="-200%" y="-200%" width="400%" height="400%" style="fill:white;"/><path d=" M 8.605 11.023 L 5.795 5.75 L 10.948 8.554" fill-rule="evenodd" fill="black" stroke="none"/></mask><path d=" M 8.605 11.023 L 5.795 5.75 L 10.948 8.554" fill-rule="evenodd" fill="none"/><path d=" M 8.605 11.023 L 5.795 5.75 L 10.948 8.554" fill-rule="evenodd" fill="none" mask="url(#_mask_1MXXLFo8sv9RcNevIPbUi5fOpXCbSKzh)" vector-effect="non-scaling-stroke" stroke-width="0.353" stroke="rgb(157,158,158)" stroke-opacity="100" stroke-linejoin="miter" stroke-linecap="butt" stroke-miterlimit="4"/></g><path d=" M 29.052 8.554 L 34.25 5.75 L 31.486 10.932" fill-rule="evenodd" fill="none"/><clipPath id="_clipPath_ndQD0jw37rT9z1lDQQvDYRtyvaoVQH5M"><path d=" M -55 -55 L 65 -55 L 65 65 L -55 65 L -55 -55 Z  M 29.052 8.554 L 34.25 5.75 L 31.486 10.932 L 29.052 8.554 Z " fill-rule="evenodd" fill="rgb(255,255,255)"/></clipPath><g clip-path="url(#_clipPath_ndQD0jw37rT9z1lDQQvDYRtyvaoVQH5M)"><mask id="_mask_RLvvnssHTiV1Ug8hcRKscvPwiYQYYQbL" x="-200%" y="-200%" width="400%" height="400%"><rect x="-200%" y="-200%" width="400%" height="400%" style="fill:white;"/><path d=" M 29.052 8.554 L 34.25 5.75 L 31.486 10.932" fill-rule="evenodd" fill="black" stroke="none"/></mask><path d=" M 29.052 8.554 L 34.25 5.75 L 31.486 10.932" fill-rule="evenodd" fill="none"/><path d=" M 29.052 8.554 L 34.25 5.75 L 31.486 10.932" fill-rule="evenodd" fill="none" mask="url(#_mask_RLvvnssHTiV1Ug8hcRKscvPwiYQYYQbL)" vector-effect="non-scaling-stroke" stroke-width="0.353" stroke="rgb(157,158,158)" stroke-opacity="100" stroke-linejoin="miter" stroke-linecap="butt" stroke-miterlimit="4"/></g><path d=" M 29.052 31.461 L 34.25 34.235 L 31.486 29.099" fill-rule="evenodd" fill="none"/><clipPath id="_clipPath_9r9tJQcETcGUymXuStrsWo2lVU2VA0u1"><path d=" M -55 -55 L 65 -55 L 65 65 L -55 65 L -55 -55 Z  M 29.052 31.461 L 34.25 34.235 L 31.486 29.099 L 29.052 31.461 Z " fill-rule="evenodd" fill="rgb(255,255,255)"/></clipPath><g clip-path="url(#_clipPath_9r9tJQcETcGUymXuStrsWo2lVU2VA0u1)"><mask id="_mask_Q9FaZUBiP2VaCcsL9acZ2qZ3sBIzIrhm" x="-200%" y="-200%" width="400%" height="400%"><rect x="-200%" y="-200%" width="400%" height="400%" style="fill:white;"/><path d=" M 29.052 31.461 L 34.25 34.235 L 31.486 29.099" fill-rule="evenodd" fill="black" stroke="none"/></mask><path d=" M 29.052 31.461 L 34.25 34.235 L 31.486 29.099" fill-rule="evenodd" fill="none"/><path d=" M 29.052 31.461 L 34.25 34.235 L 31.486 29.099" fill-rule="evenodd" fill="none" mask="url(#_mask_Q9FaZUBiP2VaCcsL9acZ2qZ3sBIzIrhm)" vector-effect="non-scaling-stroke" stroke-width="0.353" stroke="rgb(157,158,158)" stroke-opacity="100" stroke-linejoin="miter" stroke-linecap="butt" stroke-miterlimit="4"/></g><path d=" M 8.605 11.023 L 8.605 29.099 C 13.607 29.175 19.947 29.785 29.052 31.461 C 29.383 25.807 29.998 19.405 31.486 10.932 C 27.55 10.871 21.225 10.215 10.948 8.554 C 10.813 16.236 9.761 25.105 8.605 29.099 L 5.795 34.235 L 11.429 31.171 C 10.918 25.03 10.092 18.461 8.605 11.023 C 15.425 10.703 22.441 9.835 29.052 8.554 C 29.518 16.998 30.419 23.78 31.545 29.129 C 24.274 29.16 17.709 29.983 11.489 31.202 L 29.052 31.461" fill-rule="evenodd" fill="none"/><clipPath id="_clipPath_7rXiCFXaoAhqzdK7zPzM7QDVaKLHXWxv"><path d=" M -55 -55 L 65 -55 L 65 65 L -55 65 L -55 -55 Z  M 8.605 11.023 L 8.605 29.099 C 13.607 29.175 19.947 29.785 29.052 31.461 C 29.383 25.807 29.998 19.405 31.486 10.932 C 27.55 10.871 21.225 10.215 10.948 8.554 C 10.813 16.236 9.761 25.105 8.605 29.099 L 5.795 34.235 L 11.429 31.171 C 10.918 25.03 10.092 18.461 8.605 11.023 C 15.425 10.703 22.441 9.835 29.052 8.554 C 29.518 16.998 30.419 23.78 31.545 29.129 C 24.274 29.16 17.709 29.983 11.489 31.202 L 29.052 31.461 L 8.605 11.023 Z " fill-rule="evenodd" fill="rgb(255,255,255)"/></clipPath><g clip-path="url(#_clipPath_7rXiCFXaoAhqzdK7zPzM7QDVaKLHXWxv)"><mask id="_mask_eT3UTmLHb3iZliRMUAi5NeYX6v7cSMyG" x="-200%" y="-200%" width="400%" height="400%"><rect x="-200%" y="-200%" width="400%" height="400%" style="fill:white;"/><path d=" M 8.605 11.023 L 8.605 29.099 C 13.607 29.175 19.947 29.785 29.052 31.461 C 29.383 25.807 29.998 19.405 31.486 10.932 C 27.55 10.871 21.225 10.215 10.948 8.554 C 10.813 16.236 9.761 25.105 8.605 29.099 L 5.795 34.235 L 11.429 31.171 C 10.918 25.03 10.092 18.461 8.605 11.023 C 15.425 10.703 22.441 9.835 29.052 8.554 C 29.518 16.998 30.419 23.78 31.545 29.129 C 24.274 29.16 17.709 29.983 11.489 31.202 L 29.052 31.461" fill-rule="evenodd" fill="black" stroke="none"/></mask><path d=" M 8.605 11.023 L 8.605 29.099 C 13.607 29.175 19.947 29.785 29.052 31.461 C 29.383 25.807 29.998 19.405 31.486 10.932 C 27.55 10.871 21.225 10.215 10.948 8.554 C 10.813 16.236 9.761 25.105 8.605 29.099 L 5.795 34.235 L 11.429 31.171 C 10.918 25.03 10.092 18.461 8.605 11.023 C 15.425 10.703 22.441 9.835 29.052 8.554 C 29.518 16.998 30.419 23.78 31.545 29.129 C 24.274 29.16 17.709 29.983 11.489 31.202 L 29.052 31.461" fill-rule="evenodd" fill="none"/><path d=" M 8.605 11.023 L 8.605 29.099 C 13.607 29.175 19.947 29.785 29.052 31.461 C 29.383 25.807 29.998 19.405 31.486 10.932 C 27.55 10.871 21.225 10.215 10.948 8.554 C 10.813 16.236 9.761 25.105 8.605 29.099 L 5.795 34.235 L 11.429 31.171 C 10.918 25.03 10.092 18.461 8.605 11.023 C 15.425 10.703 22.441 9.835 29.052 8.554 C 29.518 16.998 30.419 23.78 31.545 29.129 C 24.274 29.16 17.709 29.983 11.489 31.202 L 29.052 31.461" fill-rule="evenodd" fill="none" mask="url(#_mask_eT3UTmLHb3iZliRMUAi5NeYX6v7cSMyG)" vector-effect="non-scaling-stroke" stroke-width="0.353" stroke="rgb(157,158,158)" stroke-opacity="100" stroke-linejoin="miter" stroke-linecap="butt" stroke-miterlimit="4"/></g><clipPath id="_clipPath_AZphWB8Kk8fFMA6PPqYs2uAGYr0CUadf"><path d=" M -55 -55 L 65 -55 L 65 65 L -55 65 L -55 -55 Z  M 10.948 8.554 L 29.052 8.554 L 10.948 8.554 Z " fill-rule="evenodd" fill="rgb(255,255,255)"/></clipPath><g clip-path="url(#_clipPath_AZphWB8Kk8fFMA6PPqYs2uAGYr0CUadf)"><mask id="_mask_evJABfuZJLSMWGv025ZZTXPrGK1env7l" x="-200%" y="-200%" width="400%" height="400%"><rect x="-200%" y="-200%" width="400%" height="400%" style="fill:white;"/><line x1="10.948" y1="8.554" x2="29.052" y2="8.554" fill="black" stroke="none"/></mask><line x1="10.948" y1="8.554" x2="29.052" y2="8.554" mask="url(#_mask_evJABfuZJLSMWGv025ZZTXPrGK1env7l)" vector-effect="non-scaling-stroke" stroke-width="0.353" stroke="rgb(157,158,158)" stroke-opacity="100" stroke-linejoin="miter" stroke-linecap="butt" stroke-miterlimit="4"/></g><clipPath id="_clipPath_iCAyebCKRXXSnCmDCCEJ9ZoZd3zrGCKF"><path d=" M -55 -55 L 65 -55 L 65 65 L -55 65 L -55 -55 Z  M 31.486 10.932 L 31.486 29.099 L 31.486 10.932 Z " fill-rule="evenodd" fill="rgb(255,255,255)"/></clipPath><g clip-path="url(#_clipPath_iCAyebCKRXXSnCmDCCEJ9ZoZd3zrGCKF)"><mask id="_mask_mVGqMIk0tfWbgvYrEhgwsw9gXOzNHWgL" x="-200%" y="-200%" width="400%" height="400%"><rect x="-200%" y="-200%" width="400%" height="400%" style="fill:white;"/><line x1="31.486" y1="10.932" x2="31.486" y2="29.099" fill="black" stroke="none"/></mask><line x1="31.486" y1="10.932" x2="31.486" y2="29.099" mask="url(#_mask_mVGqMIk0tfWbgvYrEhgwsw9gXOzNHWgL)" vector-effect="non-scaling-stroke" stroke-width="0.353" stroke="rgb(157,158,158)" stroke-opacity="100" stroke-linejoin="miter" stroke-linecap="butt" stroke-miterlimit="4"/></g><rect x="5.795" y="5.75" width="28.455" height="28.5" transform="matrix(1,0,0,1,0,0)" fill="none" vector-effect="non-scaling-stroke" stroke-width="0.176" stroke="rgb(43,42,41)" stroke-opacity="100" stroke-linejoin="miter" stroke-linecap="butt" stroke-miterlimit="2"/><path d=" M 31.426 11.023 L 34.25 5.75 L 29.097 8.554" fill-rule="evenodd" fill="none"/><clipPath id="_clipPath_RAyZFWW6U5kxVgnGPBtBqybUKwrSvx71"><path d=" M -55 -55 L 65 -55 L 65 65 L -55 65 L -55 -55 Z  M 31.426 11.023 L 34.25 5.75 L 29.097 8.554 L 31.426 11.023 Z " fill-rule="evenodd" fill="rgb(255,255,255)"/></clipPath><g clip-path="url(#_clipPath_RAyZFWW6U5kxVgnGPBtBqybUKwrSvx71)"><mask id="_mask_a01UGBzd4ZDg3fMM2B98fuSqDcd8BiRJ" x="-200%" y="-200%" width="400%" height="400%"><rect x="-200%" y="-200%" width="400%" height="400%" style="fill:white;"/><path d=" M 31.426 11.023 L 34.25 5.75 L 29.097 8.554" fill-rule="evenodd" fill="black" stroke="none"/></mask><path d=" M 31.426 11.023 L 34.25 5.75 L 29.097 8.554" fill-rule="evenodd" fill="none"/><path d=" M 31.426 11.023 L 34.25 5.75 L 29.097 8.554" fill-rule="evenodd" fill="none" mask="url(#_mask_a01UGBzd4ZDg3fMM2B98fuSqDcd8BiRJ)" vector-effect="non-scaling-stroke" stroke-width="0.353" stroke="rgb(157,158,158)" stroke-opacity="100" stroke-linejoin="miter" stroke-linecap="butt" stroke-miterlimit="4"/></g><path d=" M 8.605 28.962 L 5.795 34.25 L 10.948 31.431" fill-rule="evenodd" fill="none"/><clipPath id="_clipPath_nQIxOalTFCUJFeVfNaSVHofcCTJgnmuZ"><path d=" M -55 -55 L 65 -55 L 65 65 L -55 65 L -55 -55 Z  M 8.605 28.962 L 5.795 34.25 L 10.948 31.431 L 8.605 28.962 Z " fill-rule="evenodd" fill="rgb(255,255,255)"/></clipPath><g clip-path="url(#_clipPath_nQIxOalTFCUJFeVfNaSVHofcCTJgnmuZ)"><mask id="_mask_PPKqEgoHxndjWozelvfZqPQJv3Rkp0dn" x="-200%" y="-200%" width="400%" height="400%"><rect x="-200%" y="-200%" width="400%" height="400%" style="fill:white;"/><path d=" M 8.605 28.962 L 5.795 34.25 L 10.948 31.431" fill-rule="evenodd" fill="black" stroke="none"/></mask><path d=" M 8.605 28.962 L 5.795 34.25 L 10.948 31.431" fill-rule="evenodd" fill="none"/><path d=" M 8.605 28.962 L 5.795 34.25 L 10.948 31.431" fill-rule="evenodd" fill="none" mask="url(#_mask_PPKqEgoHxndjWozelvfZqPQJv3Rkp0dn)" vector-effect="non-scaling-stroke" stroke-width="0.353" stroke="rgb(157,158,158)" stroke-opacity="100" stroke-linejoin="miter" stroke-linecap="butt" stroke-miterlimit="4"/></g><path d=" M 29.052 31.431 L 34.25 34.25 L 31.486 29.053" fill-rule="evenodd" fill="none"/><clipPath id="_clipPath_RZqPOuiLKoCTOhJez3uul7j6451hEXSo"><path d=" M -55 -55 L 65 -55 L 65 65 L -55 65 L -55 -55 Z  M 29.052 31.431 L 34.25 34.25 L 31.486 29.053 L 29.052 31.431 Z " fill-rule="evenodd" fill="rgb(255,255,255)"/></clipPath><g clip-path="url(#_clipPath_RZqPOuiLKoCTOhJez3uul7j6451hEXSo)"><mask id="_mask_hHt0hSCvDNnkKOSK0KrFc4Rqza5DoGu4" x="-200%" y="-200%" width="400%" height="400%"><rect x="-200%" y="-200%" width="400%" height="400%" style="fill:white;"/><path d=" M 29.052 31.431 L 34.25 34.25 L 31.486 29.053" fill-rule="evenodd" fill="black" stroke="none"/></mask><path d=" M 29.052 31.431 L 34.25 34.25 L 31.486 29.053" fill-rule="evenodd" fill="none"/><path d=" M 29.052 31.431 L 34.25 34.25 L 31.486 29.053" fill-rule="evenodd" fill="none" mask="url(#_mask_hHt0hSCvDNnkKOSK0KrFc4Rqza5DoGu4)" vector-effect="non-scaling-stroke" stroke-width="0.353" stroke="rgb(157,158,158)" stroke-opacity="100" stroke-linejoin="miter" stroke-linecap="butt" stroke-miterlimit="4"/></g><clipPath id="_clipPath_OdL3TlSAy4BWavI9YKjHdn7yLIfxkxlx"><path d=" M -55 -55 L 65 -55 L 65 65 L -55 65 L -55 -55 Z  M 10.948 31.431 L 29.052 31.431 L 10.948 31.431 Z " fill-rule="evenodd" fill="rgb(255,255,255)"/></clipPath><g clip-path="url(#_clipPath_OdL3TlSAy4BWavI9YKjHdn7yLIfxkxlx)"><mask id="_mask_DdpzsAR03nfuR2yuyfs1JvX9T9Q07W32" x="-200%" y="-200%" width="400%" height="400%"><rect x="-200%" y="-200%" width="400%" height="400%" style="fill:white;"/><line x1="10.948" y1="31.431" x2="29.052" y2="31.431" fill="black" stroke="none"/></mask><line x1="10.948" y1="31.431" x2="29.052" y2="31.431" mask="url(#_mask_DdpzsAR03nfuR2yuyfs1JvX9T9Q07W32)" vector-effect="non-scaling-stroke" stroke-width="0.353" stroke="rgb(157,158,158)" stroke-opacity="100" stroke-linejoin="miter" stroke-linecap="butt" stroke-miterlimit="4"/></g><path d=" M 31.426 28.962 L 34.25 34.25 L 29.097 31.431" fill-rule="evenodd" fill="none"/><clipPath id="_clipPath_RwWSZHoZBJ9HCJotHMBbbNlEMaLRW2gO"><path d=" M -55 -55 L 65 -55 L 65 65 L -55 65 L -55 -55 Z  M 31.426 28.962 L 34.25 34.25 L 29.097 31.431 L 31.426 28.962 Z " fill-rule="evenodd" fill="rgb(255,255,255)"/></clipPath><g clip-path="url(#_clipPath_RwWSZHoZBJ9HCJotHMBbbNlEMaLRW2gO)"><mask id="_mask_0oJ06zJeKwhhLMBZfWAu8CRabRRFOtze" x="-200%" y="-200%" width="400%" height="400%"><rect x="-200%" y="-200%" width="400%" height="400%" style="fill:white;"/><path d=" M 31.426 28.962 L 34.25 34.25 L 29.097 31.431" fill-rule="evenodd" fill="black" stroke="none"/></mask><path d=" M 31.426 28.962 L 34.25 34.25 L 29.097 31.431" fill-rule="evenodd" fill="none"/><path d=" M 31.426 28.962 L 34.25 34.25 L 29.097 31.431" fill-rule="evenodd" fill="none" mask="url(#_mask_0oJ06zJeKwhhLMBZfWAu8CRabRRFOtze)" vector-effect="non-scaling-stroke" stroke-width="0.353" stroke="rgb(157,158,158)" stroke-opacity="100" stroke-linejoin="miter" stroke-linecap="butt" stroke-miterlimit="4"/></g></g></g></g></g></g></svg>