<?xml version="1.0" encoding="UTF-8" standalone="no"?><!-- Generator: Gravit.io --><svg xmlns="http://www.w3.org/2000/svg" xmlns:xlink="http://www.w3.org/1999/xlink" style="isolation:isolate" viewBox="0 0 40 40" width="40pt" height="40pt"><defs><clipPath id="_clipPath_P9iqiUAUyCsQfdYR92AF7OcMIuOxqrsB"><rect width="40" height="40"/></clipPath></defs><g clip-path="url(#_clipPath_P9iqiUAUyCsQfdYR92AF7OcMIuOxqrsB)"><clipPath id="_clipPath_rbFrDJwnRo87WDzzqm2TztzSAfHMISSR"><rect x="5" y="5" width="30" height="30" transform="matrix(1,0,0,1,0,0)" fill="rgb(255,255,255)"/></clipPath><g clip-path="url(#_clipPath_rbFrDJwnRo87WDzzqm2TztzSAfHMISSR)"><g><g><rect x="5" y="5.75" width="30" height="30" transform="matrix(1,0,0,1,0,0)" fill="none" vector-effect="non-scaling-stroke" stroke-width="0.176" stroke="rgb(254,254,254)" stroke-opacity="100" stroke-linejoin="miter" stroke-linecap="butt" stroke-miterlimit="2"/><g><path d=" M 20.004 34.25 C 13.977 29.185 9.193 24.051 6.931 19.385 C 4.72 14.788 5.394 8.562 10.834 6.844 C 13.631 5.959 16.965 6.827 20.004 8.908 C 23.044 6.827 26.359 5.959 29.174 6.844 C 34.614 8.562 35.27 14.788 33.077 19.385 C 30.814 24.051 26.031 29.185 20.004 34.25 Z " fill-rule="evenodd" fill="rgb(254,254,254)"/><clipPath id="_clipPath_doRXWk5C6nU9WhB0XOVpir2Dzb8pd8yJ"><path d=" M -55 -55 L 65 -55 L 65 65 L -55 65 L -55 -55 Z  M 20.004 34.25 C 13.977 29.185 9.193 24.051 6.931 19.385 C 4.72 14.788 5.394 8.562 10.834 6.844 C 13.631 5.959 16.965 6.827 20.004 8.908 C 23.044 6.827 26.359 5.959 29.174 6.844 C 34.614 8.562 35.27 14.788 33.077 19.385 C 30.814 24.051 26.031 29.185 20.004 34.25 Z " fill-rule="evenodd" fill="rgb(255,255,255)"/></clipPath><g clip-path="url(#_clipPath_doRXWk5C6nU9WhB0XOVpir2Dzb8pd8yJ)"><mask id="_mask_RMypV5oKG53UiHBBUCHYSsOR9wxletrv" x="-200%" y="-200%" width="400%" height="400%"><rect x="-200%" y="-200%" width="400%" height="400%" style="fill:white;"/><path d=" M 20.004 34.25 C 13.977 29.185 9.193 24.051 6.931 19.385 C 4.72 14.788 5.394 8.562 10.834 6.844 C 13.631 5.959 16.965 6.827 20.004 8.908 C 23.044 6.827 26.359 5.959 29.174 6.844 C 34.614 8.562 35.27 14.788 33.077 19.385 C 30.814 24.051 26.031 29.185 20.004 34.25 Z " fill-rule="evenodd" fill="black" stroke="none"/></mask><path d=" M 20.004 34.25 C 13.977 29.185 9.193 24.051 6.931 19.385 C 4.72 14.788 5.394 8.562 10.834 6.844 C 13.631 5.959 16.965 6.827 20.004 8.908 C 23.044 6.827 26.359 5.959 29.174 6.844 C 34.614 8.562 35.27 14.788 33.077 19.385 C 30.814 24.051 26.031 29.185 20.004 34.25 Z " fill-rule="evenodd" fill="rgb(254,254,254)"/><path d=" M 20.004 34.25 C 13.977 29.185 9.193 24.051 6.931 19.385 C 4.72 14.788 5.394 8.562 10.834 6.844 C 13.631 5.959 16.965 6.827 20.004 8.908 C 23.044 6.827 26.359 5.959 29.174 6.844 C 34.614 8.562 35.27 14.788 33.077 19.385 C 30.814 24.051 26.031 29.185 20.004 34.25 Z " fill-rule="evenodd" fill="rgb(254,254,254)" mask="url(#_mask_RMypV5oKG53UiHBBUCHYSsOR9wxletrv)" vector-effect="non-scaling-stroke" stroke-width="0.353" stroke="rgb(43,42,41)" stroke-opacity="100" stroke-linejoin="miter" stroke-linecap="butt" stroke-miterlimit="4"/></g><path d=" M 15.082 6.706 L 20.038 10.712 L 20.038 8.908" fill-rule="evenodd" fill="none"/><clipPath id="_clipPath_SqsDumnAm3drpSt4XmYnq2zq8migGnKY"><path d=" M -55 -55 L 65 -55 L 65 65 L -55 65 L -55 -55 Z  M 15.082 6.706 L 20.038 10.712 L 20.038 8.908 L 15.082 6.706 Z " fill-rule="evenodd" fill="rgb(255,255,255)"/></clipPath><g clip-path="url(#_clipPath_SqsDumnAm3drpSt4XmYnq2zq8migGnKY)"><mask id="_mask_eBJmb5aQM82evgedkjmM97rRcPPjDmHT" x="-200%" y="-200%" width="400%" height="400%"><rect x="-200%" y="-200%" width="400%" height="400%" style="fill:white;"/><path d=" M 15.082 6.706 L 20.038 10.712 L 20.038 8.908" fill-rule="evenodd" fill="black" stroke="none"/></mask><path d=" M 15.082 6.706 L 20.038 10.712 L 20.038 8.908" fill-rule="evenodd" fill="none"/><path d=" M 15.082 6.706 L 20.038 10.712 L 20.038 8.908" fill-rule="evenodd" fill="none" mask="url(#_mask_eBJmb5aQM82evgedkjmM97rRcPPjDmHT)" vector-effect="non-scaling-stroke" stroke-width="0.141" stroke="rgb(43,42,41)" stroke-opacity="100" stroke-linejoin="miter" stroke-linecap="butt" stroke-miterlimit="4"/></g><path d=" M 20.038 10.712 L 15.203 12.118 L 10.885 10.626 L 15.082 6.706" fill-rule="evenodd" fill="none"/><clipPath id="_clipPath_XkbU5HGTJLgpL0anhRIR5Ev9SB1hyE2c"><path d=" M -55 -55 L 65 -55 L 65 65 L -55 65 L -55 -55 Z  M 20.038 10.712 L 15.203 12.118 L 10.885 10.626 L 15.082 6.706 L 20.038 10.712 Z " fill-rule="evenodd" fill="rgb(255,255,255)"/></clipPath><g clip-path="url(#_clipPath_XkbU5HGTJLgpL0anhRIR5Ev9SB1hyE2c)"><mask id="_mask_2DIL8yiBRyeXlVjmpncsl5mDFzR2jjFJ" x="-200%" y="-200%" width="400%" height="400%"><rect x="-200%" y="-200%" width="400%" height="400%" style="fill:white;"/><path d=" M 20.038 10.712 L 15.203 12.118 L 10.885 10.626 L 15.082 6.706" fill-rule="evenodd" fill="black" stroke="none"/></mask><path d=" M 20.038 10.712 L 15.203 12.118 L 10.885 10.626 L 15.082 6.706" fill-rule="evenodd" fill="none"/><path d=" M 20.038 10.712 L 15.203 12.118 L 10.885 10.626 L 15.082 6.706" fill-rule="evenodd" fill="none" mask="url(#_mask_2DIL8yiBRyeXlVjmpncsl5mDFzR2jjFJ)" vector-effect="non-scaling-stroke" stroke-width="0.141" stroke="rgb(43,42,41)" stroke-opacity="100" stroke-linejoin="miter" stroke-linecap="butt" stroke-miterlimit="4"/></g><path d=" M 9.573 7.365 L 10.885 10.626 L 6.465 11.042 L 9.366 15.569 L 10.937 13.453 L 10.885 10.626" fill-rule="evenodd" fill="none"/><clipPath id="_clipPath_swPKtn5w7eAnbHGd6ErJXAt2NFu4nyWL"><path d=" M -55 -55 L 65 -55 L 65 65 L -55 65 L -55 -55 Z  M 9.573 7.365 L 10.885 10.626 L 6.465 11.042 L 9.366 15.569 L 10.937 13.453 L 10.885 10.626 L 9.573 7.365 Z " fill-rule="evenodd" fill="rgb(255,255,255)"/></clipPath><g clip-path="url(#_clipPath_swPKtn5w7eAnbHGd6ErJXAt2NFu4nyWL)"><mask id="_mask_3PzWaAtnuXHRCs36zKFH5bj2D5IUuyo9" x="-200%" y="-200%" width="400%" height="400%"><rect x="-200%" y="-200%" width="400%" height="400%" style="fill:white;"/><path d=" M 9.573 7.365 L 10.885 10.626 L 6.465 11.042 L 9.366 15.569 L 10.937 13.453 L 10.885 10.626" fill-rule="evenodd" fill="black" stroke="none"/></mask><path d=" M 9.573 7.365 L 10.885 10.626 L 6.465 11.042 L 9.366 15.569 L 10.937 13.453 L 10.885 10.626" fill-rule="evenodd" fill="none"/><path d=" M 9.573 7.365 L 10.885 10.626 L 6.465 11.042 L 9.366 15.569 L 10.937 13.453 L 10.885 10.626" fill-rule="evenodd" fill="none" mask="url(#_mask_3PzWaAtnuXHRCs36zKFH5bj2D5IUuyo9)" vector-effect="non-scaling-stroke" stroke-width="0.141" stroke="rgb(43,42,41)" stroke-opacity="100" stroke-linejoin="miter" stroke-linecap="butt" stroke-miterlimit="4"/></g><path d=" M 15.203 12.118 L 10.937 13.453 L 12.388 17.321 L 9.366 15.569" fill-rule="evenodd" fill="none"/><clipPath id="_clipPath_FwJ57QEemY8ZOjuKWT2Yf7CXyaTgR5EE"><path d=" M -55 -55 L 65 -55 L 65 65 L -55 65 L -55 -55 Z  M 15.203 12.118 L 10.937 13.453 L 12.388 17.321 L 9.366 15.569 L 15.203 12.118 Z " fill-rule="evenodd" fill="rgb(255,255,255)"/></clipPath><g clip-path="url(#_clipPath_FwJ57QEemY8ZOjuKWT2Yf7CXyaTgR5EE)"><mask id="_mask_TN4t6Uwva6SSwmmYsYu1sHr7llMsI8J4" x="-200%" y="-200%" width="400%" height="400%"><rect x="-200%" y="-200%" width="400%" height="400%" style="fill:white;"/><path d=" M 15.203 12.118 L 10.937 13.453 L 12.388 17.321 L 9.366 15.569" fill-rule="evenodd" fill="black" stroke="none"/></mask><path d=" M 15.203 12.118 L 10.937 13.453 L 12.388 17.321 L 9.366 15.569" fill-rule="evenodd" fill="none"/><path d=" M 15.203 12.118 L 10.937 13.453 L 12.388 17.321 L 9.366 15.569" fill-rule="evenodd" fill="none" mask="url(#_mask_TN4t6Uwva6SSwmmYsYu1sHr7llMsI8J4)" vector-effect="non-scaling-stroke" stroke-width="0.141" stroke="rgb(43,42,41)" stroke-opacity="100" stroke-linejoin="miter" stroke-linecap="butt" stroke-miterlimit="4"/></g><path d=" M 12.388 17.321 L 12.301 21.64 L 9.59 23.687" fill-rule="evenodd" fill="none"/><clipPath id="_clipPath_QVAvQKJaMzJkptVPh9RpIzJAKMyCGl7P"><path d=" M -55 -55 L 65 -55 L 65 65 L -55 65 L -55 -55 Z  M 12.388 17.321 L 12.301 21.64 L 9.59 23.687 L 12.388 17.321 Z " fill-rule="evenodd" fill="rgb(255,255,255)"/></clipPath><g clip-path="url(#_clipPath_QVAvQKJaMzJkptVPh9RpIzJAKMyCGl7P)"><mask id="_mask_24vuv7baPextDZHzYMMr1MMl4730dccB" x="-200%" y="-200%" width="400%" height="400%"><rect x="-200%" y="-200%" width="400%" height="400%" style="fill:white;"/><path d=" M 12.388 17.321 L 12.301 21.64 L 9.59 23.687" fill-rule="evenodd" fill="black" stroke="none"/></mask><path d=" M 12.388 17.321 L 12.301 21.64 L 9.59 23.687" fill-rule="evenodd" fill="none"/><path d=" M 12.388 17.321 L 12.301 21.64 L 9.59 23.687" fill-rule="evenodd" fill="none" mask="url(#_mask_24vuv7baPextDZHzYMMr1MMl4730dccB)" vector-effect="non-scaling-stroke" stroke-width="0.141" stroke="rgb(43,42,41)" stroke-opacity="100" stroke-linejoin="miter" stroke-linecap="butt" stroke-miterlimit="4"/></g><path d=" M 5.998 16.61 L 9.366 15.569 L 7.363 20.044 L 12.301 21.64 L 12.388 27.034 L 17.845 27.382 L 16.982 23.27 L 12.301 21.64" fill-rule="evenodd" fill="none"/><clipPath id="_clipPath_mllVeuCeJpHS62GryvQX9oyQuYHAWS2V"><path d=" M -55 -55 L 65 -55 L 65 65 L -55 65 L -55 -55 Z  M 5.998 16.61 L 9.366 15.569 L 7.363 20.044 L 12.301 21.64 L 12.388 27.034 L 17.845 27.382 L 16.982 23.27 L 12.301 21.64 L 5.998 16.61 Z " fill-rule="evenodd" fill="rgb(255,255,255)"/></clipPath><g clip-path="url(#_clipPath_mllVeuCeJpHS62GryvQX9oyQuYHAWS2V)"><mask id="_mask_UUNv09z6VzV2b2K1a86GVkuvow0eao27" x="-200%" y="-200%" width="400%" height="400%"><rect x="-200%" y="-200%" width="400%" height="400%" style="fill:white;"/><path d=" M 5.998 16.61 L 9.366 15.569 L 7.363 20.044 L 12.301 21.64 L 12.388 27.034 L 17.845 27.382 L 16.982 23.27 L 12.301 21.64" fill-rule="evenodd" fill="black" stroke="none"/></mask><path d=" M 5.998 16.61 L 9.366 15.569 L 7.363 20.044 L 12.301 21.64 L 12.388 27.034 L 17.845 27.382 L 16.982 23.27 L 12.301 21.64" fill-rule="evenodd" fill="none"/><path d=" M 5.998 16.61 L 9.366 15.569 L 7.363 20.044 L 12.301 21.64 L 12.388 27.034 L 17.845 27.382 L 16.982 23.27 L 12.301 21.64" fill-rule="evenodd" fill="none" mask="url(#_mask_UUNv09z6VzV2b2K1a86GVkuvow0eao27)" vector-effect="non-scaling-stroke" stroke-width="0.141" stroke="rgb(43,42,41)" stroke-opacity="100" stroke-linejoin="miter" stroke-linecap="butt" stroke-miterlimit="4"/></g><path d=" M 12.388 17.321 L 16.982 23.27 L 20.004 25.647 L 17.845 27.382 L 20.004 34.25" fill-rule="evenodd" fill="none"/><clipPath id="_clipPath_KF0UEgp04p3KGz2y8D60gUFIvPXITelv"><path d=" M -55 -55 L 65 -55 L 65 65 L -55 65 L -55 -55 Z  M 12.388 17.321 L 16.982 23.27 L 20.004 25.647 L 17.845 27.382 L 20.004 34.25 L 12.388 17.321 Z " fill-rule="evenodd" fill="rgb(255,255,255)"/></clipPath><g clip-path="url(#_clipPath_KF0UEgp04p3KGz2y8D60gUFIvPXITelv)"><mask id="_mask_fOQBxFBsPzW6zO3AkDUaWXIsBivOWmrO" x="-200%" y="-200%" width="400%" height="400%"><rect x="-200%" y="-200%" width="400%" height="400%" style="fill:white;"/><path d=" M 12.388 17.321 L 16.982 23.27 L 20.004 25.647 L 17.845 27.382 L 20.004 34.25" fill-rule="evenodd" fill="black" stroke="none"/></mask><path d=" M 12.388 17.321 L 16.982 23.27 L 20.004 25.647 L 17.845 27.382 L 20.004 34.25" fill-rule="evenodd" fill="none"/><path d=" M 12.388 17.321 L 16.982 23.27 L 20.004 25.647 L 17.845 27.382 L 20.004 34.25" fill-rule="evenodd" fill="none" mask="url(#_mask_fOQBxFBsPzW6zO3AkDUaWXIsBivOWmrO)" vector-effect="non-scaling-stroke" stroke-width="0.141" stroke="rgb(43,42,41)" stroke-opacity="100" stroke-linejoin="miter" stroke-linecap="butt" stroke-miterlimit="4"/></g><clipPath id="_clipPath_XNaccKBJmmX0V8UlEgoSD8kRpf5Fb4ql"><path d=" M -55 -55 L 65 -55 L 65 65 L -55 65 L -55 -55 Z  M 17.845 27.382 L 15.307 30.035 L 17.845 27.382 Z " fill-rule="evenodd" fill="rgb(255,255,255)"/></clipPath><g clip-path="url(#_clipPath_XNaccKBJmmX0V8UlEgoSD8kRpf5Fb4ql)"><mask id="_mask_ske9HrcVkVpFiIxnBHd08R3JQq8QKniA" x="-200%" y="-200%" width="400%" height="400%"><rect x="-200%" y="-200%" width="400%" height="400%" style="fill:white;"/><line x1="17.845" y1="27.382" x2="15.307" y2="30.035" fill="black" stroke="none"/></mask><line x1="17.845" y1="27.382" x2="15.307" y2="30.035" mask="url(#_mask_ske9HrcVkVpFiIxnBHd08R3JQq8QKniA)" vector-effect="non-scaling-stroke" stroke-width="0.141" stroke="rgb(43,42,41)" stroke-opacity="100" stroke-linejoin="miter" stroke-linecap="butt" stroke-miterlimit="4"/></g><path d=" M 15.203 12.118 L 20.004 13.418 L 20.038 10.712" fill-rule="evenodd" fill="none"/><clipPath id="_clipPath_rt1TSfQe8A7Bhq1KwTX01ubolDqXJvP4"><path d=" M -55 -55 L 65 -55 L 65 65 L -55 65 L -55 -55 Z  M 15.203 12.118 L 20.004 13.418 L 20.038 10.712 L 15.203 12.118 Z " fill-rule="evenodd" fill="rgb(255,255,255)"/></clipPath><g clip-path="url(#_clipPath_rt1TSfQe8A7Bhq1KwTX01ubolDqXJvP4)"><mask id="_mask_FhOLxx6yRY1p6jo3WOz7XjiI4NcG1Tlq" x="-200%" y="-200%" width="400%" height="400%"><rect x="-200%" y="-200%" width="400%" height="400%" style="fill:white;"/><path d=" M 15.203 12.118 L 20.004 13.418 L 20.038 10.712" fill-rule="evenodd" fill="black" stroke="none"/></mask><path d=" M 15.203 12.118 L 20.004 13.418 L 20.038 10.712" fill-rule="evenodd" fill="none"/><path d=" M 15.203 12.118 L 20.004 13.418 L 20.038 10.712" fill-rule="evenodd" fill="none" mask="url(#_mask_FhOLxx6yRY1p6jo3WOz7XjiI4NcG1Tlq)" vector-effect="non-scaling-stroke" stroke-width="0.141" stroke="rgb(43,42,41)" stroke-opacity="100" stroke-linejoin="miter" stroke-linecap="butt" stroke-miterlimit="4"/></g><path d=" M 24.995 6.706 L 20.038 10.712 L 20.038 8.908" fill-rule="evenodd" fill="none"/><clipPath id="_clipPath_N4RrCUHAXCMANTgYN7Y352xtmIi6t29x"><path d=" M -55 -55 L 65 -55 L 65 65 L -55 65 L -55 -55 Z  M 24.995 6.706 L 20.038 10.712 L 20.038 8.908 L 24.995 6.706 Z " fill-rule="evenodd" fill="rgb(255,255,255)"/></clipPath><g clip-path="url(#_clipPath_N4RrCUHAXCMANTgYN7Y352xtmIi6t29x)"><mask id="_mask_0ZiNz9DUb5jF6b6LskTGKA1xZYcGqbx2" x="-200%" y="-200%" width="400%" height="400%"><rect x="-200%" y="-200%" width="400%" height="400%" style="fill:white;"/><path d=" M 24.995 6.706 L 20.038 10.712 L 20.038 8.908" fill-rule="evenodd" fill="black" stroke="none"/></mask><path d=" M 24.995 6.706 L 20.038 10.712 L 20.038 8.908" fill-rule="evenodd" fill="none"/><path d=" M 24.995 6.706 L 20.038 10.712 L 20.038 8.908" fill-rule="evenodd" fill="none" mask="url(#_mask_0ZiNz9DUb5jF6b6LskTGKA1xZYcGqbx2)" vector-effect="non-scaling-stroke" stroke-width="0.141" stroke="rgb(43,42,41)" stroke-opacity="100" stroke-linejoin="miter" stroke-linecap="butt" stroke-miterlimit="4"/></g><path d=" M 20.038 10.712 L 24.891 12.118 L 29.191 10.626 L 24.995 6.706" fill-rule="evenodd" fill="none"/><clipPath id="_clipPath_oPn1gHEc658xYBEmJrBKluUKrJQMRXJz"><path d=" M -55 -55 L 65 -55 L 65 65 L -55 65 L -55 -55 Z  M 20.038 10.712 L 24.891 12.118 L 29.191 10.626 L 24.995 6.706 L 20.038 10.712 Z " fill-rule="evenodd" fill="rgb(255,255,255)"/></clipPath><g clip-path="url(#_clipPath_oPn1gHEc658xYBEmJrBKluUKrJQMRXJz)"><mask id="_mask_OFIbJWe1I64DLAgSPlcpN0AcTNS0hqaa" x="-200%" y="-200%" width="400%" height="400%"><rect x="-200%" y="-200%" width="400%" height="400%" style="fill:white;"/><path d=" M 20.038 10.712 L 24.891 12.118 L 29.191 10.626 L 24.995 6.706" fill-rule="evenodd" fill="black" stroke="none"/></mask><path d=" M 20.038 10.712 L 24.891 12.118 L 29.191 10.626 L 24.995 6.706" fill-rule="evenodd" fill="none"/><path d=" M 20.038 10.712 L 24.891 12.118 L 29.191 10.626 L 24.995 6.706" fill-rule="evenodd" fill="none" mask="url(#_mask_OFIbJWe1I64DLAgSPlcpN0AcTNS0hqaa)" vector-effect="non-scaling-stroke" stroke-width="0.141" stroke="rgb(43,42,41)" stroke-opacity="100" stroke-linejoin="miter" stroke-linecap="butt" stroke-miterlimit="4"/></g><path d=" M 30.504 7.365 L 29.191 10.626 L 33.544 11.059 L 30.728 15.569 L 29.157 13.453 L 29.191 10.626" fill-rule="evenodd" fill="none"/><clipPath id="_clipPath_iGn11HJgTBW50UxOw49TnAG0QyEUhXgT"><path d=" M -55 -55 L 65 -55 L 65 65 L -55 65 L -55 -55 Z  M 30.504 7.365 L 29.191 10.626 L 33.544 11.059 L 30.728 15.569 L 29.157 13.453 L 29.191 10.626 L 30.504 7.365 Z " fill-rule="evenodd" fill="rgb(255,255,255)"/></clipPath><g clip-path="url(#_clipPath_iGn11HJgTBW50UxOw49TnAG0QyEUhXgT)"><mask id="_mask_NF2VYK09PD59JUcnPS9JUFbywQjQENFt" x="-200%" y="-200%" width="400%" height="400%"><rect x="-200%" y="-200%" width="400%" height="400%" style="fill:white;"/><path d=" M 30.504 7.365 L 29.191 10.626 L 33.544 11.059 L 30.728 15.569 L 29.157 13.453 L 29.191 10.626" fill-rule="evenodd" fill="black" stroke="none"/></mask><path d=" M 30.504 7.365 L 29.191 10.626 L 33.544 11.059 L 30.728 15.569 L 29.157 13.453 L 29.191 10.626" fill-rule="evenodd" fill="none"/><path d=" M 30.504 7.365 L 29.191 10.626 L 33.544 11.059 L 30.728 15.569 L 29.157 13.453 L 29.191 10.626" fill-rule="evenodd" fill="none" mask="url(#_mask_NF2VYK09PD59JUcnPS9JUFbywQjQENFt)" vector-effect="non-scaling-stroke" stroke-width="0.141" stroke="rgb(43,42,41)" stroke-opacity="100" stroke-linejoin="miter" stroke-linecap="butt" stroke-miterlimit="4"/></g><path d=" M 24.891 12.118 L 29.157 13.453 L 27.706 17.321 L 30.728 15.569" fill-rule="evenodd" fill="none"/><clipPath id="_clipPath_p8In1XkkVDeARAfkhT1CBSje4sxKEiAY"><path d=" M -55 -55 L 65 -55 L 65 65 L -55 65 L -55 -55 Z  M 24.891 12.118 L 29.157 13.453 L 27.706 17.321 L 30.728 15.569 L 24.891 12.118 Z " fill-rule="evenodd" fill="rgb(255,255,255)"/></clipPath><g clip-path="url(#_clipPath_p8In1XkkVDeARAfkhT1CBSje4sxKEiAY)"><mask id="_mask_iaaMqOwegPmKj8J3hGM7uQHCNced2Pyb" x="-200%" y="-200%" width="400%" height="400%"><rect x="-200%" y="-200%" width="400%" height="400%" style="fill:white;"/><path d=" M 24.891 12.118 L 29.157 13.453 L 27.706 17.321 L 30.728 15.569" fill-rule="evenodd" fill="black" stroke="none"/></mask><path d=" M 24.891 12.118 L 29.157 13.453 L 27.706 17.321 L 30.728 15.569" fill-rule="evenodd" fill="none"/><path d=" M 24.891 12.118 L 29.157 13.453 L 27.706 17.321 L 30.728 15.569" fill-rule="evenodd" fill="none" mask="url(#_mask_iaaMqOwegPmKj8J3hGM7uQHCNced2Pyb)" vector-effect="non-scaling-stroke" stroke-width="0.141" stroke="rgb(43,42,41)" stroke-opacity="100" stroke-linejoin="miter" stroke-linecap="butt" stroke-miterlimit="4"/></g><path d=" M 27.706 17.321 L 27.793 21.64 L 30.487 23.687" fill-rule="evenodd" fill="none"/><clipPath id="_clipPath_3cO03sWmUuKg2gm1VJWvF7nPSFAnOEcr"><path d=" M -55 -55 L 65 -55 L 65 65 L -55 65 L -55 -55 Z  M 27.706 17.321 L 27.793 21.64 L 30.487 23.687 L 27.706 17.321 Z " fill-rule="evenodd" fill="rgb(255,255,255)"/></clipPath><g clip-path="url(#_clipPath_3cO03sWmUuKg2gm1VJWvF7nPSFAnOEcr)"><mask id="_mask_DKSRWNDK5lBxaegq7cUyaldNZQSgmslQ" x="-200%" y="-200%" width="400%" height="400%"><rect x="-200%" y="-200%" width="400%" height="400%" style="fill:white;"/><path d=" M 27.706 17.321 L 27.793 21.64 L 30.487 23.687" fill-rule="evenodd" fill="black" stroke="none"/></mask><path d=" M 27.706 17.321 L 27.793 21.64 L 30.487 23.687" fill-rule="evenodd" fill="none"/><path d=" M 27.706 17.321 L 27.793 21.64 L 30.487 23.687" fill-rule="evenodd" fill="none" mask="url(#_mask_DKSRWNDK5lBxaegq7cUyaldNZQSgmslQ)" vector-effect="non-scaling-stroke" stroke-width="0.141" stroke="rgb(43,42,41)" stroke-opacity="100" stroke-linejoin="miter" stroke-linecap="butt" stroke-miterlimit="4"/></g><path d=" M 34.096 16.61 L 30.728 15.569 L 32.731 20.044 L 27.793 21.64 L 27.689 27.034 L 22.231 27.382 L 23.112 23.27 L 27.793 21.64" fill-rule="evenodd" fill="none"/><clipPath id="_clipPath_EUZOAQJqexoQflx650pblCdWHfPUZ4Kl"><path d=" M -55 -55 L 65 -55 L 65 65 L -55 65 L -55 -55 Z  M 34.096 16.61 L 30.728 15.569 L 32.731 20.044 L 27.793 21.64 L 27.689 27.034 L 22.231 27.382 L 23.112 23.27 L 27.793 21.64 L 34.096 16.61 Z " fill-rule="evenodd" fill="rgb(255,255,255)"/></clipPath><g clip-path="url(#_clipPath_EUZOAQJqexoQflx650pblCdWHfPUZ4Kl)"><mask id="_mask_LUfJIryb6ccrsv5WlNAhyn1Kk3xOdGVu" x="-200%" y="-200%" width="400%" height="400%"><rect x="-200%" y="-200%" width="400%" height="400%" style="fill:white;"/><path d=" M 34.096 16.61 L 30.728 15.569 L 32.731 20.044 L 27.793 21.64 L 27.689 27.034 L 22.231 27.382 L 23.112 23.27 L 27.793 21.64" fill-rule="evenodd" fill="black" stroke="none"/></mask><path d=" M 34.096 16.61 L 30.728 15.569 L 32.731 20.044 L 27.793 21.64 L 27.689 27.034 L 22.231 27.382 L 23.112 23.27 L 27.793 21.64" fill-rule="evenodd" fill="none"/><path d=" M 34.096 16.61 L 30.728 15.569 L 32.731 20.044 L 27.793 21.64 L 27.689 27.034 L 22.231 27.382 L 23.112 23.27 L 27.793 21.64" fill-rule="evenodd" fill="none" mask="url(#_mask_LUfJIryb6ccrsv5WlNAhyn1Kk3xOdGVu)" vector-effect="non-scaling-stroke" stroke-width="0.141" stroke="rgb(43,42,41)" stroke-opacity="100" stroke-linejoin="miter" stroke-linecap="butt" stroke-miterlimit="4"/></g><path d=" M 27.706 17.321 L 23.112 23.27 L 20.09 25.647 L 22.231 27.382 L 20.09 34.25" fill-rule="evenodd" fill="none"/><clipPath id="_clipPath_A7deshwQmeSIAabebKxsHvx35NGLpLkG"><path d=" M -55 -55 L 65 -55 L 65 65 L -55 65 L -55 -55 Z  M 27.706 17.321 L 23.112 23.27 L 20.09 25.647 L 22.231 27.382 L 20.09 34.25 L 27.706 17.321 Z " fill-rule="evenodd" fill="rgb(255,255,255)"/></clipPath><g clip-path="url(#_clipPath_A7deshwQmeSIAabebKxsHvx35NGLpLkG)"><mask id="_mask_isRLnH9OLNmdvEggUNmPwoq2g49nsoxS" x="-200%" y="-200%" width="400%" height="400%"><rect x="-200%" y="-200%" width="400%" height="400%" style="fill:white;"/><path d=" M 27.706 17.321 L 23.112 23.27 L 20.09 25.647 L 22.231 27.382 L 20.09 34.25" fill-rule="evenodd" fill="black" stroke="none"/></mask><path d=" M 27.706 17.321 L 23.112 23.27 L 20.09 25.647 L 22.231 27.382 L 20.09 34.25" fill-rule="evenodd" fill="none"/><path d=" M 27.706 17.321 L 23.112 23.27 L 20.09 25.647 L 22.231 27.382 L 20.09 34.25" fill-rule="evenodd" fill="none" mask="url(#_mask_isRLnH9OLNmdvEggUNmPwoq2g49nsoxS)" vector-effect="non-scaling-stroke" stroke-width="0.141" stroke="rgb(43,42,41)" stroke-opacity="100" stroke-linejoin="miter" stroke-linecap="butt" stroke-miterlimit="4"/></g><clipPath id="_clipPath_f2QHYdkEqURWqsLK9DbmygOMaLA5QtZv"><path d=" M -55 -55 L 65 -55 L 65 65 L -55 65 L -55 -55 Z  M 22.231 27.382 L 24.77 30.035 L 22.231 27.382 Z " fill-rule="evenodd" fill="rgb(255,255,255)"/></clipPath><g clip-path="url(#_clipPath_f2QHYdkEqURWqsLK9DbmygOMaLA5QtZv)"><mask id="_mask_VtWaoFIihy1vQJD0BGgGJeukdsJ07ufV" x="-200%" y="-200%" width="400%" height="400%"><rect x="-200%" y="-200%" width="400%" height="400%" style="fill:white;"/><line x1="22.231" y1="27.382" x2="24.77" y2="30.035" fill="black" stroke="none"/></mask><line x1="22.231" y1="27.382" x2="24.77" y2="30.035" mask="url(#_mask_VtWaoFIihy1vQJD0BGgGJeukdsJ07ufV)" vector-effect="non-scaling-stroke" stroke-width="0.141" stroke="rgb(43,42,41)" stroke-opacity="100" stroke-linejoin="miter" stroke-linecap="butt" stroke-miterlimit="4"/></g><path d=" M 24.891 12.118 L 20.09 13.418 L 20.038 10.712" fill-rule="evenodd" fill="none"/><clipPath id="_clipPath_mtduxGOiw1sL3s3D0IfjBjjkTsfFHDul"><path d=" M -55 -55 L 65 -55 L 65 65 L -55 65 L -55 -55 Z  M 24.891 12.118 L 20.09 13.418 L 20.038 10.712 L 24.891 12.118 Z " fill-rule="evenodd" fill="rgb(255,255,255)"/></clipPath><g clip-path="url(#_clipPath_mtduxGOiw1sL3s3D0IfjBjjkTsfFHDul)"><mask id="_mask_fANLVSLv6qkIhGsi3iLebYpNk4lKR03I" x="-200%" y="-200%" width="400%" height="400%"><rect x="-200%" y="-200%" width="400%" height="400%" style="fill:white;"/><path d=" M 24.891 12.118 L 20.09 13.418 L 20.038 10.712" fill-rule="evenodd" fill="black" stroke="none"/></mask><path d=" M 24.891 12.118 L 20.09 13.418 L 20.038 10.712" fill-rule="evenodd" fill="none"/><path d=" M 24.891 12.118 L 20.09 13.418 L 20.038 10.712" fill-rule="evenodd" fill="none" mask="url(#_mask_fANLVSLv6qkIhGsi3iLebYpNk4lKR03I)" vector-effect="non-scaling-stroke" stroke-width="0.141" stroke="rgb(43,42,41)" stroke-opacity="100" stroke-linejoin="miter" stroke-linecap="butt" stroke-miterlimit="4"/></g></g></g></g></g></g></svg>