<?xml version="1.0" encoding="UTF-8" standalone="no"?><!-- Generator: Gravit.io --><svg xmlns="http://www.w3.org/2000/svg" xmlns:xlink="http://www.w3.org/1999/xlink" style="isolation:isolate" viewBox="0 0 40 40" width="40pt" height="40pt"><defs><clipPath id="_clipPath_kbUArjMbmYzfP4IYThpC4SU92P32Ykpa"><rect width="40" height="40"/></clipPath></defs><g clip-path="url(#_clipPath_kbUArjMbmYzfP4IYThpC4SU92P32Ykpa)"><clipPath id="_clipPath_zEHadTkVdgmvvv4aOH0jzx53hJz5MuWk"><rect x="5" y="5" width="30" height="30" transform="matrix(1,0,0,1,0,0)" fill="rgb(255,255,255)"/></clipPath><g clip-path="url(#_clipPath_zEHadTkVdgmvvv4aOH0jzx53hJz5MuWk)"><g><g><rect x="5" y="5" width="30" height="30" transform="matrix(1,0,0,1,0,0)" fill="none" vector-effect="non-scaling-stroke" stroke-width="0.176" stroke="rgb(254,254,254)" stroke-opacity="100" stroke-linejoin="miter" stroke-linecap="butt" stroke-miterlimit="2"/><g><path d=" M 20 5.75 C 24.118 9.117 26.75 14.247 26.75 20 C 26.75 25.735 24.118 30.865 20 34.25 C 15.883 30.865 13.25 25.735 13.25 20 C 13.25 14.247 15.883 9.117 20 5.75 Z " fill-rule="evenodd" fill="rgb(254,254,254)"/><clipPath id="_clipPath_lwBoanQOIi4dPfRl3UKQZC8xuwukoTvo"><path d=" M -55 -55 L 65 -55 L 65 65 L -55 65 L -55 -55 Z  M 20 5.75 C 24.118 9.117 26.75 14.247 26.75 20 C 26.75 25.735 24.118 30.865 20 34.25 C 15.883 30.865 13.25 25.735 13.25 20 C 13.25 14.247 15.883 9.117 20 5.75 Z " fill-rule="evenodd" fill="rgb(255,255,255)"/></clipPath><g clip-path="url(#_clipPath_lwBoanQOIi4dPfRl3UKQZC8xuwukoTvo)"><mask id="_mask_EiKedPtD2snu8gMinAPtB8XQYI3dB3ht" x="-200%" y="-200%" width="400%" height="400%"><rect x="-200%" y="-200%" width="400%" height="400%" style="fill:white;"/><path d=" M 20 5.75 C 24.118 9.117 26.75 14.247 26.75 20 C 26.75 25.735 24.118 30.865 20 34.25 C 15.883 30.865 13.25 25.735 13.25 20 C 13.25 14.247 15.883 9.117 20 5.75 Z " fill-rule="evenodd" fill="black" stroke="none"/></mask><path d=" M 20 5.75 C 24.118 9.117 26.75 14.247 26.75 20 C 26.75 25.735 24.118 30.865 20 34.25 C 15.883 30.865 13.25 25.735 13.25 20 C 13.25 14.247 15.883 9.117 20 5.75 Z " fill-rule="evenodd" fill="rgb(254,254,254)"/><path d=" M 20 5.75 C 24.118 9.117 26.75 14.247 26.75 20 C 26.75 25.735 24.118 30.865 20 34.25 C 15.883 30.865 13.25 25.735 13.25 20 C 13.25 14.247 15.883 9.117 20 5.75 Z " fill-rule="evenodd" fill="rgb(254,254,254)" mask="url(#_mask_EiKedPtD2snu8gMinAPtB8XQYI3dB3ht)" vector-effect="non-scaling-stroke" stroke-width="0.3" stroke="rgb(43,42,41)" stroke-opacity="100" stroke-linejoin="miter" stroke-linecap="butt" stroke-miterlimit="4"/></g><path d=" M 22.109 26.146 C 22.649 22.779 23.527 19.537 24.742 16.42 L 22.042 13.855 L 21.755 10.471 L 24.978 12.572 L 24.742 16.42 L 26.328 16.045" fill-rule="evenodd" fill="none"/><clipPath id="_clipPath_Wpuz6jQ1bwJfaMnhmoOeEawadexSIF3g"><path d=" M -55 -55 L 65 -55 L 65 65 L -55 65 L -55 -55 Z  M 22.109 26.146 C 22.649 22.779 23.527 19.537 24.742 16.42 L 22.042 13.855 L 21.755 10.471 L 24.978 12.572 L 24.742 16.42 L 26.328 16.045 L 22.109 26.146 Z " fill-rule="evenodd" fill="rgb(255,255,255)"/></clipPath><g clip-path="url(#_clipPath_Wpuz6jQ1bwJfaMnhmoOeEawadexSIF3g)"><mask id="_mask_bKx2coM7lpWhjIT10DpObJjfp6UsKVxd" x="-200%" y="-200%" width="400%" height="400%"><rect x="-200%" y="-200%" width="400%" height="400%" style="fill:white;"/><path d=" M 22.109 26.146 C 22.649 22.779 23.527 19.537 24.742 16.42 L 22.042 13.855 L 21.755 10.471 L 24.978 12.572 L 24.742 16.42 L 26.328 16.045" fill-rule="evenodd" fill="black" stroke="none"/></mask><path d=" M 22.109 26.146 C 22.649 22.779 23.527 19.537 24.742 16.42 L 22.042 13.855 L 21.755 10.471 L 24.978 12.572 L 24.742 16.42 L 26.328 16.045" fill-rule="evenodd" fill="none"/><path d=" M 22.109 26.146 C 22.649 22.779 23.527 19.537 24.742 16.42 L 22.042 13.855 L 21.755 10.471 L 24.978 12.572 L 24.742 16.42 L 26.328 16.045" fill-rule="evenodd" fill="none" mask="url(#_mask_bKx2coM7lpWhjIT10DpObJjfp6UsKVxd)" vector-effect="non-scaling-stroke" stroke-width="0.152" stroke="rgb(43,42,41)" stroke-opacity="100" stroke-linejoin="miter" stroke-linecap="butt" stroke-miterlimit="4"/></g><clipPath id="_clipPath_3dcnSGbrcMIHvWFYK2WkAgTvbM1QUzNO"><path d=" M -55 -55 L 65 -55 L 65 65 L -55 65 L -55 -55 Z  M 24.742 16.42 L 26.75 20 L 24.742 16.42 Z " fill-rule="evenodd" fill="rgb(255,255,255)"/></clipPath><g clip-path="url(#_clipPath_3dcnSGbrcMIHvWFYK2WkAgTvbM1QUzNO)"><mask id="_mask_z1CVGRGI99SQR8gx0IAS0ZMmsDumzJ9F" x="-200%" y="-200%" width="400%" height="400%"><rect x="-200%" y="-200%" width="400%" height="400%" style="fill:white;"/><line x1="24.742" y1="16.42" x2="26.75" y2="20" fill="black" stroke="none"/></mask><line x1="24.742" y1="16.42" x2="26.75" y2="20" mask="url(#_mask_z1CVGRGI99SQR8gx0IAS0ZMmsDumzJ9F)" vector-effect="non-scaling-stroke" stroke-width="0.152" stroke="rgb(43,42,41)" stroke-opacity="100" stroke-linejoin="miter" stroke-linecap="butt" stroke-miterlimit="4"/></g><clipPath id="_clipPath_Ws3elwdwEZ3FBRaQNaDkSSURuo7ZnnZg"><path d=" M -55 -55 L 65 -55 L 65 65 L -55 65 L -55 -55 Z  M 21.991 13.855 L 19.966 11.628 L 21.991 13.855 Z " fill-rule="evenodd" fill="rgb(255,255,255)"/></clipPath><g clip-path="url(#_clipPath_Ws3elwdwEZ3FBRaQNaDkSSURuo7ZnnZg)"><mask id="_mask_bR35MD6RqaVpsOP0qUjR0DBEvQrY2CYE" x="-200%" y="-200%" width="400%" height="400%"><rect x="-200%" y="-200%" width="400%" height="400%" style="fill:white;"/><line x1="21.991" y1="13.855" x2="19.966" y2="11.628" fill="black" stroke="none"/></mask><line x1="21.991" y1="13.855" x2="19.966" y2="11.628" mask="url(#_mask_bR35MD6RqaVpsOP0qUjR0DBEvQrY2CYE)" vector-effect="non-scaling-stroke" stroke-width="0.152" stroke="rgb(43,42,41)" stroke-opacity="100" stroke-linejoin="miter" stroke-linecap="butt" stroke-miterlimit="4"/></g><clipPath id="_clipPath_K3anb0IoQYK9NxcrzB25vV5AukM3MtlD"><path d=" M -55 -55 L 65 -55 L 65 65 L -55 65 L -55 -55 Z  M 21.755 10.471 L 20 5.928 L 21.755 10.471 Z " fill-rule="evenodd" fill="rgb(255,255,255)"/></clipPath><g clip-path="url(#_clipPath_K3anb0IoQYK9NxcrzB25vV5AukM3MtlD)"><mask id="_mask_8ZNRucq0WF1phxsa1BVBpHu0oZ1A5mZG" x="-200%" y="-200%" width="400%" height="400%"><rect x="-200%" y="-200%" width="400%" height="400%" style="fill:white;"/><line x1="21.755" y1="10.471" x2="20" y2="5.928" fill="black" stroke="none"/></mask><line x1="21.755" y1="10.471" x2="20" y2="5.928" mask="url(#_mask_8ZNRucq0WF1phxsa1BVBpHu0oZ1A5mZG)" vector-effect="non-scaling-stroke" stroke-width="0.152" stroke="rgb(43,42,41)" stroke-opacity="100" stroke-linejoin="miter" stroke-linecap="butt" stroke-miterlimit="4"/></g><clipPath id="_clipPath_PfRCa8XdmpxbNS5svHarwLgSCEtUWqsl"><path d=" M -55 -55 L 65 -55 L 65 65 L -55 65 L -55 -55 Z  M 23.155 9.277 L 19.966 11.628 L 23.155 9.277 Z " fill-rule="evenodd" fill="rgb(255,255,255)"/></clipPath><g clip-path="url(#_clipPath_PfRCa8XdmpxbNS5svHarwLgSCEtUWqsl)"><mask id="_mask_Jwl0QjW7v0E74ECvXBah7Y1SXPnIQyFk" x="-200%" y="-200%" width="400%" height="400%"><rect x="-200%" y="-200%" width="400%" height="400%" style="fill:white;"/><line x1="23.155" y1="9.277" x2="19.966" y2="11.628" fill="black" stroke="none"/></mask><line x1="23.155" y1="9.277" x2="19.966" y2="11.628" mask="url(#_mask_Jwl0QjW7v0E74ECvXBah7Y1SXPnIQyFk)" vector-effect="non-scaling-stroke" stroke-width="0.152" stroke="rgb(43,42,41)" stroke-opacity="100" stroke-linejoin="miter" stroke-linecap="butt" stroke-miterlimit="4"/></g><path d=" M 22.109 13.819 C 22.649 17.185 23.527 20.428 24.742 23.545 L 22.042 26.11 L 21.755 29.512 L 24.978 27.392 L 24.742 23.545 L 26.328 23.937" fill-rule="evenodd" fill="none"/><clipPath id="_clipPath_lX21fIYZjNkv663iKhCPxIvbwE6m5cpK"><path d=" M -55 -55 L 65 -55 L 65 65 L -55 65 L -55 -55 Z  M 22.109 13.819 C 22.649 17.185 23.527 20.428 24.742 23.545 L 22.042 26.11 L 21.755 29.512 L 24.978 27.392 L 24.742 23.545 L 26.328 23.937 L 22.109 13.819 Z " fill-rule="evenodd" fill="rgb(255,255,255)"/></clipPath><g clip-path="url(#_clipPath_lX21fIYZjNkv663iKhCPxIvbwE6m5cpK)"><mask id="_mask_IqzVPzyeQ7dby2CbCNdUfv3H6zCbrNR4" x="-200%" y="-200%" width="400%" height="400%"><rect x="-200%" y="-200%" width="400%" height="400%" style="fill:white;"/><path d=" M 22.109 13.819 C 22.649 17.185 23.527 20.428 24.742 23.545 L 22.042 26.11 L 21.755 29.512 L 24.978 27.392 L 24.742 23.545 L 26.328 23.937" fill-rule="evenodd" fill="black" stroke="none"/></mask><path d=" M 22.109 13.819 C 22.649 17.185 23.527 20.428 24.742 23.545 L 22.042 26.11 L 21.755 29.512 L 24.978 27.392 L 24.742 23.545 L 26.328 23.937" fill-rule="evenodd" fill="none"/><path d=" M 22.109 13.819 C 22.649 17.185 23.527 20.428 24.742 23.545 L 22.042 26.11 L 21.755 29.512 L 24.978 27.392 L 24.742 23.545 L 26.328 23.937" fill-rule="evenodd" fill="none" mask="url(#_mask_IqzVPzyeQ7dby2CbCNdUfv3H6zCbrNR4)" vector-effect="non-scaling-stroke" stroke-width="0.152" stroke="rgb(43,42,41)" stroke-opacity="100" stroke-linejoin="miter" stroke-linecap="butt" stroke-miterlimit="4"/></g><path d=" M 17.89 26.146 C 17.334 22.779 16.473 19.537 15.241 16.42 L 17.941 13.855 L 18.229 10.471 L 15.022 12.572 L 15.241 16.42 L 13.672 16.045" fill-rule="evenodd" fill="none"/><clipPath id="_clipPath_FM3vdLRpyt3WfVH03coJzwem3nd4b77V"><path d=" M -55 -55 L 65 -55 L 65 65 L -55 65 L -55 -55 Z  M 17.89 26.146 C 17.334 22.779 16.473 19.537 15.241 16.42 L 17.941 13.855 L 18.229 10.471 L 15.022 12.572 L 15.241 16.42 L 13.672 16.045 L 17.89 26.146 Z " fill-rule="evenodd" fill="rgb(255,255,255)"/></clipPath><g clip-path="url(#_clipPath_FM3vdLRpyt3WfVH03coJzwem3nd4b77V)"><mask id="_mask_00CwIOQ2TRlGt3lN81Cc3gkDqiDDxHva" x="-200%" y="-200%" width="400%" height="400%"><rect x="-200%" y="-200%" width="400%" height="400%" style="fill:white;"/><path d=" M 17.89 26.146 C 17.334 22.779 16.473 19.537 15.241 16.42 L 17.941 13.855 L 18.229 10.471 L 15.022 12.572 L 15.241 16.42 L 13.672 16.045" fill-rule="evenodd" fill="black" stroke="none"/></mask><path d=" M 17.89 26.146 C 17.334 22.779 16.473 19.537 15.241 16.42 L 17.941 13.855 L 18.229 10.471 L 15.022 12.572 L 15.241 16.42 L 13.672 16.045" fill-rule="evenodd" fill="none"/><path d=" M 17.89 26.146 C 17.334 22.779 16.473 19.537 15.241 16.42 L 17.941 13.855 L 18.229 10.471 L 15.022 12.572 L 15.241 16.42 L 13.672 16.045" fill-rule="evenodd" fill="none" mask="url(#_mask_00CwIOQ2TRlGt3lN81Cc3gkDqiDDxHva)" vector-effect="non-scaling-stroke" stroke-width="0.152" stroke="rgb(43,42,41)" stroke-opacity="100" stroke-linejoin="miter" stroke-linecap="butt" stroke-miterlimit="4"/></g><clipPath id="_clipPath_dF5sB6sOmWD2z0YPzfP4R4KGhxaBDX0a"><path d=" M -55 -55 L 65 -55 L 65 65 L -55 65 L -55 -55 Z  M 15.241 16.42 L 13.25 20 L 15.241 16.42 Z " fill-rule="evenodd" fill="rgb(255,255,255)"/></clipPath><g clip-path="url(#_clipPath_dF5sB6sOmWD2z0YPzfP4R4KGhxaBDX0a)"><mask id="_mask_gM8Ig0Zt4a1Q5aSMxEkZ7esv1nGzQ13V" x="-200%" y="-200%" width="400%" height="400%"><rect x="-200%" y="-200%" width="400%" height="400%" style="fill:white;"/><line x1="15.241" y1="16.42" x2="13.25" y2="20" fill="black" stroke="none"/></mask><line x1="15.241" y1="16.42" x2="13.25" y2="20" mask="url(#_mask_gM8Ig0Zt4a1Q5aSMxEkZ7esv1nGzQ13V)" vector-effect="non-scaling-stroke" stroke-width="0.152" stroke="rgb(43,42,41)" stroke-opacity="100" stroke-linejoin="miter" stroke-linecap="butt" stroke-miterlimit="4"/></g><clipPath id="_clipPath_gvKHRMF13xiJvb1KWweVYMgfImUzbJDC"><path d=" M -55 -55 L 65 -55 L 65 65 L -55 65 L -55 -55 Z  M 17.975 13.855 L 19.966 11.628 L 17.975 13.855 Z " fill-rule="evenodd" fill="rgb(255,255,255)"/></clipPath><g clip-path="url(#_clipPath_gvKHRMF13xiJvb1KWweVYMgfImUzbJDC)"><mask id="_mask_YZm0LfsxfVQhBdTLizeQalt5VGmOn2gt" x="-200%" y="-200%" width="400%" height="400%"><rect x="-200%" y="-200%" width="400%" height="400%" style="fill:white;"/><line x1="17.975" y1="13.855" x2="19.966" y2="11.628" fill="black" stroke="none"/></mask><line x1="17.975" y1="13.855" x2="19.966" y2="11.628" mask="url(#_mask_YZm0LfsxfVQhBdTLizeQalt5VGmOn2gt)" vector-effect="non-scaling-stroke" stroke-width="0.152" stroke="rgb(43,42,41)" stroke-opacity="100" stroke-linejoin="miter" stroke-linecap="butt" stroke-miterlimit="4"/></g><clipPath id="_clipPath_6DIeo2KlOw2HRV9JpANzglML5D6EIjXA"><path d=" M -55 -55 L 65 -55 L 65 65 L -55 65 L -55 -55 Z  M 18.229 10.471 L 20 5.928 L 18.229 10.471 Z " fill-rule="evenodd" fill="rgb(255,255,255)"/></clipPath><g clip-path="url(#_clipPath_6DIeo2KlOw2HRV9JpANzglML5D6EIjXA)"><mask id="_mask_8RBZON9cvcfw1tEX3sFopxNXJ1SBbB1A" x="-200%" y="-200%" width="400%" height="400%"><rect x="-200%" y="-200%" width="400%" height="400%" style="fill:white;"/><line x1="18.229" y1="10.471" x2="20" y2="5.928" fill="black" stroke="none"/></mask><line x1="18.229" y1="10.471" x2="20" y2="5.928" mask="url(#_mask_8RBZON9cvcfw1tEX3sFopxNXJ1SBbB1A)" vector-effect="non-scaling-stroke" stroke-width="0.152" stroke="rgb(43,42,41)" stroke-opacity="100" stroke-linejoin="miter" stroke-linecap="butt" stroke-miterlimit="4"/></g><clipPath id="_clipPath_RZb6OCcPacPDiX82n3rJQKXUPh1N3cp9"><path d=" M -55 -55 L 65 -55 L 65 65 L -55 65 L -55 -55 Z  M 16.828 9.277 L 19.966 11.628 L 16.828 9.277 Z " fill-rule="evenodd" fill="rgb(255,255,255)"/></clipPath><g clip-path="url(#_clipPath_RZb6OCcPacPDiX82n3rJQKXUPh1N3cp9)"><mask id="_mask_R6sAfjygQmtOsDwlDVZNjKTBGzjphh5a" x="-200%" y="-200%" width="400%" height="400%"><rect x="-200%" y="-200%" width="400%" height="400%" style="fill:white;"/><line x1="16.828" y1="9.277" x2="19.966" y2="11.628" fill="black" stroke="none"/></mask><line x1="16.828" y1="9.277" x2="19.966" y2="11.628" mask="url(#_mask_R6sAfjygQmtOsDwlDVZNjKTBGzjphh5a)" vector-effect="non-scaling-stroke" stroke-width="0.152" stroke="rgb(43,42,41)" stroke-opacity="100" stroke-linejoin="miter" stroke-linecap="butt" stroke-miterlimit="4"/></g><path d=" M 17.89 13.819 C 17.334 17.185 16.473 20.428 15.241 23.545 L 17.941 26.11 L 18.229 29.512 L 15.022 27.392 L 15.241 23.545 L 13.672 23.937" fill-rule="evenodd" fill="none"/><clipPath id="_clipPath_1ZJRdx6ekee34V2v9rDFIVYQaOH6F8gw"><path d=" M -55 -55 L 65 -55 L 65 65 L -55 65 L -55 -55 Z  M 17.89 13.819 C 17.334 17.185 16.473 20.428 15.241 23.545 L 17.941 26.11 L 18.229 29.512 L 15.022 27.392 L 15.241 23.545 L 13.672 23.937 L 17.89 13.819 Z " fill-rule="evenodd" fill="rgb(255,255,255)"/></clipPath><g clip-path="url(#_clipPath_1ZJRdx6ekee34V2v9rDFIVYQaOH6F8gw)"><mask id="_mask_lG363havRvzwSTHPZjzkWLGIC9Z4tuua" x="-200%" y="-200%" width="400%" height="400%"><rect x="-200%" y="-200%" width="400%" height="400%" style="fill:white;"/><path d=" M 17.89 13.819 C 17.334 17.185 16.473 20.428 15.241 23.545 L 17.941 26.11 L 18.229 29.512 L 15.022 27.392 L 15.241 23.545 L 13.672 23.937" fill-rule="evenodd" fill="black" stroke="none"/></mask><path d=" M 17.89 13.819 C 17.334 17.185 16.473 20.428 15.241 23.545 L 17.941 26.11 L 18.229 29.512 L 15.022 27.392 L 15.241 23.545 L 13.672 23.937" fill-rule="evenodd" fill="none"/><path d=" M 17.89 13.819 C 17.334 17.185 16.473 20.428 15.241 23.545 L 17.941 26.11 L 18.229 29.512 L 15.022 27.392 L 15.241 23.545 L 13.672 23.937" fill-rule="evenodd" fill="none" mask="url(#_mask_lG363havRvzwSTHPZjzkWLGIC9Z4tuua)" vector-effect="non-scaling-stroke" stroke-width="0.152" stroke="rgb(43,42,41)" stroke-opacity="100" stroke-linejoin="miter" stroke-linecap="butt" stroke-miterlimit="4"/></g><clipPath id="_clipPath_yaXres8ttJsG9B4VIUluqYpjAGyowekd"><path d=" M -55 -55 L 65 -55 L 65 65 L -55 65 L -55 -55 Z  M 24.742 23.581 L 26.75 20 L 24.742 23.581 Z " fill-rule="evenodd" fill="rgb(255,255,255)"/></clipPath><g clip-path="url(#_clipPath_yaXres8ttJsG9B4VIUluqYpjAGyowekd)"><mask id="_mask_ZSIiz4lAGpzuTU83JsMKeGa3nbKWUDg2" x="-200%" y="-200%" width="400%" height="400%"><rect x="-200%" y="-200%" width="400%" height="400%" style="fill:white;"/><line x1="24.742" y1="23.581" x2="26.75" y2="20" fill="black" stroke="none"/></mask><line x1="24.742" y1="23.581" x2="26.75" y2="20" mask="url(#_mask_ZSIiz4lAGpzuTU83JsMKeGa3nbKWUDg2)" vector-effect="non-scaling-stroke" stroke-width="0.152" stroke="rgb(43,42,41)" stroke-opacity="100" stroke-linejoin="miter" stroke-linecap="butt" stroke-miterlimit="4"/></g><clipPath id="_clipPath_OSC1UoMa3JDJA5j6VupeniCzERw5HCwx"><path d=" M -55 -55 L 65 -55 L 65 65 L -55 65 L -55 -55 Z  M 21.991 26.146 L 19.966 28.354 L 21.991 26.146 Z " fill-rule="evenodd" fill="rgb(255,255,255)"/></clipPath><g clip-path="url(#_clipPath_OSC1UoMa3JDJA5j6VupeniCzERw5HCwx)"><mask id="_mask_j6WxonHIHf9IrFpVpfvXHmo9TSLbiGI5" x="-200%" y="-200%" width="400%" height="400%"><rect x="-200%" y="-200%" width="400%" height="400%" style="fill:white;"/><line x1="21.991" y1="26.146" x2="19.966" y2="28.354" fill="black" stroke="none"/></mask><line x1="21.991" y1="26.146" x2="19.966" y2="28.354" mask="url(#_mask_j6WxonHIHf9IrFpVpfvXHmo9TSLbiGI5)" vector-effect="non-scaling-stroke" stroke-width="0.152" stroke="rgb(43,42,41)" stroke-opacity="100" stroke-linejoin="miter" stroke-linecap="butt" stroke-miterlimit="4"/></g><clipPath id="_clipPath_8L5b13LozvyFH5KVH8trRvH39JLAjGjD"><path d=" M -55 -55 L 65 -55 L 65 65 L -55 65 L -55 -55 Z  M 21.755 29.53 L 20 34.072 L 21.755 29.53 Z " fill-rule="evenodd" fill="rgb(255,255,255)"/></clipPath><g clip-path="url(#_clipPath_8L5b13LozvyFH5KVH8trRvH39JLAjGjD)"><mask id="_mask_eVkEjkQLnHGuoCkZB5nbK9Ue4PSmzary" x="-200%" y="-200%" width="400%" height="400%"><rect x="-200%" y="-200%" width="400%" height="400%" style="fill:white;"/><line x1="21.755" y1="29.53" x2="20" y2="34.072" fill="black" stroke="none"/></mask><line x1="21.755" y1="29.53" x2="20" y2="34.072" mask="url(#_mask_eVkEjkQLnHGuoCkZB5nbK9Ue4PSmzary)" vector-effect="non-scaling-stroke" stroke-width="0.152" stroke="rgb(43,42,41)" stroke-opacity="100" stroke-linejoin="miter" stroke-linecap="butt" stroke-miterlimit="4"/></g><clipPath id="_clipPath_htApnemnFVswe7VTXuWJVIFI9RVrn1Pr"><path d=" M -55 -55 L 65 -55 L 65 65 L -55 65 L -55 -55 Z  M 23.155 30.706 L 19.966 28.354 L 23.155 30.706 Z " fill-rule="evenodd" fill="rgb(255,255,255)"/></clipPath><g clip-path="url(#_clipPath_htApnemnFVswe7VTXuWJVIFI9RVrn1Pr)"><mask id="_mask_lYze5GJMq6xGnJHXshAXMenmAwPFaZcy" x="-200%" y="-200%" width="400%" height="400%"><rect x="-200%" y="-200%" width="400%" height="400%" style="fill:white;"/><line x1="23.155" y1="30.706" x2="19.966" y2="28.354" fill="black" stroke="none"/></mask><line x1="23.155" y1="30.706" x2="19.966" y2="28.354" mask="url(#_mask_lYze5GJMq6xGnJHXshAXMenmAwPFaZcy)" vector-effect="non-scaling-stroke" stroke-width="0.152" stroke="rgb(43,42,41)" stroke-opacity="100" stroke-linejoin="miter" stroke-linecap="butt" stroke-miterlimit="4"/></g><clipPath id="_clipPath_gRxw2i3DlAPCNbzNeH8jYdvvqfs5Xn5n"><path d=" M -55 -55 L 65 -55 L 65 65 L -55 65 L -55 -55 Z  M 15.241 23.581 L 13.25 20 L 15.241 23.581 Z " fill-rule="evenodd" fill="rgb(255,255,255)"/></clipPath><g clip-path="url(#_clipPath_gRxw2i3DlAPCNbzNeH8jYdvvqfs5Xn5n)"><mask id="_mask_2LoFlq3lSIlokF7ey4iBTnxfDARhBbhx" x="-200%" y="-200%" width="400%" height="400%"><rect x="-200%" y="-200%" width="400%" height="400%" style="fill:white;"/><line x1="15.241" y1="23.581" x2="13.25" y2="20" fill="black" stroke="none"/></mask><line x1="15.241" y1="23.581" x2="13.25" y2="20" mask="url(#_mask_2LoFlq3lSIlokF7ey4iBTnxfDARhBbhx)" vector-effect="non-scaling-stroke" stroke-width="0.152" stroke="rgb(43,42,41)" stroke-opacity="100" stroke-linejoin="miter" stroke-linecap="butt" stroke-miterlimit="4"/></g><clipPath id="_clipPath_KdLMFzylnvpPizioOnIKmX9dBe383XVw"><path d=" M -55 -55 L 65 -55 L 65 65 L -55 65 L -55 -55 Z  M 17.975 26.146 L 19.966 28.354 L 17.975 26.146 Z " fill-rule="evenodd" fill="rgb(255,255,255)"/></clipPath><g clip-path="url(#_clipPath_KdLMFzylnvpPizioOnIKmX9dBe383XVw)"><mask id="_mask_lyx2fXw65oPAYkDPwh6JoFQVSDZBRbAt" x="-200%" y="-200%" width="400%" height="400%"><rect x="-200%" y="-200%" width="400%" height="400%" style="fill:white;"/><line x1="17.975" y1="26.146" x2="19.966" y2="28.354" fill="black" stroke="none"/></mask><line x1="17.975" y1="26.146" x2="19.966" y2="28.354" mask="url(#_mask_lyx2fXw65oPAYkDPwh6JoFQVSDZBRbAt)" vector-effect="non-scaling-stroke" stroke-width="0.152" stroke="rgb(43,42,41)" stroke-opacity="100" stroke-linejoin="miter" stroke-linecap="butt" stroke-miterlimit="4"/></g><clipPath id="_clipPath_UAGCo6hrFR4OnE3ms2RdgGi4G2Mt5LFi"><path d=" M -55 -55 L 65 -55 L 65 65 L -55 65 L -55 -55 Z  M 18.229 29.53 L 20 34.072 L 18.229 29.53 Z " fill-rule="evenodd" fill="rgb(255,255,255)"/></clipPath><g clip-path="url(#_clipPath_UAGCo6hrFR4OnE3ms2RdgGi4G2Mt5LFi)"><mask id="_mask_fT7nLmWgmnZjLnBF8QtyJ7krPcN5e7pe" x="-200%" y="-200%" width="400%" height="400%"><rect x="-200%" y="-200%" width="400%" height="400%" style="fill:white;"/><line x1="18.229" y1="29.53" x2="20" y2="34.072" fill="black" stroke="none"/></mask><line x1="18.229" y1="29.53" x2="20" y2="34.072" mask="url(#_mask_fT7nLmWgmnZjLnBF8QtyJ7krPcN5e7pe)" vector-effect="non-scaling-stroke" stroke-width="0.152" stroke="rgb(43,42,41)" stroke-opacity="100" stroke-linejoin="miter" stroke-linecap="butt" stroke-miterlimit="4"/></g><clipPath id="_clipPath_GZaff9uIOvbNoinFp3oRoPyUkABB2yso"><path d=" M -55 -55 L 65 -55 L 65 65 L -55 65 L -55 -55 Z  M 16.828 30.706 L 19.966 28.354 L 16.828 30.706 Z " fill-rule="evenodd" fill="rgb(255,255,255)"/></clipPath><g clip-path="url(#_clipPath_GZaff9uIOvbNoinFp3oRoPyUkABB2yso)"><mask id="_mask_gPNOQjppVuEMvD67hq13kReCZavDAtqq" x="-200%" y="-200%" width="400%" height="400%"><rect x="-200%" y="-200%" width="400%" height="400%" style="fill:white;"/><line x1="16.828" y1="30.706" x2="19.966" y2="28.354" fill="black" stroke="none"/></mask><line x1="16.828" y1="30.706" x2="19.966" y2="28.354" mask="url(#_mask_gPNOQjppVuEMvD67hq13kReCZavDAtqq)" vector-effect="non-scaling-stroke" stroke-width="0.152" stroke="rgb(43,42,41)" stroke-opacity="100" stroke-linejoin="miter" stroke-linecap="butt" stroke-miterlimit="4"/></g></g></g></g></g></g></svg>