<?xml version="1.0" encoding="UTF-8" standalone="no"?><!-- Generator: Gravit.io --><svg xmlns="http://www.w3.org/2000/svg" xmlns:xlink="http://www.w3.org/1999/xlink" style="isolation:isolate" viewBox="0 0 40 40" width="40pt" height="40pt"><defs><clipPath id="_clipPath_F2ZOZxitca4A6XsPOG5OmcmphauWgqSY"><rect width="40" height="40"/></clipPath></defs><g clip-path="url(#_clipPath_F2ZOZxitca4A6XsPOG5OmcmphauWgqSY)"><clipPath id="_clipPath_FmkRNFcDFV1Iz7m9EvFnT1l1RLs3MxpW"><rect x="5" y="5" width="30" height="30" transform="matrix(1,0,0,1,0,0)" fill="rgb(255,255,255)"/></clipPath><g clip-path="url(#_clipPath_FmkRNFcDFV1Iz7m9EvFnT1l1RLs3MxpW)"><g><g><rect x="5" y="5" width="30" height="30" transform="matrix(1,0,0,1,0,0)" fill="none" vector-effect="non-scaling-stroke" stroke-width="0.176" stroke="rgb(254,254,254)" stroke-opacity="100" stroke-linejoin="miter" stroke-linecap="butt" stroke-miterlimit="2"/><g><path d=" M 27.054 6.229 L 12.901 6.125 L 10.25 8.969 L 10.25 31.256 L 12.688 33.875 L 27.236 33.875 L 29.75 31.187 L 29.75 9.108 L 27.054 6.229 Z " fill-rule="evenodd" fill="rgb(254,254,254)"/><clipPath id="_clipPath_NbYhLffVUB1bs3Hx7VElhXQSQO70HhM4"><path d=" M -55 -55 L 65 -55 L 65 65 L -55 65 L -55 -55 Z  M 27.054 6.229 L 12.901 6.125 L 10.25 8.969 L 10.25 31.256 L 12.688 33.875 L 27.236 33.875 L 29.75 31.187 L 29.75 9.108 L 27.054 6.229 L 27.054 6.229 Z " fill-rule="evenodd" fill="rgb(255,255,255)"/></clipPath><g clip-path="url(#_clipPath_NbYhLffVUB1bs3Hx7VElhXQSQO70HhM4)"><mask id="_mask_an4L7oCe6tBTKVl1iTAmDBpV7EvyShgq" x="-200%" y="-200%" width="400%" height="400%"><rect x="-200%" y="-200%" width="400%" height="400%" style="fill:white;"/><path d=" M 27.054 6.229 L 12.901 6.125 L 10.25 8.969 L 10.25 31.256 L 12.688 33.875 L 27.236 33.875 L 29.75 31.187 L 29.75 9.108 L 27.054 6.229 Z " fill-rule="evenodd" fill="black" stroke="none"/></mask><path d=" M 27.054 6.229 L 12.901 6.125 L 10.25 8.969 L 10.25 31.256 L 12.688 33.875 L 27.236 33.875 L 29.75 31.187 L 29.75 9.108 L 27.054 6.229 Z " fill-rule="evenodd" fill="rgb(254,254,254)"/><path d=" M 27.054 6.229 L 12.901 6.125 L 10.25 8.969 L 10.25 31.256 L 12.688 33.875 L 27.236 33.875 L 29.75 31.187 L 29.75 9.108 L 27.054 6.229 Z " fill-rule="evenodd" fill="rgb(254,254,254)" mask="url(#_mask_an4L7oCe6tBTKVl1iTAmDBpV7EvyShgq)" vector-effect="non-scaling-stroke" stroke-width="0.353" stroke="rgb(43,42,41)" stroke-opacity="100" stroke-linejoin="miter" stroke-linecap="butt" stroke-miterlimit="4"/></g><path d=" M 26.49 7.825 L 13.465 7.738 L 11.667 9.663 L 11.667 30.545 L 13.252 32.262 L 26.673 32.262 L 28.333 30.476 L 28.333 9.802 L 26.49 7.825 Z " fill-rule="evenodd" fill="none"/><clipPath id="_clipPath_qKsSnVw3nx9mFe7nOxViyEIj9xzHmVKz"><path d=" M -55 -55 L 65 -55 L 65 65 L -55 65 L -55 -55 Z  M 26.49 7.825 L 13.465 7.738 L 11.667 9.663 L 11.667 30.545 L 13.252 32.262 L 26.673 32.262 L 28.333 30.476 L 28.333 9.802 L 26.49 7.825 L 26.49 7.825 Z " fill-rule="evenodd" fill="rgb(255,255,255)"/></clipPath><g clip-path="url(#_clipPath_qKsSnVw3nx9mFe7nOxViyEIj9xzHmVKz)"><mask id="_mask_WrElH7tj7qrPo2E6tiyPDVjB7YVH9ML9" x="-200%" y="-200%" width="400%" height="400%"><rect x="-200%" y="-200%" width="400%" height="400%" style="fill:white;"/><path d=" M 26.49 7.825 L 13.465 7.738 L 11.667 9.663 L 11.667 30.545 L 13.252 32.262 L 26.673 32.262 L 28.333 30.476 L 28.333 9.802 L 26.49 7.825 Z " fill-rule="evenodd" fill="black" stroke="none"/></mask><path d=" M 26.49 7.825 L 13.465 7.738 L 11.667 9.663 L 11.667 30.545 L 13.252 32.262 L 26.673 32.262 L 28.333 30.476 L 28.333 9.802 L 26.49 7.825 Z " fill-rule="evenodd" fill="none"/><path d=" M 26.49 7.825 L 13.465 7.738 L 11.667 9.663 L 11.667 30.545 L 13.252 32.262 L 26.673 32.262 L 28.333 30.476 L 28.333 9.802 L 26.49 7.825 Z " fill-rule="evenodd" fill="none" mask="url(#_mask_WrElH7tj7qrPo2E6tiyPDVjB7YVH9ML9)" vector-effect="non-scaling-stroke" stroke-width="0.353" stroke="rgb(91,91,91)" stroke-opacity="100" stroke-linejoin="miter" stroke-linecap="butt" stroke-miterlimit="4"/></g><path d=" M 27.008 10.617 L 25.683 9.229 L 14.272 9.229 L 12.946 10.617 L 12.946 29.522 L 14.272 30.91 L 25.683 30.91 L 27.008 29.522 M 27.008 10.617 L 27.008 29.522" fill-rule="evenodd" fill="none" vector-effect="non-scaling-stroke" stroke-width="0.176" stroke="rgb(157,158,158)" stroke-opacity="100" stroke-linejoin="miter" stroke-linecap="butt" stroke-miterlimit="4"/><path d=" M 25.545 11.536 L 25.012 10.843 L 14.973 10.843 L 14.44 11.536 L 14.44 28.447 L 14.973 29.158 L 25.012 29.158 L 25.545 28.447 L 25.545 11.536 Z " fill-rule="evenodd" fill="none"/><clipPath id="_clipPath_q5fg8JSMKW2epmd5TCJwJuRRsohgyzCi"><path d=" M -55 -55 L 65 -55 L 65 65 L -55 65 L -55 -55 Z  M 25.545 11.536 L 25.012 10.843 L 14.973 10.843 L 14.44 11.536 L 14.44 28.447 L 14.973 29.158 L 25.012 29.158 L 25.545 28.447 L 25.545 11.536 L 25.545 11.536 Z " fill-rule="evenodd" fill="rgb(255,255,255)"/></clipPath><g clip-path="url(#_clipPath_q5fg8JSMKW2epmd5TCJwJuRRsohgyzCi)"><mask id="_mask_5dXr9mG6ujEC9CG8jCWQZIMERMwu5DAf" x="-200%" y="-200%" width="400%" height="400%"><rect x="-200%" y="-200%" width="400%" height="400%" style="fill:white;"/><path d=" M 25.545 11.536 L 25.012 10.843 L 14.973 10.843 L 14.44 11.536 L 14.44 28.447 L 14.973 29.158 L 25.012 29.158 L 25.545 28.447 L 25.545 11.536 Z " fill-rule="evenodd" fill="black" stroke="none"/></mask><path d=" M 25.545 11.536 L 25.012 10.843 L 14.973 10.843 L 14.44 11.536 L 14.44 28.447 L 14.973 29.158 L 25.012 29.158 L 25.545 28.447 L 25.545 11.536 Z " fill-rule="evenodd" fill="none"/><path d=" M 25.545 11.536 L 25.012 10.843 L 14.973 10.843 L 14.44 11.536 L 14.44 28.447 L 14.973 29.158 L 25.012 29.158 L 25.545 28.447 L 25.545 11.536 Z " fill-rule="evenodd" fill="none" mask="url(#_mask_5dXr9mG6ujEC9CG8jCWQZIMERMwu5DAf)" vector-effect="non-scaling-stroke" stroke-width="0.353" stroke="rgb(137,137,137)" stroke-opacity="100" stroke-linejoin="miter" stroke-linecap="butt" stroke-miterlimit="4"/></g><g><clipPath id="_clipPath_I4wweXOQA44GKMq3rMGRMunJyzOFDxEn"><path d=" M -55 -55 L 65 -55 L 65 65 L -55 65 L -55 -55 Z  M 14.44 11.536 L 10.25 8.969 L 14.44 11.536 Z " fill-rule="evenodd" fill="rgb(255,255,255)"/></clipPath><g clip-path="url(#_clipPath_I4wweXOQA44GKMq3rMGRMunJyzOFDxEn)"><mask id="_mask_nY8kkK0ipjbcmktnkZrHBInthDVQR3NI" x="-200%" y="-200%" width="400%" height="400%"><rect x="-200%" y="-200%" width="400%" height="400%" style="fill:white;"/><line x1="14.44" y1="11.536" x2="10.25" y2="8.969" fill="black" stroke="none"/></mask><line x1="14.44" y1="11.536" x2="10.25" y2="8.969" mask="url(#_mask_nY8kkK0ipjbcmktnkZrHBInthDVQR3NI)" vector-effect="non-scaling-stroke" stroke-width="0.353" stroke="rgb(114,114,113)" stroke-opacity="100" stroke-linejoin="miter" stroke-linecap="butt" stroke-miterlimit="4"/></g><clipPath id="_clipPath_jhEWjt8PeQG8kPVnVafkFaAQpWUF5AiQ"><path d=" M -55 -55 L 65 -55 L 65 65 L -55 65 L -55 -55 Z  M 14.973 10.843 L 12.901 6.125 L 14.973 10.843 Z " fill-rule="evenodd" fill="rgb(255,255,255)"/></clipPath><g clip-path="url(#_clipPath_jhEWjt8PeQG8kPVnVafkFaAQpWUF5AiQ)"><mask id="_mask_Q6iEwbV4h1r4ILY01vKDrj14TbXxP19w" x="-200%" y="-200%" width="400%" height="400%"><rect x="-200%" y="-200%" width="400%" height="400%" style="fill:white;"/><line x1="14.973" y1="10.843" x2="12.901" y2="6.125" fill="black" stroke="none"/></mask><line x1="14.973" y1="10.843" x2="12.901" y2="6.125" mask="url(#_mask_Q6iEwbV4h1r4ILY01vKDrj14TbXxP19w)" vector-effect="non-scaling-stroke" stroke-width="0.353" stroke="rgb(114,114,113)" stroke-opacity="100" stroke-linejoin="miter" stroke-linecap="butt" stroke-miterlimit="4"/></g></g><g><clipPath id="_clipPath_1woSaudrWWusxO8KhnqVHQokzG7T9VpJ"><path d=" M -55 -55 L 65 -55 L 65 65 L -55 65 L -55 -55 Z  M 25.545 11.536 L 29.75 8.969 L 25.545 11.536 Z " fill-rule="evenodd" fill="rgb(255,255,255)"/></clipPath><g clip-path="url(#_clipPath_1woSaudrWWusxO8KhnqVHQokzG7T9VpJ)"><mask id="_mask_qI7DIZsKCFB4jA7mPKEubpSbBVi7cS1M" x="-200%" y="-200%" width="400%" height="400%"><rect x="-200%" y="-200%" width="400%" height="400%" style="fill:white;"/><line x1="25.545" y1="11.536" x2="29.75" y2="8.969" fill="black" stroke="none"/></mask><line x1="25.545" y1="11.536" x2="29.75" y2="8.969" mask="url(#_mask_qI7DIZsKCFB4jA7mPKEubpSbBVi7cS1M)" vector-effect="non-scaling-stroke" stroke-width="0.353" stroke="rgb(114,114,113)" stroke-opacity="100" stroke-linejoin="miter" stroke-linecap="butt" stroke-miterlimit="4"/></g><clipPath id="_clipPath_rOoTEj2O5zvDGom9H1LQxiL2hTGIwQ1k"><path d=" M -55 -55 L 65 -55 L 65 65 L -55 65 L -55 -55 Z  M 25.012 10.843 L 27.1 6.125 L 25.012 10.843 Z " fill-rule="evenodd" fill="rgb(255,255,255)"/></clipPath><g clip-path="url(#_clipPath_rOoTEj2O5zvDGom9H1LQxiL2hTGIwQ1k)"><mask id="_mask_RWERhButg4W3GtJcKI92vMcNwj5TWaxm" x="-200%" y="-200%" width="400%" height="400%"><rect x="-200%" y="-200%" width="400%" height="400%" style="fill:white;"/><line x1="25.012" y1="10.843" x2="27.1" y2="6.125" fill="black" stroke="none"/></mask><line x1="25.012" y1="10.843" x2="27.1" y2="6.125" mask="url(#_mask_RWERhButg4W3GtJcKI92vMcNwj5TWaxm)" vector-effect="non-scaling-stroke" stroke-width="0.353" stroke="rgb(114,114,113)" stroke-opacity="100" stroke-linejoin="miter" stroke-linecap="butt" stroke-miterlimit="4"/></g></g><g><clipPath id="_clipPath_vpveVna3ZITTw3POfBnbEISGjHnQvVT8"><path d=" M -55 -55 L 65 -55 L 65 65 L -55 65 L -55 -55 Z  M 14.44 28.464 L 10.25 31.03 L 14.44 28.464 Z " fill-rule="evenodd" fill="rgb(255,255,255)"/></clipPath><g clip-path="url(#_clipPath_vpveVna3ZITTw3POfBnbEISGjHnQvVT8)"><mask id="_mask_chRfmuj3g3S677HGHMMgIcsgNfbPeMen" x="-200%" y="-200%" width="400%" height="400%"><rect x="-200%" y="-200%" width="400%" height="400%" style="fill:white;"/><line x1="14.44" y1="28.464" x2="10.25" y2="31.03" fill="black" stroke="none"/></mask><line x1="14.44" y1="28.464" x2="10.25" y2="31.03" mask="url(#_mask_chRfmuj3g3S677HGHMMgIcsgNfbPeMen)" vector-effect="non-scaling-stroke" stroke-width="0.353" stroke="rgb(114,114,113)" stroke-opacity="100" stroke-linejoin="miter" stroke-linecap="butt" stroke-miterlimit="4"/></g><clipPath id="_clipPath_NaEn6gilZoqINq4c0yO2050gr0lrIiph"><path d=" M -55 -55 L 65 -55 L 65 65 L -55 65 L -55 -55 Z  M 14.973 29.158 L 12.901 33.875 L 14.973 29.158 Z " fill-rule="evenodd" fill="rgb(255,255,255)"/></clipPath><g clip-path="url(#_clipPath_NaEn6gilZoqINq4c0yO2050gr0lrIiph)"><mask id="_mask_EfTwFti68jC7bYY33zmBUbead9eCLUSv" x="-200%" y="-200%" width="400%" height="400%"><rect x="-200%" y="-200%" width="400%" height="400%" style="fill:white;"/><line x1="14.973" y1="29.158" x2="12.901" y2="33.875" fill="black" stroke="none"/></mask><line x1="14.973" y1="29.158" x2="12.901" y2="33.875" mask="url(#_mask_EfTwFti68jC7bYY33zmBUbead9eCLUSv)" vector-effect="non-scaling-stroke" stroke-width="0.353" stroke="rgb(114,114,113)" stroke-opacity="100" stroke-linejoin="miter" stroke-linecap="butt" stroke-miterlimit="4"/></g></g><g><clipPath id="_clipPath_6gISpVfLZVuKXrezsHFSi9AqbptzRVy7"><path d=" M -55 -55 L 65 -55 L 65 65 L -55 65 L -55 -55 Z  M 25.545 28.464 L 29.75 31.03 L 25.545 28.464 Z " fill-rule="evenodd" fill="rgb(255,255,255)"/></clipPath><g clip-path="url(#_clipPath_6gISpVfLZVuKXrezsHFSi9AqbptzRVy7)"><mask id="_mask_UwmHbj8Svlr7ileZfsAg5qIn2qEe3rQ4" x="-200%" y="-200%" width="400%" height="400%"><rect x="-200%" y="-200%" width="400%" height="400%" style="fill:white;"/><line x1="25.545" y1="28.464" x2="29.75" y2="31.03" fill="black" stroke="none"/></mask><line x1="25.545" y1="28.464" x2="29.75" y2="31.03" mask="url(#_mask_UwmHbj8Svlr7ileZfsAg5qIn2qEe3rQ4)" vector-effect="non-scaling-stroke" stroke-width="0.353" stroke="rgb(114,114,113)" stroke-opacity="100" stroke-linejoin="miter" stroke-linecap="butt" stroke-miterlimit="4"/></g><clipPath id="_clipPath_LSr7Fj8w9Hi2w0AiLfmvatrKCLRB9jqI"><path d=" M -55 -55 L 65 -55 L 65 65 L -55 65 L -55 -55 Z  M 25.012 29.158 L 27.1 33.875 L 25.012 29.158 Z " fill-rule="evenodd" fill="rgb(255,255,255)"/></clipPath><g clip-path="url(#_clipPath_LSr7Fj8w9Hi2w0AiLfmvatrKCLRB9jqI)"><mask id="_mask_aZuXyP8ilz0QMNZssD7Kmrc3d3elB2LV" x="-200%" y="-200%" width="400%" height="400%"><rect x="-200%" y="-200%" width="400%" height="400%" style="fill:white;"/><line x1="25.012" y1="29.158" x2="27.1" y2="33.875" fill="black" stroke="none"/></mask><line x1="25.012" y1="29.158" x2="27.1" y2="33.875" mask="url(#_mask_aZuXyP8ilz0QMNZssD7Kmrc3d3elB2LV)" vector-effect="non-scaling-stroke" stroke-width="0.353" stroke="rgb(114,114,113)" stroke-opacity="100" stroke-linejoin="miter" stroke-linecap="butt" stroke-miterlimit="4"/></g></g></g></g></g></g></g></svg>