<?xml version="1.0" encoding="UTF-8" standalone="no"?><!-- Generator: Gravit.io --><svg xmlns="http://www.w3.org/2000/svg" xmlns:xlink="http://www.w3.org/1999/xlink" style="isolation:isolate" viewBox="0 0 40 40" width="40pt" height="40pt"><defs><clipPath id="_clipPath_6sGfjiZY7bBLVmPYP2yLesS8cdkhQWm8"><rect width="40" height="40"/></clipPath></defs><g clip-path="url(#_clipPath_6sGfjiZY7bBLVmPYP2yLesS8cdkhQWm8)"><clipPath id="_clipPath_tKRuoj6x3lzSg97gzKKBmnGoeJtgLDBQ"><rect x="5" y="5" width="30" height="30" transform="matrix(1,0,0,1,0,0)" fill="rgb(255,255,255)"/></clipPath><g clip-path="url(#_clipPath_tKRuoj6x3lzSg97gzKKBmnGoeJtgLDBQ)"><g><g><rect x="-1.75" y="-1.75" width="42" height="43.5" transform="matrix(1,0,0,1,0,0)" fill="none" vector-effect="non-scaling-stroke" stroke-width="0.176" stroke="rgb(254,254,254)" stroke-opacity="100" stroke-linejoin="miter" stroke-linecap="butt" stroke-miterlimit="2"/><g><path d=" M 34.25 10.363 L 29.491 5.75 L 10.527 5.75 L 5.75 10.363 L 5.75 29.637 L 10.527 34.25 L 29.491 34.25 L 34.25 29.637 L 34.25 10.363 Z " fill-rule="evenodd" fill="none"/><clipPath id="_clipPath_lzVwv2id9D97sAxdZh039HLMUT7lktRE"><path d=" M -55 -55 L 65 -55 L 65 65 L -55 65 L -55 -55 Z  M 34.25 10.363 L 29.491 5.75 L 10.527 5.75 L 5.75 10.363 L 5.75 29.637 L 10.527 34.25 L 29.491 34.25 L 34.25 29.637 L 34.25 10.363 L 34.25 10.363 Z " fill-rule="evenodd" fill="rgb(255,255,255)"/></clipPath><g clip-path="url(#_clipPath_lzVwv2id9D97sAxdZh039HLMUT7lktRE)"><mask id="_mask_zYXvM00l5botZa6II48qOeTZmh0GJQKl" x="-200%" y="-200%" width="400%" height="400%"><rect x="-200%" y="-200%" width="400%" height="400%" style="fill:white;"/><path d=" M 34.25 10.363 L 29.491 5.75 L 10.527 5.75 L 5.75 10.363 L 5.75 29.637 L 10.527 34.25 L 29.491 34.25 L 34.25 29.637 L 34.25 10.363 Z " fill-rule="evenodd" fill="black" stroke="none"/></mask><path d=" M 34.25 10.363 L 29.491 5.75 L 10.527 5.75 L 5.75 10.363 L 5.75 29.637 L 10.527 34.25 L 29.491 34.25 L 34.25 29.637 L 34.25 10.363 Z " fill-rule="evenodd" fill="none"/><path d=" M 34.25 10.363 L 29.491 5.75 L 10.527 5.75 L 5.75 10.363 L 5.75 29.637 L 10.527 34.25 L 29.491 34.25 L 34.25 29.637 L 34.25 10.363 Z " fill-rule="evenodd" fill="none" mask="url(#_mask_zYXvM00l5botZa6II48qOeTZmh0GJQKl)" vector-effect="non-scaling-stroke" stroke-width="0.353" stroke="rgb(43,42,41)" stroke-opacity="100" stroke-linejoin="miter" stroke-linecap="butt" stroke-miterlimit="4"/></g><path d=" M 32.485 11.557 L 28.297 7.531 L 11.703 7.531 L 7.532 11.557 L 7.532 28.426 L 11.703 32.469 L 28.297 32.469 L 32.485 28.426 L 32.485 11.557 Z " fill-rule="evenodd" fill="none"/><clipPath id="_clipPath_znXml4VkAYvug6ABrGRRADoZbBPL6LxG"><path d=" M -55 -55 L 65 -55 L 65 65 L -55 65 L -55 -55 Z  M 32.485 11.557 L 28.297 7.531 L 11.703 7.531 L 7.532 11.557 L 7.532 28.426 L 11.703 32.469 L 28.297 32.469 L 32.485 28.426 L 32.485 11.557 L 32.485 11.557 Z " fill-rule="evenodd" fill="rgb(255,255,255)"/></clipPath><g clip-path="url(#_clipPath_znXml4VkAYvug6ABrGRRADoZbBPL6LxG)"><mask id="_mask_yFj57tGXolknx94zdTQbyp9uVvHJzYCh" x="-200%" y="-200%" width="400%" height="400%"><rect x="-200%" y="-200%" width="400%" height="400%" style="fill:white;"/><path d=" M 32.485 11.557 L 28.297 7.531 L 11.703 7.531 L 7.532 11.557 L 7.532 28.426 L 11.703 32.469 L 28.297 32.469 L 32.485 28.426 L 32.485 11.557 Z " fill-rule="evenodd" fill="black" stroke="none"/></mask><path d=" M 32.485 11.557 L 28.297 7.531 L 11.703 7.531 L 7.532 11.557 L 7.532 28.426 L 11.703 32.469 L 28.297 32.469 L 32.485 28.426 L 32.485 11.557 Z " fill-rule="evenodd" fill="none"/><path d=" M 32.485 11.557 L 28.297 7.531 L 11.703 7.531 L 7.532 11.557 L 7.532 28.426 L 11.703 32.469 L 28.297 32.469 L 32.485 28.426 L 32.485 11.557 Z " fill-rule="evenodd" fill="none" mask="url(#_mask_yFj57tGXolknx94zdTQbyp9uVvHJzYCh)" vector-effect="non-scaling-stroke" stroke-width="0.353" stroke="rgb(43,42,41)" stroke-opacity="100" stroke-linejoin="miter" stroke-linecap="butt" stroke-miterlimit="4"/></g><path d=" M 30.667 12.786 L 27.103 9.331 L 12.915 9.331 L 9.333 12.786 L 9.333 27.214 L 12.915 30.67 L 27.103 30.67 L 30.667 27.214 L 30.667 12.786 Z " fill-rule="evenodd" fill="none"/><clipPath id="_clipPath_pSGlabLFEBJ7IsqqxEReVkIvBK61wmgi"><path d=" M -55 -55 L 65 -55 L 65 65 L -55 65 L -55 -55 Z  M 30.667 12.786 L 27.103 9.331 L 12.915 9.331 L 9.333 12.786 L 9.333 27.214 L 12.915 30.67 L 27.103 30.67 L 30.667 27.214 L 30.667 12.786 L 30.667 12.786 Z " fill-rule="evenodd" fill="rgb(255,255,255)"/></clipPath><g clip-path="url(#_clipPath_pSGlabLFEBJ7IsqqxEReVkIvBK61wmgi)"><mask id="_mask_EvctX6sibGCIe99myWQQNb47jBbblWuI" x="-200%" y="-200%" width="400%" height="400%"><rect x="-200%" y="-200%" width="400%" height="400%" style="fill:white;"/><path d=" M 30.667 12.786 L 27.103 9.331 L 12.915 9.331 L 9.333 12.786 L 9.333 27.214 L 12.915 30.67 L 27.103 30.67 L 30.667 27.214 L 30.667 12.786 Z " fill-rule="evenodd" fill="black" stroke="none"/></mask><path d=" M 30.667 12.786 L 27.103 9.331 L 12.915 9.331 L 9.333 12.786 L 9.333 27.214 L 12.915 30.67 L 27.103 30.67 L 30.667 27.214 L 30.667 12.786 Z " fill-rule="evenodd" fill="none"/><path d=" M 30.667 12.786 L 27.103 9.331 L 12.915 9.331 L 9.333 12.786 L 9.333 27.214 L 12.915 30.67 L 27.103 30.67 L 30.667 27.214 L 30.667 12.786 Z " fill-rule="evenodd" fill="none" mask="url(#_mask_EvctX6sibGCIe99myWQQNb47jBbblWuI)" vector-effect="non-scaling-stroke" stroke-width="0.353" stroke="rgb(43,42,41)" stroke-opacity="100" stroke-linejoin="miter" stroke-linecap="butt" stroke-miterlimit="4"/></g><path d=" M 28.76 14.086 L 25.819 11.254 L 14.181 11.254 L 11.257 14.086 L 11.257 25.914 L 14.181 28.746 L 25.819 28.746 L 28.76 25.914 L 28.76 14.086 Z " fill-rule="evenodd" fill="none"/><clipPath id="_clipPath_Dh4pKg14ubatFjBTSLjYnn3u4b4YLhDz"><path d=" M -55 -55 L 65 -55 L 65 65 L -55 65 L -55 -55 Z  M 28.76 14.086 L 25.819 11.254 L 14.181 11.254 L 11.257 14.086 L 11.257 25.914 L 14.181 28.746 L 25.819 28.746 L 28.76 25.914 L 28.76 14.086 L 28.76 14.086 Z " fill-rule="evenodd" fill="rgb(255,255,255)"/></clipPath><g clip-path="url(#_clipPath_Dh4pKg14ubatFjBTSLjYnn3u4b4YLhDz)"><mask id="_mask_YuGDlxDm8lPvvyxulYY0FKuWuZYhWEP1" x="-200%" y="-200%" width="400%" height="400%"><rect x="-200%" y="-200%" width="400%" height="400%" style="fill:white;"/><path d=" M 28.76 14.086 L 25.819 11.254 L 14.181 11.254 L 11.257 14.086 L 11.257 25.914 L 14.181 28.746 L 25.819 28.746 L 28.76 25.914 L 28.76 14.086 Z " fill-rule="evenodd" fill="black" stroke="none"/></mask><path d=" M 28.76 14.086 L 25.819 11.254 L 14.181 11.254 L 11.257 14.086 L 11.257 25.914 L 14.181 28.746 L 25.819 28.746 L 28.76 25.914 L 28.76 14.086 Z " fill-rule="evenodd" fill="none"/><path d=" M 28.76 14.086 L 25.819 11.254 L 14.181 11.254 L 11.257 14.086 L 11.257 25.914 L 14.181 28.746 L 25.819 28.746 L 28.76 25.914 L 28.76 14.086 Z " fill-rule="evenodd" fill="none" mask="url(#_mask_YuGDlxDm8lPvvyxulYY0FKuWuZYhWEP1)" vector-effect="non-scaling-stroke" stroke-width="0.353" stroke="rgb(43,42,41)" stroke-opacity="100" stroke-linejoin="miter" stroke-linecap="butt" stroke-miterlimit="4"/></g><g><clipPath id="_clipPath_QQP7Xioy7HAl7szFltfuPavjKxpkVwZJ"><path d=" M -55 -55 L 65 -55 L 65 65 L -55 65 L -55 -55 Z  M 14.181 11.254 L 10.527 5.75 L 14.181 11.254 Z " fill-rule="evenodd" fill="rgb(255,255,255)"/></clipPath><g clip-path="url(#_clipPath_QQP7Xioy7HAl7szFltfuPavjKxpkVwZJ)"><mask id="_mask_gQaD1W08OcXMrSCcU0856Sn0y3TT4OFp" x="-200%" y="-200%" width="400%" height="400%"><rect x="-200%" y="-200%" width="400%" height="400%" style="fill:white;"/><line x1="14.181" y1="11.254" x2="10.527" y2="5.75" fill="black" stroke="none"/></mask><line x1="14.181" y1="11.254" x2="10.527" y2="5.75" mask="url(#_mask_gQaD1W08OcXMrSCcU0856Sn0y3TT4OFp)" vector-effect="non-scaling-stroke" stroke-width="0.353" stroke="rgb(43,42,41)" stroke-opacity="100" stroke-linejoin="miter" stroke-linecap="butt" stroke-miterlimit="4"/></g><clipPath id="_clipPath_qls0lbedS3qmNzlo0fe3ZVmATN3XHyaq"><path d=" M -55 -55 L 65 -55 L 65 65 L -55 65 L -55 -55 Z  M 11.257 14.086 L 5.75 10.363 L 11.257 14.086 Z " fill-rule="evenodd" fill="rgb(255,255,255)"/></clipPath><g clip-path="url(#_clipPath_qls0lbedS3qmNzlo0fe3ZVmATN3XHyaq)"><mask id="_mask_52BIUKmLLYYnIYF9AsviVApMx78hjth6" x="-200%" y="-200%" width="400%" height="400%"><rect x="-200%" y="-200%" width="400%" height="400%" style="fill:white;"/><line x1="11.257" y1="14.086" x2="5.75" y2="10.363" fill="black" stroke="none"/></mask><line x1="11.257" y1="14.086" x2="5.75" y2="10.363" mask="url(#_mask_52BIUKmLLYYnIYF9AsviVApMx78hjth6)" vector-effect="non-scaling-stroke" stroke-width="0.353" stroke="rgb(43,42,41)" stroke-opacity="100" stroke-linejoin="miter" stroke-linecap="butt" stroke-miterlimit="4"/></g></g><g><clipPath id="_clipPath_lmN1vAYpmS0ZRI7oO9ostaNB6MqfnJQ5"><path d=" M -55 -55 L 65 -55 L 65 65 L -55 65 L -55 -55 Z  M 28.76 14.176 L 34.25 10.363 L 28.76 14.176 Z " fill-rule="evenodd" fill="rgb(255,255,255)"/></clipPath><g clip-path="url(#_clipPath_lmN1vAYpmS0ZRI7oO9ostaNB6MqfnJQ5)"><mask id="_mask_bNKA6cCPGsIpxVGQfJmEXmMnLH4uEzRf" x="-200%" y="-200%" width="400%" height="400%"><rect x="-200%" y="-200%" width="400%" height="400%" style="fill:white;"/><line x1="28.76" y1="14.176" x2="34.25" y2="10.363" fill="black" stroke="none"/></mask><line x1="28.76" y1="14.176" x2="34.25" y2="10.363" mask="url(#_mask_bNKA6cCPGsIpxVGQfJmEXmMnLH4uEzRf)" vector-effect="non-scaling-stroke" stroke-width="0.353" stroke="rgb(43,42,41)" stroke-opacity="100" stroke-linejoin="miter" stroke-linecap="butt" stroke-miterlimit="4"/></g><clipPath id="_clipPath_cbQbhSbUprwYmIvjz14krw6BGUxF21No"><path d=" M -55 -55 L 65 -55 L 65 65 L -55 65 L -55 -55 Z  M 25.927 11.254 L 29.491 5.75 L 25.927 11.254 Z " fill-rule="evenodd" fill="rgb(255,255,255)"/></clipPath><g clip-path="url(#_clipPath_cbQbhSbUprwYmIvjz14krw6BGUxF21No)"><mask id="_mask_gyrVrXJG6pSEODL3gBbxVi7hM5SL2UNh" x="-200%" y="-200%" width="400%" height="400%"><rect x="-200%" y="-200%" width="400%" height="400%" style="fill:white;"/><line x1="25.927" y1="11.254" x2="29.491" y2="5.75" fill="black" stroke="none"/></mask><line x1="25.927" y1="11.254" x2="29.491" y2="5.75" mask="url(#_mask_gyrVrXJG6pSEODL3gBbxVi7hM5SL2UNh)" vector-effect="non-scaling-stroke" stroke-width="0.353" stroke="rgb(43,42,41)" stroke-opacity="100" stroke-linejoin="miter" stroke-linecap="butt" stroke-miterlimit="4"/></g></g><clipPath id="_clipPath_M8HB9fKQcNac2wndvrngYougyj7XncQM"><path d=" M -55 -55 L 65 -55 L 65 65 L -55 65 L -55 -55 Z  M 11.257 25.914 L 5.75 29.637 L 11.257 25.914 Z " fill-rule="evenodd" fill="rgb(255,255,255)"/></clipPath><g clip-path="url(#_clipPath_M8HB9fKQcNac2wndvrngYougyj7XncQM)"><mask id="_mask_Y6nffExE62o3WhTZ28XN8h9XclG8Sguv" x="-200%" y="-200%" width="400%" height="400%"><rect x="-200%" y="-200%" width="400%" height="400%" style="fill:white;"/><line x1="11.257" y1="25.914" x2="5.75" y2="29.637" fill="black" stroke="none"/></mask><line x1="11.257" y1="25.914" x2="5.75" y2="29.637" mask="url(#_mask_Y6nffExE62o3WhTZ28XN8h9XclG8Sguv)" vector-effect="non-scaling-stroke" stroke-width="0.353" stroke="rgb(43,42,41)" stroke-opacity="100" stroke-linejoin="miter" stroke-linecap="butt" stroke-miterlimit="4"/></g><clipPath id="_clipPath_X7pG6T8oRFocFDSJpQAZ1D4azlJfse3C"><path d=" M -55 -55 L 65 -55 L 65 65 L -55 65 L -55 -55 Z  M 14.181 28.746 L 10.527 34.25 L 14.181 28.746 Z " fill-rule="evenodd" fill="rgb(255,255,255)"/></clipPath><g clip-path="url(#_clipPath_X7pG6T8oRFocFDSJpQAZ1D4azlJfse3C)"><mask id="_mask_hjloYnOh5PPdfUfAeZsGeArMV9qGHA6f" x="-200%" y="-200%" width="400%" height="400%"><rect x="-200%" y="-200%" width="400%" height="400%" style="fill:white;"/><line x1="14.181" y1="28.746" x2="10.527" y2="34.25" fill="black" stroke="none"/></mask><line x1="14.181" y1="28.746" x2="10.527" y2="34.25" mask="url(#_mask_hjloYnOh5PPdfUfAeZsGeArMV9qGHA6f)" vector-effect="non-scaling-stroke" stroke-width="0.353" stroke="rgb(43,42,41)" stroke-opacity="100" stroke-linejoin="miter" stroke-linecap="butt" stroke-miterlimit="4"/></g><clipPath id="_clipPath_vRrYsjKBwgRFZUaK49ubzLAbNXmnTbMj"><path d=" M -55 -55 L 65 -55 L 65 65 L -55 65 L -55 -55 Z  M 25.819 28.746 L 29.491 34.25 L 25.819 28.746 Z " fill-rule="evenodd" fill="rgb(255,255,255)"/></clipPath><g clip-path="url(#_clipPath_vRrYsjKBwgRFZUaK49ubzLAbNXmnTbMj)"><mask id="_mask_JStBQP5Wj8adyX7t1ym3rUH2iQeNG41V" x="-200%" y="-200%" width="400%" height="400%"><rect x="-200%" y="-200%" width="400%" height="400%" style="fill:white;"/><line x1="25.819" y1="28.746" x2="29.491" y2="34.25" fill="black" stroke="none"/></mask><line x1="25.819" y1="28.746" x2="29.491" y2="34.25" mask="url(#_mask_JStBQP5Wj8adyX7t1ym3rUH2iQeNG41V)" vector-effect="non-scaling-stroke" stroke-width="0.353" stroke="rgb(43,42,41)" stroke-opacity="100" stroke-linejoin="miter" stroke-linecap="butt" stroke-miterlimit="4"/></g><clipPath id="_clipPath_z2Rh8PPQ76ZhGTFyZi2kpxEFMtBORTUi"><path d=" M -55 -55 L 65 -55 L 65 65 L -55 65 L -55 -55 Z  M 28.76 25.914 L 34.25 29.637 L 28.76 25.914 Z " fill-rule="evenodd" fill="rgb(255,255,255)"/></clipPath><g clip-path="url(#_clipPath_z2Rh8PPQ76ZhGTFyZi2kpxEFMtBORTUi)"><mask id="_mask_MChsY3NWbjOXbCSYiQsdUJlX8k4RSEhe" x="-200%" y="-200%" width="400%" height="400%"><rect x="-200%" y="-200%" width="400%" height="400%" style="fill:white;"/><line x1="28.76" y1="25.914" x2="34.25" y2="29.637" fill="black" stroke="none"/></mask><line x1="28.76" y1="25.914" x2="34.25" y2="29.637" mask="url(#_mask_MChsY3NWbjOXbCSYiQsdUJlX8k4RSEhe)" vector-effect="non-scaling-stroke" stroke-width="0.353" stroke="rgb(43,42,41)" stroke-opacity="100" stroke-linejoin="miter" stroke-linecap="butt" stroke-miterlimit="4"/></g></g></g></g></g></g></svg>