<?xml version="1.0" encoding="UTF-8" standalone="no"?><!-- Generator: Gravit.io --><svg xmlns="http://www.w3.org/2000/svg" xmlns:xlink="http://www.w3.org/1999/xlink" style="isolation:isolate" viewBox="0 0 40 40" width="40pt" height="40pt"><defs><clipPath id="_clipPath_Fl94H4VvGix54iy35WQx3MbaMeWitD6X"><rect width="40" height="40"/></clipPath></defs><g clip-path="url(#_clipPath_Fl94H4VvGix54iy35WQx3MbaMeWitD6X)"><clipPath id="_clipPath_1ArsD0wfDtQcV86oyqdQX0UPPtmulN9J"><rect x="5" y="5" width="30" height="30" transform="matrix(1,0,0,1,0,0)" fill="rgb(255,255,255)"/></clipPath><g clip-path="url(#_clipPath_1ArsD0wfDtQcV86oyqdQX0UPPtmulN9J)"><g><g><rect x="5" y="5" width="30" height="30" transform="matrix(1,0,0,1,0,0)" fill="none" vector-effect="non-scaling-stroke" stroke-width="0.176" stroke="rgb(254,254,254)" stroke-opacity="100" stroke-linejoin="miter" stroke-linecap="butt" stroke-miterlimit="2"/><g><ellipse vector-effect="non-scaling-stroke" cx="19.999999999999996" cy="20" rx="9" ry="14.249999999999996" fill="rgb(254,254,254)" stroke-width="0.176" stroke="rgb(43,42,41)" stroke-opacity="100" stroke-linejoin="miter" stroke-linecap="butt" stroke-miterlimit="4"/><path d=" M 20 10.471 L 17.508 9.081 L 20 6.017 L 22.477 9.081 L 20 10.471 Z " fill-rule="evenodd" fill="none"/><clipPath id="_clipPath_WZlycC72tcgfxxQ1aN1Pif3uY2mtfAZS"><path d=" M -55 -55 L 65 -55 L 65 65 L -55 65 L -55 -55 Z  M 20 10.471 L 17.508 9.081 L 20 6.017 L 22.477 9.081 L 20 10.471 L 20 10.471 Z " fill-rule="evenodd" fill="rgb(255,255,255)"/></clipPath><g clip-path="url(#_clipPath_WZlycC72tcgfxxQ1aN1Pif3uY2mtfAZS)"><mask id="_mask_pl3G0zClL5AgTVzBoAxvb8XeQqrt1DUL" x="-200%" y="-200%" width="400%" height="400%"><rect x="-200%" y="-200%" width="400%" height="400%" style="fill:white;"/><path d=" M 20 10.471 L 17.508 9.081 L 20 6.017 L 22.477 9.081 L 20 10.471 Z " fill-rule="evenodd" fill="black" stroke="none"/></mask><path d=" M 20 10.471 L 17.508 9.081 L 20 6.017 L 22.477 9.081 L 20 10.471 Z " fill-rule="evenodd" fill="none"/><path d=" M 20 10.471 L 17.508 9.081 L 20 6.017 L 22.477 9.081 L 20 10.471 Z " fill-rule="evenodd" fill="none" mask="url(#_mask_pl3G0zClL5AgTVzBoAxvb8XeQqrt1DUL)" vector-effect="non-scaling-stroke" stroke-width="0.353" stroke="rgb(114,114,113)" stroke-opacity="100" stroke-linejoin="miter" stroke-linecap="butt" stroke-miterlimit="4"/></g><path d=" M 13.492 15.369 L 13.612 10.274 L 17.508 9.081 L 16.657 13.178 L 13.492 15.369 Z " fill-rule="evenodd" fill="none"/><clipPath id="_clipPath_Xlw9vu0KgcMboO9achfHsvKOgrjnZcLv"><path d=" M -55 -55 L 65 -55 L 65 65 L -55 65 L -55 -55 Z  M 13.492 15.369 L 13.612 10.274 L 17.508 9.081 L 16.657 13.178 L 13.492 15.369 L 13.492 15.369 Z " fill-rule="evenodd" fill="rgb(255,255,255)"/></clipPath><g clip-path="url(#_clipPath_Xlw9vu0KgcMboO9achfHsvKOgrjnZcLv)"><mask id="_mask_AL0tUFAHTWFUcCjG0wOR7XEH7wo4r1RD" x="-200%" y="-200%" width="400%" height="400%"><rect x="-200%" y="-200%" width="400%" height="400%" style="fill:white;"/><path d=" M 13.492 15.369 L 13.612 10.274 L 17.508 9.081 L 16.657 13.178 L 13.492 15.369 Z " fill-rule="evenodd" fill="black" stroke="none"/></mask><path d=" M 13.492 15.369 L 13.612 10.274 L 17.508 9.081 L 16.657 13.178 L 13.492 15.369 Z " fill-rule="evenodd" fill="none"/><path d=" M 13.492 15.369 L 13.612 10.274 L 17.508 9.081 L 16.657 13.178 L 13.492 15.369 Z " fill-rule="evenodd" fill="none" mask="url(#_mask_AL0tUFAHTWFUcCjG0wOR7XEH7wo4r1RD)" vector-effect="non-scaling-stroke" stroke-width="0.353" stroke="rgb(114,114,113)" stroke-opacity="100" stroke-linejoin="miter" stroke-linecap="butt" stroke-miterlimit="4"/></g><path d=" M 20 10.471 L 16.657 13.178 L 14.941 20 L 13.492 15.369" fill-rule="evenodd" fill="none"/><clipPath id="_clipPath_n0no9fuE2LF3qwegf4nAKRduC1zcqCLb"><path d=" M -55 -55 L 65 -55 L 65 65 L -55 65 L -55 -55 Z  M 20 10.471 L 16.657 13.178 L 14.941 20 L 13.492 15.369 L 20 10.471 Z " fill-rule="evenodd" fill="rgb(255,255,255)"/></clipPath><g clip-path="url(#_clipPath_n0no9fuE2LF3qwegf4nAKRduC1zcqCLb)"><mask id="_mask_IN420Z6g2AKfnqIvOfQkkZYvpJub4SjE" x="-200%" y="-200%" width="400%" height="400%"><rect x="-200%" y="-200%" width="400%" height="400%" style="fill:white;"/><path d=" M 20 10.471 L 16.657 13.178 L 14.941 20 L 13.492 15.369" fill-rule="evenodd" fill="black" stroke="none"/></mask><path d=" M 20 10.471 L 16.657 13.178 L 14.941 20 L 13.492 15.369" fill-rule="evenodd" fill="none"/><path d=" M 20 10.471 L 16.657 13.178 L 14.941 20 L 13.492 15.369" fill-rule="evenodd" fill="none" mask="url(#_mask_IN420Z6g2AKfnqIvOfQkkZYvpJub4SjE)" vector-effect="non-scaling-stroke" stroke-width="0.353" stroke="rgb(114,114,113)" stroke-opacity="100" stroke-linejoin="miter" stroke-linecap="butt" stroke-miterlimit="4"/></g><path d=" M 20 29.53 L 17.508 30.901 L 20 33.983 L 22.477 30.901 L 20 29.53 Z " fill-rule="evenodd" fill="none"/><clipPath id="_clipPath_CR1NtYjgi7LULkUutov497wbHpt6S01P"><path d=" M -55 -55 L 65 -55 L 65 65 L -55 65 L -55 -55 Z  M 20 29.53 L 17.508 30.901 L 20 33.983 L 22.477 30.901 L 20 29.53 L 20 29.53 Z " fill-rule="evenodd" fill="rgb(255,255,255)"/></clipPath><g clip-path="url(#_clipPath_CR1NtYjgi7LULkUutov497wbHpt6S01P)"><mask id="_mask_wL57BjWAEUjJx0nKcA5HPjIXPeJ11UGW" x="-200%" y="-200%" width="400%" height="400%"><rect x="-200%" y="-200%" width="400%" height="400%" style="fill:white;"/><path d=" M 20 29.53 L 17.508 30.901 L 20 33.983 L 22.477 30.901 L 20 29.53 Z " fill-rule="evenodd" fill="black" stroke="none"/></mask><path d=" M 20 29.53 L 17.508 30.901 L 20 33.983 L 22.477 30.901 L 20 29.53 Z " fill-rule="evenodd" fill="none"/><path d=" M 20 29.53 L 17.508 30.901 L 20 33.983 L 22.477 30.901 L 20 29.53 Z " fill-rule="evenodd" fill="none" mask="url(#_mask_wL57BjWAEUjJx0nKcA5HPjIXPeJ11UGW)" vector-effect="non-scaling-stroke" stroke-width="0.353" stroke="rgb(114,114,113)" stroke-opacity="100" stroke-linejoin="miter" stroke-linecap="butt" stroke-miterlimit="4"/></g><path d=" M 13.492 24.613 L 13.612 29.725 L 17.508 30.901 L 16.657 26.804 L 13.492 24.613 Z " fill-rule="evenodd" fill="none"/><clipPath id="_clipPath_b1zjTY91BYTYv0mVJL5xdwu4CqfZ9QN3"><path d=" M -55 -55 L 65 -55 L 65 65 L -55 65 L -55 -55 Z  M 13.492 24.613 L 13.612 29.725 L 17.508 30.901 L 16.657 26.804 L 13.492 24.613 L 13.492 24.613 Z " fill-rule="evenodd" fill="rgb(255,255,255)"/></clipPath><g clip-path="url(#_clipPath_b1zjTY91BYTYv0mVJL5xdwu4CqfZ9QN3)"><mask id="_mask_7NuBBp2pMmfTQejBoe2SYovJHrPpDDpw" x="-200%" y="-200%" width="400%" height="400%"><rect x="-200%" y="-200%" width="400%" height="400%" style="fill:white;"/><path d=" M 13.492 24.613 L 13.612 29.725 L 17.508 30.901 L 16.657 26.804 L 13.492 24.613 Z " fill-rule="evenodd" fill="black" stroke="none"/></mask><path d=" M 13.492 24.613 L 13.612 29.725 L 17.508 30.901 L 16.657 26.804 L 13.492 24.613 Z " fill-rule="evenodd" fill="none"/><path d=" M 13.492 24.613 L 13.612 29.725 L 17.508 30.901 L 16.657 26.804 L 13.492 24.613 Z " fill-rule="evenodd" fill="none" mask="url(#_mask_7NuBBp2pMmfTQejBoe2SYovJHrPpDDpw)" vector-effect="non-scaling-stroke" stroke-width="0.353" stroke="rgb(114,114,113)" stroke-opacity="100" stroke-linejoin="miter" stroke-linecap="butt" stroke-miterlimit="4"/></g><path d=" M 11.597 24.738 L 13.492 24.613 L 11.06 20 L 13.492 15.369 L 11.597 15.244" fill-rule="evenodd" fill="none"/><clipPath id="_clipPath_QRl3ZLYxS8nwG7DMB9c51zMgZEj3twOv"><path d=" M -55 -55 L 65 -55 L 65 65 L -55 65 L -55 -55 Z  M 11.597 24.738 L 13.492 24.613 L 11.06 20 L 13.492 15.369 L 11.597 15.244 L 11.597 24.738 Z " fill-rule="evenodd" fill="rgb(255,255,255)"/></clipPath><g clip-path="url(#_clipPath_QRl3ZLYxS8nwG7DMB9c51zMgZEj3twOv)"><mask id="_mask_RyKI1jUkMViPdNjGSR3za8mbR7NbTkPM" x="-200%" y="-200%" width="400%" height="400%"><rect x="-200%" y="-200%" width="400%" height="400%" style="fill:white;"/><path d=" M 11.597 24.738 L 13.492 24.613 L 11.06 20 L 13.492 15.369 L 11.597 15.244" fill-rule="evenodd" fill="black" stroke="none"/></mask><path d=" M 11.597 24.738 L 13.492 24.613 L 11.06 20 L 13.492 15.369 L 11.597 15.244" fill-rule="evenodd" fill="none"/><path d=" M 11.597 24.738 L 13.492 24.613 L 11.06 20 L 13.492 15.369 L 11.597 15.244" fill-rule="evenodd" fill="none" mask="url(#_mask_RyKI1jUkMViPdNjGSR3za8mbR7NbTkPM)" vector-effect="non-scaling-stroke" stroke-width="0.353" stroke="rgb(114,114,113)" stroke-opacity="100" stroke-linejoin="miter" stroke-linecap="butt" stroke-miterlimit="4"/></g><path d=" M 20 29.53 L 16.657 26.804 L 14.941 20 L 13.492 24.613" fill-rule="evenodd" fill="none"/><clipPath id="_clipPath_0VxIa0y35xQg7y4N7khypD1q14ePpxne"><path d=" M -55 -55 L 65 -55 L 65 65 L -55 65 L -55 -55 Z  M 20 29.53 L 16.657 26.804 L 14.941 20 L 13.492 24.613 L 20 29.53 Z " fill-rule="evenodd" fill="rgb(255,255,255)"/></clipPath><g clip-path="url(#_clipPath_0VxIa0y35xQg7y4N7khypD1q14ePpxne)"><mask id="_mask_12DFlBRTUQu12JrWbIUJuzm0wP7eaNWK" x="-200%" y="-200%" width="400%" height="400%"><rect x="-200%" y="-200%" width="400%" height="400%" style="fill:white;"/><path d=" M 20 29.53 L 16.657 26.804 L 14.941 20 L 13.492 24.613" fill-rule="evenodd" fill="black" stroke="none"/></mask><path d=" M 20 29.53 L 16.657 26.804 L 14.941 20 L 13.492 24.613" fill-rule="evenodd" fill="none"/><path d=" M 20 29.53 L 16.657 26.804 L 14.941 20 L 13.492 24.613" fill-rule="evenodd" fill="none" mask="url(#_mask_12DFlBRTUQu12JrWbIUJuzm0wP7eaNWK)" vector-effect="non-scaling-stroke" stroke-width="0.353" stroke="rgb(114,114,113)" stroke-opacity="100" stroke-linejoin="miter" stroke-linecap="butt" stroke-miterlimit="4"/></g><path d=" M 26.508 15.369 L 26.388 10.274 L 22.477 9.081 L 23.329 13.178 L 26.508 15.369 Z " fill-rule="evenodd" fill="none"/><clipPath id="_clipPath_N4wM5B7PMcr24N7sMil1gI1peFjYLxge"><path d=" M -55 -55 L 65 -55 L 65 65 L -55 65 L -55 -55 Z  M 26.508 15.369 L 26.388 10.274 L 22.477 9.081 L 23.329 13.178 L 26.508 15.369 L 26.508 15.369 Z " fill-rule="evenodd" fill="rgb(255,255,255)"/></clipPath><g clip-path="url(#_clipPath_N4wM5B7PMcr24N7sMil1gI1peFjYLxge)"><mask id="_mask_L41rJNDzeo0Wur2AhnMwrxCVxg7vQVw1" x="-200%" y="-200%" width="400%" height="400%"><rect x="-200%" y="-200%" width="400%" height="400%" style="fill:white;"/><path d=" M 26.508 15.369 L 26.388 10.274 L 22.477 9.081 L 23.329 13.178 L 26.508 15.369 Z " fill-rule="evenodd" fill="black" stroke="none"/></mask><path d=" M 26.508 15.369 L 26.388 10.274 L 22.477 9.081 L 23.329 13.178 L 26.508 15.369 Z " fill-rule="evenodd" fill="none"/><path d=" M 26.508 15.369 L 26.388 10.274 L 22.477 9.081 L 23.329 13.178 L 26.508 15.369 Z " fill-rule="evenodd" fill="none" mask="url(#_mask_L41rJNDzeo0Wur2AhnMwrxCVxg7vQVw1)" vector-effect="non-scaling-stroke" stroke-width="0.353" stroke="rgb(114,114,113)" stroke-opacity="100" stroke-linejoin="miter" stroke-linecap="butt" stroke-miterlimit="4"/></g><path d=" M 20 10.471 L 23.329 13.178 L 25.06 20 L 26.508 15.369" fill-rule="evenodd" fill="none"/><clipPath id="_clipPath_cMvqv5OzuVqReDLu32P1a60NAOdqQL69"><path d=" M -55 -55 L 65 -55 L 65 65 L -55 65 L -55 -55 Z  M 20 10.471 L 23.329 13.178 L 25.06 20 L 26.508 15.369 L 20 10.471 Z " fill-rule="evenodd" fill="rgb(255,255,255)"/></clipPath><g clip-path="url(#_clipPath_cMvqv5OzuVqReDLu32P1a60NAOdqQL69)"><mask id="_mask_OBVT4Fv5gle8Rd9jRllUsTiGt66ZD6Be" x="-200%" y="-200%" width="400%" height="400%"><rect x="-200%" y="-200%" width="400%" height="400%" style="fill:white;"/><path d=" M 20 10.471 L 23.329 13.178 L 25.06 20 L 26.508 15.369" fill-rule="evenodd" fill="black" stroke="none"/></mask><path d=" M 20 10.471 L 23.329 13.178 L 25.06 20 L 26.508 15.369" fill-rule="evenodd" fill="none"/><path d=" M 20 10.471 L 23.329 13.178 L 25.06 20 L 26.508 15.369" fill-rule="evenodd" fill="none" mask="url(#_mask_OBVT4Fv5gle8Rd9jRllUsTiGt66ZD6Be)" vector-effect="non-scaling-stroke" stroke-width="0.353" stroke="rgb(114,114,113)" stroke-opacity="100" stroke-linejoin="miter" stroke-linecap="butt" stroke-miterlimit="4"/></g><path d=" M 26.508 24.613 L 26.388 29.725 L 22.477 30.901 L 23.329 26.804 L 26.508 24.613 Z " fill-rule="evenodd" fill="none"/><clipPath id="_clipPath_wukzxZjQVPkqlOZxqCWipdznLt39PHAO"><path d=" M -55 -55 L 65 -55 L 65 65 L -55 65 L -55 -55 Z  M 26.508 24.613 L 26.388 29.725 L 22.477 30.901 L 23.329 26.804 L 26.508 24.613 L 26.508 24.613 Z " fill-rule="evenodd" fill="rgb(255,255,255)"/></clipPath><g clip-path="url(#_clipPath_wukzxZjQVPkqlOZxqCWipdznLt39PHAO)"><mask id="_mask_tIDEIwR665ObhUw4IPWz1ntfxpBhWBFK" x="-200%" y="-200%" width="400%" height="400%"><rect x="-200%" y="-200%" width="400%" height="400%" style="fill:white;"/><path d=" M 26.508 24.613 L 26.388 29.725 L 22.477 30.901 L 23.329 26.804 L 26.508 24.613 Z " fill-rule="evenodd" fill="black" stroke="none"/></mask><path d=" M 26.508 24.613 L 26.388 29.725 L 22.477 30.901 L 23.329 26.804 L 26.508 24.613 Z " fill-rule="evenodd" fill="none"/><path d=" M 26.508 24.613 L 26.388 29.725 L 22.477 30.901 L 23.329 26.804 L 26.508 24.613 Z " fill-rule="evenodd" fill="none" mask="url(#_mask_tIDEIwR665ObhUw4IPWz1ntfxpBhWBFK)" vector-effect="non-scaling-stroke" stroke-width="0.353" stroke="rgb(114,114,113)" stroke-opacity="100" stroke-linejoin="miter" stroke-linecap="butt" stroke-miterlimit="4"/></g><path d=" M 28.403 24.738 L 26.508 24.613 L 28.94 20 L 26.508 15.369 L 28.403 15.244" fill-rule="evenodd" fill="none"/><clipPath id="_clipPath_tOolFXFwwfqTQ90nCvRITFS8l4jSfxgC"><path d=" M -55 -55 L 65 -55 L 65 65 L -55 65 L -55 -55 Z  M 28.403 24.738 L 26.508 24.613 L 28.94 20 L 26.508 15.369 L 28.403 15.244 L 28.403 24.738 Z " fill-rule="evenodd" fill="rgb(255,255,255)"/></clipPath><g clip-path="url(#_clipPath_tOolFXFwwfqTQ90nCvRITFS8l4jSfxgC)"><mask id="_mask_t5YoduIgUPFtlEFRcSPlx9M0O9E0Pn6Q" x="-200%" y="-200%" width="400%" height="400%"><rect x="-200%" y="-200%" width="400%" height="400%" style="fill:white;"/><path d=" M 28.403 24.738 L 26.508 24.613 L 28.94 20 L 26.508 15.369 L 28.403 15.244" fill-rule="evenodd" fill="black" stroke="none"/></mask><path d=" M 28.403 24.738 L 26.508 24.613 L 28.94 20 L 26.508 15.369 L 28.403 15.244" fill-rule="evenodd" fill="none"/><path d=" M 28.403 24.738 L 26.508 24.613 L 28.94 20 L 26.508 15.369 L 28.403 15.244" fill-rule="evenodd" fill="none" mask="url(#_mask_t5YoduIgUPFtlEFRcSPlx9M0O9E0Pn6Q)" vector-effect="non-scaling-stroke" stroke-width="0.353" stroke="rgb(114,114,113)" stroke-opacity="100" stroke-linejoin="miter" stroke-linecap="butt" stroke-miterlimit="4"/></g><path d=" M 20 29.53 L 23.329 26.804 L 25.06 20 L 26.508 24.613" fill-rule="evenodd" fill="none"/><clipPath id="_clipPath_KZABgEHe8UAI0ISOTWdvh3uQ3KW4ZAod"><path d=" M -55 -55 L 65 -55 L 65 65 L -55 65 L -55 -55 Z  M 20 29.53 L 23.329 26.804 L 25.06 20 L 26.508 24.613 L 20 29.53 Z " fill-rule="evenodd" fill="rgb(255,255,255)"/></clipPath><g clip-path="url(#_clipPath_KZABgEHe8UAI0ISOTWdvh3uQ3KW4ZAod)"><mask id="_mask_kwqGMFhuLDLIv5py04uNjye5UX5J1OVn" x="-200%" y="-200%" width="400%" height="400%"><rect x="-200%" y="-200%" width="400%" height="400%" style="fill:white;"/><path d=" M 20 29.53 L 23.329 26.804 L 25.06 20 L 26.508 24.613" fill-rule="evenodd" fill="black" stroke="none"/></mask><path d=" M 20 29.53 L 23.329 26.804 L 25.06 20 L 26.508 24.613" fill-rule="evenodd" fill="none"/><path d=" M 20 29.53 L 23.329 26.804 L 25.06 20 L 26.508 24.613" fill-rule="evenodd" fill="none" mask="url(#_mask_kwqGMFhuLDLIv5py04uNjye5UX5J1OVn)" vector-effect="non-scaling-stroke" stroke-width="0.353" stroke="rgb(114,114,113)" stroke-opacity="100" stroke-linejoin="miter" stroke-linecap="butt" stroke-miterlimit="4"/></g><clipPath id="_clipPath_7TcnVZBXNT82MGN9OwSaH0JFhf8GwmCd"><path d=" M -55 -55 L 65 -55 L 65 65 L -55 65 L -55 -55 Z  M 16.851 6.819 L 17.508 9.081 L 16.851 6.819 Z " fill-rule="evenodd" fill="rgb(255,255,255)"/></clipPath><g clip-path="url(#_clipPath_7TcnVZBXNT82MGN9OwSaH0JFhf8GwmCd)"><mask id="_mask_5Ar28brWy3oJqO9sC8VzuLuzjFt4EOE1" x="-200%" y="-200%" width="400%" height="400%"><rect x="-200%" y="-200%" width="400%" height="400%" style="fill:white;"/><line x1="16.851" y1="6.819" x2="17.508" y2="9.081" fill="black" stroke="none"/></mask><line x1="16.851" y1="6.819" x2="17.508" y2="9.081" mask="url(#_mask_5Ar28brWy3oJqO9sC8VzuLuzjFt4EOE1)" vector-effect="non-scaling-stroke" stroke-width="0.353" stroke="rgb(114,114,113)" stroke-opacity="100" stroke-linejoin="miter" stroke-linecap="butt" stroke-miterlimit="4"/></g><clipPath id="_clipPath_H6ZhNnNlDDhG6mG5EuvoLNcSkjJQCES5"><path d=" M -55 -55 L 65 -55 L 65 65 L -55 65 L -55 -55 Z  M 23.149 6.819 L 22.477 9.081 L 23.149 6.819 Z " fill-rule="evenodd" fill="rgb(255,255,255)"/></clipPath><g clip-path="url(#_clipPath_H6ZhNnNlDDhG6mG5EuvoLNcSkjJQCES5)"><mask id="_mask_ymXgHomerH2qeDP8NZ92iGOQyfM5UV8K" x="-200%" y="-200%" width="400%" height="400%"><rect x="-200%" y="-200%" width="400%" height="400%" style="fill:white;"/><line x1="23.149" y1="6.819" x2="22.477" y2="9.081" fill="black" stroke="none"/></mask><line x1="23.149" y1="6.819" x2="22.477" y2="9.081" mask="url(#_mask_ymXgHomerH2qeDP8NZ92iGOQyfM5UV8K)" vector-effect="non-scaling-stroke" stroke-width="0.353" stroke="rgb(114,114,113)" stroke-opacity="100" stroke-linejoin="miter" stroke-linecap="butt" stroke-miterlimit="4"/></g><clipPath id="_clipPath_dkJ9dnGCIjmiz6of2QvPyfG2353dQLkq"><path d=" M -55 -55 L 65 -55 L 65 65 L -55 65 L -55 -55 Z  M 16.851 33.181 L 17.508 30.901 L 16.851 33.181 Z " fill-rule="evenodd" fill="rgb(255,255,255)"/></clipPath><g clip-path="url(#_clipPath_dkJ9dnGCIjmiz6of2QvPyfG2353dQLkq)"><mask id="_mask_sP4kbIbms4w9wO7ZMeUYHhDPJPeSvRIC" x="-200%" y="-200%" width="400%" height="400%"><rect x="-200%" y="-200%" width="400%" height="400%" style="fill:white;"/><line x1="16.851" y1="33.181" x2="17.508" y2="30.901" fill="black" stroke="none"/></mask><line x1="16.851" y1="33.181" x2="17.508" y2="30.901" mask="url(#_mask_sP4kbIbms4w9wO7ZMeUYHhDPJPeSvRIC)" vector-effect="non-scaling-stroke" stroke-width="0.353" stroke="rgb(114,114,113)" stroke-opacity="100" stroke-linejoin="miter" stroke-linecap="butt" stroke-miterlimit="4"/></g><clipPath id="_clipPath_2txCqz81AQ8zY7fzdupqeVEJIqctQ2om"><path d=" M -55 -55 L 65 -55 L 65 65 L -55 65 L -55 -55 Z  M 23.149 33.181 L 22.477 30.901 L 23.149 33.181 Z " fill-rule="evenodd" fill="rgb(255,255,255)"/></clipPath><g clip-path="url(#_clipPath_2txCqz81AQ8zY7fzdupqeVEJIqctQ2om)"><mask id="_mask_mGos4CUi9x8yAE8cBUj2DtI1kdfo09fj" x="-200%" y="-200%" width="400%" height="400%"><rect x="-200%" y="-200%" width="400%" height="400%" style="fill:white;"/><line x1="23.149" y1="33.181" x2="22.477" y2="30.901" fill="black" stroke="none"/></mask><line x1="23.149" y1="33.181" x2="22.477" y2="30.901" mask="url(#_mask_mGos4CUi9x8yAE8cBUj2DtI1kdfo09fj)" vector-effect="non-scaling-stroke" stroke-width="0.353" stroke="rgb(114,114,113)" stroke-opacity="100" stroke-linejoin="miter" stroke-linecap="butt" stroke-miterlimit="4"/></g></g></g></g></g></g></svg>