<?xml version="1.0" encoding="UTF-8" standalone="no"?><!-- Generator: Gravit.io --><svg xmlns="http://www.w3.org/2000/svg" xmlns:xlink="http://www.w3.org/1999/xlink" style="isolation:isolate" viewBox="0 0 40 40" width="40pt" height="40pt"><defs><clipPath id="_clipPath_lVt2ROwEG08mtEMTJ3QpUv3PX4CGo8w6"><rect width="40" height="40"/></clipPath></defs><g clip-path="url(#_clipPath_lVt2ROwEG08mtEMTJ3QpUv3PX4CGo8w6)"><clipPath id="_clipPath_damndkYQPXNIEGXh0x0nwwiRtrAzyEx5"><rect x="5" y="5" width="30" height="30" transform="matrix(1,0,0,1,0,0)" fill="rgb(255,255,255)"/></clipPath><g clip-path="url(#_clipPath_damndkYQPXNIEGXh0x0nwwiRtrAzyEx5)"><g><g><rect x="5" y="5" width="30" height="30" transform="matrix(1,0,0,1,0,0)" fill="none" vector-effect="non-scaling-stroke" stroke-width="0.176" stroke="rgb(254,254,254)" stroke-opacity="100" stroke-linejoin="miter" stroke-linecap="butt" stroke-miterlimit="2"/><g><path d=" M 29 9.295 L 25.947 5.75 L 14.037 5.75 L 11 9.295 L 11 30.706 L 14.037 34.25 L 25.947 34.25 L 29 30.706 L 29 9.295 Z " fill-rule="evenodd" fill="rgb(254,254,254)"/><clipPath id="_clipPath_1qy1BPyWCqYg65eFi9nbrQ1rZ0kvH4xO"><path d=" M -55 -55 L 65 -55 L 65 65 L -55 65 L -55 -55 Z  M 29 9.295 L 25.947 5.75 L 14.037 5.75 L 11 9.295 L 11 30.706 L 14.037 34.25 L 25.947 34.25 L 29 30.706 L 29 9.295 L 29 9.295 Z " fill-rule="evenodd" fill="rgb(255,255,255)"/></clipPath><g clip-path="url(#_clipPath_1qy1BPyWCqYg65eFi9nbrQ1rZ0kvH4xO)"><mask id="_mask_hBFWvBUHTjcK5oB3b4UOaAz6sujMgycr" x="-200%" y="-200%" width="400%" height="400%"><rect x="-200%" y="-200%" width="400%" height="400%" style="fill:white;"/><path d=" M 29 9.295 L 25.947 5.75 L 14.037 5.75 L 11 9.295 L 11 30.706 L 14.037 34.25 L 25.947 34.25 L 29 30.706 L 29 9.295 Z " fill-rule="evenodd" fill="black" stroke="none"/></mask><path d=" M 29 9.295 L 25.947 5.75 L 14.037 5.75 L 11 9.295 L 11 30.706 L 14.037 34.25 L 25.947 34.25 L 29 30.706 L 29 9.295 Z " fill-rule="evenodd" fill="rgb(254,254,254)"/><path d=" M 29 9.295 L 25.947 5.75 L 14.037 5.75 L 11 9.295 L 11 30.706 L 14.037 34.25 L 25.947 34.25 L 29 30.706 L 29 9.295 Z " fill-rule="evenodd" fill="rgb(254,254,254)" mask="url(#_mask_hBFWvBUHTjcK5oB3b4UOaAz6sujMgycr)" vector-effect="non-scaling-stroke" stroke-width="0.353" stroke="rgb(43,42,41)" stroke-opacity="100" stroke-linejoin="miter" stroke-linecap="butt" stroke-miterlimit="4"/></g><path d=" M 26.53 10.31 L 24.94 8.476 L 15.044 8.476 L 13.455 10.31 L 13.455 29.672 L 15.044 31.525 L 24.94 31.525 L 26.53 29.672 L 26.53 10.31 Z " fill-rule="evenodd" fill="rgb(254,254,254)"/><clipPath id="_clipPath_aVsRBd6TwIzpJgYavKYDH6ONzGn47yLx"><path d=" M -55 -55 L 65 -55 L 65 65 L -55 65 L -55 -55 Z  M 26.53 10.31 L 24.94 8.476 L 15.044 8.476 L 13.455 10.31 L 13.455 29.672 L 15.044 31.525 L 24.94 31.525 L 26.53 29.672 L 26.53 10.31 L 26.53 10.31 Z " fill-rule="evenodd" fill="rgb(255,255,255)"/></clipPath><g clip-path="url(#_clipPath_aVsRBd6TwIzpJgYavKYDH6ONzGn47yLx)"><mask id="_mask_iY1LqGMMAjDfU3coS8JreKXqGDbkOGH1" x="-200%" y="-200%" width="400%" height="400%"><rect x="-200%" y="-200%" width="400%" height="400%" style="fill:white;"/><path d=" M 26.53 10.31 L 24.94 8.476 L 15.044 8.476 L 13.455 10.31 L 13.455 29.672 L 15.044 31.525 L 24.94 31.525 L 26.53 29.672 L 26.53 10.31 Z " fill-rule="evenodd" fill="black" stroke="none"/></mask><path d=" M 26.53 10.31 L 24.94 8.476 L 15.044 8.476 L 13.455 10.31 L 13.455 29.672 L 15.044 31.525 L 24.94 31.525 L 26.53 29.672 L 26.53 10.31 Z " fill-rule="evenodd" fill="rgb(254,254,254)"/><path d=" M 26.53 10.31 L 24.94 8.476 L 15.044 8.476 L 13.455 10.31 L 13.455 29.672 L 15.044 31.525 L 24.94 31.525 L 26.53 29.672 L 26.53 10.31 Z " fill-rule="evenodd" fill="rgb(254,254,254)" mask="url(#_mask_iY1LqGMMAjDfU3coS8JreKXqGDbkOGH1)" vector-effect="non-scaling-stroke" stroke-width="0.141" stroke="rgb(43,42,41)" stroke-opacity="100" stroke-linejoin="miter" stroke-linecap="butt" stroke-miterlimit="4"/></g><clipPath id="_clipPath_5WdB2aon7zqZG4RatWp5s3LlGVrAyjym"><path d=" M -55 -55 L 65 -55 L 65 65 L -55 65 L -55 -55 Z  M 15.044 8.476 L 14.037 5.75 L 15.044 8.476 Z " fill-rule="evenodd" fill="rgb(255,255,255)"/></clipPath><g clip-path="url(#_clipPath_5WdB2aon7zqZG4RatWp5s3LlGVrAyjym)"><mask id="_mask_vsv7K04OP689FuBdEK83pdEO0B94JzaK" x="-200%" y="-200%" width="400%" height="400%"><rect x="-200%" y="-200%" width="400%" height="400%" style="fill:white;"/><line x1="15.044" y1="8.476" x2="14.037" y2="5.75" fill="black" stroke="none"/></mask><line x1="15.044" y1="8.476" x2="14.037" y2="5.75" mask="url(#_mask_vsv7K04OP689FuBdEK83pdEO0B94JzaK)" vector-effect="non-scaling-stroke" stroke-width="0.152" stroke="rgb(43,42,41)" stroke-opacity="100" stroke-linejoin="miter" stroke-linecap="butt" stroke-miterlimit="4"/></g><clipPath id="_clipPath_Y05cV9mGRylJMwbTHwiv5Pgb8RkSF2Pp"><path d=" M -55 -55 L 65 -55 L 65 65 L -55 65 L -55 -55 Z  M 13.455 10.31 L 11 9.295 L 13.455 10.31 Z " fill-rule="evenodd" fill="rgb(255,255,255)"/></clipPath><g clip-path="url(#_clipPath_Y05cV9mGRylJMwbTHwiv5Pgb8RkSF2Pp)"><mask id="_mask_NFx7DfH2prZDA4HvwUjn4rKN00f1ycAG" x="-200%" y="-200%" width="400%" height="400%"><rect x="-200%" y="-200%" width="400%" height="400%" style="fill:white;"/><line x1="13.455" y1="10.31" x2="11" y2="9.295" fill="black" stroke="none"/></mask><line x1="13.455" y1="10.31" x2="11" y2="9.295" mask="url(#_mask_NFx7DfH2prZDA4HvwUjn4rKN00f1ycAG)" vector-effect="non-scaling-stroke" stroke-width="0.152" stroke="rgb(43,42,41)" stroke-opacity="100" stroke-linejoin="miter" stroke-linecap="butt" stroke-miterlimit="4"/></g><clipPath id="_clipPath_2PuTeQ1ZUE7GrycYTKEeEYcrr1DQItmS"><path d=" M -55 -55 L 65 -55 L 65 65 L -55 65 L -55 -55 Z  M 15.044 8.476 L 20 10.845 L 15.044 8.476 Z " fill-rule="evenodd" fill="rgb(255,255,255)"/></clipPath><g clip-path="url(#_clipPath_2PuTeQ1ZUE7GrycYTKEeEYcrr1DQItmS)"><mask id="_mask_oECnEbhJc79xyDFWaPygRrF6wJT3CAJn" x="-200%" y="-200%" width="400%" height="400%"><rect x="-200%" y="-200%" width="400%" height="400%" style="fill:white;"/><line x1="15.044" y1="8.476" x2="20" y2="10.845" fill="black" stroke="none"/></mask><line x1="15.044" y1="8.476" x2="20" y2="10.845" mask="url(#_mask_oECnEbhJc79xyDFWaPygRrF6wJT3CAJn)" vector-effect="non-scaling-stroke" stroke-width="0.152" stroke="rgb(43,42,41)" stroke-opacity="100" stroke-linejoin="miter" stroke-linecap="butt" stroke-miterlimit="4"/></g><path d=" M 20 10.845 L 15.421 11.485 L 15.044 8.476" fill-rule="evenodd" fill="none"/><clipPath id="_clipPath_WFzjhnU5pivGNCNr41YsiwaQ8e5rX1g2"><path d=" M -55 -55 L 65 -55 L 65 65 L -55 65 L -55 -55 Z  M 20 10.845 L 15.421 11.485 L 15.044 8.476 L 20 10.845 Z " fill-rule="evenodd" fill="rgb(255,255,255)"/></clipPath><g clip-path="url(#_clipPath_WFzjhnU5pivGNCNr41YsiwaQ8e5rX1g2)"><mask id="_mask_u3BLB9xH5mX9zmIqCksk4KkA8yHMcHZe" x="-200%" y="-200%" width="400%" height="400%"><rect x="-200%" y="-200%" width="400%" height="400%" style="fill:white;"/><path d=" M 20 10.845 L 15.421 11.485 L 15.044 8.476" fill-rule="evenodd" fill="black" stroke="none"/></mask><path d=" M 20 10.845 L 15.421 11.485 L 15.044 8.476" fill-rule="evenodd" fill="none"/><path d=" M 20 10.845 L 15.421 11.485 L 15.044 8.476" fill-rule="evenodd" fill="none" mask="url(#_mask_u3BLB9xH5mX9zmIqCksk4KkA8yHMcHZe)" vector-effect="non-scaling-stroke" stroke-width="0.152" stroke="rgb(43,42,41)" stroke-opacity="100" stroke-linejoin="miter" stroke-linecap="butt" stroke-miterlimit="4"/></g><path d=" M 14.934 20 L 13.455 10.559 L 15.421 11.485 L 14.934 20 Z " fill-rule="evenodd" fill="rgb(254,254,254)"/><clipPath id="_clipPath_1f7I0F8UFTnJe763NlKlR5NE0ubnvcow"><path d=" M -55 -55 L 65 -55 L 65 65 L -55 65 L -55 -55 Z  M 14.934 20 L 13.455 10.559 L 15.421 11.485 L 14.934 20 L 14.934 20 Z " fill-rule="evenodd" fill="rgb(255,255,255)"/></clipPath><g clip-path="url(#_clipPath_1f7I0F8UFTnJe763NlKlR5NE0ubnvcow)"><mask id="_mask_8B0nb4LIHxGUlUQCNyU4DrA4Ve9LlRMt" x="-200%" y="-200%" width="400%" height="400%"><rect x="-200%" y="-200%" width="400%" height="400%" style="fill:white;"/><path d=" M 14.934 20 L 13.455 10.559 L 15.421 11.485 L 14.934 20 Z " fill-rule="evenodd" fill="black" stroke="none"/></mask><path d=" M 14.934 20 L 13.455 10.559 L 15.421 11.485 L 14.934 20 Z " fill-rule="evenodd" fill="rgb(254,254,254)"/><path d=" M 14.934 20 L 13.455 10.559 L 15.421 11.485 L 14.934 20 Z " fill-rule="evenodd" fill="rgb(254,254,254)" mask="url(#_mask_8B0nb4LIHxGUlUQCNyU4DrA4Ve9LlRMt)" vector-effect="non-scaling-stroke" stroke-width="0.152" stroke="rgb(43,42,41)" stroke-opacity="100" stroke-linejoin="miter" stroke-linecap="butt" stroke-miterlimit="4"/></g><path d=" M 25.066 20 L 26.53 10.559 L 24.579 11.485 L 25.066 20 Z " fill-rule="evenodd" fill="rgb(254,254,254)"/><clipPath id="_clipPath_LgamdoNoj1Qv0RDJIqxIN5TTEWP25bE8"><path d=" M -55 -55 L 65 -55 L 65 65 L -55 65 L -55 -55 Z  M 25.066 20 L 26.53 10.559 L 24.579 11.485 L 25.066 20 L 25.066 20 Z " fill-rule="evenodd" fill="rgb(255,255,255)"/></clipPath><g clip-path="url(#_clipPath_LgamdoNoj1Qv0RDJIqxIN5TTEWP25bE8)"><mask id="_mask_8rSRfKfi9PsgDQsbSwRT2HksAWaBBhhq" x="-200%" y="-200%" width="400%" height="400%"><rect x="-200%" y="-200%" width="400%" height="400%" style="fill:white;"/><path d=" M 25.066 20 L 26.53 10.559 L 24.579 11.485 L 25.066 20 Z " fill-rule="evenodd" fill="black" stroke="none"/></mask><path d=" M 25.066 20 L 26.53 10.559 L 24.579 11.485 L 25.066 20 Z " fill-rule="evenodd" fill="rgb(254,254,254)"/><path d=" M 25.066 20 L 26.53 10.559 L 24.579 11.485 L 25.066 20 Z " fill-rule="evenodd" fill="rgb(254,254,254)" mask="url(#_mask_8rSRfKfi9PsgDQsbSwRT2HksAWaBBhhq)" vector-effect="non-scaling-stroke" stroke-width="0.152" stroke="rgb(43,42,41)" stroke-opacity="100" stroke-linejoin="miter" stroke-linecap="butt" stroke-miterlimit="4"/></g><clipPath id="_clipPath_3jOJYlfYSW2FkucDW7P6Gtj8GbzrJVVF"><path d=" M -55 -55 L 65 -55 L 65 65 L -55 65 L -55 -55 Z  M 26.53 10.31 L 29 9.295 L 26.53 10.31 Z " fill-rule="evenodd" fill="rgb(255,255,255)"/></clipPath><g clip-path="url(#_clipPath_3jOJYlfYSW2FkucDW7P6Gtj8GbzrJVVF)"><mask id="_mask_ZSVqmJOuB9KWOEubNhdxH0TqNIs32r4g" x="-200%" y="-200%" width="400%" height="400%"><rect x="-200%" y="-200%" width="400%" height="400%" style="fill:white;"/><line x1="26.53" y1="10.31" x2="29" y2="9.295" fill="black" stroke="none"/></mask><line x1="26.53" y1="10.31" x2="29" y2="9.295" mask="url(#_mask_ZSVqmJOuB9KWOEubNhdxH0TqNIs32r4g)" vector-effect="non-scaling-stroke" stroke-width="0.152" stroke="rgb(43,42,41)" stroke-opacity="100" stroke-linejoin="miter" stroke-linecap="butt" stroke-miterlimit="4"/></g><clipPath id="_clipPath_KcQ1Oe9mzptKapRVRCFlh06DHpm0lIbx"><path d=" M -55 -55 L 65 -55 L 65 65 L -55 65 L -55 -55 Z  M 24.94 8.476 L 20 10.845 L 24.94 8.476 Z " fill-rule="evenodd" fill="rgb(255,255,255)"/></clipPath><g clip-path="url(#_clipPath_KcQ1Oe9mzptKapRVRCFlh06DHpm0lIbx)"><mask id="_mask_bwWl0kGBZlS7f4cQwMP88KQPVyKiWM1h" x="-200%" y="-200%" width="400%" height="400%"><rect x="-200%" y="-200%" width="400%" height="400%" style="fill:white;"/><line x1="24.94" y1="8.476" x2="20" y2="10.845" fill="black" stroke="none"/></mask><line x1="24.94" y1="8.476" x2="20" y2="10.845" mask="url(#_mask_bwWl0kGBZlS7f4cQwMP88KQPVyKiWM1h)" vector-effect="non-scaling-stroke" stroke-width="0.152" stroke="rgb(43,42,41)" stroke-opacity="100" stroke-linejoin="miter" stroke-linecap="butt" stroke-miterlimit="4"/></g><path d=" M 20 10.845 L 24.579 11.485 L 24.94 8.476" fill-rule="evenodd" fill="none"/><clipPath id="_clipPath_cINuiUL83NE1eO5sFH7vf7SahMdCIHiZ"><path d=" M -55 -55 L 65 -55 L 65 65 L -55 65 L -55 -55 Z  M 20 10.845 L 24.579 11.485 L 24.94 8.476 L 20 10.845 Z " fill-rule="evenodd" fill="rgb(255,255,255)"/></clipPath><g clip-path="url(#_clipPath_cINuiUL83NE1eO5sFH7vf7SahMdCIHiZ)"><mask id="_mask_JC3QVQqehXaCxoqAAPfLNpyALHkr2fh7" x="-200%" y="-200%" width="400%" height="400%"><rect x="-200%" y="-200%" width="400%" height="400%" style="fill:white;"/><path d=" M 20 10.845 L 24.579 11.485 L 24.94 8.476" fill-rule="evenodd" fill="black" stroke="none"/></mask><path d=" M 20 10.845 L 24.579 11.485 L 24.94 8.476" fill-rule="evenodd" fill="none"/><path d=" M 20 10.845 L 24.579 11.485 L 24.94 8.476" fill-rule="evenodd" fill="none" mask="url(#_mask_JC3QVQqehXaCxoqAAPfLNpyALHkr2fh7)" vector-effect="non-scaling-stroke" stroke-width="0.152" stroke="rgb(43,42,41)" stroke-opacity="100" stroke-linejoin="miter" stroke-linecap="butt" stroke-miterlimit="4"/></g><path d=" M 25.066 20 L 26.53 10.559 L 24.579 11.485 L 25.066 20 Z " fill-rule="evenodd" fill="rgb(254,254,254)"/><clipPath id="_clipPath_jEwdOSq1O0ei28xKuC7HyA9sKulCw1jy"><path d=" M -55 -55 L 65 -55 L 65 65 L -55 65 L -55 -55 Z  M 25.066 20 L 26.53 10.559 L 24.579 11.485 L 25.066 20 L 25.066 20 Z " fill-rule="evenodd" fill="rgb(255,255,255)"/></clipPath><g clip-path="url(#_clipPath_jEwdOSq1O0ei28xKuC7HyA9sKulCw1jy)"><mask id="_mask_Zs093sQRFJwubfghgpabpoxoJj8U2Sxh" x="-200%" y="-200%" width="400%" height="400%"><rect x="-200%" y="-200%" width="400%" height="400%" style="fill:white;"/><path d=" M 25.066 20 L 26.53 10.559 L 24.579 11.485 L 25.066 20 Z " fill-rule="evenodd" fill="black" stroke="none"/></mask><path d=" M 25.066 20 L 26.53 10.559 L 24.579 11.485 L 25.066 20 Z " fill-rule="evenodd" fill="rgb(254,254,254)"/><path d=" M 25.066 20 L 26.53 10.559 L 24.579 11.485 L 25.066 20 Z " fill-rule="evenodd" fill="rgb(254,254,254)" mask="url(#_mask_Zs093sQRFJwubfghgpabpoxoJj8U2Sxh)" vector-effect="non-scaling-stroke" stroke-width="0.152" stroke="rgb(43,42,41)" stroke-opacity="100" stroke-linejoin="miter" stroke-linecap="butt" stroke-miterlimit="4"/></g><clipPath id="_clipPath_FoDzWWGyrYcaZtKPgnrKgNF9GkNxxig3"><path d=" M -55 -55 L 65 -55 L 65 65 L -55 65 L -55 -55 Z  M 15.044 31.525 L 14.037 34.25 L 15.044 31.525 Z " fill-rule="evenodd" fill="rgb(255,255,255)"/></clipPath><g clip-path="url(#_clipPath_FoDzWWGyrYcaZtKPgnrKgNF9GkNxxig3)"><mask id="_mask_tCSvWFNsuSsSWAjOVnxrOVDztk7pBCjU" x="-200%" y="-200%" width="400%" height="400%"><rect x="-200%" y="-200%" width="400%" height="400%" style="fill:white;"/><line x1="15.044" y1="31.525" x2="14.037" y2="34.25" fill="black" stroke="none"/></mask><line x1="15.044" y1="31.525" x2="14.037" y2="34.25" mask="url(#_mask_tCSvWFNsuSsSWAjOVnxrOVDztk7pBCjU)" vector-effect="non-scaling-stroke" stroke-width="0.152" stroke="rgb(43,42,41)" stroke-opacity="100" stroke-linejoin="miter" stroke-linecap="butt" stroke-miterlimit="4"/></g><clipPath id="_clipPath_4IJdvPhTRCsXPIR7MiqDnxUoRzSJe455"><path d=" M -55 -55 L 65 -55 L 65 65 L -55 65 L -55 -55 Z  M 13.455 29.672 L 11 30.706 L 13.455 29.672 Z " fill-rule="evenodd" fill="rgb(255,255,255)"/></clipPath><g clip-path="url(#_clipPath_4IJdvPhTRCsXPIR7MiqDnxUoRzSJe455)"><mask id="_mask_itb1vKamNiSMZwiOfQzzaFnmLoFNNjgm" x="-200%" y="-200%" width="400%" height="400%"><rect x="-200%" y="-200%" width="400%" height="400%" style="fill:white;"/><line x1="13.455" y1="29.672" x2="11" y2="30.706" fill="black" stroke="none"/></mask><line x1="13.455" y1="29.672" x2="11" y2="30.706" mask="url(#_mask_itb1vKamNiSMZwiOfQzzaFnmLoFNNjgm)" vector-effect="non-scaling-stroke" stroke-width="0.152" stroke="rgb(43,42,41)" stroke-opacity="100" stroke-linejoin="miter" stroke-linecap="butt" stroke-miterlimit="4"/></g><clipPath id="_clipPath_RZD4bjnIMHHPn9phbCeoqCTSGPEiJaIC"><path d=" M -55 -55 L 65 -55 L 65 65 L -55 65 L -55 -55 Z  M 15.044 31.525 L 20 29.138 L 15.044 31.525 Z " fill-rule="evenodd" fill="rgb(255,255,255)"/></clipPath><g clip-path="url(#_clipPath_RZD4bjnIMHHPn9phbCeoqCTSGPEiJaIC)"><mask id="_mask_iAZpy7bCd5aeRDUaVzCHBntvL34h7elV" x="-200%" y="-200%" width="400%" height="400%"><rect x="-200%" y="-200%" width="400%" height="400%" style="fill:white;"/><line x1="15.044" y1="31.525" x2="20" y2="29.138" fill="black" stroke="none"/></mask><line x1="15.044" y1="31.525" x2="20" y2="29.138" mask="url(#_mask_iAZpy7bCd5aeRDUaVzCHBntvL34h7elV)" vector-effect="non-scaling-stroke" stroke-width="0.152" stroke="rgb(43,42,41)" stroke-opacity="100" stroke-linejoin="miter" stroke-linecap="butt" stroke-miterlimit="4"/></g><path d=" M 20 29.138 L 15.421 28.497 L 15.044 31.525" fill-rule="evenodd" fill="none"/><clipPath id="_clipPath_RGpiJ0aYg6SYLAUNqUbhsD1eDdEzmwYF"><path d=" M -55 -55 L 65 -55 L 65 65 L -55 65 L -55 -55 Z  M 20 29.138 L 15.421 28.497 L 15.044 31.525 L 20 29.138 Z " fill-rule="evenodd" fill="rgb(255,255,255)"/></clipPath><g clip-path="url(#_clipPath_RGpiJ0aYg6SYLAUNqUbhsD1eDdEzmwYF)"><mask id="_mask_aLmVvGgSn64azU6S1MTREDspSucwWgIK" x="-200%" y="-200%" width="400%" height="400%"><rect x="-200%" y="-200%" width="400%" height="400%" style="fill:white;"/><path d=" M 20 29.138 L 15.421 28.497 L 15.044 31.525" fill-rule="evenodd" fill="black" stroke="none"/></mask><path d=" M 20 29.138 L 15.421 28.497 L 15.044 31.525" fill-rule="evenodd" fill="none"/><path d=" M 20 29.138 L 15.421 28.497 L 15.044 31.525" fill-rule="evenodd" fill="none" mask="url(#_mask_aLmVvGgSn64azU6S1MTREDspSucwWgIK)" vector-effect="non-scaling-stroke" stroke-width="0.152" stroke="rgb(43,42,41)" stroke-opacity="100" stroke-linejoin="miter" stroke-linecap="butt" stroke-miterlimit="4"/></g><path d=" M 14.934 20 L 13.455 29.441 L 15.421 28.497 L 14.934 20 Z " fill-rule="evenodd" fill="rgb(254,254,254)"/><clipPath id="_clipPath_muMGaTbUq6Ur8r0wIReI6XgZo1IpmlUw"><path d=" M -55 -55 L 65 -55 L 65 65 L -55 65 L -55 -55 Z  M 14.934 20 L 13.455 29.441 L 15.421 28.497 L 14.934 20 L 14.934 20 Z " fill-rule="evenodd" fill="rgb(255,255,255)"/></clipPath><g clip-path="url(#_clipPath_muMGaTbUq6Ur8r0wIReI6XgZo1IpmlUw)"><mask id="_mask_O4giIOl9H2KIbxNfeSq2BrLxeQ3K5Uew" x="-200%" y="-200%" width="400%" height="400%"><rect x="-200%" y="-200%" width="400%" height="400%" style="fill:white;"/><path d=" M 14.934 20 L 13.455 29.441 L 15.421 28.497 L 14.934 20 Z " fill-rule="evenodd" fill="black" stroke="none"/></mask><path d=" M 14.934 20 L 13.455 29.441 L 15.421 28.497 L 14.934 20 Z " fill-rule="evenodd" fill="rgb(254,254,254)"/><path d=" M 14.934 20 L 13.455 29.441 L 15.421 28.497 L 14.934 20 Z " fill-rule="evenodd" fill="rgb(254,254,254)" mask="url(#_mask_O4giIOl9H2KIbxNfeSq2BrLxeQ3K5Uew)" vector-effect="non-scaling-stroke" stroke-width="0.152" stroke="rgb(43,42,41)" stroke-opacity="100" stroke-linejoin="miter" stroke-linecap="butt" stroke-miterlimit="4"/></g><path d=" M 25.066 20 L 26.53 29.441 L 24.579 28.497 L 25.066 20 Z " fill-rule="evenodd" fill="rgb(254,254,254)"/><clipPath id="_clipPath_f4ccdKgEqWqYM3qKEVuhalIyLYjEPmZL"><path d=" M -55 -55 L 65 -55 L 65 65 L -55 65 L -55 -55 Z  M 25.066 20 L 26.53 29.441 L 24.579 28.497 L 25.066 20 L 25.066 20 Z " fill-rule="evenodd" fill="rgb(255,255,255)"/></clipPath><g clip-path="url(#_clipPath_f4ccdKgEqWqYM3qKEVuhalIyLYjEPmZL)"><mask id="_mask_HsarbA8NfVC87BjC3ZcjvMFeMUvThdCb" x="-200%" y="-200%" width="400%" height="400%"><rect x="-200%" y="-200%" width="400%" height="400%" style="fill:white;"/><path d=" M 25.066 20 L 26.53 29.441 L 24.579 28.497 L 25.066 20 Z " fill-rule="evenodd" fill="black" stroke="none"/></mask><path d=" M 25.066 20 L 26.53 29.441 L 24.579 28.497 L 25.066 20 Z " fill-rule="evenodd" fill="rgb(254,254,254)"/><path d=" M 25.066 20 L 26.53 29.441 L 24.579 28.497 L 25.066 20 Z " fill-rule="evenodd" fill="rgb(254,254,254)" mask="url(#_mask_HsarbA8NfVC87BjC3ZcjvMFeMUvThdCb)" vector-effect="non-scaling-stroke" stroke-width="0.152" stroke="rgb(43,42,41)" stroke-opacity="100" stroke-linejoin="miter" stroke-linecap="butt" stroke-miterlimit="4"/></g><clipPath id="_clipPath_EbEdqhQ2OSMdJ07hAa3QLB0MX2mW1G9a"><path d=" M -55 -55 L 65 -55 L 65 65 L -55 65 L -55 -55 Z  M 24.94 31.525 L 25.947 34.25 L 24.94 31.525 Z " fill-rule="evenodd" fill="rgb(255,255,255)"/></clipPath><g clip-path="url(#_clipPath_EbEdqhQ2OSMdJ07hAa3QLB0MX2mW1G9a)"><mask id="_mask_oSeZmozNMvnZSksY7NQPw8okliNpU5SC" x="-200%" y="-200%" width="400%" height="400%"><rect x="-200%" y="-200%" width="400%" height="400%" style="fill:white;"/><line x1="24.94" y1="31.525" x2="25.947" y2="34.25" fill="black" stroke="none"/></mask><line x1="24.94" y1="31.525" x2="25.947" y2="34.25" mask="url(#_mask_oSeZmozNMvnZSksY7NQPw8okliNpU5SC)" vector-effect="non-scaling-stroke" stroke-width="0.152" stroke="rgb(43,42,41)" stroke-opacity="100" stroke-linejoin="miter" stroke-linecap="butt" stroke-miterlimit="4"/></g><clipPath id="_clipPath_poejwsfAC2giwHDDcpC4FgLTN8vbVbcD"><path d=" M -55 -55 L 65 -55 L 65 65 L -55 65 L -55 -55 Z  M 26.53 29.672 L 29 30.706 L 26.53 29.672 Z " fill-rule="evenodd" fill="rgb(255,255,255)"/></clipPath><g clip-path="url(#_clipPath_poejwsfAC2giwHDDcpC4FgLTN8vbVbcD)"><mask id="_mask_0vMIjxdCiK3ZepszKnCopOWjcoCNbI3s" x="-200%" y="-200%" width="400%" height="400%"><rect x="-200%" y="-200%" width="400%" height="400%" style="fill:white;"/><line x1="26.53" y1="29.672" x2="29" y2="30.706" fill="black" stroke="none"/></mask><line x1="26.53" y1="29.672" x2="29" y2="30.706" mask="url(#_mask_0vMIjxdCiK3ZepszKnCopOWjcoCNbI3s)" vector-effect="non-scaling-stroke" stroke-width="0.152" stroke="rgb(43,42,41)" stroke-opacity="100" stroke-linejoin="miter" stroke-linecap="butt" stroke-miterlimit="4"/></g><clipPath id="_clipPath_gxUji9ZeSLvF4hyFwX4Whe7rQVQpI5bh"><path d=" M -55 -55 L 65 -55 L 65 65 L -55 65 L -55 -55 Z  M 24.94 31.525 L 20 29.138 L 24.94 31.525 Z " fill-rule="evenodd" fill="rgb(255,255,255)"/></clipPath><g clip-path="url(#_clipPath_gxUji9ZeSLvF4hyFwX4Whe7rQVQpI5bh)"><mask id="_mask_Egg7Rf4JT8SldFsjXZkvkPFUfuMx2kHD" x="-200%" y="-200%" width="400%" height="400%"><rect x="-200%" y="-200%" width="400%" height="400%" style="fill:white;"/><line x1="24.94" y1="31.525" x2="20" y2="29.138" fill="black" stroke="none"/></mask><line x1="24.94" y1="31.525" x2="20" y2="29.138" mask="url(#_mask_Egg7Rf4JT8SldFsjXZkvkPFUfuMx2kHD)" vector-effect="non-scaling-stroke" stroke-width="0.152" stroke="rgb(43,42,41)" stroke-opacity="100" stroke-linejoin="miter" stroke-linecap="butt" stroke-miterlimit="4"/></g><path d=" M 20 29.138 L 24.579 28.497 L 24.94 31.525" fill-rule="evenodd" fill="none"/><clipPath id="_clipPath_WIga5Mo4TlEDci0rfxvQoBNXehhD8fOa"><path d=" M -55 -55 L 65 -55 L 65 65 L -55 65 L -55 -55 Z  M 20 29.138 L 24.579 28.497 L 24.94 31.525 L 20 29.138 Z " fill-rule="evenodd" fill="rgb(255,255,255)"/></clipPath><g clip-path="url(#_clipPath_WIga5Mo4TlEDci0rfxvQoBNXehhD8fOa)"><mask id="_mask_oRFn5sVe52QzwRV7jJKkJbE2ycbq5eqr" x="-200%" y="-200%" width="400%" height="400%"><rect x="-200%" y="-200%" width="400%" height="400%" style="fill:white;"/><path d=" M 20 29.138 L 24.579 28.497 L 24.94 31.525" fill-rule="evenodd" fill="black" stroke="none"/></mask><path d=" M 20 29.138 L 24.579 28.497 L 24.94 31.525" fill-rule="evenodd" fill="none"/><path d=" M 20 29.138 L 24.579 28.497 L 24.94 31.525" fill-rule="evenodd" fill="none" mask="url(#_mask_oRFn5sVe52QzwRV7jJKkJbE2ycbq5eqr)" vector-effect="non-scaling-stroke" stroke-width="0.152" stroke="rgb(43,42,41)" stroke-opacity="100" stroke-linejoin="miter" stroke-linecap="butt" stroke-miterlimit="4"/></g><path d=" M 25.066 20 L 26.53 29.441 L 24.579 28.497 L 25.066 20 Z " fill-rule="evenodd" fill="rgb(254,254,254)"/><clipPath id="_clipPath_luWANGZBnz8zIES2AsbHjOMTqpbYpWj5"><path d=" M -55 -55 L 65 -55 L 65 65 L -55 65 L -55 -55 Z  M 25.066 20 L 26.53 29.441 L 24.579 28.497 L 25.066 20 L 25.066 20 Z " fill-rule="evenodd" fill="rgb(255,255,255)"/></clipPath><g clip-path="url(#_clipPath_luWANGZBnz8zIES2AsbHjOMTqpbYpWj5)"><mask id="_mask_SpQjEoX78jelZA4w5TzB0TUELf4VF8zF" x="-200%" y="-200%" width="400%" height="400%"><rect x="-200%" y="-200%" width="400%" height="400%" style="fill:white;"/><path d=" M 25.066 20 L 26.53 29.441 L 24.579 28.497 L 25.066 20 Z " fill-rule="evenodd" fill="black" stroke="none"/></mask><path d=" M 25.066 20 L 26.53 29.441 L 24.579 28.497 L 25.066 20 Z " fill-rule="evenodd" fill="rgb(254,254,254)"/><path d=" M 25.066 20 L 26.53 29.441 L 24.579 28.497 L 25.066 20 Z " fill-rule="evenodd" fill="rgb(254,254,254)" mask="url(#_mask_SpQjEoX78jelZA4w5TzB0TUELf4VF8zF)" vector-effect="non-scaling-stroke" stroke-width="0.152" stroke="rgb(43,42,41)" stroke-opacity="100" stroke-linejoin="miter" stroke-linecap="butt" stroke-miterlimit="4"/></g></g></g></g></g></g></svg>