<?xml version="1.0" encoding="utf-8"?>
<!-- Generator: Adobe Illustrator 19.0.0, SVG Export Plug-In . SVG Version: 6.00 Build 0)  -->
<svg version="1.1" id="图层_1" xmlns="http://www.w3.org/2000/svg" xmlns:xlink="http://www.w3.org/1999/xlink" x="0px" y="0px"
	 viewBox="-159 321.7 275.1 199.2" style="enable-background:new -159 321.7 275.1 199.2;" xml:space="preserve">
<style type="text/css">
	.st0{fill:#3B9A8A;stroke:#3B9A8A;stroke-width:8;stroke-miterlimit:10;}
	.st1{fill:none;stroke:#FFFFFF;stroke-width:54;stroke-linecap:round;stroke-linejoin:round;}
	.st2{fill:#3B9A8A;}
	.st3{fill:none;stroke:#3B9A8A;stroke-width:14;stroke-linecap:round;stroke-linejoin:round;}
</style>
<title>Asset 2</title>
<path class="st0" d="M68.3,391H37.5v-22.5h-146.6v28.2h-43.1v9.4h43.1v19.1h-35.4v9.4h35.4v19.1h-28.5v9.4h28.5v35.9h27.4
	c1.7,11.5,12.4,19.4,23.9,17.7c9.2-1.4,16.4-8.6,17.7-17.7h85.9c1.7,11.5,12.4,19.4,23.9,17.7c9.2-1.4,16.4-8.6,17.7-17.7h22v-61.9
	C108.8,409.2,92.8,391,68.3,391z M-61.2,507.9c-6.3,0-11.4-5.1-11.4-11.4c0-6.3,5.1-11.4,11.4-11.4s11.4,5.1,11.4,11.4
	C-49.8,502.8-54.9,507.9-61.2,507.9z M27.8,489.9h-69c-3.5-11-15.4-17.1-26.4-13.5c-6.4,2.1-11.5,7.1-13.5,13.5H-100V378.1H27.8
	L27.8,489.9L27.8,489.9z M66,507.9c-6.3,0-11.4-5.1-11.4-11.4c0-6.3,5.1-11.4,11.4-11.4s11.4,5.1,11.4,11.4
	C77.4,502.8,72.3,507.9,66,507.9L66,507.9z M99.1,489.9H85.9c-2.9-8.6-10.9-14.5-20-14.5c-9.1,0-17.2,5.9-20,14.5h-8.8v-89.6H68
	c19.1,0,30.8,14.3,30.8,37.1v52.5H99.1z"/>
<polygon class="st1" points="-109.2,367.1 -93,342.4 -41.4,342.4 -27,367.1 -67.5,413.9 "/>
<polyline class="st1" points="-93,342.4 -85.3,367.5 -67.7,412.4 -51.5,367.1 "/>
<polyline class="st1" points="-85.3,367.5 -68.1,343.3 -51.5,367.1 -41.4,342.4 "/>
<line class="st1" x1="-109.2" y1="367.1" x2="-27" y2="367.1"/>
<g>
	<path class="st2" d="M-39,339.2l15.7,26.9l-44.2,51l-45.4-51l17.6-26.9H-39 M-39,325.2h-56.3c-4.7,0-9.1,2.4-11.7,6.3l-17.6,26.9
		c-3.5,5.3-3,12.3,1.3,17l45.4,51c2.7,3,6.5,4.7,10.5,4.7c0,0,0.1,0,0.1,0c4,0,7.8-1.8,10.5-4.8l44.2-51c3.9-4.5,4.5-11,1.5-16.2
		l-15.7-26.9C-29.4,327.8-34,325.2-39,325.2L-39,325.2z"/>
</g>
<polyline class="st3" points="-95.3,339.2 -86.9,366.5 -67.6,415.5 -50,366.1 "/>
<polyline class="st3" points="-86.9,366.5 -68.1,340.2 -50,366.1 -39,339.2 "/>
<line class="st3" x1="-112.9" y1="366.1" x2="-23.3" y2="366.1"/>
</svg>
