<svg width="60" height="60" viewBox="0 0 60 60" fill="none" xmlns="http://www.w3.org/2000/svg">
<path d="M33.0998 50.4V43.1C33.0998 42.4 32.7998 41.7 32.1998 41.2C31.2998 40.4 30.4998 40.4 29.4998 40.3C28.6998 40.3 27.6998 40.5 26.9998 41C26.2998 41.5 25.8998 42.3 25.8998 43.1V50.4H33.0998ZM26.7998 34.8V33.5C26.3998 32 25.0998 31 23.4998 31H21.0998C19.1998 31 17.6998 32.5 17.6998 34.4V46.9C17.6998 47.1 17.4998 47.2 17.3998 47.2C16.8998 47.2 16.1998 46.6 15.7998 46.2L15.5998 46C14.8998 45.4 14.2998 44.7 13.7998 44.1C10.5998 40.4 8.7998 35.6 8.7998 30.6C8.7998 24.8 11.2998 19.3 15.5998 15.3C28.2998 3.70002 49.9998 10.6 51.2998 29.1C51.6998 35.4 49.2998 41.5 44.5998 45.8C44.3998 46 43.9998 46.1 43.6998 46.1C43.4998 46.1 43.2998 46.1 43.1998 46C42.6998 45.8 42.3998 45.3 42.3998 44.8V30.9C42.3998 28.7 40.5998 26.9 38.2998 26.9H35.4998C33.1998 26.9 31.3998 28.7 31.3998 30.9V34.2L26.7998 34.8ZM29.5998 33.4C27.6998 33.4 26.1998 34.9 26.1998 36.7C26.1998 38.5 27.6998 40 29.5998 40C31.4998 40 32.9998 38.5 32.9998 36.7C32.8998 34.9 31.3998 33.4 29.5998 33.4ZM22.2998 21.5C19.8998 21.5 17.8998 23.4 17.8998 25.8C17.8998 28.2 19.8998 30.1 22.2998 30.1C23.4998 30.1 24.5998 29.7 25.3998 28.8C26.1998 28 26.6998 26.9 26.6998 25.8C26.6998 23.4 24.6998 21.5 22.2998 21.5ZM36.7998 15.7C33.8998 15.7 31.5998 18 31.5998 20.8C31.5998 23.6 33.8998 25.9 36.7998 25.9C39.6998 25.9 41.9998 23.6 41.9998 20.8C41.9998 18 39.5998 15.7 36.7998 15.7Z" stroke="#3E9F8E" stroke-width="2" stroke-miterlimit="10" stroke-linejoin="round"/>
</svg>
