<svg width="63" height="63" viewBox="0 0 63 63" fill="none" xmlns="http://www.w3.org/2000/svg">
<path d="M39.9998 39C37.4998 39 33.8998 38.2 30.8998 34.3C30.8998 34.3 30.8998 34.2 30.7998 34.2C29.4998 32.2 28.7998 28.5 30.0998 25.1C30.9998 22.5 33.3998 19.1 39.5998 17C39.5998 17 45.5998 14.3 47.6998 9.49998C47.8998 8.99998 48.4998 8.79998 48.9998 8.99998C49.5998 9.19998 54.3998 11.5 52.6998 25.6C52.5998 26 51.1998 35.5 43.5998 38.4C42.3998 39 40.2998 39 39.9998 39ZM32.4998 33.1C34.9998 36.3 37.9998 37 39.9998 37C41.3998 37 42.3998 36.7 42.6998 36.6C42.7998 36.6 42.7998 36.5 42.8998 36.5C49.3998 34.1 50.6998 25.4 50.6998 25.3C51.7998 16.3 49.9998 12.8 48.8998 11.5C46.1998 16.3 40.5998 18.8 40.2998 18.9C35.8998 20.4 33.0998 22.7 31.9998 25.8C30.8998 28.6 31.4998 31.5 32.4998 33.1Z" fill="#3E9F8E"/>
<path d="M21.4998 40.1C19.4998 40.1 15.9998 39.3 14.2998 33.6C14.2998 33.6 13.1998 30.5001 10.5998 29.2001C10.2998 29.1001 10.0998 28.8 10.0998 28.5C9.99978 28.2 10.0998 27.9001 10.2998 27.7001C10.4998 27.4001 11.5998 26.3 15.4998 26.3C16.9998 26.3 18.7998 26.5 20.7998 26.8C21.0998 26.9 26.8998 28.3001 28.0998 32.7001V32.8C28.4998 34.3 28.1998 37.6 24.4998 39.5H24.3998C23.7998 39.7 22.6998 40.1 21.4998 40.1ZM13.0998 28.4C15.1998 30.2 16.0998 32.8001 16.1998 32.9001C17.1998 36.3001 18.9998 38 21.4998 38C22.3998 38 23.1998 37.8 23.5998 37.6C26.5998 36 26.1998 33.5001 26.1998 33.2001C26.1998 33.2001 26.1998 33.2 26.1998 33.1C25.2998 29.8 20.4998 28.6 20.3998 28.6C18.5998 28.3 16.8998 28.2001 15.4998 28.2001C14.3998 28.2001 13.5998 28.3 13.0998 28.4Z" fill="#3E9F8E"/>
<path d="M27.1997 53.9999C26.6997 53.9999 26.2997 53.5999 26.1997 53.0999C26.0997 51.8999 25.9997 50.3999 25.8997 48.8999C25.7997 47.3999 25.6997 45.8999 25.5997 44.7999V44.4999C25.3997 41.3999 24.9997 35.6999 18.1997 32.4999C17.6997 32.2999 17.4997 31.6999 17.6997 31.1999C17.8997 30.6999 18.4997 30.4999 18.9997 30.6999C26.8997 34.4999 27.2997 41.1999 27.5997 44.3999V44.6999C27.6997 45.8999 27.7997 47.3999 27.8997 48.8999C27.9997 50.3999 28.0997 51.8999 28.1997 52.9999C28.1997 53.4999 27.7997 53.9999 27.1997 53.9999Z" fill="#3E9F8E"/>
<path d="M31.9001 53.9999C31.4001 53.9999 30.9001 53.5999 30.9001 53.0999C30.9001 52.7999 30.8001 52.3999 30.8001 51.9999C30.3001 46.9999 29.0001 33.5999 38.8001 26.6999C41.0001 25.3999 44.3001 22.8999 44.5001 21.6999C44.6001 21.1999 45.1001 20.7999 45.7001 20.8999C46.2001 20.9999 46.6001 21.4999 46.5001 22.0999C46.0001 24.6999 40.9001 27.7999 39.9001 28.3999C31.1001 34.5999 32.3001 46.6999 32.8001 51.7999C32.8001 52.1999 32.9001 52.5999 32.9001 52.8999C32.9001 53.4999 32.5001 53.9999 31.9001 53.9999Z" fill="#3E9F8E"/>
</svg>
