<?xml version="1.0" encoding="utf-8"?>
<!-- Generator: Adobe Illustrator 18.0.0, SVG Export Plug-In . SVG Version: 6.00 Build 0)  -->
<!DOCTYPE svg PUBLIC "-//W3C//DTD SVG 1.1//EN" "http://www.w3.org/Graphics/SVG/1.1/DTD/svg11.dtd">
<svg version="1.1" id="图层_1" xmlns="http://www.w3.org/2000/svg" xmlns:xlink="http://www.w3.org/1999/xlink" x="0px" y="0px"
	 viewBox="0 0 902 872" enable-background="new 0 0 902 872" xml:space="preserve">
<path fill="#3D9F8E" d="M399,869.3c-3.6-1.4-13-5-21-8c-34-12.9-80.8-38-123-65.8C149.4,725.9,69.8,637.4,25.5,540.2
	C16,519.3,0.3,474.1,0.2,471.7s0.3-3.2,0.3-3.2l13,0.1c23,0.2,47.4,5.5,74,16c46.3,18.4,88,47.6,133.5,93.3
	c48.1,48.4,95.2,113.7,135.3,187.6c12.5,23.1,45.4,90.1,47.7,97c1.2,3.9,2.7,7.6,3.3,8.3C408.7,872.6,406.5,872.2,399,869.3z"/>
<path fill="#3D9F8E" d="M505.3,869.3c3.6-1.4,12.9-5,20.8-8c33.7-12.9,80-38,121.8-65.8c104.6-69.6,183.4-158.1,227.2-255.3
	c9.4-20.9,24.9-66.1,25-68.5s-0.3-3.2-0.3-3.2l-12.9,0.1c-22.8,0.2-46.9,5.5-73.3,16c-45.8,18.4-87.1,47.6-132.2,93.3
	c-47.6,48.4-94.3,113.7-134,187.6c-12.4,23.1-45,90.1-47.2,97c-1.2,3.9-2.7,7.6-3.3,8.3C495.7,872.6,497.8,872.2,505.3,869.3z"/>
<path fill="#3D9F8E" d="M449.5,672.3c-0.4-1-3.5-9.7-7-19.3c-23.7-66-51.8-118.9-89.2-168.5c-45.9-60.8-99-107-160-139
	c-5.1-2.6-10.4-6-11.8-7.5l-2.6-2.7l4.8-3c2.6-1.6,10-5.8,16.3-9.3c36.4-19.9,77.3-52.1,107.8-84.9
	C364.2,177.3,410.7,101.8,442,19.7c3.2-8.2,6.6-16,7.8-17.5c1.8-2.4,2.2-2.5,3.5-1.2c0.9,0.8,7.5,15.4,14.8,32.5
	c16.5,38.9,24,55,34.2,74c51.9,96.8,123,172.9,203.2,217.5c14,7.8,17.1,10.1,16.2,12.2c-0.2,0.8-9.1,6.3-19.6,12.2
	c-42.3,24-74.6,48.8-106.6,81.7C536.6,491.7,491.2,566.9,460.3,655C454.1,672.7,451.4,677,449.5,672.3z"/>
</svg>
