<?xml version="1.0" encoding="utf-8"?>
<!-- Generator: Adobe Illustrator 18.0.0, SVG Export Plug-In . SVG Version: 6.00 Build 0)  -->
<!DOCTYPE svg PUBLIC "-//W3C//DTD SVG 1.1//EN" "http://www.w3.org/Graphics/SVG/1.1/DTD/svg11.dtd">
<svg version="1.1" id="图层_1" xmlns="http://www.w3.org/2000/svg" xmlns:xlink="http://www.w3.org/1999/xlink" x="0px" y="0px"
	 viewBox="0 0 80 80" enable-background="new 0 0 80 80" xml:space="preserve">
<g>
	<path fill="none" stroke="#3E9F8E" stroke-width="3" stroke-linecap="round" stroke-linejoin="round" stroke-miterlimit="10" d="
		M40,43.5c-3.1-5-5.1-19.5,13.4-25.6c0,0,10.4-4.6,14.1-13.1c0,0,7.7,3,5,25.3c0,0-2,15.2-13.8,19.6C58.9,49.6,48.1,53.7,40,43.5z"
		/>
	<path fill="none" stroke="#3E9F8E" stroke-width="3" stroke-linecap="round" stroke-linejoin="round" stroke-miterlimit="10" d="
		M27.5,51.4c-3.2,1.2-11,2.5-14.3-8.7c0,0-2-5.7-6.8-8.2c0,0,2-3,15.5-0.9c0,0,9,2.1,10.7,8.5C32.6,42,34.2,47.9,27.5,51.4z"/>
	<path fill="none" stroke="#3E9F8E" stroke-width="3" stroke-linecap="round" stroke-linejoin="round" stroke-miterlimit="10" d="
		M18.7,39.9c12.4,6,12.8,16.7,13.2,21.5c0.3,3.8,0.6,9.8,0.9,13.6"/>
	<path fill="none" stroke="#3E9F8E" stroke-width="3" stroke-linecap="round" stroke-linejoin="round" stroke-miterlimit="10" d="
		M40.5,75c-0.6-6.6-4.1-30,12.2-41.6c0,0,9.3-5.7,10-9.3"/>
</g>
</svg>
