<svg id="Layer_1" data-name="Layer 1" xmlns="http://www.w3.org/2000/svg" width="1000" height="1000" viewBox="0 0 1000 1000">
  <defs>
    <style>
      .cls-1 {
        fill: #040000;
        stroke: #231815;
        stroke-miterlimit: 10;
        stroke-width: 2px;
      }
    </style>
  </defs>
  <g>
    <polygon class="cls-1" points="860.72 762.63 860.68 761.9 866.01 760.86 866.06 761.69 860.72 762.63"/>
    <path class="cls-1" d="M866.08,762.7l-5.35-.63.13-1c0-.34.11-.69.14-1l-53.78-171a43.47,43.47,0,0,0-8.43-15.47l4-3.59a48.68,48.68,0,0,1,9.54,17.41l54,172.29a15,15,0,0,1-.21,2.23Z"/>
    <path class="cls-1" d="M798.8,573.62a22.7,22.7,0,0,0-17.76-8h-25.4v-5.39H781A28.2,28.2,0,0,1,802.81,570Z"/>
    <g>
      <path class="cls-1" d="M865.24,199.35l-5.36-.56a59.45,59.45,0,0,0,.36-6.17V117c0-22.94-13.19-41.61-29.41-41.61H159.09c-16.22,0-29.41,18.67-29.41,41.61v75.59a59.45,59.45,0,0,0,.36,6.17l-5.36.56a64.55,64.55,0,0,1-.39-6.73V117c0-25.92,15.61-47,34.8-47H830.83c19.19,0,34.8,21.08,34.8,47v75.59A64.55,64.55,0,0,1,865.24,199.35Z"/>
      <path class="cls-1" d="M187.77,574.34a35.31,35.31,0,0,1-9.56-24.17L124.32,210.69a35.55,35.55,0,0,1,35.43-35.88H830.17a35.5,35.5,0,0,1,35.46,35.46l-54,340.32a35,35,0,0,1-8.86,23l-4-3.57a30,30,0,0,0,7.54-19.86l53.95-340.32c0-16.16-13.52-29.65-30.1-29.65H159.75a30.1,30.1,0,0,0-30.07,30.07l53.89,339.48a30.43,30.43,0,0,0,8.13,20.91Z"/>
      <path class="cls-1" d="M755.64,565.64v-5.39c15.26,0,27.67-12,27.67-26.72l50-305.49c0-14.29-12.45-26.27-27.71-26.27H184.32c-15.26,0-27.68,12-27.68,26.71L206.57,533.1a27.38,27.38,0,0,0,27.71,27.15v5.39c-18.23,0-33.06-14.4-33.06-32.11L151.29,228.92c0-18.14,14.79-32.54,33-32.54H805.61c18.23,0,33.06,14.4,33.06,32.1L788.66,534C788.7,551.24,773.87,565.64,755.64,565.64Z"/>
      <path class="cls-1" d="M831.57,917.14H159.13c-19.21,0-34.84-21.09-34.84-47V767.58a64.71,64.71,0,0,1,.39-6.73l5.36.56a59.61,59.61,0,0,0-.36,6.17V870.14c0,22.94,13.21,41.6,29.45,41.6H831.57c16.24,0,29.44-18.66,29.44-41.6V767.58c0-1.68-.14-3.31-.29-4.94l5.37-.5c.16,1.79.31,3.59.31,5.44V870.14C866.4,896.05,850.78,917.14,831.57,917.14Z"/>
      <path class="cls-1" d="M191.81,574.21l-4.16-3.43c5.79-7,13.45-10.53,22.78-10.53h23.85v5.39H210.43C202.68,565.64,196.58,568.44,191.81,574.21Z"/>
      <path class="cls-1" d="M835,787.75H156.51c-17.33,0-31.44-12.58-31.44-28l.13-.81,53.91-171.45a48.33,48.33,0,0,1,8.55-16.68l4.15,3.44a43,43,0,0,0-7.55,14.85l-53.79,171c.24,12.3,11.83,22.23,26,22.23H835c13.29,0,24.37-8.72,25.77-20.28l5.35.64C864.36,777,851,787.75,835,787.75Z"/>
      <path class="cls-1" d="M810.12,770.13H181.35c-16.17,0-29.34-10.65-29.34-23.74l.12-.8,44.58-142.42c2.81-12.75,18-22.93,34.62-22.93v5.4c-13.91,0-27.1,8.48-29.41,18.92L157.41,746.79c.27,9.93,10.91,18,23.94,18H810.12c13,0,23.67-8,23.94-18l-44.45-142c-3-11-15.63-19.15-29.46-19.15v-5.4c16.44,0,31,9.69,34.64,23l44.67,143.12C839.46,759.48,826.3,770.13,810.12,770.13Z"/>
      <path class="cls-1" d="M454.41,353.4a2.7,2.7,0,1,1,0-5.39L491,348h0a2.7,2.7,0,0,1,0,5.39l-36.59.06Z"/>
      <path class="cls-1" d="M491,353.34a2.7,2.7,0,1,1,0-5.39l39.65-.08h0a2.7,2.7,0,0,1,0,5.39l-39.66.08Z"/>
      <path class="cls-1" d="M615.81,565.64H369.45a2.7,2.7,0,0,1,0-5.39H615.81a2.7,2.7,0,1,1,0,5.39Z"/>
      <path class="cls-1" d="M755.64,565.64H636a2.7,2.7,0,0,1,0-5.39H755.64a2.7,2.7,0,1,1,0,5.39Z"/>
      <path class="cls-1" d="M349.24,565.64h-115a2.7,2.7,0,1,1,0-5.39h115a2.7,2.7,0,0,1,0,5.39Z"/>
      <path class="cls-1" d="M618,585.64H367.26a2.7,2.7,0,0,1,0-5.4H618a2.7,2.7,0,0,1,0,5.4Z"/>
      <path class="cls-1" d="M347.34,585.64h-116a2.7,2.7,0,0,1,0-5.4h116a2.7,2.7,0,1,1,0,5.4Z"/>
      <path class="cls-1" d="M760.15,585.64H637.93a2.7,2.7,0,0,1,0-5.4H760.15a2.7,2.7,0,0,1,0,5.4Z"/>
      <path class="cls-1" d="M478.71,444.79a2.72,2.72,0,0,1-2-.91L428.4,389.12a2.7,2.7,0,1,1,4-3.57l48.29,54.76a2.69,2.69,0,0,1-2,4.48Z"/>
      <path class="cls-1" d="M430.42,390a2.69,2.69,0,0,1-2.25-4.17l24-36.63a2.69,2.69,0,1,1,4.5,2.95l-24,36.64A2.67,2.67,0,0,1,430.42,390Z"/>
      <path class="cls-1" d="M551.71,389.82a2.69,2.69,0,0,1-2.34-1.36l-21-36.55a2.7,2.7,0,0,1,4.68-2.69l21,36.56a2.69,2.69,0,0,1-1,3.68A2.72,2.72,0,0,1,551.71,389.82Z"/>
      <path class="cls-1" d="M504.52,444.63a2.74,2.74,0,0,1-1.76-.65,2.7,2.7,0,0,1-.28-3.8l47.18-54.82a2.7,2.7,0,0,1,4.09,3.52l-47.18,54.81A2.71,2.71,0,0,1,504.52,444.63Z"/>
      <path class="cls-1" d="M430.42,390a2.7,2.7,0,1,1,0-5.39l36.83-.06h0a2.7,2.7,0,0,1,0,5.39l-36.83.06Z"/>
      <path class="cls-1" d="M517.23,389.88a2.7,2.7,0,0,1,0-5.39l34.47-.07h0a2.7,2.7,0,0,1,0,5.4l-34.47.06Z"/>
      <path class="cls-1" d="M467.26,390a2.7,2.7,0,1,1,0-5.39l50-.09h0a2.7,2.7,0,0,1,0,5.39l-50,.09Z"/>
      <path class="cls-1" d="M517.23,389.88a2.66,2.66,0,0,1-.92-.16,2.71,2.71,0,0,1-1.61-3.46l13.43-36.62a2.69,2.69,0,1,1,5.06,1.85l-13.42,36.62A2.7,2.7,0,0,1,517.23,389.88Z"/>
      <path class="cls-1" d="M497.31,444.22a2.76,2.76,0,0,1-.93-.16,2.69,2.69,0,0,1-1.6-3.46l19.92-54.34a2.7,2.7,0,0,1,5.07,1.85l-19.93,54.35A2.69,2.69,0,0,1,497.31,444.22Z"/>
      <path class="cls-1" d="M467.26,390a2.7,2.7,0,0,1-2.54-1.8L451.87,351.6a2.69,2.69,0,1,1,5.08-1.79l12.85,36.57a2.7,2.7,0,0,1-1.65,3.44A2.77,2.77,0,0,1,467.26,390Z"/>
      <path class="cls-1" d="M486.34,444.27a2.69,2.69,0,0,1-2.54-1.8l-19.08-54.3a2.69,2.69,0,1,1,5.08-1.79l19.08,54.3a2.69,2.69,0,0,1-1.64,3.44A2.83,2.83,0,0,1,486.34,444.27Z"/>
      <path class="cls-1" d="M467.26,390a2.69,2.69,0,0,1-2.27-4.16l23.75-36.63a2.69,2.69,0,0,1,4.52,2.92l-23.74,36.64A2.67,2.67,0,0,1,467.26,390Z"/>
      <path class="cls-1" d="M517.23,389.88a2.71,2.71,0,0,1-2.19-1.12l-26.23-36.54a2.7,2.7,0,1,1,4.38-3.15l26.23,36.54a2.7,2.7,0,0,1-.61,3.76A2.66,2.66,0,0,1,517.23,389.88Z"/>
      <path class="cls-1" d="M347.34,585.64h-.07a2.7,2.7,0,0,1-2.62-2.77,149.09,149.09,0,0,1,1.93-20.37,2.7,2.7,0,0,1,5.32.88A144.59,144.59,0,0,0,350,583,2.7,2.7,0,0,1,347.34,585.64Z"/>
      <path class="cls-1" d="M371.46,669.8a2.69,2.69,0,0,1-2.25-1.21,147.36,147.36,0,0,1-24.65-81.53c0-1.06,0-2.12.05-3.18l0-1a2.69,2.69,0,0,1,2.69-2.63h.08A2.71,2.71,0,0,1,350,583l0,1c0,1-.07,2-.06,3a142,142,0,0,0,23.76,78.57,2.71,2.71,0,0,1-.76,3.74A2.73,2.73,0,0,1,371.46,669.8Z"/>
      <path class="cls-1" d="M349.24,565.64a2.25,2.25,0,0,1-.44,0,2.7,2.7,0,0,1-2.22-3.1A148,148,0,0,1,478.45,439.41a2.8,2.8,0,0,1,2.94,2.43,2.7,2.7,0,0,1-2.43,2.94A142.59,142.59,0,0,0,351.9,563.38,2.7,2.7,0,0,1,349.24,565.64Z"/>
      <path class="cls-1" d="M637.93,585.64a2.71,2.71,0,0,1-2.7-2.63,143.39,143.39,0,0,0-1.86-19.63,2.7,2.7,0,0,1,2.22-3.1,2.68,2.68,0,0,1,3.1,2.22,151.08,151.08,0,0,1,1.94,20.37,2.72,2.72,0,0,1-2.63,2.77Z"/>
      <path class="cls-1" d="M613.82,669.8a2.73,2.73,0,0,1-1.49-.45,2.69,2.69,0,0,1-.75-3.74,142,142,0,0,0,23.74-79.06c0-.81,0-1.6-.05-2.39l0-1.15a2.72,2.72,0,0,1,2.63-2.77,2.55,2.55,0,0,1,2.77,2.63l0,1.11c0,.85.05,1.7.05,2.56a147.31,147.31,0,0,1-24.64,82.05A2.69,2.69,0,0,1,613.82,669.8Z"/>
      <path class="cls-1" d="M636,565.64a2.7,2.7,0,0,1-2.66-2.26A142.23,142.23,0,0,0,504.31,444.62a2.69,2.69,0,0,1,.43-5.37,147.62,147.62,0,0,1,134,123.25,2.7,2.7,0,0,1-2.22,3.1A2.18,2.18,0,0,1,636,565.64Z"/>
      <path class="cls-1" d="M478.7,444.79a2.7,2.7,0,0,1-.25-5.38c2.57-.25,5.17-.42,7.78-.53a2.7,2.7,0,1,1,.22,5.39c-2.52.1-5,.28-7.49.51Z"/>
      <path class="cls-1" d="M367.26,585.64h-.08a2.69,2.69,0,0,1-2.61-2.78,130.33,130.33,0,0,1,2.23-20.42,2.7,2.7,0,1,1,5.3,1A124.28,124.28,0,0,0,370,583,2.71,2.71,0,0,1,367.26,585.64Z"/>
      <path class="cls-1" d="M589,669.8a2.7,2.7,0,0,1-2.07-4.42,122.87,122.87,0,0,0,28.46-78.8c0-.83,0-1.67-.06-2.51l0-1.05a2.71,2.71,0,0,1,2.62-2.78,2.58,2.58,0,0,1,2.78,2.62l0,1c0,.89.06,1.79.07,2.69a128.24,128.24,0,0,1-29.72,82.26A2.68,2.68,0,0,1,589,669.8Z"/>
      <path class="cls-1" d="M396.24,669.8a2.68,2.68,0,0,1-2.07-1A128.3,128.3,0,0,1,364.47,587c0-1.12,0-2.23.07-3.35l0-.81a2.6,2.6,0,0,1,2.78-2.62A2.7,2.7,0,0,1,370,583l0,.83c0,1-.07,2.1-.07,3.15a122.9,122.9,0,0,0,28.45,78.38,2.7,2.7,0,0,1-2.07,4.42Z"/>
      <path class="cls-1" d="M615.81,565.64a2.69,2.69,0,0,1-2.64-2.19A122.83,122.83,0,0,0,492.63,464h-.21A122.9,122.9,0,0,0,372.1,563.45a2.73,2.73,0,0,1-3.16,2.14,2.7,2.7,0,0,1-2.14-3.16,128.32,128.32,0,0,1,125.61-103.8h.22a128.22,128.22,0,0,1,125.83,103.8,2.7,2.7,0,0,1-2.14,3.16A2.94,2.94,0,0,1,615.81,565.64Z"/>
      <path class="cls-1" d="M618,585.64a2.71,2.71,0,0,1-2.7-2.62,123.74,123.74,0,0,0-2.14-19.57,2.7,2.7,0,0,1,2.14-3.16,2.73,2.73,0,0,1,3.15,2.15,129.67,129.67,0,0,1,2.25,20.42,2.71,2.71,0,0,1-2.62,2.78Z"/>
      <path class="cls-1" d="M486.34,444.27a2.69,2.69,0,0,1-.12-5.38c2.11-.1,4.28-.25,6.34-.17,1.33,0,2.66,0,4,.09l.85,0a2.7,2.7,0,0,1,2.61,2.78,2.82,2.82,0,0,1-2.78,2.61l-.86,0c-1.32,0-2.56-.08-4-.08-2,0-4,.07-5.93.16Z"/>
      <path class="cls-1" d="M504.53,444.63h-.23c-2.34-.19-4.7-.33-7.08-.4a2.7,2.7,0,0,1,.09-5.39h.08q3.71.12,7.35.42a2.69,2.69,0,0,1-.21,5.38Z"/>
      <path class="cls-1" d="M371.46,669.8H347.25a2.7,2.7,0,0,1,0-5.39h24.21a2.7,2.7,0,0,1,0,5.39Z"/>
      <path class="cls-1" d="M421.11,669.8H396.24a2.7,2.7,0,1,1,0-5.39h24.87a2.7,2.7,0,0,1,0,5.39Z"/>
      <path class="cls-1" d="M396.24,669.8H371.46a2.7,2.7,0,1,1,0-5.39h24.78a2.7,2.7,0,0,1,0,5.39Z"/>
      <path class="cls-1" d="M589,669.8H564.16a2.7,2.7,0,0,1,0-5.39H589a2.7,2.7,0,1,1,0,5.39Z"/>
      <path class="cls-1" d="M638,669.8h-24.2a2.7,2.7,0,0,1,0-5.39H638a2.7,2.7,0,1,1,0,5.39Z"/>
      <path class="cls-1" d="M613.82,669.8H589a2.7,2.7,0,0,1,0-5.39h24.8a2.7,2.7,0,1,1,0,5.39Z"/>
    </g>
  </g>
</svg>
