<svg id="Layer_1" data-name="Layer 1" xmlns="http://www.w3.org/2000/svg" width="1000" height="1000" viewBox="0 0 1000 1000">
  <defs>
    <style>
      .cls-1 {
        fill: none;
        stroke: #2c2b29;
      }

      .cls-1, .cls-2 {
        stroke-miterlimit: 10;
        stroke-width: 8px;
      }

      .cls-2 {
        fill: #fff;
        stroke: #040000;
      }
    </style>
  </defs>
  <path class="cls-1" d="M495.35,813.1c-176.47,0-319.52-143.05-319.52-319.52s143-319.52,319.52-319.52S814.87,317.12,814.87,493.58,671.81,813.1,495.35,813.1Z"/>
  <g id="qDQQ4c">
    <path class="cls-2" d="M505.29,535c30.69-40.25,59.62-80.58,91-118.87C650.4,350.27,727.1,262.76,760.64,237.66c11.64-12.36,19.53-16.47,31.28-27.64,9.72-9.23,23.55-21.54,29.2-21.43-1,5.61-.24,12.67-3.36,16.61-19.28,24.29-39.87,47.53-59.22,71.76A1733.5,1733.5,0,0,0,558.17,591.83c-6.33,12.83-14.06,20.38-28.57,22.47s-28.71,6.09-42.8,10.11c-12.67,3.6-19.54.36-24.21-12.76-17.67-49.58-39-97.64-72.19-139-18.59-23.15-40.28-43.81-63.18-68.39,15.7-10.23,20.2-10.95,31.11-10.95,28.85,0,59.38,28.33,78,49.65,21.79,24.91,40.29,52.71,60.15,79.3C499.79,526.67,502.74,531.27,505.29,535Z"/>
  </g>
</svg>
