<svg id="Layer_1" data-name="Layer 1" xmlns="http://www.w3.org/2000/svg" width="1000" height="1000" viewBox="0 0 1000 1000">
  <defs>
    <style>
      .cls-1 {
        fill: none;
      }

      .cls-1, .cls-2, .cls-3 {
        stroke: #2c2b29;
        stroke-width: 8px;
      }

      .cls-1, .cls-3 {
        stroke-miterlimit: 10;
      }

      .cls-2, .cls-3 {
        fill: #fff;
      }

      .cls-2 {
        stroke-linecap: round;
        stroke-linejoin: round;
      }
    </style>
  </defs>
  <g>
    <polygon class="cls-1" points="496.53 300.88 635.04 140.57 586.71 56.28 411.06 56.28 355.66 140.57 496.53 300.88"/>
    <line class="cls-1" x1="355.66" y1="140.57" x2="635.04" y2="140.57"/>
    <line class="cls-1" x1="586.7" y1="56.28" x2="496.53" y2="300.89"/>
    <line class="cls-1" x1="411.06" y1="56.28" x2="496.53" y2="300.89"/>
    <line class="cls-1" x1="440.51" y1="140.57" x2="495.35" y2="56.28"/>
    <line class="cls-1" x1="555.63" y1="140.57" x2="495.35" y2="56.28"/>
  </g>
  <path class="cls-2" d="M581.92,275.23h1.16L653.49,164.9c4.59-7.2,5.6-16.48,1.5-24-4.77-8.75-15.86-15-41.55.42l7.4,9.34L514.78,255.9V150.12c0-10-8.65-18.18-19.33-18.18s-19.33,8.14-19.33,18.18v106L369.86,150.68l7.4-9.34c-25.69-15.42-36.78-9.17-41.56-.42-4.09,7.5-3.09,16.78,1.51,24l70.41,110.33h1.15a336.72,336.72,0,0,1,173.15,0Z"/>
  <path class="cls-3" d="M581.92,280a336.72,336.72,0,0,0-173.15,0c-143,38.16-248.31,168.55-248.31,323.56,0,185,149.93,334.89,334.89,334.89S830.23,788.54,830.23,603.58C830.23,448.57,724.9,318.18,581.92,280ZM495.35,892.6c-159.62,0-289-129.4-289-289s129.4-289,289-289,289,129.39,289,289S655,892.6,495.35,892.6Z"/>
</svg>
