<svg id="Layer_1" data-name="Layer 1" xmlns="http://www.w3.org/2000/svg" width="1000" height="1000" viewBox="0 0 1000 1000">
  <defs>
    <style>
      .cls-1 {
        fill: #2c2b29;
      }

      .cls-2 {
        fill: none;
        stroke: #2c2b29;
        stroke-miterlimit: 10;
        stroke-width: 8px;
      }
    </style>
  </defs>
  <path class="cls-1" d="M488.5,602.5a72.16,72.16,0,0,1-16.36-1.94,70.74,70.74,0,0,1-16.22-5.95,76,76,0,0,1-14.73-9.82A69.22,69.22,0,0,1,429,571.25l17-11.6a54.39,54.39,0,0,0,18.45,19.19,49.61,49.61,0,0,0,24.1,7.59v-86.3l-21.13-7.74q-11-3.86-17.7-10.41a54.54,54.54,0,0,1-10.42-13.69,48.06,48.06,0,0,1-4.91-14,71,71,0,0,1-1.19-11.9,52.1,52.1,0,0,1,4.91-22.76A57.93,57.93,0,0,1,451,401.93,66.68,66.68,0,0,1,468.86,390a60.64,60.64,0,0,1,19.64-5.36V364.73h14.29v19.94a108.09,108.09,0,0,1,14.88,1,57.42,57.42,0,0,1,14.43,4,55.9,55.9,0,0,1,13.39,8.18,73.56,73.56,0,0,1,12.35,13.24l-16.37,11.91a47.83,47.83,0,0,0-17.41-16.52,43.75,43.75,0,0,0-21.27-5.8v83.92l20.83,7.14A76.54,76.54,0,0,1,537,498.34a52.46,52.46,0,0,1,12.35,10.57,51.52,51.52,0,0,1,8.92,15.32,58.11,58.11,0,0,1,3.43,20.83,52.85,52.85,0,0,1-4.91,23.07,56.72,56.72,0,0,1-13.1,17.7,62.68,62.68,0,0,1-18.89,11.76,68.45,68.45,0,0,1-22,4.91v19.93H488.5Zm0-201.76A46.54,46.54,0,0,0,475,405.2a41.47,41.47,0,0,0-11.3,8.48,41,41,0,0,0-7.89,12.21,38.62,38.62,0,0,0-3,15.32q0,15.78,8.34,23.81t22.31,13.09l5.06,1.79Zm14.29,185.69a38.64,38.64,0,0,0,15.47-3.72,42.13,42.13,0,0,0,12.5-9.08,40.4,40.4,0,0,0,8.33-13.24,44.92,44.92,0,0,0,3-16.52,38.19,38.19,0,0,0-1.19-9.22,30.48,30.48,0,0,0-12.06-17.56,53.19,53.19,0,0,0-13.24-6.84l-12.79-4.76Z"/>
  <path class="cls-2" d="M495.35,813.1c-176.47,0-319.52-143.05-319.52-319.52s143-319.52,319.52-319.52S814.87,317.12,814.87,493.58,671.81,813.1,495.35,813.1Z"/>
</svg>
