<?xml version="1.0" encoding="utf-8"?>
<!-- Generator: Adobe Illustrator 18.0.0, SVG Export Plug-In . SVG Version: 6.00 Build 0)  -->
<!DOCTYPE svg PUBLIC "-//W3C//DTD SVG 1.1//EN" "http://www.w3.org/Graphics/SVG/1.1/DTD/svg11.dtd">
<svg version="1.1" id="图层_3" xmlns="http://www.w3.org/2000/svg" xmlns:xlink="http://www.w3.org/1999/xlink" x="0px" y="0px"
	 viewBox="0 0 25 25" enable-background="new 0 0 25 25" xml:space="preserve">
<g>
	<path fill="none" stroke="#FFFFFF" stroke-width="0.75" stroke-linejoin="round" stroke-miterlimit="10" d="M12.5,10.3
		c0.1-1.3,0.3-2.5,0.7-3.7C13.3,6,13.6,5.4,14,4.8c0.4-0.6,1-0.8,1.7-0.7c0.7,0.1,1.1,0.5,1.2,1.1c0.2,0.6,0,1.1-0.5,1.6
		C15.2,7.9,12.5,10.3,12.5,10.3z"/>
	<path fill="none" stroke="#FFFFFF" stroke-width="0.75" stroke-linejoin="round" stroke-miterlimit="10" d="M12.3,10.3
		c-1.1-0.6-2.2-1.2-3.2-1.8C8.6,8.2,8.3,7.8,8.5,7.2c0.1-0.5,0.4-0.8,0.9-0.8c0.4-0.1,0.8,0.1,1.1,0.4c0.8,0.8,1.2,1.8,1.6,2.8
		C12.1,9.7,12.2,9.9,12.3,10.3z"/>
	<g>
		<path fill="#FFFFFF" d="M18.9,11.1c0.3,0,0.5,0.2,0.5,0.5v8.9c0,0.3-0.2,0.5-0.5,0.5H6.1c-0.3,0-0.5-0.2-0.5-0.5v-8.9
			c0-0.3,0.2-0.5,0.5-0.5H18.9 M18.9,10.4H6.1c-0.7,0-1.2,0.5-1.2,1.2v8.9c0,0.7,0.5,1.2,1.2,1.2h12.7c0.7,0,1.2-0.5,1.2-1.2v-8.9
			C20.1,10.9,19.5,10.4,18.9,10.4L18.9,10.4z"/>
	</g>
	<line fill="none" stroke="#FFFFFF" stroke-linejoin="round" stroke-miterlimit="10" x1="9.5" y1="11" x2="9.5" y2="21"/>
	<line fill="none" stroke="#FFFFFF" stroke-miterlimit="10" x1="14.5" y1="11" x2="14.5" y2="21"/>
</g>
</svg>
