<?xml version="1.0" encoding="utf-8"?>
<!-- Generator: Adobe Illustrator 18.0.0, SVG Export Plug-In . SVG Version: 6.00 Build 0)  -->
<!DOCTYPE svg PUBLIC "-//W3C//DTD SVG 1.1//EN" "http://www.w3.org/Graphics/SVG/1.1/DTD/svg11.dtd">
<svg version="1.1" id="图层_2" xmlns="http://www.w3.org/2000/svg" xmlns:xlink="http://www.w3.org/1999/xlink" x="0px" y="0px"
	 viewBox="0 0 25 25" enable-background="new 0 0 25 25" xml:space="preserve">
<g>
	<path fill="none" stroke="#ffffff" stroke-width="0.75" stroke-miterlimit="10" d="M12.5,5.8c0,0,0.3-0.4,0.5-0.6
		C13.3,5,13.7,5,14,5c0.5,0.1,0.9,0.4,1.1,0.8s0.3,0.9,0.1,1.4c-0.1,0.5-0.4,1-0.8,1.4c-0.5,0.6-1.1,1.2-1.7,1.6
		c-0.1,0.1-0.2,0.1-0.3,0c-0.6-0.4-1.2-1-1.7-1.6C10.3,8.2,10,7.8,9.8,7.3C9.7,6.8,9.7,6.3,9.9,5.9c0.2-0.4,0.6-0.8,1-0.9
		c0.3-0.1,0.7,0,1,0.2C12.2,5.4,12.5,5.8,12.5,5.8z"/>
	<path fill="none" stroke="#ffffff" stroke-width="0.75" stroke-miterlimit="10" d="M6.6,20c-0.3-0.1-3.7-3.6-3.8-3.7
		c0,0,0-0.1,0-0.1c0.1,0,0.1-0.1,0.2-0.1c0.4-0.3,0.9-0.7,1.3-1c0.5-0.4,1-0.8,1.6-1.1c0.7-0.4,1.5-0.6,2.3-0.7c1-0.2,2-0.1,3-0.1
		c1.1,0,2.2,0.1,3.3,0.1c0.3,0,0.7-0.1,1,0.1c0.1,0.1,0.2,0.2,0.2,0.4c0,0.2-0.1,0.3-0.2,0.4c-0.4,0.3-1.1,0.1-1.6,0.1
		c-0.6,0-1.2,0-1.7,0c-0.4,0-0.8,0.2-0.9,0.7c0,0.2,0,0.4,0.1,0.6c0.1,0.1,0.2,0.2,0.3,0.3c0,0,0.1,0.1,0.2,0.1c0.2,0,0.5,0,0.7,0
		c0.3,0,0.5,0,0.8,0c0.5,0,1,0,1.4,0c0.4,0,0.9,0.1,1.2-0.1c0.4-0.2,0.7-0.5,1-0.8c0.8-0.7,1.7-1.4,2.5-2.1c0.6-0.5,1.4-1.2,2.2-1.1
		c0.2,0,0.3,0.1,0.4,0.2c0.2,0.3-0.1,0.6-0.3,0.8c-0.2,0.2-0.4,0.5-0.6,0.7c-0.4,0.5-0.9,1-1.3,1.5c-0.7,0.9-1.5,1.7-2.3,2.6
		c-0.4,0.4-0.7,0.7-1.2,0.9c-0.6,0.2-1.2,0.3-1.9,0.3c-0.7,0-1.4,0-2.2,0c-1.4,0-2.9,0-4.3,0c-0.1,0-0.2,0.1-0.3,0.1
		c-0.2,0.2-0.4,0.4-0.6,0.5C6.9,19.6,6.8,19.8,6.6,20C6.6,20,6.6,20,6.6,20z"/>
</g>
</svg>
