<?xml version="1.0" encoding="utf-8"?>
<!-- Generator: Adobe Illustrator 18.0.0, SVG Export Plug-In . SVG Version: 6.00 Build 0)  -->
<!DOCTYPE svg PUBLIC "-//W3C//DTD SVG 1.1//EN" "http://www.w3.org/Graphics/SVG/1.1/DTD/svg11.dtd">
<svg version="1.1" xmlns="http://www.w3.org/2000/svg" xmlns:xlink="http://www.w3.org/1999/xlink" x="0px" y="0px"
	 viewBox="50 50 150 150" enable-background="new 50 50 150 150" xml:space="preserve">
<g id="图层_2" display="none">
	
		<circle display="inline" fill="none" stroke="#2D2B2A" stroke-width="4" stroke-linecap="round" stroke-linejoin="round" stroke-miterlimit="10" cx="125" cy="145.5" r="38.8"/>
	
		<circle display="inline" fill="none" stroke="#2D2B2A" stroke-width="4" stroke-linecap="round" stroke-linejoin="round" stroke-miterlimit="10" cx="125" cy="145.5" r="47.8"/>
	<g display="inline">
		
			<polygon fill="none" stroke="#2D2B2A" stroke-width="4" stroke-linecap="round" stroke-linejoin="round" stroke-miterlimit="10" points="
			100.1,82.2 109.9,67.3 141.2,67.3 149.9,82.2 125.3,110.6 		"/>
		
			<polyline fill="none" stroke="#2D2B2A" stroke-width="4" stroke-linecap="round" stroke-linejoin="round" stroke-miterlimit="10" points="
			109.9,67.3 114.5,82.5 125.3,109.7 135.1,82.3 		"/>
		
			<polyline fill="none" stroke="#2D2B2A" stroke-width="4" stroke-linecap="round" stroke-linejoin="round" stroke-miterlimit="10" points="
			114.5,82.5 125,67.8 135.1,82.3 141.2,67.3 		"/>
		
			<line fill="none" stroke="#2D2B2A" stroke-width="4" stroke-linecap="round" stroke-linejoin="round" stroke-miterlimit="10" x1="100.1" y1="82.2" x2="149.9" y2="82.2"/>
	</g>
	
		<circle display="inline" fill="none" stroke="#2D2B2A" stroke-width="0.75" stroke-linecap="round" stroke-linejoin="round" stroke-miterlimit="10" cx="125" cy="145.5" r="47.8"/>
</g>
<g id="图层_2_x5F_复制">
	
		<circle fill="none" stroke="#FFFFFF" stroke-width="4.5" stroke-linecap="round" stroke-linejoin="round" stroke-miterlimit="10" cx="125.8" cy="133.4" r="29.5"/>
	
		<circle fill="none" stroke="#FFFFFF" stroke-width="4.5" stroke-linecap="round" stroke-linejoin="round" stroke-miterlimit="10" cx="125.8" cy="133.4" r="37.7"/>
	<path fill="#FFFFFF" d="M130.6,79.6c0,0,0,0.1,0,0.1c0,0.1-0.1,0.2-0.1,0.3c0,0,0,0,0,0c0,0.1,0,0.2,0,0.3c0,0,0,0.1,0,0.1
		c0,0.1,0,0.1,0,0.2l3.7,16.1c1.5,0.3,2.9,0.8,4.3,1.3l-3.2-13.9l4.9,2.7l-1.4,11.4c1.3,0.5,2.5,1,3.8,1.6l1.4-11l9.3,5.1l-8.1,7.3
		c1.2,0.7,2.3,1.5,3.4,2.3l8.4-7.5l5.3,2.9l-13.3,5c1.2,0.9,2.3,1.9,3.4,3l15.4-5.7c0,0,0.1,0,0.1-0.1c0,0,0.1,0,0.1-0.1
		c0.1-0.1,0.2-0.1,0.3-0.2c0,0,0,0,0,0c0.1-0.1,0.2-0.1,0.2-0.2c0,0,0-0.1,0.1-0.1c0.1-0.1,0.1-0.1,0.1-0.2c0,0,0,0,0-0.1
		c0,0,0,0,0,0c0-0.1,0.1-0.2,0.1-0.3c0,0,0,0,0-0.1c0-0.1,0.1-0.2,0.1-0.3c0,0,0-0.1,0-0.1c0-0.1,0-0.1,0-0.2l-0.4-13.7c0,0,0,0,0,0
		c0-0.2,0-0.3-0.1-0.5c0,0,0,0,0,0c0-0.1-0.1-0.3-0.2-0.4c0,0-0.1-0.1-0.1-0.1c0,0-0.1-0.1-0.1-0.1c0,0-0.1-0.1-0.1-0.1
		c0,0-0.1-0.1-0.1-0.1c-0.1-0.1-0.2-0.2-0.3-0.2c0,0,0,0,0,0l-21.7-11.8c0,0,0,0-0.1,0c-0.1,0-0.2-0.1-0.3-0.1c0,0-0.1,0-0.1,0
		c0,0,0,0-0.1,0c-0.1,0-0.2,0-0.4,0c0,0,0,0,0,0c-0.2,0-0.3,0-0.4,0.1c0,0-0.1,0-0.1,0c-0.1,0-0.2,0.1-0.3,0.1c0,0,0,0-0.1,0
		l-12.4,6.6c0,0,0,0,0,0l0,0c-0.1,0.1-0.2,0.1-0.3,0.2c0,0,0,0-0.1,0.1c-0.1,0.1-0.1,0.1-0.2,0.2c0,0-0.1,0.1-0.1,0.1
		c-0.1,0.1-0.1,0.1-0.1,0.2c0,0,0,0,0,0.1c0,0,0,0,0,0.1C130.6,79.4,130.6,79.5,130.6,79.6z M164.7,89.4l0.2,6.2l-4.7-2.6
		L164.7,89.4z M163,85.7l-4.8,3.9l-0.8-7L163,85.7z M154.2,89.9l-7.4-4l6.6-3.2L154.2,89.9z M151.3,79.3l-6.2,3l1.2-5.8L151.3,79.3z
		 M142.1,77.3l-1.1,5.4l-4.4-2.4L142.1,77.3z"/>
</g>
</svg>
