<?xml version="1.0" encoding="utf-8"?>
<!-- Generator: Adobe Illustrator 21.0.0, SVG Export Plug-In . SVG Version: 6.00 Build 0)  -->
<svg version="1.1" id="图层_2" xmlns="http://www.w3.org/2000/svg" xmlns:xlink="http://www.w3.org/1999/xlink" x="0px" y="0px"
	 width="25px" height="25px" viewBox="0 0 25 25" style="enable-background:new 0 0 25 25;" xml:space="preserve">
<style type="text/css">
	.st0{fill:#FFFFFF;}
	.st1{fill:none;stroke:#FFFFFF;stroke-width:0.75;stroke-linecap:round;stroke-linejoin:round;stroke-miterlimit:10;}
</style>
<g>
	<path class="st0" d="M19.8,7.7c0.1,0.4,0.1,0.8,0.3,1.2c0.3,0.7,0.7,1.1,1.4,1.2c0.2,0,0.4,0,0.6,0c0.1,0,0.2,0,0.2,0.1
		c0,0.1-0.1,0.1-0.2,0.1c-0.3,0-0.5,0-0.8,0c-0.9,0.2-1.3,0.9-1.4,1.7c0,0.2-0.1,0.4-0.1,0.6c-0.1-0.2-0.1-0.4-0.1-0.7
		c-0.1-0.8-0.6-1.5-1.5-1.6c-0.3,0-0.4,0-0.7,0c-0.1,0-0.2,0-0.2-0.1c0-0.1,0.1-0.1,0.2-0.1c0.2,0,0.4,0,0.5,0
		c0.8-0.1,1.3-0.5,1.6-1.3C19.8,8.3,19.8,8,19.8,7.7z"/>
</g>
<g>
	<path class="st0" d="M15.5,3.7c0.1,0.4,0.1,0.8,0.3,1.2C16,5.7,16.5,6,17.2,6.1c0.2,0,0.4,0,0.6,0c0.1,0,0.2,0,0.2,0.1
		s-0.1,0.1-0.2,0.1c-0.3,0-0.5,0-0.8,0c-0.9,0.2-1.3,0.9-1.4,1.7c0,0.2-0.1,0.4-0.1,0.6c-0.1-0.2-0.1-0.4-0.1-0.7
		c-0.1-0.8-0.6-1.5-1.5-1.6c-0.3,0-0.4,0-0.7,0c-0.1,0-0.2,0-0.2-0.1s0.1-0.1,0.2-0.1c0.2,0,0.4,0,0.5,0c0.8-0.1,1.3-0.5,1.6-1.3
		C15.4,4.4,15.4,4.1,15.5,3.7z"/>
</g>
<g>
	<path class="st0" d="M17.5,3.7c1.1,0.1,1.3-0.5,1.4-1.4c0.1,0.9,0.4,1.5,1.5,1.4c-1.1,0-1.4,0.5-1.4,1.5c-0.1-0.4-0.1-0.8-0.4-1.1
		C18.3,3.8,17.8,3.8,17.5,3.7z"/>
</g>
<g>
	<polygon class="st1" points="2.8,13.9 5.8,9.2 15.5,9.2 18.3,13.9 10.6,22.7 	"/>
	<polyline class="st1" points="5.8,9.2 7.3,13.9 10.6,22.4 13.7,13.9 	"/>
	<polyline class="st1" points="7.3,13.9 10.5,9.4 13.7,13.9 15.5,9.2 	"/>
	<line class="st1" x1="2.8" y1="13.9" x2="18.3" y2="13.9"/>
</g>
</svg>
