<?xml version="1.0" encoding="utf-8"?>
<!-- Generator: Adobe Illustrator 18.0.0, SVG Export Plug-In . SVG Version: 6.00 Build 0)  -->
<!DOCTYPE svg PUBLIC "-//W3C//DTD SVG 1.1//EN" "http://www.w3.org/Graphics/SVG/1.1/DTD/svg11.dtd">
<svg version="1.1" id="图层_3" xmlns="http://www.w3.org/2000/svg" xmlns:xlink="http://www.w3.org/1999/xlink" x="0px" y="0px"
	 viewBox="0 0 25 25" enable-background="new 0 0 25 25" xml:space="preserve">
<g>
	<path fill="none" stroke="#FFFFFF" stroke-width="0.75" stroke-miterlimit="10" d="M15.8,19c-0.2,0-0.4-0.1-0.5-0.1
		c-0.3-0.1-0.7-0.3-1-0.4c-0.1,0-0.2,0-0.3,0.1c-0.3,0.4-0.6,0.7-0.9,1.1c-0.3,0.3-0.9,0.3-1.1,0c-0.3-0.3-0.5-0.6-0.8-1
		c0,0-0.1-0.1-0.1-0.1c-0.1-0.1-0.2-0.1-0.3-0.1c-0.4,0.2-0.8,0.3-1.3,0.5c-0.5,0.2-1-0.2-1-0.6c0-0.4-0.1-0.8-0.2-1.2
		c0-0.2-0.2-0.3-0.5-0.3c-0.4-0.1-0.8-0.1-1.2-0.2C6.1,16.5,5.9,16,6,15.6c0.1-0.4,0.3-0.9,0.5-1.3c0.1-0.2,0-0.2-0.1-0.4
		c-0.3-0.3-0.6-0.5-0.9-0.8c-0.1-0.1-0.2-0.2-0.3-0.3c-0.2-0.3,0-0.7,0.2-0.9c0.3-0.2,0.5-0.4,0.8-0.7c0.1-0.1,0.2-0.1,0.2-0.2
		c0.1-0.1,0.1-0.2,0.1-0.3c-0.1-0.4-0.3-0.8-0.4-1.2c-0.2-0.5,0-0.8,0.3-1c0.2-0.1,0.4-0.1,0.6-0.1c0.3-0.1,0.7-0.1,1-0.2
		c0.1,0,0.2-0.1,0.2-0.2c0.1-0.4,0.2-0.9,0.2-1.3C8.5,6.2,8.7,6,9.1,6c0.1,0,0.3,0,0.4,0.1c0.4,0.1,0.8,0.3,1.2,0.4
		c0.1,0,0.2,0,0.3-0.1c0.3-0.4,0.6-0.7,0.9-1.1c0.3-0.4,0.9-0.3,1.2,0c0.3,0.4,0.6,0.7,0.9,1c0.1,0.1,0.2,0.1,0.3,0.1
		c0.4-0.2,0.9-0.3,1.3-0.5c0.5-0.2,1,0.1,1,0.7c0.1,0.4,0.1,0.8,0.2,1.3c0,0.2,0.2,0.2,0.3,0.3c0.4,0.1,0.9,0.1,1.3,0.2
		c0.5,0.1,0.6,0.5,0.5,0.9c-0.1,0.4-0.3,0.9-0.5,1.3c-0.1,0.2,0,0.3,0.1,0.4c0.3,0.3,0.6,0.5,0.9,0.8c0.2,0.1,0.3,0.3,0.3,0.5
		c0,0.3,0,0.6-0.3,0.8c-0.3,0.2-0.6,0.5-0.9,0.8c0,0-0.1,0.1-0.1,0.1c-0.1,0.1-0.1,0.2-0.1,0.4c0.2,0.4,0.3,0.9,0.5,1.3
		c0.2,0.5-0.2,0.9-0.7,1c-0.4,0.1-0.8,0.1-1.3,0.2c-0.1,0-0.2,0.2-0.3,0.3c-0.1,0.4-0.1,0.9-0.2,1.3C16.5,18.8,16.2,19,15.8,19z"/>
	<path fill="none" stroke="#FFFFFF" stroke-width="0.75" stroke-miterlimit="10" d="M8.5,12.5c0.1-2.3,1.7-4,4-4c2.3,0,4,1.7,4,4
		c0,2.3-1.7,4-4,4C10.2,16.5,8.5,14.8,8.5,12.5z"/>
	<path fill="none" stroke="#FFFFFF" stroke-width="0.75" stroke-linecap="round" stroke-miterlimit="10" d="M12.1,13.4l-1-1
		 M12.1,13.4l1.9-1.9"/>
</g>
</svg>
