<?xml version="1.0" encoding="utf-8"?>
<!-- Generator: Adobe Illustrator 18.0.0, SVG Export Plug-In . SVG Version: 6.00 Build 0)  -->
<!DOCTYPE svg PUBLIC "-//W3C//DTD SVG 1.1//EN" "http://www.w3.org/Graphics/SVG/1.1/DTD/svg11.dtd">
<svg version="1.1" id="图层_1" xmlns="http://www.w3.org/2000/svg" xmlns:xlink="http://www.w3.org/1999/xlink" x="0px" y="0px"
	 viewBox="0 0 500 500" enable-background="new 0 0 500 500" xml:space="preserve">
<g>
	<path fill="#3D9F8E" d="M234.8,391.4c-1.1-0.4-3.9-1.5-6.2-2.4c-10.1-3.8-23.9-11.3-36.5-19.5c-31.3-20.6-54.9-46.9-68-75.7
		c-2.8-6.2-7.5-19.6-7.5-20.3c0-0.7,0.1-0.9,0.1-0.9l3.9,0c6.8,0.1,14,1.6,21.9,4.7c13.7,5.5,26.1,14.1,39.6,27.7
		c14.3,14.3,28.2,33.7,40.1,55.6c3.7,6.8,13.5,26.7,14.1,28.8c0.4,1.2,0.8,2.3,1,2.5C237.7,392.4,237,392.3,234.8,391.4z"/>
	<path fill="#3D9F8E" d="M266.3,391.4c1.1-0.4,3.8-1.5,6.2-2.4c10-3.8,23.7-11.3,36.1-19.5c31-20.6,54.4-46.9,67.3-75.7
		c2.8-6.2,7.4-19.6,7.4-20.3c0-0.7-0.1-0.9-0.1-0.9l-3.8,0c-6.8,0.1-13.9,1.6-21.7,4.7c-13.6,5.5-25.8,14.1-39.2,27.7
		c-14.1,14.3-28,33.7-39.7,55.6c-3.7,6.8-13.3,26.7-14,28.8c-0.4,1.2-0.8,2.3-1,2.5C263.5,392.4,264.1,392.3,266.3,391.4z"/>
	<g>
		<path fill="#3D9F8E" d="M249.8,333c-0.1-0.3-1-2.9-2.1-5.7c-7-19.6-15.4-35.2-26.4-49.9c-13.6-18-29.3-31.7-47.4-41.2
			c-1.5-0.8-3.1-1.8-3.5-2.2l-0.8-0.8l1.4-0.9c0.8-0.5,3-1.7,4.8-2.8c10.8-5.9,22.9-15.4,32-25.2c16.7-18,30.5-40.4,39.8-64.7
			c0.9-2.4,2-4.7,2.3-5.2c0.5-0.7,0.7-0.7,1-0.4c0.3,0.2,2.2,4.6,4.4,9.6c4.9,11.5,7.1,16.3,10.1,21.9
			c15.4,28.7,36.5,51.2,60.2,64.5c4.1,2.3,5.1,3,4.8,3.6c-0.1,0.2-2.7,1.9-5.8,3.6c-12.5,7.1-22.1,14.5-31.6,24.2
			c-17.5,18-30.9,40.3-40.1,66.4C251.2,333.1,250.4,334.4,249.8,333z"/>
	</g>
</g>
<g>
	<g>
		<path fill="none" stroke="#3E9F8E" stroke-width="18" stroke-linecap="round" stroke-linejoin="round" stroke-miterlimit="10" d="
			M261,68C52.7,68,52.7,269.2,52.7,269.2"/>
		
			<polyline fill="none" stroke="#3E9F8E" stroke-width="18" stroke-linecap="round" stroke-linejoin="round" stroke-miterlimit="10" points="
			215.3,21.6 261,68 214.6,114.4 		"/>
	</g>
	<g>
		<path fill="none" stroke="#3E9F8E" stroke-width="18" stroke-linecap="round" stroke-linejoin="round" stroke-miterlimit="10" d="
			M75.3,360.5c104.1,180.4,278.4,79.7,278.4,79.7"/>
		
			<polyline fill="none" stroke="#3E9F8E" stroke-width="18" stroke-linecap="round" stroke-linejoin="round" stroke-miterlimit="10" points="
			57.9,423.3 75.3,360.5 138.7,377.5 		"/>
	</g>
	<g>
		<path fill="none" stroke="#3E9F8E" stroke-width="18" stroke-linecap="round" stroke-linejoin="round" stroke-miterlimit="10" d="
			M417.9,375.9c104.1-180.4-70.1-281-70.1-281"/>
		
			<polyline fill="none" stroke="#3E9F8E" stroke-width="18" stroke-linecap="round" stroke-linejoin="round" stroke-miterlimit="10" points="
			481,359.6 417.9,375.9 401,312.5 		"/>
	</g>
</g>
</svg>
