<svg width="80" height="80" viewBox="0 0 80 80" fill="none" xmlns="http://www.w3.org/2000/svg">
<path d="M71.8 24C71.8 26.1 73.1 27.8 73.6 29.8C75.5 37 71.4 45.7 66.5 49C65.4 49.8 65.1 51.1 64.1 51.9C61.9 54 60.4 54.1 58.3 52.1C54.8 48.6 51.2 44.9 47.7 41.4M39.7 19.4C35.2 15.1 29.8 13.5 23.7 13.8C16.3 14.1 7.80002 22 6.50002 29.4C5.20002 36.6 7.10002 42.7 12.1 47.8C12.3 48 12.9 48.1 12.9 48.3C13.1 51.7 15.3 52.8 18.4 52.8L23.5 47.7C23.2 46.9 23 45.8 22.5 45C21.2 42.8 18.8 42.4 16.7 43.9C15.1 45 14.3 46.6 12.9 47.8L39.7 19.4Z" stroke="white" stroke-width="2.2" stroke-miterlimit="10" stroke-linecap="round" stroke-linejoin="round"/>
<path d="M23.7 47.8C25.3 48.4 27.2 48.6 28 50.4C28.6 51.8 29.1 53.4 27.5 54.7L25.6 56.6C24.3 57.6 23.2 58.5 24 60.5C24.8 62.4 25.9 63.7 28.2 63.5C28.5 63.5 28.7 63.7 29 63.8M63.5 16C55.2 12 47.3 13.3 40.4 19C36.9 22 33.7 25.7 30.5 29.1C28.7 31 29.1 33.4 30.8 35.2C32.7 37.1 35.5 37.3 37.1 35.2C39.7 31.8 42.9 30.9 46.9 31.4C49.5 31.7 51.2 30 53 28.4C54.1 27.4 54.8 25.8 56.5 26.2L63.5 16ZM49.3 31.7C52.7 36.4 57.2 39.7 60.8 43.9C62.4 45.5 64 47.1 65.1 49.2L49.3 31.7ZM42.1 47C46 51.3 50 55.5 54.3 60.2C54.3 62.4 52.5 64.4 48.7 64.4C46 61.7 43.1 58.6 40 55.7L42.1 47ZM29 64.1C29.3 65.2 29.3 66.3 30.1 67.5C31.4 69.1 33.5 69.7 35.1 68.6C36.5 67.5 38.5 66.7 38.9 64.7C40 61.3 38.6 59.7 34.2 58.9C32.4 60.3 30.7 61.9 29.2 63.9L29 64.1ZM49 64.6C48 65.7 48.8 67.5 47.4 68.4C45.8 69.5 44.4 70 42.7 68.6C41.4 67.5 40.3 66.4 39.2 65.2L49 64.6Z" stroke="white" stroke-width="2.2" stroke-miterlimit="10" stroke-linecap="round" stroke-linejoin="round"/>
<path d="M59.9 53.9C59.3 57.1 59.3 58.2 54.9 58.9M18.4 53.4C19.2 57.7 18.9 57.6 23.7 58.4L18.4 53.4ZM29 53.4C32.5 53.4 33.7 55.8 34.3 58.7L29 53.4Z" stroke="white" stroke-width="2.2" stroke-miterlimit="10" stroke-linecap="round" stroke-linejoin="round"/>
</svg>
