<svg width="80" height="80" viewBox="0 0 80 80" fill="none" xmlns="http://www.w3.org/2000/svg">
<path d="M66.2 25.4C68.9 29.9 71.3 34.4 73.8 38.9C75.1 41.6 74.6 44.2 73 46.7C69.7 51.8 66.4 57 63.2 62.1C61.7 64.6 59.7 65.6 56.9 65.6H50.4V73.1C50.2 73.1 50.2 73.1 50.1 73.3C49.9 73 49.6 72.8 49.4 72.5L41.4 58.5C41.1 58 41.1 57.2 41.2 56.7C44 51.4 46.8 46.1 49.7 40.9C49.9 40.7 49.9 40.6 50.2 40.2V49H59.3C56.5 44.2 53.8 39.2 50.8 34.2C56 31.2 61 28.4 66.2 25.4ZM49 64.1H57.1C59.3 64.1 60.8 63.4 61.9 61.6C64.1 58.1 66.2 54.8 68.4 51.3L68.9 50.3H48.7V45.5C46.5 49.5 44.5 53 42.7 56.5C42.5 57 42.5 57.7 42.9 58.2C44.2 60.7 45.7 63.3 47.2 65.8C47.7 66.6 48 67.3 48.5 68.1C48.7 68.1 48.7 68.1 48.8 67.9C49 66.7 49 65.4 49 64.1ZM65.7 27.2L52.7 34.7C54.7 38 56.5 41.3 58.3 44.5C59.1 46 59.8 48 61 48.8C62.3 49.5 64.3 49 66.1 49C71.1 49 74.6 43.5 72.2 39C70.3 35.2 68 31.4 65.7 27.2ZM38.1 65.9H22.3C21.8 65.9 21.3 65.7 20.8 65.4C19 64.7 17.5 63.4 16.5 61.7C13.5 56.1 10.5 50.4 7.69999 44.8C6.49999 42.5 6.39999 40.3 7.89999 38.2C9.09999 36.4 10.2 34.4 11.4 32.4C9.19999 31.1 7.19999 29.9 4.79999 28.4C5.49999 28.2 5.79999 28.2 6.09999 28.2H21.9C22.6 28.2 23.4 28.5 23.7 29C27 34.1 30.2 39.3 33.2 44.8C30.7 43.3 28.4 41.8 25.7 40.3C24.2 43 22.7 45.4 21 48.3H37.8C38.1 54.3 38.1 59.9 38.1 65.9ZM15.2 56.1C16.9 53.1 18.5 50.3 20.2 47.3C21.9 44.3 23.5 41.5 25.3 38.5C26.6 39.3 28 40 29.3 40.8C29.1 40.5 29.1 40.3 29.1 40.1C27.1 36.8 24.9 33.5 23 30.1C22.7 29.8 22 29.4 21.5 29.4H11.2C10.9 29.4 10.5 29.4 9.89999 29.6C11.2 30.4 12.4 31.1 13.4 31.8C11.9 34.3 10.4 36.6 9.09999 39.1C8.59999 40.3 8.09999 42.1 8.59999 43.1C10.5 47.6 13 51.8 15.2 56.1ZM36.8 50C36.5 50 36.3 49.8 36.1 49.8C32.6 49.8 29 50.1 25.5 49.6C21.5 49.1 19.4 50.6 17.7 54.1C15.9 58.1 17.5 62.9 21.7 64.2C22 64.4 22.4 64.5 22.7 64.5H36.8C36.8 64.6 36.8 50 36.8 50ZM38.3 28.4C40.8 26.9 43.3 25.6 45.8 24.1C44.3 21.4 42.6 18.8 41.1 16.1C38.3 21.2 35.6 26.1 32.8 31L17.4 22.5C18.2 20.8 19.2 19.3 20.1 17.8L24.6 9.8C26.3 7 28.8 5.5 32.1 5.6C38.1 6 44.2 6.1 50.2 6.1C53.2 6.1 55.3 7.1 56.7 9.9C57.7 11.7 58.9 13.6 59.9 15.4C62.1 14.1 64.2 12.9 66.2 11.7C66.4 11.7 66.4 11.9 66.5 11.9L65.5 13.9C63.2 18.2 60.7 22.5 58.4 26.7C58.1 27.2 57.6 27.7 57.1 27.7C51.3 28 45.3 28.4 39.5 28.7H38.7C38.3 28.5 38.3 28.4 38.3 28.4ZM37.3 7.3C40.8 12.9 44.3 18.8 47.8 24.4C46.3 25.2 45.1 26.1 43.8 26.7C48 26.7 52.1 26.5 56.3 26.4C56.6 26.4 57.1 25.9 57.5 25.6C58.8 23.4 60 21.3 61.2 19.1C61.9 17.9 62.5 16.8 63.4 15.1C61.9 15.9 60.7 16.6 59.6 17.3C58.1 15 56.8 12.6 55.4 10.3C54.4 8.6 53.1 7.6 51.1 7.5C46.2 7.3 41.7 7.3 37.3 7.3ZM19 21.9C23.5 24.4 27.6 26.7 32.1 29C33.9 25.7 35.8 22.4 37.6 19.2C38.4 17.5 39.9 15.9 39.9 14.4C39.7 12.7 38.1 11.2 37.2 9.7C35.2 6.2 28.4 5.4 25.7 9.9C23.5 13.9 21.3 17.7 19 21.9Z" fill="white" stroke="white" stroke-width="0.8" stroke-miterlimit="10"/>
</svg>
