<svg width="170.64" height="23.74" viewBox="0 0 600 82" fill="none" xmlns="http://www.w3.org/2000/svg">
    <path fill-rule="evenodd" clip-rule="evenodd" d="M600 37.3C600 32.9 598.2 28.7 595 25.5C589.6 20.1 581 17 571.4 17C562 17 555.1 20 550.5 24.5C546.5 19.8 540.5 16.9 533.2 16.9C529.3 16.9 524.4 17.7 519.5 20.6C516.6 18.7 513 17.6 509 17.6C505 17.6 501.8 18.4 499.4 19.8C496.5 18.3 493 17.6 490.2 17.6C485.5 17.6 481.8 18.7 478.9 20.3C475.1 18.1 470.7 16.9 466 16.9C458.1 16.9 450.8 20.2 445.1 25.6C440.7 20.5 433.5 16.9 422.9 16.9C415.2 16.9 408.3 19 402.6 22.7C400.7 13.5 392.7 5 374.7 5H357C349.2 5 343 8.4 339.5 14.4L337.3 11.5C333.4 6.3 325.8 5.9 323.6 5.9C313.8 5.9 307.2 10.2 303.7 18.7C301.9 19.2 300.1 20.2 298.3 21.7C294.5 18.7 289.6 16.9 284 16.9C280.1 16.9 275.2 17.7 270.3 20.6C267.4 18.7 263.8 17.6 259.7 17.6C254.4 17.6 250.5 19.1 248 21.7C243.6 18.8 237.8 16.9 230.2 16.9C224.8 16.9 219.7 18 215.2 19.9V19.7C216.6 12.9 214.4 8.5 212.4 5.9C210.2 3.2 206.1 0 198.6 0H197C190.7 0 182.6 2.7 179.8 15.6L179.4 17.6C177.2 17 174.9 16.7 172.5 16.7C166 16.7 160 18.9 155 22.8C152.7 20.2 148.7 17.4 141.6 17.4H139.9C135.7 17.4 130.7 18.6 127.1 23.1C124.9 20.5 120.8 17.4 113.4 17.4H111.7C108.7 17.4 105.4 18 102.4 20C102.138 19.8688 101.913 19.7185 101.686 19.5657C101.393 19.3692 101.094 19.1688 100.7 19L101.7 15.1L98.8 11.2C95 6.1 87.4 5.7 85.1 5.7C77.5 5.7 71.8 8.3 68 13.6L67.9999 13.5999C67.6999 13.1999 67.4 12.8 67.1 12.5C61.4 6.7 52.4 3.7 41 3.7C17.9 3.7 7.5 18.2 7.5 32.6C7.5 36.3 8.2 39.4 9.3 42.1C4.3 45.3 0 51.4 0 58.1C0 63.1 2 67.8 6.1 72.1C10.3 76.2 18.4 81 33.2 81C46 81 54.7 77.1 60.2 71.6C60.6 72.2 61 72.7 61.4 73.2C64.3 76.8 69.9 81 80.3 81C89 81 94.1 77.9 97 75.2C100.1 78.1 104.9 80.9 112.5 80.9C116.3 80.9 121 80.1 125.8 77.5C129 79.7 133.2 80.8 137.9 80.8C144 80.8 148.6 78.7 151.7 75.7C155.9 78.9 161.2 80.8 167.1 80.8C171.5 80.8 175.7 79.7 179.4 77.6C182.6 79.7 186.6 80.8 191.2 80.8C197.8 80.8 202.5 78.4 205.5 75.3C210.7 78.8 217.5 80.9 225.5 80.9C232.5 80.9 238.6 79.4 243.4 76.6C246.4 78.9 250.3 80.2 254.9 80.2H256.6C261 80.2 266.2 78.9 269.9 73.8C273 77.8 278.1 80.8 286.2 80.8C293.6 80.8 298.3 77.9 300.8 75.4L301.4 74.8C304.6 77.9 310 81 318.8 81C326.7 81 331.7 78.4 334.7 75.9C337.3 78 341.3 79.8 347.2 79.8H365.6C379.7 79.8 388.2 76.2 393.5 71.4C399 77.4 407.4 80.9 418.1 80.9C427.5 80.9 435.5 78.2 440.5 73.2C445 78 451.3 80.8 458.6 80.8C463.3 80.8 467.7 79.6 471.6 77.5C474.9 79.6 478.9 80.8 483.7 80.8C488.3 80.8 492 79.6 494.8 77.9C497.5 79.3 500.6 80.2 504.2 80.2H505.9C510.3 80.2 515.5 78.9 519.2 73.8C522.3 77.9 527.5 80.8 535.5 80.8C542 80.8 546.3 78.5 549 76.3C554.2 79.1 560.7 80.7 568.3 80.7C589.3 80.7 596.8 67.8 596.8 56.7C596.8 53.8 596.3 51.3 595.4 49.1C598 46.3 600 42.2 600 37.3ZM56.1 34.7C52.5 29.9 46.6 26.6 40.8 26.6C36.4 26.6 34.2 28.5 34.2 31C34.2 33.2565 36.9938 34.2557 41.0053 35.6906L41.0054 35.6906C41.7939 35.9726 42.6294 36.2715 43.5 36.6C50.8 39.3 58.4 43 58.4 52C58.4 63 50.7 71.5 33.2 71.5C23.3 71.5 16.6 68.9 12.9 65.3C10.8 63.2 9.7 60.8 9.7 58.3C9.7 53.1 15.5 49.6 16 50.1C19.6 54.6 26.6 58.4 33.1 58.4C37.5 58.4 39.5 56.8 39.5 53.8C39.5 51.6162 36.7531 50.6533 32.9255 49.3115C32.3713 49.1172 31.7945 48.915 31.2 48.7C24.7 46.2 17.3 42.4 17.3 32.8C17.3 22.9 24.3 13.6 41.1 13.6C50.4 13.6 56.8 16 60.3 19.5C62.1 21.4 63 23.5 63 25.9C63 31.7 56.6 35.2 56.1 34.7ZM97.6 38.4C96.5 39.4 95.3 40 91.9 40H86.1L83.2 53.9C82.4 57.5 83.8 59.1 86.3 59.1C88.1 59.1 89.9 58.2 91.1 57.2C91.4 56.9 93.5 58.5 93.5 61.6C93.5 64.1 92.6 66.1 90.8 67.8C88.6 70.1 85 71.3 80.3 71.3C69.4 71.3 64.9 65 67.1 54.7L70.2 40H69.3C65.7 40 63.6 38.2 63.6 35.5C63.6 34.1 64.2 30.8 65.8 29.1C66.9 28.1 68.1 27.5 71.5 27.5H73L73.3 26.2C74.8 18.7 78 15.4 85.3 15.4C88.9 15.4 91.5 16.8 91.3 17.4L89 27.6H93.8C97.7 27.6 99.8 29.4 99.8 32.1C99.8 33.4 99.2 36.8 97.6 38.4ZM148.8 35.1L143.8 58.5C142.7 63.6 143.5 65.5 146.5 66.5C146.7 66.6 145.3 71.1 137.9 71.1C131.2 71.1 128 67.8 127.7 62.7C124 67.9 119.1 71.2 112.5 71.2C102.4 71.2 98.1 63.7 100.6 51.7L104.1 35.1C105.4 29.1 107.5 27.2 111.7 27.2H113.4C117.8 27.2 121.8 29 120.5 35.1L117.2 50C116.1 54.6 117.7 57.8 121.8 57.8C124.6 57.8 126.4 56.6 128.2 54.1L132.3 35C133.5 29 135.6 27.1 139.9 27.1H141.6C146.1 27.2 150.2 29 148.8 35.1ZM191.1 71.1C184.3 71.1 181.3 67.6 181 62.4C178.3 67.5 173.4 71.1 167.1 71.1C157.8 71.1 150.9 64.4 150.9 53.2C150.9 39.6 159.3 26.5 172.5 26.5C177.8 26.5 183.1 28.8 186 33.4L189.4 17.5C190.7 11.6 192.8 9.6 197 9.6H198.7C203.1 9.6 207.1 11.4 205.8 17.5L197.1 58.4C195.9 63.5 196.8 65.4 199.8 66.4C199.9 66.6 198.6 71.1 191.1 71.1ZM225.7 60C230.7 60 234.7 57.4 237.1 54.3C237.2 54.2 243.6 55.1 243.6 60.1C243.6 63 242.7 64.5 240.9 66.3C238.1 69.1 232.9 71.2 225.4 71.2C210.3 71.2 203.5 63.2 203.5 52.5C203.5 37 215.4 26.5 230.3 26.5C242 26.5 248.1 31.8 248.1 39.8C248.1 48.5 242.5 53.9 223.7 53.9C221.6 53.9 219.3 53.9 216.8 53.7C217.5 57.9 220.5 60 225.7 60ZM296 65.3C296.2 65.3 294.6 71.1 286.2 71.1C279.1 71.1 276.1 67.8 276.1 62.7C276.1 60.2 276.7 57.7 278.1 52.7C279.1 49 279.7 46.3 279.7 44.9C279.7 41.7 278 39.8 274.7 39.8C271.9 39.8 270.1 41 268.3 43.5L264.2 62.5C263 68.5 260.9 70.5 256.7 70.5H255C250.5 70.5 246.5 68.6 247.9 62.5L255.1 28.2C255.2 27.9 257.2 27.2 259.9 27.2C264.1 27.2 268.2 29.4 268.7 35.3C272.4 30 277.3 26.6 284.1 26.6C292.3 26.6 297 32 297 39.9C297 42.9 296.1 46.7 294.6 52.2C293.5 56.2 292.6 59.6 292.6 61.3C292.6 63.7 293.7 64.8 296 65.3ZM336 38.4C334.9 39.4 333.7 40 330.3 40H324.5L321.6 53.9C320.8 57.5 322.2 59.1 324.7 59.1C326.5 59.1 328.3 58.2 329.5 57.2C329.8 56.9 331.9 58.5 331.9 61.6C331.9 64.1 331 66.1 329.2 67.8C327 70.1 323.4 71.3 318.7 71.3C307.8 71.3 303.3 65 305.5 54.7L308.6 40H307.7C304.1 40 302 38.2 302 35.5C302 34.1 302.6 30.8 304.2 29.1C305.3 28.1 306.5 27.5 309.9 27.5H311.4L311.6 26.2C313.1 18.7 316.3 15.4 323.6 15.4C327.2 15.4 329.8 16.8 329.6 17.4L327.4 27.5H332.2C336.1 27.5 338.2 29.3 338.2 32C338.2 33.4 337.7 36.8 336 38.4ZM391.4 52.5C391.4 63 384.7 70.1 365.6 70.1H347.2C340.3 70.1 337.2 66.7 338.8 59.2L346.5 23.1C347.7 17.1 351.4 14.6 357 14.6H374.8C386.9 14.6 393.4 18.9 393.4 27C393.4 34 390.2 38.8 381.5 41.1C388.1 42.8 391.4 47 391.4 52.5ZM416.4 53.9C414.3 53.9 412 53.9 409.6 53.7C410.1 57.8 413.1 60 418.3 60C423.3 60 427.3 57.4 429.7 54.3C429.8 54.2 436.2 55.1 436.2 60.1C436.2 63 435.3 64.5 433.5 66.3C430.8 69.1 425.5 71.2 418 71.2C402.9 71.2 396.1 63.2 396.1 52.5C396.1 37 408 26.5 422.9 26.5C434.6 26.5 440.7 31.8 440.7 39.8C440.8 48.6 435.2 53.9 416.4 53.9ZM489.6 58.5C488.5 63.6 489.3 65.5 492.3 66.5C492.4 66.6 491.1 71.1 483.6 71.1C476.7 71.1 473.7 67.5 473.4 62.3C470.5 67.5 465.2 71.1 458.6 71.1C449.5 71.1 443.2 64.5 443.2 54.1C443.2 40.1 452.5 26.5 466.1 26.5C471.5 26.5 476.7 29 479.1 34C481.3 29.2 484.8 27.2 490.3 27.2C493.5 27.2 496 28.6 496 29.2L489.6 58.5ZM545.1 65.3C545.3 65.3 543.7 71.1 535.3 71.1C528.2 71.1 525.2 67.8 525.2 62.7C525.2 60.2 525.8 57.7 527.2 52.7C528.2 49 528.8 46.3 528.8 44.9C528.8 41.7 527.1 39.8 523.8 39.8C521 39.8 519.2 41 517.4 43.5L513.3 62.5C512.1 68.5 510 70.5 505.7 70.5H504C499.5 70.5 495.5 68.6 496.9 62.5L504.1 28.2C504.2 27.9 506.2 27.2 508.9 27.2C513.1 27.2 517.2 29.4 517.7 35.3C521.4 30 526.3 26.6 533.1 26.6C541.3 26.6 546.1 32 546.1 39.9C546.1 42.9 545.3 46.7 543.7 52.2C542.6 56.2 541.7 59.6 541.7 61.3C541.8 63.7 542.9 64.8 545.1 65.3ZM584.9 44.6C582 40.9 577.4 37.8 572.6 37.8C569.8 37.8 568.5 38.9 568.5 40.3C568.5 41.6 570 42.3 574.3 44C581.1 46.7 587.1 49.6 587.1 56.9C587.1 65.4 580.7 71.1 568.3 71.1C559.6 71.1 553.5 68.7 550.3 65.5C548.8 63.9 547.6 62.1 547.6 60C547.6 55.5 552.1 52.9 552.4 53.3C555.6 56.8 561.2 60 566.1 60C568.8 60 570 59.1 570 57.6C570 56.3 568.5 55.6 565.4 54.4L565.35 54.3798C559.465 51.9859 553.3 49.4781 553.3 41.7C553.3 32.9 559.6 26.8 571.5 26.8C578.8 26.8 584.8 29 588.2 32.5C589.5 33.8 590.4 35.4 590.4 37.4C590.3 42.4 585.2 44.9 584.9 44.6ZM362.5 26.8H368.7C373.3 26.8 375.6 28.1 375.6 30.7001C375.6 34.9001 372.7 37 367.3 37H360.4L362.5 26.8ZM422.1 36.8C417.2 36.8 413.3 40.1 411.2 44.6C412.155 44.6682 413.063 44.6434 413.893 44.6207C414.28 44.6102 414.65 44.6 415 44.6C424.6 44.6 427.4 42.8 427.4 40.2001C427.5 38.6001 425.8 36.8 422.1 36.8ZM176.1 39.1C169.9 39.1 166.8 44.8 166.8 50.9C166.8 55.4 169.4 58.4 173.6 58.4C177.8 58.4 181.6 55.2 182.7 49.7L183.8 44.5C182.4 41.2 180.3 39.1 176.1 39.1ZM458.9 51.4C458.9 45.1 462.7 39.1 468.9 39.1C472.7 39.1 474.9 41.2 476.2 44.5L475.1 49.6C473.9 55 470 58.4 465.4 58.4C461.6 58.4 458.9 55.6 458.9 51.4ZM234.9 40.3C234.9 38.6 233.2 36.9 229.6 36.9C224.7 36.9 220.8 40.2 218.7 44.7C219.655 44.7682 220.563 44.7434 221.393 44.7207H221.393C221.78 44.7101 222.15 44.7 222.5 44.7C232.1 44.6 234.9 42.8 234.9 40.3ZM358.3 47H366.6C371.6 47 374.1 48.3 374.1 51.2C374.1 55.9 371.4 57.9 365 57.9H356L358.3 47Z" fill="black"/>
</svg>
