<?xml version="1.0" encoding="utf-8"?>
<!-- Generator: Adobe Illustrator 21.0.0, SVG Export Plug-In . SVG Version: 6.00 Build 0)  -->
<svg version="1.1" id="Layer_1" xmlns="http://www.w3.org/2000/svg" xmlns:xlink="http://www.w3.org/1999/xlink" x="0px" y="0px"
	 viewBox="0 0 100 100" style="enable-background:new 0 0 100 100;" xml:space="preserve">
<style type="text/css">
	.st0{fill:#3D9F8E;}
</style>
<g>
	<g>
		<g id="Group_2387">
			<path id="Path_104" class="st0" d="M19.6,16.2C20,11.7,18.9,7.1,23.1,4c2.7-1.5,5.7-2,8.7-1.5c3.1-0.2,6,1.7,7.1,4.7
				c0.8,2.9,1.3,5.8,1.5,8.8h19.7c0.2-4.4-0.5-9.1,3.8-12.2c2.6-1.4,5.6-1.8,8.5-1.4c3.1-0.2,6,1.7,7.1,4.7c0.7,2.9,1.2,6,1.3,9
				c1.9,0,3.9,0,5.9,0c3.6-0.4,6.9,2.3,7.3,5.9c0,0.4,0,0.9,0,1.3c0,22.3,0,44.7,0,67c0.4,3.7-2.3,7-6,7.4c-0.4,0-0.8,0-1.3,0
				c-24.5,0-48.9,0-73.4,0c-3.7,0.3-7-2.5-7.3-6.2c0-0.4,0-0.8,0-1.2c0-22.3,0-44.7,0-67c-0.4-3.6,2.2-6.9,5.8-7.3
				c0.5-0.1,1-0.1,1.5,0C15.4,16.2,17.3,16.2,19.6,16.2 M87.4,36.6H13v54.5h74.4V36.6z M33.2,18.8c0-2.3-0.1-4.6,0-6.9
				c0.2-2.7-1.5-2.6-3.3-2.5c-1.8,0-3.7-0.3-3.6,2.6c0.1,4,0,8,0,12c0,4.2,0.2,4.3,4.5,4.2c1.8,0,2.5-0.8,2.4-2.5
				C33.2,23.3,33.2,21,33.2,18.8 M67.1,18.7c0,2.2,0.1,4.4,0,6.6s0.8,3,2.9,2.8c0.6,0,1.1,0,1.7,0c1.1,0.2,2.1-0.5,2.3-1.6
				c0-0.2,0-0.4,0-0.6c0-4.8,0-9.6,0-14.5c0-1.4-0.7-2.1-2.1-2.1c-0.9,0-1.8,0-2.7,0c-1.6,0-2.2,0.7-2.1,2.3
				C67.2,14,67.1,16.4,67.1,18.7"/>
		</g>
	</g>
</g>
</svg>
